<svg width="729" height="415" viewBox="0 0 729 415" fill="none" xmlns="http://www.w3.org/2000/svg">
<g clip-path="url(#clip0)">
<path d="M525.386 374.748L525.432 382.939H524.412L521.736 373.931L525.386 374.748Z" fill="#2B455F"/>
<path d="M531.054 386.547C531.054 387.718 530.707 388.863 530.057 389.837C529.407 390.811 528.483 391.57 527.401 392.018C526.32 392.466 525.13 392.583 523.983 392.355C522.835 392.126 521.78 391.562 520.953 390.734C520.125 389.906 519.562 388.851 519.333 387.702C519.105 386.553 519.222 385.362 519.67 384.28C520.118 383.198 520.876 382.273 521.85 381.623C522.823 380.972 523.967 380.625 525.137 380.625C526.706 380.625 528.211 381.248 529.321 382.359C530.431 383.47 531.054 384.976 531.054 386.547Z" fill="#939FAA"/>
<path opacity="0.2" d="M222.134 414.932C247.665 414.932 268.361 413.581 268.361 411.914C268.361 410.248 247.665 408.896 222.134 408.896C196.604 408.896 175.907 410.248 175.907 411.914C175.907 413.581 196.604 414.932 222.134 414.932Z" fill="#005386"/>
<path opacity="0.2" d="M384.755 414.932C412.327 414.932 434.678 413.581 434.678 411.914C434.678 410.248 412.327 408.896 384.755 408.896C357.184 408.896 334.833 410.248 334.833 411.914C334.833 413.581 357.184 414.932 384.755 414.932Z" fill="#005386"/>
<path opacity="0.2" d="M540.758 389.202H65.8826C64.0921 389.202 62.6406 390.654 62.6406 392.446V392.514C62.6406 394.306 64.0921 395.759 65.8826 395.759H540.758C542.548 395.759 544 394.306 544 392.514V392.446C544 390.654 542.548 389.202 540.758 389.202Z" fill="#005386"/>
<path d="M141.605 382.939L141.559 374.748L112.994 368.327H105.943L77.082 374.748V377.993H77.1047L77.082 382.939H78.1022L79.6666 377.652L106.011 373.976H112.835L138.884 377.176L140.585 382.939H141.605Z" fill="#939FAA"/>
<path d="M82.9321 386.546C82.9321 387.721 82.5832 388.868 81.93 389.844C81.2767 390.819 80.3485 391.578 79.2633 392.024C78.1781 392.47 76.9849 392.583 75.8353 392.349C74.6856 392.115 73.6314 391.544 72.8067 390.709C71.9819 389.874 71.4238 388.813 71.2032 387.66C70.9826 386.506 71.1095 385.314 71.5678 384.233C72.0262 383.152 72.7952 382.232 73.7771 381.589C74.7591 380.947 75.9098 380.611 77.0829 380.624C78.6404 380.642 80.1281 381.274 81.2231 382.383C82.3182 383.492 82.9322 384.988 82.9321 386.546Z" fill="#939FAA"/>
<path d="M147.227 386.547C147.232 387.724 146.887 388.877 146.236 389.858C145.585 390.839 144.657 391.604 143.571 392.057C142.485 392.51 141.289 392.63 140.134 392.401C138.98 392.172 137.919 391.606 137.087 390.773C136.255 389.94 135.689 388.879 135.461 387.724C135.232 386.568 135.352 385.371 135.804 384.284C136.257 383.197 137.021 382.268 138.002 381.617C138.982 380.965 140.133 380.62 141.31 380.625C142.88 380.625 144.385 381.248 145.494 382.359C146.604 383.47 147.227 384.976 147.227 386.547Z" fill="#939FAA"/>
<path d="M525.387 377.516L496.662 373.976H489.838L460.909 377.993V374.748L489.77 368.327H496.843L525.387 374.748V377.516Z" fill="#939FAA"/>
<path d="M460.909 374.748L460.841 382.939H461.884L464.536 373.931L460.909 374.748Z" fill="#2B455F"/>
<path d="M466.758 386.547C466.758 387.718 466.411 388.863 465.761 389.837C465.111 390.811 464.187 391.57 463.105 392.018C462.024 392.466 460.835 392.583 459.687 392.355C458.539 392.126 457.485 391.562 456.657 390.734C455.829 389.906 455.266 388.851 455.038 387.702C454.809 386.553 454.926 385.362 455.374 384.28C455.822 383.198 456.581 382.273 457.554 381.623C458.527 380.972 459.671 380.625 460.841 380.625C462.41 380.625 463.915 381.248 465.025 382.359C466.135 383.47 466.758 384.976 466.758 386.547Z" fill="#939FAA"/>
<path d="M495.301 0H106.85V220.297H495.301V0Z" fill="white"/>
<path d="M177.471 220.297H106.85V196.563H168.312L177.471 206.048V220.297Z" fill="#F1F2F2"/>
<path d="M111.475 196.563H106.85V371.322H111.475V196.563Z" fill="#939FAA"/>
<path d="M495.302 196.563H490.677V370.777H495.302V196.563Z" fill="#939FAA"/>
<path d="M204.518 375.338L196.401 389.043L202.636 394.806L212.135 378.288L204.518 375.338Z" fill="#FAC0B3"/>
<path d="M189.805 397.823L207.715 406.899L218.076 409.168L218.507 408.352C218.725 407.926 218.802 407.442 218.729 406.969C218.656 406.497 218.435 406.059 218.099 405.719L209.824 404.766L202.251 394.261L205.675 388.248L199.508 384.368L194.974 391.016L190.984 395.554L189.805 397.823Z" fill="#FAC0B3"/>
<path d="M218.099 405.743L210.685 404.291H210.39L203.816 400.161L194.248 391.085L191.074 395.623L189.805 397.892L207.692 408.148L218.076 409.26L218.507 408.443C218.741 408.009 218.828 407.512 218.754 407.024C218.68 406.537 218.45 406.087 218.099 405.743Z" fill="#16242D"/>
<path d="M221.408 384.754L220.773 400.66L228.98 402.77L229.502 383.733L221.408 384.754Z" fill="#FAC0B3"/>
<path d="M223.041 98.9286C222.391 100.981 222.567 103.207 223.533 105.131C224.499 107.055 226.177 108.526 228.21 109.23C229.238 109.474 230.304 109.512 231.346 109.34C232.388 109.168 233.386 108.79 234.28 108.228C235.175 107.666 235.949 106.932 236.557 106.068C237.166 105.203 237.596 104.227 237.823 103.194C238.438 101.16 238.244 98.9659 237.281 97.0714C236.317 95.1769 234.66 93.7285 232.654 93.0292C231.635 92.7764 230.577 92.7289 229.54 92.8895C228.503 93.0501 227.508 93.4155 226.613 93.9645C225.719 94.5135 224.942 95.2352 224.329 96.0874C223.716 96.9396 223.278 97.9054 223.041 98.9286Z" fill="#132233"/>
<path d="M215.491 130.172L232.722 129.106C233.452 129.062 234.15 128.792 234.718 128.332C235.287 127.873 235.699 127.247 235.896 126.542L237.709 120.302L239.092 119.44L237.959 111.453L235.692 98.7241L213.678 100.108L215.491 130.172Z" fill="#FAC0B3"/>
<path d="M215.332 139.861L225.942 139.679L223.63 125.112L215.105 124.273L215.332 139.861Z" fill="#FAC0B3"/>
<path d="M219.504 411.188L249.567 411.914V411.37C249.554 410.893 249.391 410.433 249.102 410.054C248.813 409.676 248.413 409.397 247.957 409.259L235.782 406.015L228.527 402.498L228.686 395.691L221.431 395.169L220.638 403.156L219.255 408.987L219.504 411.188Z" fill="#FAC0B3"/>
<path d="M209.325 384.21L201.231 378.582L241.156 304.999L221.205 222.021L248.184 222.657L260.971 303.819C261.366 305.745 261.34 307.735 260.894 309.65C260.448 311.566 259.592 313.362 258.386 314.914L209.325 384.21Z" fill="#04698E"/>
<path d="M230.727 389.406H220.366L219.686 313.916L213.519 260.209L210.459 248.161C209.124 245.76 208.311 243.104 208.073 240.367C207.834 237.63 208.176 234.873 209.076 232.278L212.703 221.613L244.625 222.952L238.186 310.354L230.727 389.406Z" fill="#058CBD"/>
<path d="M247.957 225.811L212.136 222.181C211.945 222.164 211.762 222.1 211.602 221.994C211.443 221.888 211.314 221.743 211.225 221.573C211.137 221.404 211.093 221.214 211.098 221.023C211.102 220.831 211.155 220.644 211.252 220.479L213.519 203.325L212.431 174.917C207.896 164.117 204.541 141.245 212.431 138.023C213.292 137.66 214.108 134.733 215.038 134.643L225.761 136.276L227.303 137.955C234.104 155.744 246.664 154.269 246.12 174.1L249.385 218.187C249.544 225.176 248.818 225.902 247.957 225.811Z" fill="#57C5C7"/>
<path d="M295.385 194.975L284.39 193.455L281.488 191.867H282.122L285.319 191.39V189.643H281.397H278.722H276.251H272.306L239.931 188.963L225.739 147.281C225.047 145.304 223.599 143.683 221.714 142.775C219.828 141.866 217.659 141.745 215.684 142.437C213.709 143.129 212.089 144.578 211.181 146.465C210.274 148.352 210.152 150.523 210.844 152.5L228.301 196.065C229.05 197.571 230.22 198.828 231.668 199.681C233.117 200.535 234.783 200.95 236.462 200.875L266.729 195.406L272.192 194.658L282.032 198.288L295.635 197.358L295.385 194.975Z" fill="#FAC0B3"/>
<path d="M239.41 186.489L225.807 147.281C225.496 146.297 224.993 145.385 224.328 144.597C223.663 143.808 222.849 143.159 221.932 142.687C221.016 142.215 220.015 141.928 218.988 141.844C217.96 141.76 216.926 141.881 215.945 142.198C211.638 143.582 208.985 153.838 211.615 158.694L226.011 196.563C227.394 199.762 231.747 201.419 236.44 201.419L238.707 201.169C239.773 201.01 244.284 193.296 244.489 188.849C244.466 187.805 239.41 186.489 239.41 186.489Z" fill="#57C5C7"/>
<path d="M235.374 102.944C235.518 101.433 235.253 99.9112 234.606 98.538C233.96 97.1647 232.957 95.9907 231.702 95.1389L233.651 93.3463C214.403 84.5426 207.942 96.9767 206.627 105.009C206.106 107.925 205.402 110.804 204.519 113.631C202.562 114.586 200.889 116.037 199.668 117.841C198.447 119.644 197.719 121.737 197.559 123.91C197.459 125.178 197.543 126.455 197.808 127.699C194.589 129.605 192.185 135.572 191.8 139.861C191.188 146.668 200.234 152.363 206.468 153.044C211.479 153.588 215.945 148.029 217.804 143.219C221.84 143.582 221.069 140.814 221.477 136.412C221.581 135.214 221.433 134.007 221.043 132.87C220.652 131.733 220.028 130.69 219.21 129.809C219.591 128.926 219.879 128.006 220.071 127.064C220.931 125.828 221.455 124.389 221.59 122.889C221.624 122.496 221.624 122.101 221.59 121.709C223.029 120.56 224.042 118.963 224.47 117.171C228.188 116.944 228.097 114.63 228.482 110.364C228.482 110.228 231.724 109.275 231.724 109.161C232.764 108.47 233.633 107.551 234.265 106.474C234.898 105.397 235.277 104.19 235.374 102.944Z" fill="#132233"/>
<path d="M250.677 409.26L240.589 407.285H240.294L232.563 406.786L219.912 403.383L219.255 408.874V411.551L252.4 412.277V411.37C252.38 410.879 252.201 410.407 251.891 410.027C251.58 409.646 251.154 409.377 250.677 409.26Z" fill="#16242D"/>
<path opacity="0.4" d="M314.633 48.9876H337.668L332.476 25.2085L313.613 26.1388L314.633 48.9876Z" fill="#8BA4B7"/>
<path d="M333.813 48.9876H311.051V25.2085H332.475L333.813 48.9876Z" fill="#F68B3C"/>
<path d="M318.646 33.7856C317.674 33.7647 316.705 33.6814 315.744 33.536L315.88 32.515C317.652 32.9018 319.493 32.8315 321.231 32.3108L322.092 31.8796C322.718 31.5197 323.4 31.2667 324.11 31.1309C325.162 31.0404 326.209 31.3571 327.034 32.0158L326.422 32.8553C325.789 32.3297 324.974 32.0768 324.155 32.1519C323.572 32.2815 323.013 32.5037 322.5 32.8099L321.548 33.2637C320.622 33.6186 319.638 33.7957 318.646 33.7856Z" fill="white"/>
<path d="M320.347 38.0737C318.85 38.0737 317.354 38.0737 315.812 37.8922V36.8712C318.293 37.1094 320.791 37.1094 323.271 36.8712C324.38 36.7313 325.478 36.5191 326.559 36.2358L326.808 37.2569C325.687 37.5288 324.551 37.7409 323.407 37.8922C322.392 38.0134 321.37 38.0741 320.347 38.0737Z" fill="white"/>
<path d="M324.881 43.7688L323.249 43.6326C320.99 43.3824 318.719 43.2687 316.447 43.2923V42.2712C318.756 42.2391 321.066 42.3452 323.362 42.5889L324.994 42.7477L324.881 43.7688Z" fill="white"/>
<path opacity="0.4" d="M295.589 65.1885L291.758 89.5802H316.56L315.268 66.4137L295.589 65.1885Z" fill="#8BA4B7"/>
<path d="M320.278 91.282L296.858 90.3744L295.589 65.1885L318.283 66.5953L320.278 91.282Z" fill="#57C5C7"/>
<path d="M314.021 74.5137C312.27 74.0888 310.472 73.8905 308.671 73.9237C306.357 74.0279 304.045 73.6731 301.869 72.88L302.277 71.9497C304.322 72.6653 306.483 72.9887 308.648 72.9027C310.533 72.8695 312.414 73.0754 314.248 73.5153L314.021 74.5137Z" fill="white"/>
<path d="M311.868 78.9612C310.759 78.3226 309.533 77.9137 308.263 77.7587C307.583 77.7587 306.835 77.6452 306.177 77.6225L299.376 77.4864V76.4653L306.177 76.6015C306.935 76.601 307.692 76.6464 308.445 76.7376C309.847 76.9133 311.202 77.3603 312.435 78.0536L311.868 78.9612Z" fill="white"/>
<path d="M302.889 82.9092C301.914 82.9092 300.94 82.9092 299.987 82.773V81.752C301.912 81.9875 303.862 81.9263 305.768 81.5705L306.585 81.3436L307.242 81.162C308.677 80.7939 310.164 80.6712 311.64 80.799V81.82C310.286 81.7046 308.921 81.8197 307.605 82.1604L306.97 82.3419L306.109 82.5688C305.054 82.8164 303.972 82.9307 302.889 82.9092Z" fill="white"/>
<path opacity="0.4" d="M264.122 65.6875L266.638 89.0128H242.811L244.012 65.6875H264.122Z" fill="#8BA4B7"/>
<path d="M261.537 90.8507H240.135L242.697 65.6875H264.121L261.537 90.8507Z" fill="#F79C8C"/>
<path d="M255.823 74.0148C253.054 74.0185 250.296 73.6678 247.616 72.971L247.866 71.9727C251.452 72.9004 255.172 73.1998 258.861 72.8576V73.8786C257.909 73.9694 256.866 74.0148 255.823 74.0148Z" fill="white"/>
<path d="M246.052 78.4169H245.689V77.3958C247.027 77.3958 248.455 77.3958 249.816 77.2143C252.255 76.9077 254.722 76.9077 257.161 77.2143L256.957 78.2354C254.613 77.9027 252.237 77.8646 249.884 78.1219C248.637 78.3261 247.344 78.4169 246.052 78.4169Z" fill="white"/>
<path d="M250.881 83.2496C248.905 83.2532 246.93 83.1548 244.964 82.9546V81.9336C248.015 82.2287 251.084 82.2969 254.146 82.1378V83.1589C253.171 83.2269 252.037 83.2496 250.881 83.2496Z" fill="white"/>
<path d="M253.284 87.9467C252.105 87.9467 251.017 87.6517 249.77 87.4702C247.992 87.0787 246.171 86.9185 244.352 86.9937V85.9727C246.261 85.8802 248.174 86.0404 250.042 86.4492C251.167 86.6652 252.302 86.8243 253.443 86.9257L253.284 87.9467Z" fill="white"/>
<path opacity="0.4" d="M366.143 65.6875L368.682 89.0128H344.832L346.034 65.6875H366.143Z" fill="#8BA4B7"/>
<path d="M363.581 90.8507H342.156L344.718 65.6875H366.143L363.581 90.8507Z" fill="#058CBD"/>
<path d="M357.845 74.0148C355.083 74.0201 352.332 73.6693 349.66 72.971L349.91 71.9727C353.496 72.9004 357.216 73.1998 360.905 72.8576V73.8786C359.953 73.9694 358.887 74.0148 357.845 74.0148Z" fill="white"/>
<path d="M348.074 78.4169H347.711V77.3958C349.026 77.3958 350.454 77.3958 351.814 77.2143C354.253 76.9077 356.721 76.9077 359.16 77.2143L358.979 78.2354C356.627 77.9025 354.243 77.8644 351.883 78.1219C350.658 78.3261 349.366 78.4169 348.074 78.4169Z" fill="white"/>
<path d="M352.925 83.2496C350.949 83.2538 348.974 83.1553 347.008 82.9546V81.9336C350.067 82.2289 353.143 82.2971 356.212 82.1378V83.1589C355.215 83.2269 354.059 83.2496 352.925 83.2496Z" fill="white"/>
<path d="M355.306 87.9463C354.127 87.9463 353.038 87.6513 351.814 87.4698C350.028 87.079 348.2 86.9189 346.373 86.9933V85.9723C348.275 85.8796 350.181 86.0398 352.041 86.4487C353.174 86.653 354.308 86.8345 355.464 86.9252L355.306 87.9463Z" fill="white"/>
<path d="M336.624 226.401L332.475 230.735L331.228 232.005L327.578 233.412L322.795 236.884C322.795 236.884 323.86 237.859 324.314 237.905C325.121 237.793 325.895 237.506 326.581 237.065L324.314 239.947L320.981 244.167C320.901 244.27 320.844 244.389 320.817 244.516C320.789 244.644 320.79 244.775 320.821 244.902C320.851 245.029 320.91 245.147 320.993 245.247C321.076 245.348 321.18 245.429 321.298 245.483L327.986 247.752C328.263 247.841 328.558 247.859 328.843 247.803C329.129 247.748 329.396 247.621 329.619 247.434L334.606 242.556L336.874 238.018L338.801 235.409L341.884 230.689L336.624 226.401Z" fill="#FAC0B3"/>
<path d="M343.517 138.409L337.803 132.714L333.269 128.176L328.735 124.432L324.563 121.051C324.462 120.97 324.345 120.913 324.218 120.883C324.092 120.854 323.961 120.853 323.835 120.882C323.708 120.91 323.59 120.967 323.489 121.047C323.387 121.127 323.305 121.23 323.248 121.346L320.981 127.994C320.891 128.27 320.871 128.563 320.922 128.849C320.974 129.134 321.095 129.402 321.276 129.628L326.082 134.711L330.617 136.98L333.201 138.954L338.506 143.945L343.517 138.409Z" fill="#FAC0B3"/>
<path d="M333.813 141.812L339.935 133.667L370.496 158.83C371.186 159.306 371.953 159.659 372.763 159.873C372.763 159.873 400.558 135.867 412.483 133.939C416.337 133.303 419.285 138.477 418.31 142.153L418.083 143.06C417.086 146.849 412.937 150.616 409.876 153.066C397.951 162.642 387.635 175.166 377.479 177.141C374.207 177.817 370.81 177.518 367.707 176.278C357.528 171.513 333.813 141.812 333.813 141.812Z" fill="#F79C8C"/>
<path d="M400.264 127.041L385.641 128.697L383.532 121.981L380.812 119.236L381.855 112.928L380.585 101.833H400.264V127.041Z" fill="#FAC0B3"/>
<path d="M400.263 123.434H391.489V137.728H400.263V123.434Z" fill="#FAC0B3"/>
<path d="M378.771 104.374L385.051 103.943L384.303 106.439L383.849 108.095L383.872 109.275L384.824 110.046L384.802 112.315L386.071 112.769L386.729 110.591L388.588 111.589L390.424 119.735L395.344 122.163L400.263 121.891L400.399 120.756L402.644 112.247L403.71 101.833L396.591 95.3887L389.563 94.2315L380.358 91.3271L373.466 95.6609L374.259 102.604L378.771 104.374Z" fill="#132233"/>
<path d="M370.472 414.365C369.452 415.454 364.533 414.819 364.533 414.819L343.448 413.276V412.323C343.455 411.833 343.619 411.358 343.917 410.969C344.216 410.581 344.632 410.299 345.103 410.167L353.514 408.692L359.862 404.154L361.132 400.728L369.611 400.978L369.724 405.334L370.472 411.665C370.472 411.665 370.926 413.866 370.472 414.365Z" fill="#16242D"/>
<path d="M421.121 411.869C420.101 412.98 415.181 412.322 415.181 412.322L394.097 410.802V409.849C394.103 409.359 394.268 408.884 394.566 408.496C394.864 408.107 395.28 407.826 395.752 407.694L404.163 406.196L410.511 401.658L411.78 398.232L420.259 398.504V402.838L421.008 409.169C421.008 409.169 421.688 411.369 421.121 411.869Z" fill="#16242D"/>
<path d="M370.699 402.498H358.615L359.93 319.838L363.58 237.587H402.076L381.423 323.877L370.699 402.498Z" fill="#395C7F"/>
<path d="M419.987 400.478L411.463 400.093C410.465 400.093 409.762 400.274 409.672 399.298L402.077 316.094L392.85 239.334H426.018L427.174 255.716L423.048 317.773L423.728 333.815L422.096 399.344C422.073 400.501 422.073 400.501 419.987 400.478Z" fill="#395C7F"/>
<path d="M427.718 241.444L360.475 242.783C360.475 242.783 365.802 195.134 366.823 179.251C367.344 171.446 367.775 153.112 368.024 141.994C368.079 139.514 369.055 137.144 370.76 135.344C372.466 133.545 374.78 132.446 377.251 132.26L389.743 131.307H400.648L411.327 132.169C414.019 132.374 416.537 133.584 418.381 135.559C420.224 137.535 421.259 140.131 421.279 142.834C421.415 154.179 421.665 172.331 422.118 180.159C423.025 195.611 427.718 241.444 427.718 241.444Z" fill="#F79C8C"/>
<path d="M340.433 234.66L332.158 229.283L357.732 190.347C358.18 189.652 358.503 188.884 358.684 188.078L368.274 139.181C368.485 138.272 368.873 137.413 369.415 136.654C369.958 135.895 370.645 135.251 371.437 134.758C372.228 134.265 373.109 133.933 374.029 133.781C374.949 133.628 375.89 133.659 376.798 133.871L377.705 134.075C383.078 134.892 386.003 142.335 385.028 147.122C385.028 147.122 378.226 181.906 375.619 193.705C374.547 196.302 373.32 198.832 371.947 201.283C363.671 212.742 340.433 234.66 340.433 234.66Z" fill="#F79C8C"/>
<path d="M328.689 138.182L305.746 135.3L311.89 108.685L334.833 111.589L328.689 138.182Z" fill="#F68B3C"/>
<path d="M324.813 119.395C321.85 119.002 318.948 118.239 316.175 117.126L316.583 116.082C320.297 117.563 324.24 118.384 328.236 118.51V119.622C327.057 119.607 325.916 119.531 324.813 119.395Z" fill="white"/>
<path d="M313.771 122.776H313.363L313.522 121.664C314.928 121.868 316.492 121.959 318.056 122.05C320.708 122.08 323.345 122.454 325.901 123.162L325.56 124.228C323.099 123.555 320.562 123.196 318.011 123.162C316.537 123.025 315.132 122.957 313.771 122.776Z" fill="white"/>
<path d="M318.284 128.607C316.175 128.334 314.067 127.971 312.004 127.495L312.231 126.406C315.459 127.149 318.742 127.635 322.047 127.858V128.97C320.755 128.879 319.531 128.766 318.284 128.607Z" fill="white"/>
<path d="M320.233 133.871C318.985 133.603 317.751 133.27 316.538 132.873C314.679 132.218 312.743 131.807 310.779 131.647V130.536C312.836 130.694 314.864 131.121 316.81 131.806C317.985 132.198 319.181 132.523 320.392 132.782L320.233 133.871Z" fill="white"/>
<path d="M336.057 131.103L334.924 126.724L331.999 121.573C331.999 121.573 330.911 122.526 330.82 122.98C330.994 124.385 331.424 125.747 332.09 126.996L332.294 131.534L334.561 132.555L336.057 131.103Z" fill="#FAC0B3"/>
</g>
<path opacity="0.2" d="M659.5 415C669.717 415 678 413.657 678 412C678 410.343 669.717 409 659.5 409C649.283 409 641 410.343 641 412C641 413.657 649.283 415 659.5 415Z" fill="#005386"/>
<path d="M656.019 307.293L654.931 307.452C653.117 294.768 654.16 255.265 654.183 254.947L654.659 255.174C654.659 255.56 654.228 294.7 656.019 307.293Z" fill="#419495"/>
<path d="M654.341 255.514C652.247 254.257 650.647 252.319 649.807 250.023C649.082 246.824 646.565 239.246 647.064 235.139C647.563 231.032 646.883 222.795 648.334 216.987C649.784 211.178 648.334 206.617 650.329 198.971C652.324 191.324 657.266 166.479 660.667 161.578C664.067 156.677 667.604 153.886 668.443 151.549C668.443 151.549 666.765 154.385 668.647 160.965C670.625 169.239 671.502 177.738 671.254 186.242C671.005 193.934 670.551 213.946 670.121 220.958C669.69 227.969 666.833 242.808 663.773 246.688C660.712 250.568 659.102 250.704 657.787 252.406C656.473 254.108 655.974 255.083 654.341 255.514Z" fill="#37A3CA"/>
<path d="M654.183 254.97C654.183 254.97 657.651 226.131 658.898 218.053C660.145 209.976 663.886 184.018 664.43 176.054C664.974 168.09 664.566 163.824 665.7 159.559C665.21 163.266 665.013 167.006 665.11 170.745C665.11 177.983 661.301 205.324 661.301 205.324L657.515 236.047L654.659 255.242L654.183 254.97Z" fill="#5FB5D5"/>
<path d="M728.296 178.074C725.47 177.665 722.588 177.929 719.884 178.845C716.665 180.365 697.712 196.248 688.983 206.413C680.255 216.579 662.548 243.625 661.188 247.618C659.828 251.612 657.629 254.425 657.674 260.03C657.719 265.634 657.085 268.448 660.485 271.012C660.485 271.012 662.163 271.012 663.387 268.13C664.612 265.249 664.793 266.86 667.06 261.618C669.327 256.377 673.725 252.179 677.081 245.894C680.436 239.609 680.232 244.101 685.107 234.98C689.981 225.859 686.626 235.638 696.238 222.637C705.851 209.635 721.177 193.14 723.285 189.623C724.913 186.983 726.178 184.136 727.049 181.159C727.153 180.031 727.587 178.958 728.296 178.074Z" fill="#058CBD"/>
<path d="M721.947 183.133C721.947 183.133 694.742 218.303 685.22 231.1C677.974 241.059 671.239 251.382 665.042 262.026L660.281 270.717L660.78 270.83C660.78 270.83 669.69 255.469 674.995 247.459C680.3 239.45 689.799 225.79 694.946 219.233C700.092 212.676 721.947 183.133 721.947 183.133Z" fill="#37A3CA"/>
<path d="M658.898 318.23L658.014 318.502C655.475 303.118 660.281 271.148 660.281 270.853H660.78C660.712 271.125 656.382 303.005 658.898 318.23Z" fill="#419495"/>
<path d="M648.243 301.893H649.059C651.19 289.005 647.132 262.14 647.087 261.868H646.679C646.679 262.344 650.351 289.005 648.243 301.893Z" fill="#419495"/>
<path d="M590 184.177C592.367 183.828 594.784 184.045 597.051 184.813C599.749 186.106 615.664 199.448 623.01 207.979C630.355 216.51 645.159 239.246 646.316 242.581C647.472 245.917 649.308 248.413 649.263 253.019C649.218 257.625 649.762 260.075 646.996 262.231C646.996 262.231 646.225 263.751 643.913 262.707C640.648 261.232 639.378 262.14 637.542 257.738C635.706 253.336 634.912 253.835 632.101 248.662C629.29 243.489 629.448 243.602 625.299 235.956C621.15 228.309 625.005 232.598 616.911 221.684C608.817 210.77 595.94 196.952 594.24 193.957C592.871 191.741 591.804 189.353 591.066 186.855C590.995 185.873 590.623 184.938 590 184.177V184.177Z" fill="#058CBD"/>
<path d="M595.306 188.42C595.306 188.42 617.977 217.917 626.139 228.717C632.232 237.074 637.892 245.737 643.097 254.675L647.087 261.981H646.702C646.702 261.981 639.197 249.07 634.754 242.331C630.31 235.592 622.307 224.179 618 218.643C613.692 213.107 595.306 188.42 595.306 188.42Z" fill="#37A3CA"/>
<path d="M657.085 349.701H649.762C645.636 349.701 642.212 347.205 641.872 343.915L636.363 289.98H670.484L664.975 343.915C664.657 347.205 661.211 349.701 657.085 349.701Z" fill="white"/>
<g opacity="0.6">
<path opacity="0.6" d="M649.762 349.701H657.085C661.211 349.701 664.657 347.205 664.975 343.915L670.484 289.98H663.682C663.41 298.126 662.209 325.558 658.627 332.797C655.725 338.651 648.515 342.167 641.94 343.892C642.144 347.205 645.636 349.701 649.762 349.701Z" fill="#DFECF8"/>
</g>
<defs>
<clipPath id="clip0">
<rect width="544" height="415" fill="white"/>
</clipPath>
</defs>
</svg>
