
<svg width="513" height="328" xmlns="http://www.w3.org/2000/svg">
<style>
    .b-ball_bounce {
      animation: move 3s linear alternate infinite;
    }
     @keyframes move {
        0% {
            transform: translate3d(0, 0, 0);
        }
        15% {
            transform: translate3d(0px, -50px, 0px);
        }
        60% {
            transform: translate3d(0px, -10px, 0px);
        }
    }
</style>
  <defs>
    <linearGradient y2=".053" x2=".774" y1=".918" x1=".167" id="a">
      <stop stop-color="#fff"/>
      <stop stop-color="#F0F3F6" offset=".52"/>
      <stop stop-color="#E8ECF1" offset="1"/>
    </linearGradient>
    <linearGradient y2=".26" x2="1.025" y1="1.109" x1=".108" id="b">
      <stop stop-color="#fff"/>
      <stop stop-color="#F0F3F6" offset=".46"/>
      <stop stop-color="#E8ECF1" offset=".89"/>
    </linearGradient>
  </defs>
  <path fill="none" d="M-1-1h582v402H-1z"/>
  <g>
    <path fill="#F47954" d="M128.948 84.558h.071c.518-.211 1.047-.39 1.586-.54h.047c.672-.187 1.355-.33 2.045-.427l.27-.056h.079a16.207 16.207 0 012.069-.15h241.44a14.801 14.801 0 0110.928 4.829 14.786 14.786 0 013.792 11.324l-4.907 52.475v58.44h-272.67v-58.48l5.08-53.695a16.566 16.566 0 011.181-4.753h-15.686-2.751a19.62 19.62 0 00-2.488.325l29.914-9.292z"/>
    <path fill="#F47954" d="M41.511 154.112h88.579v146.422a16.357 16.357 0 01-4.8 11.557 16.37 16.37 0 01-11.569 4.786H42.605a16.373 16.373 0 01-11.574-4.792 16.351 16.351 0 01-4.794-11.567V169.37a15.26 15.26 0 014.476-10.789 15.28 15.28 0 0110.798-4.469z"/>
    <path fill="#F69476" d="M41.511 154.112h88.579v146.422a16.357 16.357 0 01-4.8 11.557 16.37 16.37 0 01-11.569 4.786H42.605a16.373 16.373 0 01-11.574-4.792 16.351 16.351 0 01-4.794-11.567V169.37a15.26 15.26 0 014.476-10.789 15.28 15.28 0 0110.798-4.469z"/>
    <path fill="#339BD1" d="M275.628 316.702l-207.389-.047a12.107 12.107 0 01-8.025-3.808 12.09 12.09 0 01-3.262-8.257V203.981a12.08 12.08 0 013.851-8.853 12.088 12.088 0 019.109-3.212l205.684-.079.032 124.865z"/>
    <path fill="#339BD1" d="M267.598 154.112h88.586v146.422a16.353 16.353 0 01-4.802 11.56 16.373 16.373 0 01-11.574 4.783H268.7a16.372 16.372 0 01-11.574-4.792 16.35 16.35 0 01-4.794-11.567V169.37a15.26 15.26 0 014.473-10.786 15.28 15.28 0 0110.793-4.472z"/>
    <path fill="#F47954" d="M143.945 316.877h-71.14a16.373 16.373 0 01-11.574-4.792 16.351 16.351 0 01-4.794-11.567V169.37a15.254 15.254 0 019.43-14.099 15.28 15.28 0 015.844-1.159h147.242v146.422c0 9.039-65.972 16.343-75.008 16.343z"/>
    <path fill="#F47954" d="M358.768 210.414H83.997v-58.441l4.756-45.21a14.78 14.78 0 014.816-9.436 14.795 14.795 0 019.895-3.794h245.032a14.779 14.779 0 0114.056 10.21c.639 1.969.857 4.051.639 6.109l-4.423 42.121v58.441z"/>
    <path fill="#B75B3F" d="M358.768 210.414H83.997v-58.441l4.756-45.21a14.78 14.78 0 014.816-9.436 14.795 14.795 0 019.895-3.794h245.032a14.779 14.779 0 0114.056 10.21c.639 1.969.857 4.051.639 6.109l-4.423 42.121v58.441z" opacity=".25"/>
    <path fill="#F47954" d="M275.628 316.702l-207.389-.047a12.107 12.107 0 01-8.025-3.808 12.09 12.09 0 01-3.262-8.257V203.981a12.08 12.08 0 013.851-8.853 12.088 12.088 0 019.109-3.212l205.684 1.172.032 123.614z"/>
    <path fill="#B75B3F" d="M57.19 201.763l.261-1.117c.983-8.643 10.305-8.714 10.305-8.714 36.136-12.208 92.311-.555 92.311-.555a3.225 3.225 0 003.655.547c27.647-13 79.661-1.078 100.824 2.78v35.308H57.071v-27.465l.119-.784z"/>
    <path fill="#F47954" d="M57.19 201.763l.261-1.117c.983-8.643 10.305-8.714 10.305-8.714 36.136-12.208 92.311-.555 92.311-.555a3.225 3.225 0 003.655.547c27.647-13 79.661-1.078 100.824 2.78v35.308H57.071v-27.465l.119-.784z" opacity=".4"/>
    <path fill="#F69476" d="M267.598 154.112h88.586v146.422a16.353 16.353 0 01-4.802 11.56 16.373 16.373 0 01-11.574 4.783H268.7a16.372 16.372 0 01-11.574-4.792 16.35 16.35 0 01-4.794-11.567V169.37a15.26 15.26 0 014.473-10.786 15.28 15.28 0 0110.793-4.472z"/>
    <path fill="#F47954" d="M297.822 154.112h77.315c2.987 0 5.852 1.186 7.964 3.297a11.254 11.254 0 013.299 7.96v135.165a16.35 16.35 0 01-4.794 11.551 16.372 16.372 0 01-11.558 4.792h-71.132a16.372 16.372 0 01-11.574-4.792 16.35 16.35 0 01-4.795-11.567V169.37a15.266 15.266 0 014.477-10.789 15.28 15.28 0 0110.798-4.469z"/>
    <path fill="#31415E" d="M86.422 327.152c47.73 0 86.423-2.48 86.423-5.538 0-3.058-38.693-5.537-86.422-5.537-47.73 0-86.423 2.479-86.423 5.537s38.693 5.538 86.422 5.538z"/>
    <path fill="#F8BFB1" d="M212.192 39.165c.246 1.014.365 1.671.365 1.671l-.365-1.671z"/>
    <path fill="#7A3D2A" d="M250.358 86.728c.602 3.399 1.133 6.679 1.514 8.96 1.879 11.194 4.867 33.613 2.703 45.155a8.448 8.448 0 01-4.376 6.092c-.126.079-.182.222-.309.293l-.38.119a6.507 6.507 0 01-.698.222l-13.697 4.397-.658 2.376c-1.117 4.555 1.078-.642-1.537 9.039-.27.998-3.639 3.446-3.876 4.31-.983 3.636-1.633 5.997-1.633 5.997s-.642-.373-1.585-.872l-.539 2.004c-3.171 10.782-6.889 15.464-17.248 17.429h.174c39.791 0 21.853-31.728 34.084-34.667 11.763-2.836 15.013-15.606 14.672-22.078-.872-15.947-6.611-48.776-6.611-48.776z" opacity=".4"/>
    <path fill="#132233" d="M181.255 194.324l-37.358 5.894a27.87 27.87 0 00-16.479 8.97 27.837 27.837 0 00-7.054 17.378l-2.156 50.598-3.171-84.044 66.218 1.204z" opacity=".1"/>
    <path fill="#132233" d="M118.033 281.703l2.093.468-1.308-23.917h-.278l-.34 21.089-2.909-.349-.167 27.505.674 5.736-1.149 4.143 6.761.174v-3.858s-1.007-4.206-1.768-5.545c-.761-1.339-1.609-25.446-1.609-25.446z" opacity=".1"/>
    <path fill="#132233" d="M131.001 191.852l-47.987 3.233-5.73 67.376 8.592-47.104a22.191 22.191 0 0117.312-17.737L131 191.852z" opacity=".4"/>
    <path fill="#132233" d="M73.74 275.754l-1.157-.238-4.13 27.846v6.124l-1.236 4.476 2.037-.056 1.078-3.295-.333-6.988 3.226-25.96 2.425-1.568.016-.151-1.926-.19z" opacity=".1"/>
    <path fill="#649EA3" d="M70.64 313.922h-1.957c-.376.392-.622.89-.706 1.426-.079.459-.15.863-.23 1.251h1.134c.206-.934.563-2.162 1.046-2.376l.714-.301z" opacity=".4"/>
    <path fill="#FECE71" d="M218.557 38.745l-.23-1.157.23 1.14v.017z"/>
    <path fill="#85D2DA" d="M217.725 32.407l-.127.048.127-.048.562-6.417-.562 6.417zM219.445 16.334l-.5 4.34.5-4.34a3.572 3.572 0 00-.222-1.189l-.666-1.426.666 1.426c.141.38.216.783.222 1.189z"/>
    <path fill="#fff" d="M218.359 25.5c.035-.16.059-.321.071-.484l.484-4.341-.484 4.341a3.425 3.425 0 01-.071.483zM214.308 5.116c-.305-.33-.671-.6-1.078-.792L201.658.3l11.572 4.048a3.51 3.51 0 011.078.768z"/>
    <path fill="#FECE71" d="M74.39 263.324l-5.969 40.268.032 5.894-1.324 4.777-43.136.213.294-3.414 24.794-8.88 6.278-3.328 3.582-39.031 15.45 3.501z"/>
    <path fill="#85D2DA" d="M73.146 315.625l.055-.253a1.237 1.237 0 00-1.22-1.466l-49.747.594a1.165 1.165 0 00-.835 1.966 1.168 1.168 0 00.859.371l49.699-.23a1.211 1.211 0 001.189-.982z"/>
    <path fill="#85D2DA" d="M22.012 314.762c1.791.309 8.346-.08 13.372-.317l17.597-.309s-2.093-11.931-6.08-11.733l-14.521 5.078c-.23.08-6.437 2.599-9.124 3.835-.808.356-1.316 3.43-1.244 3.446z"/>
    <path fill="#324666" d="M68.168 199.727l103.837-7.637c13.34-1.584 19.634-7.629 23.161-19.654l4.241-18.324-36.534-2.139-9.361 7.297-76.95 13.087c-8.878 2.162-11.549 3.691-11.05 12.675l2.656 14.695z"/>
    <path fill="#324666" d="M55.549 272.284l20.101 3.81 12.334-102.803s-10.249-.792-14.133-.111c-9.147 1.585-9.599 8.12-9.82 14.854l-8.482 84.25z"/>
    <path fill="#324666" d="M55.549 272.284l20.101 3.81 12.334-102.803s-10.249-.792-14.133-.111c-9.147 1.585-9.599 8.12-9.82 14.854l-8.482 84.25z"/>
    <path fill="#FECE71" d="M115.37 267.269l-.254 39.254.682 5.735-1.324 4.777-43.786.365.294-3.407 24.802-8.88 5.485-2.916-1.593-37.431 15.694 2.503z"/>
    <path fill="#9DDBE1" d="M119.841 318.548l.055-.245a1.235 1.235 0 00-.261-1.024 1.227 1.227 0 00-.96-.442l-49.746.594a1.167 1.167 0 00-1.087 1.552 1.167 1.167 0 001.11.777l49.7-.221a1.235 1.235 0 001.189-.991z"/>
    <path fill="#9DDBE1" d="M68.707 317.669c1.791.317 8.346-.071 13.372-.317l17.597-.309s-2.093-11.922-6.072-11.724l-14.553 5.078c-.23.079-6.436 2.598-9.123 3.826-.785.38-1.293 3.446-1.221 3.446z"/>
    <path fill="#435D88" d="M101.776 197.683s59.488-1.45 78.353-3.256c5.549-.539 24.129-1.489 24.129-1.489 13.348-1.585 17.501-6.029 21.029-18.046l4.24-15.662-27.148-8.136-29.582.887-2.14 8.881-31.119 6.25-31.968 5.847c-10.304 2.297-9.511 4.095-9.02 13.095l3.226 11.629z"/>
    <path fill="#435D88" d="M98.296 276.966l19.904 2.376 1.72-105.853s-12.104-.673-15.782.317c-7.268 1.941-7.926 7.336-7.49 14.054l1.648 89.106z"/>
    <path fill="#FECE71" d="M100.508 154.374l-.833-4.476 1.578-5.641 6.278-3.478 10.486 1.973 23.431-6.171 3.94 10.853-19.563 4.888-5.39 2.4-2.98.182-4.828-2.353-2.195-.039-2.917 4.436-2.069-.158-.69-1.64-4.248-.776z"/>
    <path fill="#4195C9" d="M194.389 75.107a16.536 16.536 0 00-3.377-10.465 5.01 5.01 0 00-3.463-2.06 14.028 14.028 0 00-8.846 1.854 7.13 7.13 0 00-3.171 3.96c-4.439 14.11-9.75 44.094-13.007 59.36a9.187 9.187 0 005.398 10.346l2.465.871a8.388 8.388 0 009.337-4.071c6.111-10.085 8.933-27.236 11.097-38.374 1.023-5.34 3.258-15.995 3.567-21.421z"/>
    <path fill="#4195C9" d="M166.646 123.637L126.221 139.9l5.129 12.755 44.333-14.078a7.664 7.664 0 004.058-5.695l.222-1.458a7.733 7.733 0 00-1.68-6.037 7.71 7.71 0 00-4.693-2.685l-1.443-.238a7.666 7.666 0 00-5.501 1.173z"/>
    <path fill="#435D88" d="M175.056 74.021s-6.341 37.368-8.093 43.785c-1.751 6.417-7.585 20.225-8.83 22.736-1.244 2.511-.927 3.913-.927 3.913l1.427-.198h1.989l7.459-16.509 2.378-11.186 2.861-20.597 1.736-21.944z" opacity=".6"/>
    <path fill="#4195C9" d="M203.077 54.882l18.555-.182s15.853 4.285 20.459 8.571c6.88 6.449 7.791 20.93 5.548 42.779-2.56 24.899-8.41 30.285-12.999 47.532-1.657 6.242 1.038-.404-1.744 9.878-.27.998-3.638 3.446-3.876 4.31-.983 3.636-1.633 5.997-1.633 5.997s-16.099-9.8-33.236-10.299c-14.41-.42-38.34-5.371-38.34-5.371s-3.028 1.854-1.768-1.949c.42-1.267 1.974-6.646 2.703-8.112 4.756-9.585 7.522-14.83 9.98-23.251 6.444-22.142 8.465-52.815 8.465-52.815.198-8.509 8.87-14.807 17.779-16.035l10.107-1.053z"/>
    <path fill="#4195C9" d="M196.593 66.131c-3.964-5.292-8.363-7.13-12.508-7.13-5.034 2.884-8.775 7.447-8.902 12.984 0 0-2.021 30.674-8.465 52.816-2.457 8.421-5.224 13.665-9.98 23.251-.729 1.465-2.283 6.837-2.711 8.112-1.252 3.803 1.776 1.949 1.776 1.949s23.93 4.951 38.34 5.371c4.811.19 9.581.964 14.205 2.305a31.334 31.334 0 004.248-9.253c3.464-14.093-3.884-74.228-16.003-90.405z"/>
    <path fill="#E8ECF1" d="M196.593 66.131c-3.964-5.292-8.363-7.13-12.508-7.13-5.034 2.884-8.775 7.447-8.902 12.984 0 0-2.021 30.674-8.465 52.816-2.457 8.421-5.224 13.665-9.98 23.251-.729 1.465-2.283 6.837-2.711 8.112-1.252 3.803 1.776 1.949 1.776 1.949s23.93 4.951 38.34 5.371c4.811.19 9.581.964 14.205 2.305a31.334 31.334 0 004.248-9.253c1.863-7.494-6.341-27.481-6.079-47.745.245-17.825-2.172-27.173-6.159-36.053a35.278 35.278 0 00-3.765-6.607z" opacity=".1"/>
    <path fill="#FECE71" d="M211.772 63.984a12.81 12.81 0 008.465-4.064c.864-.586 2.378-2.376 1.998-4.072l-4.629-21.484-17.518 2.424s1.847 15.995 2.679 22.974c.246 2.1 2.204 4.563 9.005 4.222z"/>
    <path fill="#FECE71" d="M193.628 53.218l26.395-7.177-2.893-14.426.119-6.084-5.818-20.85-33.434 6.52 3.646 15.796 1.823 3.636 1.895 11.502 2.544-.744 3.591 10.679a1.741 1.741 0 002.132 1.148z"/>
    <path fill="url(#a)" d="M192.233 42.112c.207-.057.42-.094.634-.111l2.64-.198c.81-.081 1.608-.257 2.378-.523l-1.823-5.633 1.189-7.613-5.398-1.853-1.816-2.274-2.187-14.632-9.845 1.917 3.646 15.805 1.823 3.636 1.887 11.502 2.544-.744 2.085 6.195-1.459-4.452 3.702-1.022z" opacity=".4"/>
    <path fill="#435D88" d="M212.192 39.164a33.018 33.018 0 00-2.259-6.432c-1.863-3.81-1.165-10.069-1.165-10.069l-1.586 3.066a10.437 10.437 0 00-.99 2.773l-.738 3.644c-.143.697-.356 1.38-.634 2.036l-.642 1.465a10.357 10.357 0 01-3.456 4.286 10.038 10.038 0 01-2.806 1.378l5.2 9 5.501-2.86c.233-.122.429-.302.571-.523l2.719-4.151.65-1.957-.365-1.656zM191.464 52.07l-1.506-4.484 1.451 4.412a1.9 1.9 0 00.84 1.133c.442.17.923.211 1.387.119 2.037-.53 8.109-2.226 8.109-2.226h.055l-8.172 2.218a1.744 1.744 0 01-2.164-1.172z"/>
    <path fill="#697DA0" d="M197.916 41.28c-.769.266-1.567.441-2.378.523l-2.639.198a3.425 3.425 0 00-.634.11l-3.734 1.022 1.459 4.453 1.506 4.483a1.743 1.743 0 002.164 1.15L201.832 51l1.324-.69-5.2-8.999-.04-.031z"/>
    <path fill="#85D2DA" d="M216.734 32.732s-1.141.158-1.982-1.584c-1.014-2.044-1.133-5.332-1.173-8.002-.063-3.81-.689-5.743-2.687-5.022-.991.356-1.989 4.706-2.814 5.355-.674.53-2.608-4.927-2.647-5.49-.064-1.053-1.53-2.582-1.847-3.58-.317-.999-2.22-2.678-3.321-2.377-1.673.436-19.381 6.591-21.101 6.734-1.054.079-1.545-1.197-1.95-2.171-.61-1.458-.792-6.274-.792-6.274-.08-.69 1.125.903 1.45.293l2.267-4.183a3.381 3.381 0 012.204-1.68l4.986-3.232.222-.047L199.668.054a3.372 3.372 0 011.99.246l11.572 4.056a3.385 3.385 0 011.776 1.877l4.185 8.912c.142.38.217.783.222 1.189l-.991 8.714c.006.33-.039.658-.135.974l-.562 6.417-.991.293z"/>
    <path fill="#B6E4E9" d="M182.341 4.752a3.376 3.376 0 00-2.18 1.71l-2.267 4.184c-.325.61-1.53-.983-1.45-.294 0 0 .158 4.817.792 6.275.404.974.896 2.25 1.95 2.17.793-.071 5.129-1.458 9.655-2.963l-2.109-13.95-4.391 2.868z" opacity=".4"/>
    <path fill="#414042" d="M201.745 51.024l7.34-3.921 3.289-5.72-1.965 6.52-8.196 7.058-.468-3.937z" opacity=".1"/>
    <path fill="url(#b)" d="M90.988 112.562l41.432-22.364 51.332-27.719 19.428 101.702-41.694-.634H93.247l-2.259-50.985z" opacity=".5"/>
    <path fill="#132233" d="M193.628 166.621s-23.462 3.248-34.155 3.739c-10.693.491-35.947-1.497-39.553-1.394-3.607.103-11.541 2.139-16.646 2.266a18.962 18.962 0 01-8.949-2.052l2.727-2.559 65.267-.792 31.309.792z" opacity=".4"/>
    <path fill="#F1F4F7" d="M150.524 114.93l11.192 49.695-80.438 2.044-11.644-48.887a4.036 4.036 0 012.132-4.552 4.046 4.046 0 011.744-.423l73.011-1.03a4.053 4.053 0 014.003 3.153z"/>
    <path fill="#CED7E2" d="M203.18 164.181l-41.456.444-.238-1.078 41.067.365.627.269z"/>
    <path fill="#ADBDCF" d="M203.18 164.181l-41.456.444-80.446 2.043 1.395 2.805 79.122-2.012 41.432-1.094-.047-2.186z"/>
    <path fill="#F9FBFC" d="M161.724 164.625l.071 2.836 41.432-1.094-.047-2.186-41.456.444z"/>
    <path fill="#CED7E2" d="M123.677 139.171a8.587 8.587 0 01-10.051 8.682 8.596 8.596 0 01-6.921-6.574 8.585 8.585 0 013.43-8.906 8.598 8.598 0 014.736-1.567 8.595 8.595 0 018.806 8.365z"/>
    <path fill="#435D88" d="M193.628 151.91l8.719-3.89v-1.14l23.954-10.758a8.893 8.893 0 005.216-8.81l-3.876-49.203 10.827 56.658-33.751 15.099-11.089 2.044z" opacity=".6"/>
    <path fill="#B55452" d="M200.16 161.987l8.013-1.601.936.8 25.214-6.377 1.006-3.723-27.433 7.011-7.736 2.289v1.601z" opacity=".2"/>
    <path fill="#FECE71" d="M184.83 161.979l1.807.491 6.888 1.616 2.973-.301 5.287-2.598 19.348-6.227-4.344-10.703-23.161 7.653-10.534-2.416-7.927 3.454-1.585 5.022-1.522 6.211 2.14.095.222-.309 5.779.523 4.629-2.511z"/>
    <path fill="#4195C9" d="M247.663 74.37a16.634 16.634 0 00-6.817-8.62 5.01 5.01 0 00-3.963-.704 14.023 14.023 0 00-7.641 4.84 7.128 7.128 0 00-1.585 4.856c.792 14.727 5.984 50.027 8.307 65.467a9.162 9.162 0 008.655 7.803l2.616-.047a8.396 8.396 0 007.316-7.13c2.164-11.574-.792-33.993-2.703-45.155-.911-5.371-2.576-16.113-4.185-21.31z"/>
    <path fill="#4195C9" d="M240.371 132.612l-37.136 15.408 5.715 12.358 40.909-13.118a7.702 7.702 0 003.876-5.823l.174-1.473a7.686 7.686 0 00-6.627-8.509l-1.45-.198a7.704 7.704 0 00-5.461 1.355z"/>
    
    
    <g class='b-ball_bounce'>
        <path fill="#FECE71" d="M482.988 214.437s-40.583 29.643-19.744 90.405l-5.668.341s-16.994-60.801 25.412-90.746zM407.964 219.515s41.789 20.446 32.634 79.219l5.223-.602s5.676-58.195-37.857-78.617z"/>
        <path fill="#85D2DA" d="M480.341 224.854c-4.098-6.971-6.397-16.2-7.332-20.597 1.363-1.283 1.776-3.169 2.108-5.189.373-2.202 2.529-7.55 2.529-7.55.705-4.175 5.271-5.616 8.402-2.661l9.718 9.189c7.379 6.979 10.304 17.967 7.221 27.26l-7.514 17.293c-.476 1.434-1.364 6.084-2.64 8.778-.269-.967-.531-3.034-.792-3.961-3.052-12.588-6.144-13.095-11.7-22.562z"/>
        <path fill="#9DDBE1" d="M489.663 249.864l-18.739-10.592c-9.654-5.458-16.296-16.042-17.295-27.552l-.722-8.326c-.396-4.54 2.68-6.338 7.515-5.467 1.87.349 3.757 1.109 7.308 2.813 1.585.744 3.654 3.168 5.279 3.541.935 4.373 3.234 13.602 7.332 20.597 5.549 9.506 8.648 9.974 11.731 22.577.23.935.492 3.003.793 3.961-1.165-.974-2.148-.958-3.202-1.552zM417.817 210.309a3.685 3.685 0 003.916-.903l6.032-5.545c2.75-2.543 5.398-1.434 5.017 2.503-.135 1.434.206 6.385.206 6.385.072 10.029-3.424 16.478-10.019 23.109-3.028 3.05-8.022 9.87-11.525 12.754-.832.689-4.621 4.167-5.461 4.024 1.426-7.882 3.733-16.976 6.626-23.908a84.634 84.634 0 005.208-18.419z"/>
        <path fill="#85D2DA" d="M403.581 246.125c-2.085-3.486-5.287-11.614-5.794-16.518a30.617 30.617 0 016.151-21.001c1.743-2.289 1.973-7.367 2.98-9.688 1.474-3.415 6.143-1.814 6.967 2.178.389 1.862 1.697 6.401 1.697 6.401a3.957 3.957 0 002.275 2.812 84.58 84.58 0 01-5.248 18.387c-2.893 6.932-5.2 16.026-6.626 23.909-.967-2.694.57-1.537-2.402-6.48z"/>
        <path fill="#FECE71" d="M440.082 212.377s3.242 13.562 6.342 39.023c1.363 11.194.998 23.616 1.529 35.649h-1.854a227.443 227.443 0 00-.563-35.49c-2.18-20.597-5.462-35.768-6.048-39.61-1.173-7.66.594.428.594.428z"/>
        <path fill="#F47954" d="M442.056 224.521c1.784-.364 1.942-3.224 1.348-5.585-1.467-5.806-3.607-15.717-5.382-20.779-.793-2.25-1.181-4.127-1.847-4.088h-.373c-.713.381-.943 2.052-.792 3.518.681 5.783 2.449 17.183 3.693 23.084.523 2.417 1.562 4.223 3.353 3.85z"/>
        <path fill="#85D2DA" d="M473.065 246.869s-7.134 4.238-12.302 21.722c-5.168 17.484-8.72 19.377-8.72 19.377l1.586.634c3.884-7.225 7.831-15.575 9.416-22.181 3.599-14.751 10.02-19.552 10.02-19.552z"/>
        <path fill="#A5A7AA" d="M458.194 301.908s5.755-9.134 7.499-18.878c1.744-9.744 5.398-14.172 7.372-16.161 0 0-6.421 4.833-9.964 19.575-1.585 6.583-5.549 14.933-9.417 22.182l.944.372 3.566-7.09z"/>
        <path fill="#9DDBE1" d="M458.194 281.908s5.755-9.134 7.499-18.878c1.744-9.744 5.398-14.172 7.372-16.161 0 0-6.421 4.833-9.964 19.575-1.585 6.583-5.549 14.933-9.417 22.182l.944.372 3.566-7.09zM422.7 241.126s7.783 4.753 13.3 24.098c5.517 19.346 9.322 21.461 9.322 21.461l-1.768.681c-4.193-8.017-8.442-17.262-10.106-24.558-3.733-16.279-10.748-21.682-10.748-21.682z"/>
        <path fill="#A5A7AA" d="M438.664 299.927s-6.231-10.14-8.038-20.898c-1.807-10.758-5.77-15.685-7.926-17.903 0 0 7.015 5.402 10.748 21.698 1.664 7.28 5.913 16.525 10.106 24.558l-1.038.396-3.852-7.851z"/>
        <path fill="#85D2DA" d="M438.664 279.927s-6.231-10.14-8.038-20.898c-1.807-10.758-5.77-15.685-7.926-17.903 0 0 7.015 5.402 10.748 21.698 1.664 7.28 5.913 16.525 10.106 24.558l-1.038.396-3.852-7.851z"/>
        <path fill="#9DDBE1" d="M434.011 227.547s7.308 6.607 9.289 28.258c1.982 21.651 5.597 24.653 5.597 24.653l-2.014.372c-2.845-9.347-5.501-20.026-5.81-28.091-.674-18.054-7.062-25.192-7.062-25.192z"/>
        <path fill="#A5A7AA" d="M443.182 291.958s-4.582-12.018-4.352-23.814c.23-11.795-2.98-17.816-4.819-20.597 0 0 6.341 7.13 7.062 25.192.309 8.065 2.965 18.744 5.81 28.091l-1.189.214-2.512-9.086z"/>
        <path fill="#85D2DA" d="M443.182 271.958s-4.582-12.018-4.352-23.814c.23-11.795-2.98-17.816-4.819-20.597 0 0 6.341 7.13 7.062 25.192.309 8.065 2.965 18.744 5.81 28.091l-1.189.214-2.512-9.086z"/>
        <path fill="#85D2DA" d="M451.433 212.591s-7.641 10.56-4.304 39.079c3.337 28.519-.507 33.407-.507 33.407l2.711-.08c1.125-12.857 1.648-27.386-.151-37.898-4.027-23.544 2.251-34.508 2.251-34.508z"/>
        <path fill="#A5A7AA" d="M451.695 292.505s2.647-16.787-.872-31.966c-3.52-15.178-.999-23.853.61-27.948 0 0-6.278 10.964-2.251 34.492 1.799 10.512 1.276 25.041.151 37.899l1.585-.04.777-12.437z"/>
        <path fill="#9DDBE1" d="M451.695 272.505s2.647-16.787-.872-31.966c-3.52-15.178-.999-23.853.61-27.948 0 0-6.278 10.964-2.251 34.492 1.799 10.512 1.276 25.041.151 37.899l1.585-.04.777-12.437z"/>
        <path fill="#435D88" d="M431.482 318.254h37.397l.809-9.047 2.624-1.323 2.378-26.697 2.013-.34.753-4.975h-54.519l.753 4.959 2.046.451 2.607 26.38 2.244 1.561.895 9.031z"/>
    </g>
  </g>
</svg>
