<svg width="392" height="328" viewBox="0 0 392 328" fill="none" xmlns="http://www.w3.org/2000/svg">
<path d="M128.948 84.5575H129.019C129.537 84.347 130.066 84.1672 130.605 84.0188H130.652C131.324 83.8314 132.007 83.6885 132.697 83.591L132.967 83.5355H133.046C133.732 83.4412 134.423 83.3909 135.115 83.385H376.555C378.613 83.3861 380.647 83.8161 382.529 84.6475C384.411 85.479 386.098 86.6936 387.483 88.2138C388.868 89.734 389.921 91.5263 390.574 93.4762C391.227 95.426 391.466 97.4906 391.275 99.5379L386.368 152.013V210.453H113.698V151.973L118.778 98.2783C118.934 96.6441 119.332 95.0422 119.959 93.5251H104.273C104.273 93.5251 102.378 93.5251 101.522 93.5251C100.687 93.5801 99.8553 93.6886 99.0335 93.8499L128.948 84.5575Z" fill="#F47954"/>
<path d="M41.511 154.112H130.09V300.534C130.085 304.87 128.359 309.027 125.29 312.091C122.221 315.156 118.06 316.877 113.721 316.877H42.6049C38.2637 316.877 34.1004 315.153 31.0308 312.085C27.9612 309.018 26.2367 304.857 26.2367 300.518V169.37C26.2388 165.323 27.8489 161.442 30.7132 158.581C33.5775 155.72 37.4614 154.112 41.511 154.112Z" fill="#F47954"/>
<path d="M41.511 154.112H130.09V300.534C130.085 304.87 128.359 309.027 125.29 312.091C122.221 315.156 118.06 316.877 113.721 316.877H42.6049C38.2637 316.877 34.1004 315.153 31.0308 312.085C27.9612 309.018 26.2367 304.857 26.2367 300.518V169.37C26.2388 165.323 27.8489 161.442 30.7132 158.581C33.5775 155.72 37.4614 154.112 41.511 154.112Z" fill="#F69476"/>
<path d="M275.628 316.702L68.2391 316.655C65.178 316.448 62.3098 315.087 60.2144 312.847C58.119 310.608 56.9529 307.656 56.9518 304.59V203.981C56.9508 202.32 57.2923 200.677 57.9549 199.154C58.6176 197.63 59.5871 196.26 60.8031 195.128C62.0191 193.996 63.4555 193.126 65.0226 192.574C66.5897 192.021 68.254 191.797 69.9116 191.916L275.596 191.837L275.628 316.702Z" fill="#339BD1"/>
<path d="M267.598 154.112H356.184V300.534C356.18 304.871 354.453 309.029 351.382 312.094C348.311 315.159 344.148 316.879 339.808 316.877H268.7C264.359 316.877 260.195 315.153 257.126 312.085C254.056 309.018 252.332 304.857 252.332 300.518V169.37C252.334 165.324 253.943 161.444 256.805 158.584C259.668 155.723 263.55 154.114 267.598 154.112Z" fill="#339BD1"/>
<path d="M143.945 316.877H72.8047C68.4636 316.877 64.3003 315.153 61.2307 312.085C58.1611 309.018 56.4366 304.857 56.4366 300.518V169.37C56.4366 167.366 56.8317 165.381 57.5994 163.529C58.3671 161.678 59.4923 159.995 60.9108 158.578C62.3292 157.161 64.0131 156.038 65.8663 155.271C67.7194 154.505 69.7054 154.111 71.7109 154.112H218.953V300.534C218.953 309.573 152.981 316.877 143.945 316.877Z" fill="#F47954"/>
<path d="M358.768 210.414H83.9969V151.973L88.7528 106.763C89.1366 103.131 90.8521 99.7696 93.5686 97.3267C96.285 94.8839 99.8101 93.5326 103.464 93.5332H348.496C350.567 93.5328 352.616 93.9678 354.508 94.81C356.401 95.6521 358.095 96.8826 359.481 98.4214C360.866 99.9603 361.913 101.773 362.552 103.743C363.191 105.712 363.409 107.794 363.191 109.852L358.768 151.973V210.414Z" fill="#F47954"/>
<path opacity="0.25" d="M358.768 210.414H83.9969V151.973L88.7528 106.763C89.1366 103.131 90.8521 99.7696 93.5686 97.3267C96.285 94.8839 99.8101 93.5326 103.464 93.5332H348.496C350.567 93.5328 352.616 93.9678 354.508 94.81C356.401 95.6521 358.095 96.8826 359.481 98.4214C360.866 99.9603 361.913 101.773 362.552 103.743C363.191 105.712 363.409 107.794 363.191 109.852L358.768 151.973V210.414Z" fill="#B75B3F"/>
<path d="M275.628 316.702L68.2391 316.655C65.178 316.448 62.3098 315.087 60.2144 312.847C58.119 310.608 56.9529 307.656 56.9518 304.59V203.981C56.9508 202.32 57.2923 200.677 57.9549 199.154C58.6176 197.63 59.5871 196.26 60.8031 195.128C62.0191 193.996 63.4555 193.126 65.0226 192.574C66.5897 192.021 68.254 191.797 69.9116 191.916L275.596 193.088L275.628 316.702Z" fill="#F47954"/>
<path d="M57.1896 201.763L57.4512 200.646C58.4341 192.003 67.7556 191.932 67.7556 191.932C103.892 179.724 160.067 191.377 160.067 191.377C160.547 191.832 161.154 192.129 161.808 192.227C162.462 192.325 163.13 192.219 163.722 191.924C191.369 178.924 243.383 190.846 264.546 194.704V230.012H57.0707V202.547L57.1896 201.763Z" fill="#B75B3F"/>
<path opacity="0.4" d="M57.1896 201.763L57.4512 200.646C58.4341 192.003 67.7556 191.932 67.7556 191.932C103.892 179.724 160.067 191.377 160.067 191.377C160.547 191.832 161.154 192.129 161.808 192.227C162.462 192.325 163.13 192.219 163.722 191.924C191.369 178.924 243.383 190.846 264.546 194.704V230.012H57.0707V202.547L57.1896 201.763Z" fill="#F47954"/>
<path d="M267.598 154.112H356.184V300.534C356.18 304.871 354.453 309.029 351.382 312.094C348.311 315.159 344.148 316.879 339.808 316.877H268.7C264.359 316.877 260.195 315.153 257.126 312.085C254.056 309.018 252.332 304.857 252.332 300.518V169.37C252.334 165.324 253.943 161.444 256.805 158.584C259.668 155.723 263.55 154.114 267.598 154.112Z" fill="#F69476"/>
<path d="M297.822 154.112H375.137C378.124 154.112 380.989 155.298 383.101 157.409C385.214 159.521 386.4 162.384 386.4 165.369V300.534C386.396 304.867 384.672 309.021 381.606 312.085C378.54 315.149 374.384 316.873 370.048 316.877H298.916C294.575 316.877 290.411 315.153 287.342 312.085C284.272 309.018 282.547 304.857 282.547 300.518V169.37C282.55 165.323 284.16 161.442 287.024 158.581C289.888 155.72 293.772 154.112 297.822 154.112Z" fill="#F47954"/>
<path d="M86.4225 327.152C134.152 327.152 172.845 324.672 172.845 321.614C172.845 318.556 134.152 316.077 86.4225 316.077C38.6927 316.077 0 318.556 0 321.614C0 324.672 38.6927 327.152 86.4225 327.152Z" fill="#31415E"/>
<path d="M212.192 39.1646C212.438 40.1786 212.557 40.8361 212.557 40.8361L212.192 39.1646Z" fill="#F8BFB1"/>
<path opacity="0.4" d="M250.358 86.7283C250.96 90.1268 251.491 93.4065 251.872 95.688C253.751 106.882 256.739 129.301 254.575 140.843C254.364 142.127 253.859 143.344 253.1 144.401C252.341 145.457 251.349 146.325 250.199 146.935C250.073 147.014 250.017 147.157 249.89 147.228L249.51 147.347C249.282 147.434 249.049 147.508 248.812 147.569L235.115 151.966L234.457 154.342C233.34 158.897 235.535 153.7 232.92 163.381C232.65 164.379 229.281 166.827 229.044 167.691C228.061 171.327 227.411 173.688 227.411 173.688C227.411 173.688 226.769 173.315 225.826 172.816L225.287 174.82C222.116 185.602 218.398 190.284 208.039 192.249H208.213C248.004 192.249 230.066 160.521 242.297 157.582C254.06 154.746 257.31 141.976 256.969 135.504C256.097 119.557 250.358 86.7283 250.358 86.7283Z" fill="#7A3D2A"/>
<path opacity="0.1" d="M181.255 194.324L143.897 200.218C137.532 201.214 131.708 204.384 127.418 209.188C123.127 213.991 120.634 220.133 120.364 226.566L118.208 277.164L115.037 193.12L181.255 194.324Z" fill="#132233"/>
<path opacity="0.1" d="M118.033 281.703L120.126 282.171L118.818 258.254H118.54L118.2 279.343L115.291 278.994L115.124 306.499L115.798 312.235L114.649 316.378L121.41 316.552V312.694C121.41 312.694 120.403 308.488 119.642 307.149C118.881 305.81 118.033 281.703 118.033 281.703Z" fill="#132233"/>
<path opacity="0.4" d="M131.001 191.852L83.0141 195.085L77.2832 262.461L85.8755 215.357C86.6678 211.014 88.7383 207.007 91.8222 203.847C94.9061 200.687 98.8631 198.519 103.187 197.62L131.001 191.852Z" fill="#132233"/>
<path opacity="0.1" d="M73.7401 275.754L72.5828 275.516L68.4531 303.362V309.486L67.2166 313.962L69.2537 313.906L70.3317 310.611L69.9988 303.623L73.2249 277.663L75.6504 276.095L75.6662 275.944L73.7401 275.754Z" fill="#132233"/>
<g opacity="0.4">
<path opacity="0.4" d="M70.6408 313.922H68.6829C68.3074 314.314 68.0612 314.812 67.9775 315.348C67.8982 315.807 67.8269 316.211 67.7476 316.599H68.8811C69.0872 315.665 69.4439 314.437 69.9274 314.223L70.6408 313.922Z" fill="#649EA3"/>
</g>
<path d="M218.557 38.7447L218.327 37.5881L218.557 38.7289V38.7447Z" fill="#FECE71"/>
<path d="M217.725 32.4072L217.598 32.4547L217.725 32.4072L218.287 25.9904C218.323 25.8287 218.347 25.6645 218.359 25.4993C218.347 25.6645 218.323 25.8287 218.287 25.9904L217.725 32.4072Z" fill="#85D2DA"/>
<path d="M219.445 16.3335L218.945 20.6747L219.445 16.3335C219.439 15.9276 219.364 15.5257 219.223 15.1452L218.557 13.7192L219.223 15.1452C219.364 15.5257 219.439 15.9276 219.445 16.3335Z" fill="#85D2DA"/>
<path d="M218.359 25.4993C218.394 25.3401 218.418 25.1786 218.43 25.016L218.914 20.6748L218.43 25.016C218.418 25.1786 218.394 25.3401 218.359 25.4993Z" fill="white"/>
<path d="M214.308 5.11611C214.003 4.78558 213.637 4.51665 213.23 4.32391L201.658 0.299561L213.23 4.34768C213.635 4.53335 214.001 4.79411 214.308 5.11611Z" fill="white"/>
<path d="M74.3901 263.324L68.4214 303.592L68.4531 309.486L67.1294 314.263L23.9935 314.476L24.2868 311.062L49.0808 302.182L55.3586 298.854L58.9414 259.823L74.3901 263.324Z" fill="#FECE71"/>
<path d="M73.1456 315.625L73.2011 315.372C73.235 315.193 73.2288 315.008 73.1831 314.832C73.1373 314.655 73.0531 314.491 72.9364 314.351C72.8198 314.211 72.6736 314.099 72.5083 314.022C72.343 313.945 72.1627 313.905 71.9804 313.906L22.2338 314.5C21.9408 314.503 21.6597 314.617 21.4467 314.818C21.2337 315.019 21.1044 315.293 21.0844 315.585C21.0736 315.746 21.0959 315.907 21.1499 316.059C21.204 316.21 21.2887 316.349 21.3987 316.466C21.5087 316.584 21.6418 316.677 21.7895 316.741C21.9373 316.805 22.0966 316.838 22.2576 316.837L71.9566 316.607C72.238 316.607 72.5106 316.509 72.7275 316.33C72.9444 316.15 73.0922 315.901 73.1456 315.625Z" fill="#85D2DA"/>
<path d="M22.0119 314.762C23.8032 315.071 30.3584 314.682 35.3838 314.445L52.9806 314.136C52.9806 314.136 50.888 302.205 46.901 302.403L32.3797 307.481C32.1498 307.561 25.9434 310.08 23.2563 311.316C22.4478 311.672 21.9405 314.746 22.0119 314.762Z" fill="#85D2DA"/>
<path d="M68.1678 199.727L172.005 192.09C185.345 190.506 191.639 184.461 195.166 172.436L199.407 154.112L162.873 151.973L153.512 159.27L76.5619 172.357C67.6842 174.519 65.013 176.048 65.5124 185.032L68.1678 199.727Z" fill="#324666"/>
<path d="M55.5488 272.284L75.6504 276.094L87.984 173.291C87.984 173.291 77.735 172.499 73.8511 173.18C64.7039 174.765 64.2521 181.3 64.0301 188.034L55.5488 272.284Z" fill="#324666"/>
<path d="M55.5488 272.284L75.6504 276.094L87.984 173.291C87.984 173.291 77.735 172.499 73.8511 173.18C64.7039 174.765 64.2521 181.3 64.0301 188.034L55.5488 272.284Z" fill="#324666"/>
<path d="M115.37 267.269L115.116 306.523L115.798 312.258L114.474 317.035L70.6884 317.4L70.9817 313.993L95.7836 305.113L101.269 302.197L99.6756 264.766L115.37 267.269Z" fill="#FECE71"/>
<path d="M119.841 318.548L119.896 318.303C119.931 318.123 119.926 317.939 119.881 317.762C119.836 317.584 119.752 317.42 119.635 317.279C119.518 317.139 119.371 317.026 119.205 316.95C119.039 316.873 118.858 316.835 118.675 316.837L68.9288 317.431C68.637 317.434 68.357 317.547 68.1442 317.746C67.9314 317.946 67.8012 318.218 67.7794 318.509C67.7673 318.669 67.7888 318.831 67.8424 318.983C67.896 319.135 67.9807 319.274 68.091 319.392C68.2012 319.51 68.3347 319.603 68.4831 319.667C68.6314 319.73 68.7913 319.762 68.9526 319.76L118.652 319.539C118.933 319.535 119.205 319.434 119.422 319.254C119.638 319.074 119.786 318.825 119.841 318.548Z" fill="#9DDBE1"/>
<path d="M68.7068 317.669C70.4982 317.986 77.0534 317.598 82.0788 317.352L99.6756 317.043C99.6756 317.043 97.583 305.121 93.6039 305.319L79.0508 310.397C78.821 310.476 72.6145 312.995 69.9275 314.223C69.1427 314.603 68.6354 317.669 68.7068 317.669Z" fill="#9DDBE1"/>
<path d="M101.776 197.683C101.776 197.683 161.264 196.233 180.129 194.427C185.678 193.888 204.258 192.938 204.258 192.938C217.606 191.353 221.759 186.909 225.287 174.892L229.527 159.23L202.379 151.094L172.797 151.981L170.657 160.862L139.538 167.112L107.57 172.959C97.2659 175.256 98.0585 177.054 98.55 186.054L101.776 197.683Z" fill="#435D88"/>
<path d="M98.2963 276.966L118.2 279.342L119.92 173.489C119.92 173.489 107.816 172.816 104.138 173.806C96.8696 175.747 96.2117 181.142 96.6477 187.86L98.2963 276.966Z" fill="#435D88"/>
<path d="M100.508 154.374L99.6755 149.898L101.253 144.257L107.531 140.779L118.017 142.752L141.448 136.581L145.388 147.434L125.825 152.322L120.435 154.722L117.455 154.904L112.627 152.551L110.432 152.512L107.515 156.948L105.446 156.79L104.756 155.15L100.508 154.374Z" fill="#FECE71"/>
<path d="M194.389 75.1066C194.49 71.3357 193.299 67.6434 191.012 64.6417C190.609 64.0777 190.093 63.6035 189.497 63.249C188.9 62.8945 188.237 62.6674 187.549 62.582C184.476 62.2072 181.366 62.859 178.703 64.4358C177.196 65.323 176.067 66.7326 175.532 68.3967C171.093 82.5057 165.782 112.49 162.525 127.756C162.087 129.838 162.385 132.008 163.37 133.895C164.354 135.782 165.963 137.269 167.923 138.102L170.388 138.973C172.176 139.413 174.058 139.253 175.746 138.517C177.433 137.781 178.832 136.511 179.725 134.902C185.836 124.817 188.658 107.666 190.822 96.5276C191.845 91.1882 194.08 80.5332 194.389 75.1066Z" fill="#4195C9"/>
<path d="M166.646 123.637L126.221 139.9L131.35 152.655L175.683 138.577C176.762 138.018 177.694 137.209 178.399 136.219C179.105 135.228 179.565 134.085 179.741 132.882L179.963 131.424C180.12 130.356 180.051 129.268 179.762 128.228C179.473 127.188 178.969 126.221 178.283 125.387C177.094 123.955 175.427 123.001 173.59 122.702L172.147 122.464C170.231 122.144 168.265 122.563 166.646 123.637Z" fill="#4195C9"/>
<path opacity="0.6" d="M175.056 74.0212C175.056 74.0212 168.715 111.389 166.963 117.806C165.212 124.223 159.378 138.031 158.133 140.542C156.889 143.053 157.206 144.455 157.206 144.455L158.633 144.257H160.622L168.081 127.748L170.459 116.562L173.32 95.9651L175.056 74.0212Z" fill="#435D88"/>
<path d="M203.077 54.8819L221.632 54.6997C221.632 54.6997 237.485 58.9855 242.091 63.2713C248.971 69.7197 249.882 84.2011 247.639 106.05C245.079 130.949 239.229 136.335 234.64 153.582C232.983 159.824 235.678 153.178 232.896 163.46C232.626 164.458 229.258 166.906 229.02 167.77C228.037 171.406 227.387 173.767 227.387 173.767C227.387 173.767 211.288 163.967 194.151 163.468C179.741 163.048 155.811 158.097 155.811 158.097C155.811 158.097 152.783 159.951 154.043 156.148C154.463 154.881 156.017 149.502 156.746 148.036C161.502 138.451 164.268 133.206 166.726 124.785C173.17 102.643 175.191 71.9696 175.191 71.9696C175.389 63.4614 184.061 57.1634 192.97 55.9355L203.077 54.8819Z" fill="#4195C9"/>
<path d="M196.593 66.131C192.629 60.8391 188.23 59.0012 184.085 59.0012C179.051 61.8848 175.31 66.4479 175.183 71.9853C175.183 71.9853 173.162 102.659 166.718 124.801C164.261 133.222 161.494 138.466 156.738 148.052C156.009 149.517 154.455 154.889 154.027 156.164C152.775 159.967 155.803 158.113 155.803 158.113C155.803 158.113 179.733 163.064 194.143 163.484C198.954 163.674 203.724 164.448 208.348 165.789C210.259 162.957 211.694 159.831 212.596 156.536C216.06 142.443 208.712 82.3076 196.593 66.131Z" fill="#4195C9"/>
<path opacity="0.1" d="M196.593 66.131C192.629 60.8391 188.23 59.0012 184.085 59.0012C179.051 61.8848 175.31 66.4479 175.183 71.9853C175.183 71.9853 173.162 102.659 166.718 124.801C164.261 133.222 161.494 138.466 156.738 148.052C156.009 149.517 154.455 154.889 154.027 156.164C152.775 159.967 155.803 158.113 155.803 158.113C155.803 158.113 179.733 163.064 194.143 163.484C198.954 163.674 203.724 164.448 208.348 165.789C210.259 162.957 211.694 159.831 212.596 156.536C214.459 149.042 206.255 129.055 206.517 108.791C206.762 90.9663 204.345 81.6184 200.358 72.7379C199.345 70.4063 198.082 68.1911 196.593 66.131Z" fill="#E8ECF1"/>
<path d="M211.772 63.9842C215.007 63.7496 218.032 62.2972 220.237 59.9202C221.101 59.334 222.615 57.5437 222.235 55.8484L217.606 34.364L200.088 36.7881C200.088 36.7881 201.935 52.7826 202.767 59.7618C203.013 61.8611 204.971 64.3248 211.772 63.9842Z" fill="#FECE71"/>
<path d="M193.628 53.2182L220.023 46.041L217.13 31.6151L217.249 25.531L211.431 4.68042L177.997 11.2002L181.643 26.9966L183.466 30.6327L185.361 42.1354L187.905 41.3908L191.496 52.0696C191.633 52.4998 191.932 52.86 192.33 53.0743C192.728 53.2886 193.193 53.3402 193.628 53.2182Z" fill="#FECE71"/>
<path opacity="0.4" d="M192.233 42.1117C192.44 42.0549 192.653 42.0177 192.867 42.0007L195.507 41.8027C196.317 41.7215 197.115 41.546 197.885 41.2799L196.062 35.6473L197.251 28.0343L191.853 26.1806L190.037 23.907L187.85 9.27515L178.005 11.1923L181.651 26.9966L183.474 30.6327L185.361 42.1354L187.905 41.3908L189.99 47.5857L188.531 43.1336L192.233 42.1117Z" fill="url(#paint0_linear)"/>
<path d="M212.192 39.1645C211.663 36.9482 210.906 34.7925 209.933 32.7319C208.07 28.9214 208.768 22.6631 208.768 22.6631L207.182 25.7289C206.723 26.6017 206.389 27.5352 206.192 28.5016L205.454 32.1457C205.311 32.8435 205.098 33.5255 204.82 34.1816L204.178 35.6472C203.434 37.361 202.24 38.8419 200.722 39.9329C199.865 40.5359 198.918 41.001 197.916 41.3114L203.116 50.3107L208.617 47.4509C208.85 47.3293 209.046 47.149 209.188 46.928L211.907 42.7769L212.557 40.8202L212.192 39.1645Z" fill="#435D88"/>
<path d="M191.464 52.0695L189.958 47.5857L191.409 51.9982C191.533 52.4695 191.834 52.8751 192.249 53.1311C192.691 53.3009 193.172 53.3421 193.636 53.2499C195.673 52.7191 201.745 51.0238 201.745 51.0238H201.8L193.628 53.242C193.186 53.3724 192.709 53.3222 192.304 53.1025C191.898 52.8827 191.596 52.5113 191.464 52.0695Z" fill="#435D88"/>
<path d="M197.916 41.2798C197.147 41.546 196.349 41.7214 195.538 41.8026L192.899 42.0007C192.685 42.0177 192.472 42.0548 192.265 42.1116L188.531 43.1335L189.99 47.5857L191.496 52.0695C191.633 52.5069 191.937 52.8727 192.342 53.0877C192.747 53.3027 193.22 53.3495 193.66 53.2182L201.832 51L203.156 50.3108L197.956 41.3115L197.916 41.2798Z" fill="#697DA0"/>
<path d="M216.734 32.732C216.734 32.732 215.593 32.8904 214.752 31.1476C213.738 29.1037 213.619 25.8161 213.579 23.1464C213.516 19.336 212.89 17.403 210.892 18.1239C209.901 18.4804 208.903 22.8296 208.078 23.4792C207.404 24.0099 205.47 18.5517 205.431 17.9892C205.367 16.9356 203.901 15.4067 203.584 14.4085C203.267 13.4104 201.364 11.7309 200.263 12.0319C198.59 12.4676 180.882 18.623 179.162 18.7656C178.108 18.8448 177.617 17.5694 177.212 16.595C176.602 15.1373 176.42 10.3208 176.42 10.3208C176.34 9.63158 177.545 11.2239 177.87 10.6139L180.137 6.43111C180.365 6.01163 180.679 5.64511 181.059 5.35566C181.439 5.0662 181.876 4.86035 182.341 4.75165L187.327 1.5195L187.549 1.47196L199.668 0.0539341C200.341 -0.0678808 201.035 0.0177728 201.658 0.299515L213.23 4.35556C214.047 4.72198 214.686 5.39711 215.006 6.23306L219.191 15.1453C219.333 15.5258 219.408 15.9277 219.413 16.3336L218.422 25.0477C218.428 25.3775 218.383 25.7063 218.287 26.0221L217.725 32.4389L216.734 32.732Z" fill="#85D2DA"/>
<path opacity="0.4" d="M182.341 4.75154C181.877 4.86685 181.443 5.07895 181.068 5.37387C180.692 5.6688 180.383 6.03987 180.161 6.46268L177.894 10.6455C177.569 11.2555 176.364 9.66315 176.444 10.3524C176.444 10.3524 176.602 15.1689 177.236 16.6265C177.64 17.601 178.132 18.8764 179.186 18.7972C179.979 18.7259 184.315 17.3395 188.841 15.8344L186.732 1.88379L182.341 4.75154Z" fill="#B6E4E9"/>
<path opacity="0.1" d="M201.745 51.0238L209.085 47.1025L212.374 41.3828L210.409 47.9026L202.213 54.961L201.745 51.0238Z" fill="#414042"/>
<path opacity="0.5" d="M90.9882 112.562L132.42 90.1979L183.752 62.479L203.18 164.181L161.486 163.547H93.2472L90.9882 112.562Z" fill="url(#paint1_linear)"/>
<path opacity="0.4" d="M193.628 166.621C193.628 166.621 170.166 169.869 159.473 170.36C148.78 170.851 123.526 168.863 119.92 168.966C116.313 169.069 108.379 171.105 103.274 171.232C100.168 171.291 97.0948 170.587 94.3252 169.18L97.0519 166.621L162.319 165.829L193.628 166.621Z" fill="#132233"/>
<path d="M150.524 114.93L161.716 164.625L81.2781 166.669L69.6341 117.782C69.4939 117.193 69.4879 116.581 69.6166 115.989C69.7452 115.398 70.0052 114.842 70.3773 114.365C70.7494 113.887 71.2241 113.499 71.7664 113.23C72.3086 112.96 72.9046 112.816 73.5102 112.807L146.521 111.777C147.449 111.765 148.352 112.072 149.081 112.646C149.809 113.22 150.319 114.026 150.524 114.93Z" fill="#F1F4F7"/>
<path d="M203.18 164.181L161.724 164.625L161.486 163.547L202.553 163.912L203.18 164.181Z" fill="#CED7E2"/>
<path d="M203.18 164.181L161.724 164.625L81.2782 166.668L82.6732 169.473L161.795 167.461L203.227 166.367L203.18 164.181Z" fill="#ADBDCF"/>
<path d="M161.724 164.625L161.795 167.461L203.227 166.367L203.18 164.181L161.724 164.625Z" fill="#F9FBFC"/>
<path d="M123.677 139.171C123.72 140.869 123.259 142.542 122.351 143.978C121.443 145.414 120.13 146.548 118.577 147.238C117.023 147.928 115.301 148.142 113.626 147.853C111.951 147.564 110.4 146.785 109.168 145.615C107.936 144.445 107.079 142.936 106.705 141.279C106.332 139.622 106.458 137.891 107.069 136.306C107.679 134.721 108.746 133.352 110.135 132.373C111.524 131.394 113.172 130.849 114.871 130.806C117.148 130.75 119.354 131.6 121.005 133.168C122.656 134.737 123.617 136.896 123.677 139.171Z" fill="#CED7E2"/>
<path opacity="0.6" d="M193.628 151.91L202.347 148.02V146.88L226.301 136.122C227.973 135.37 229.371 134.12 230.305 132.543C231.239 130.966 231.662 129.139 231.517 127.312L227.641 78.1091L238.468 134.767L204.717 149.866L193.628 151.91Z" fill="#435D88"/>
<path opacity="0.2" d="M200.16 161.987L208.173 160.386L209.109 161.186L234.323 154.809L235.329 151.086L207.896 158.097L200.16 160.386V161.987Z" fill="#B55452"/>
<path d="M184.83 161.979L186.637 162.47L193.525 164.086L196.498 163.785L201.785 161.187L221.133 154.96L216.789 144.257L193.628 151.91L183.094 149.494L175.167 152.948L173.582 157.97L172.06 164.181L174.2 164.276L174.422 163.967L180.201 164.49L184.83 161.979Z" fill="#FECE71"/>
<path d="M247.663 74.37C246.433 70.8083 244.03 67.7695 240.846 65.7509C240.27 65.3658 239.621 65.1044 238.939 64.983C238.256 64.8616 237.557 64.883 236.883 65.0458C233.871 65.7712 231.184 67.4733 229.242 69.8862C228.132 71.2536 227.567 72.9835 227.657 74.7423C228.449 89.4692 233.641 124.769 235.964 140.209C236.278 142.311 237.312 144.239 238.891 145.662C240.47 147.086 242.495 147.916 244.619 148.012L247.235 147.965C249.07 147.747 250.781 146.93 252.104 145.641C253.426 144.352 254.287 142.663 254.551 140.835C256.715 129.261 253.759 106.842 251.848 95.68C250.937 90.3089 249.272 79.5668 247.663 74.37Z" fill="#4195C9"/>
<path d="M240.371 132.612L203.235 148.02L208.95 160.378L249.859 147.26C250.919 146.664 251.823 145.826 252.496 144.813C253.17 143.801 253.594 142.644 253.735 141.437L253.909 139.964C254.034 138.892 253.931 137.807 253.609 136.778C253.287 135.749 252.752 134.799 252.038 133.99C250.812 132.598 249.123 131.697 247.282 131.455L245.832 131.257C243.906 131.004 241.955 131.488 240.371 132.612Z" fill="#4195C9"/>
<defs>
<linearGradient id="paint0_linear" x1="181.326" y1="44.4407" x2="193.386" y2="11.2987" gradientUnits="userSpaceOnUse">
<stop stop-color="white"/>
<stop offset="0.52" stop-color="#F0F3F6"/>
<stop offset="1" stop-color="#E8ECF1"/>
</linearGradient>
<linearGradient id="paint1_linear" x1="103.092" y1="175.264" x2="205.945" y2="88.9122" gradientUnits="userSpaceOnUse">
<stop stop-color="white"/>
<stop offset="0.46" stop-color="#F0F3F6"/>
<stop offset="0.89" stop-color="#E8ECF1"/>
</linearGradient>
</defs>
</svg>
