<svg width="637" height="428" viewBox="0 0 637 428" fill="none" xmlns="http://www.w3.org/2000/svg">
<path d="M424.965 67.2833C427.259 64.3594 428.682 60.8458 429.07 57.1472C429.458 53.4486 428.796 49.7154 427.159 46.3773C425.522 43.0393 422.978 40.2322 419.818 38.2792C416.659 36.3263 413.013 35.3069 409.301 35.3385C405.589 35.3701 401.961 36.4513 398.835 38.4577C395.709 40.4641 393.213 43.3141 391.633 46.6795C390.053 50.0449 389.454 53.7889 389.905 57.4804C390.356 61.1718 391.838 64.6607 394.181 67.5452L394.247 74.5142L401.019 72.9272C405.058 74.8473 409.628 75.3346 413.979 74.309C418.331 73.2834 422.204 70.8059 424.965 67.2833Z" fill="#E3F1FB"/>
<path d="M463.102 50.3776C457.617 44.8195 454.55 37.3124 454.572 29.4963C454.594 21.6803 457.703 14.1906 463.22 8.66382C468.737 3.137 476.214 0.0222599 484.016 0.000118848C491.818 -0.0220222 499.312 3.05023 504.86 8.54565C514.807 18.5102 516.148 33.8071 508.938 45.2455L510.088 55.6207L499.729 54.4681C494.066 58.0495 487.356 59.5954 480.7 58.8521C474.045 58.1087 467.839 55.1203 463.102 50.3776Z" fill="white"/>
<path d="M467.364 28.5977L478.347 22.932V24.5686L469.091 29.2146V29.2623L478.347 33.9102V35.5469L467.364 29.8792V28.5977Z" fill="#485E88"/>
<path d="M479.893 36.4951L486.495 19.3037H488.105L481.479 36.4951H479.893Z" fill="#485E88"/>
<path d="M500.583 29.903L489.6 35.5469V33.9102L498.927 29.2623V29.2146L489.6 24.5686V22.932L500.583 28.5759V29.903Z" fill="#485E88"/>
<path opacity="0.2" d="M367.838 419.91C511.342 419.91 627.674 417.833 627.674 415.272C627.674 412.71 511.342 410.634 367.838 410.634C224.334 410.634 108.002 412.71 108.002 415.272C108.002 417.833 224.334 419.91 367.838 419.91Z" fill="#293752"/>
<path opacity="0.2" d="M72.2875 422.532C112.211 422.532 144.575 421.369 144.575 419.934C144.575 418.498 112.211 417.335 72.2875 417.335C32.3642 417.335 0 418.498 0 419.934C0 421.369 32.3642 422.532 72.2875 422.532Z" fill="#1D283D"/>
<path opacity="0.2" d="M569.155 428.869C606.358 428.869 636.516 427.45 636.516 425.701C636.516 423.951 606.358 422.532 569.155 422.532C531.953 422.532 501.795 423.951 501.795 425.701C501.795 427.45 531.953 428.869 569.155 428.869Z" fill="#1D283D"/>
<path d="M31.0228 332.949H34.9536L34.9536 244.458H31.0228L31.0228 332.949Z" fill="#8691A3"/>
<path d="M25.7058 273.186H57.5544C71.7925 273.186 73.9074 261.624 73.9074 247.361V223.803C73.9074 209.54 71.7925 197.977 57.5544 197.977H25.7058C11.4677 197.977 7.99829 209.54 7.99829 223.803V247.361C7.99829 261.624 11.4677 273.186 25.7058 273.186Z" fill="#485E88"/>
<path d="M45.7005 402.07H52.1324L52.1324 336.127H45.7005L45.7005 402.07Z" fill="#8691A3"/>
<path d="M81.8304 408.513V402.07H16.0044V408.513H81.8304Z" fill="#8691A3"/>
<path d="M28.9931 414.306C28.9931 412.679 28.5114 411.088 27.6091 409.735C26.7067 408.382 25.4241 407.328 23.9236 406.705C22.423 406.083 20.7718 405.92 19.1788 406.237C17.5858 406.554 16.1225 407.338 14.974 408.489C13.8256 409.639 13.0434 411.105 12.7266 412.701C12.4097 414.297 12.5723 415.951 13.1939 417.454C13.8154 418.957 14.868 420.242 16.2185 421.146C17.569 422.05 19.1567 422.532 20.7809 422.532C22.9589 422.532 25.0477 421.666 26.5878 420.123C28.1279 418.58 28.9931 416.488 28.9931 414.306Z" fill="#485E88"/>
<path d="M57.3762 414.306C57.3762 412.679 56.8945 411.088 55.9922 409.735C55.0898 408.382 53.8072 407.328 52.3067 406.705C50.8061 406.083 49.1549 405.92 47.5619 406.237C45.9689 406.554 44.5056 407.338 43.3571 408.489C42.2086 409.639 41.4265 411.105 41.1096 412.701C40.7928 414.297 40.9554 415.951 41.577 417.454C42.1985 418.957 43.2511 420.242 44.6016 421.146C45.9521 422.05 47.5398 422.532 49.164 422.532C51.342 422.532 53.4308 421.666 54.9709 420.123C56.511 418.58 57.3762 416.488 57.3762 414.306Z" fill="#485E88"/>
<path d="M85.7593 414.306C85.7593 412.679 85.2777 411.088 84.3753 409.735C83.4729 408.382 82.1904 407.328 80.6898 406.705C79.1892 406.083 77.538 405.92 75.945 406.237C74.352 406.554 72.8888 407.338 71.7403 408.489C70.5918 409.639 69.8096 411.105 69.4928 412.701C69.1759 414.297 69.3385 415.951 69.9601 417.454C70.5817 418.957 71.6342 420.242 72.9847 421.146C74.3352 422.05 75.9229 422.532 77.5471 422.532C79.7251 422.532 81.8139 421.666 83.354 420.123C84.8941 418.58 85.7593 416.488 85.7593 414.306Z" fill="#485E88"/>
<path d="M16.0401 325.109H96.7359C103.724 325.109 109.386 320.521 109.386 314.859C109.386 309.197 103.724 304.607 96.7359 304.607H16.0401C9.05378 304.607 3.39023 309.197 3.39023 314.859C3.38428 320.521 9.04784 325.109 16.0401 325.109Z" fill="#485E88"/>
<path d="M82.2958 325.109C82.2958 325.109 51.3324 352.797 16.0401 325.109H82.2958Z" fill="#8691A3"/>
<path d="M96.3378 304.609H55.1226C52.1211 304.609 49.2425 303.414 47.1201 301.288C44.9977 299.162 43.8054 296.278 43.8054 293.271L43.8054 268.415H96.3378V304.609Z" fill="#005487"/>
<path d="M163.372 413.187H162.942L162.845 415.353H152.48L152.762 412.484H153.1V412.455L154.053 402.078L163.312 402.191L169.067 406.952L185.43 411.451C185.43 411.451 186.668 411.993 186.644 412.671L186.6 413.913L186.573 414.663C186.573 414.663 186.375 414.994 185.101 415.365H166.425L165.338 413.913L164.279 413.246L163.372 413.187Z" fill="#BC8541"/>
<path d="M165.643 403.593L152.167 405.444L139.44 310.29L113.2 308.525L55.1226 304.607L54.8295 283.38L92.6763 284.807L149.205 288.859C150.947 288.99 152.628 289.556 154.096 290.504C155.564 291.452 156.772 292.754 157.609 294.289L160.393 299.391C161.522 301.461 161.922 303.852 161.528 306.178L165.643 403.593Z" fill="#005487"/>
<path d="M118.273 411.372H117.842L117.744 413.538H107.394L107.675 410.669H108.011V410.642L108.966 400.262L118.224 400.377L123.978 405.139L140.343 409.638C140.343 409.638 141.581 410.177 141.555 410.858L141.512 412.1L141.486 412.849C141.486 412.849 141.288 413.181 140.013 413.552H121.337L120.248 412.1L119.188 411.433L118.273 411.372Z" fill="#BC8541"/>
<path d="M120.848 400.975L107.382 402.825L126.571 305.303L75.6778 304.607L56.4118 304.48L56.5048 284.807H58.6554L140.599 286.511C141.383 286.505 142.153 286.713 142.829 287.111C143.505 287.509 144.06 288.083 144.436 288.772L148.5 296.219C148.987 297.111 149.146 298.146 148.95 299.143L120.848 400.975Z" fill="#005487"/>
<path d="M202.428 205.16L198.65 204.946L205.037 91.303L208.815 91.5172C209.419 91.5512 210.01 91.704 210.555 91.9669C211.1 92.2299 211.588 92.5978 211.991 93.0497C212.394 93.5017 212.704 94.0287 212.903 94.6007C213.103 95.1727 213.188 95.7785 213.154 96.3834L207.286 200.811C207.252 201.417 207.1 202.009 206.837 202.555C206.575 203.101 206.207 203.59 205.756 203.994C205.305 204.397 204.779 204.708 204.208 204.908C203.637 205.108 203.032 205.194 202.428 205.16Z" fill="#485E88"/>
<path d="M154.659 229.116H197.036C197.036 229.116 197.654 226.261 197.036 225.656C196.302 224.94 194.999 225.472 194.999 225.472L154.659 227.559V229.116Z" fill="#485E88"/>
<path d="M228.683 188.088L215.882 142.528C216.3 116.62 213.154 96.3834 213.154 96.3834L207.286 200.811C211.746 187.322 214.066 172.664 215.14 158.704L225.922 188.982C229.988 202.982 226.342 220.973 213.152 226.22L199.921 226.327L200.046 229.233L213.512 229.116L213.969 229.021C228.903 223.28 233.162 203.509 228.683 188.088Z" fill="#78859D"/>
<path d="M578.762 229.233H133.066V237.303H578.762V229.233Z" fill="white"/>
<path d="M148.765 237.303H141.122V416.323H148.765V237.303Z" fill="#E3F1FB"/>
<path d="M567.839 237.303H560.195V416.323H567.839V237.303Z" fill="#E3F1FB"/>
<path d="M399.326 227.128C397.742 227.035 395.104 226.842 393.855 226.533C388.664 225.242 384.171 219.255 384.171 213.896V187.808H348.394V213.896C348.394 219.253 343.901 225.242 338.71 226.533C337.461 226.842 334.833 227.035 333.237 227.128C332.883 227.149 332.55 227.305 332.306 227.562C332.062 227.82 331.924 228.161 331.922 228.517V229.816H400.637V228.517C400.635 228.162 400.498 227.821 400.255 227.564C400.012 227.306 399.68 227.15 399.326 227.128Z" fill="#485E88"/>
<path d="M348.394 187.808V207.104L384.171 213.361V187.808H348.394Z" fill="#404041"/>
<path d="M440.505 92.3563H292.059C289.899 92.3563 288.148 94.1104 288.148 96.2743V201.809C288.148 203.973 289.899 205.727 292.059 205.727H440.505C442.665 205.727 444.417 203.973 444.417 201.809V96.2743C444.417 94.1104 442.665 92.3563 440.505 92.3563Z" fill="#485E88"/>
<path d="M439.371 97.411H293.194V187.808H439.371V97.411Z" fill="white"/>
<path d="M363.158 174.253L363.044 174.257V174.253H363.158Z" fill="#2A2A3B"/>
<path d="M363.158 92.3543L363.044 92.3583V92.3543H363.158Z" fill="#2A2A3B"/>
<path d="M447.716 226.561H328.518V228.953H447.716V226.561Z" fill="#424344"/>
<path d="M535.463 423.393H535.794L535.867 425.05H543.78L543.567 422.856H543.307V422.834L543.283 414.776H535.067L534.893 415.837L531.101 418.615L519.102 422.054C519.102 422.054 518.158 422.467 518.176 422.985L518.209 423.935L518.229 424.508C518.229 424.508 518.376 424.76 519.354 425.046H533.115L533.946 423.935L534.756 423.427L535.463 423.393Z" fill="#1A2C3D"/>
<path d="M605.749 423.393H606.08L606.153 425.05H614.074L613.858 422.856H613.599V422.834L613.084 414.776H604.87L604.695 415.837L601.394 418.615L589.396 422.054C589.396 422.054 588.451 422.467 588.469 422.985L588.503 423.935L588.524 424.508C588.524 424.508 588.669 424.76 589.649 425.046H603.408L604.24 423.935L605.05 423.427L605.749 423.393Z" fill="#1A2C3D"/>
<path d="M603.062 415.722H614.296L615.082 317.237L618.345 218.719H588.344L597.982 317.237L603.062 415.722Z" fill="#485E88"/>
<path d="M533.37 415.24L544.594 415.754L565.88 324.855L592.661 218.858L563.397 218.719L558.668 255.943L548.798 324.072L533.37 415.24Z" fill="#485E88"/>
<path d="M572.031 115.051L566.076 116.608C565.205 116.836 564.278 116.707 563.501 116.251C562.724 115.795 562.159 115.049 561.931 114.176L557.09 95.5998L569.617 92.3266L574.459 110.903C574.685 111.775 574.557 112.702 574.101 113.48C573.646 114.258 572.901 114.823 572.031 115.051Z" fill="#F9C0B2"/>
<path d="M505.781 161.439L496.694 164.135L490.539 162.773L485.422 163.124L480.877 164.221L483.527 165.687L485.933 165.504L487.745 165.905L487.737 166.516L482.687 168.813L473.19 170.257L474.364 171.787L477.014 173.187L480.036 175.149L488.377 174.098L497.704 171.132L508.306 168.97L505.781 161.439Z" fill="#F9C0B2"/>
<path d="M543.636 164.014L542.743 163.475C541.322 162.615 540.286 161.241 539.848 159.637C539.411 158.033 539.606 156.322 540.392 154.857L573.892 107.998C577.075 103.134 582.617 101.476 587.318 104.322L588.277 104.985C592.978 107.832 593.386 113.378 590.313 117.939L552.343 162.092C551.415 163.47 549.994 164.439 548.373 164.797C546.752 165.154 545.056 164.874 543.636 164.014Z" fill="#485E88"/>
<path d="M503.724 171.704L499.282 162.104L545.707 151.138C551.791 150.055 554.024 156.044 553.26 159.539C552.49 163.032 550.583 164.84 545.735 165.467L503.724 171.704Z" fill="#38B9C6"/>
<path d="M570.91 97.3297L552.89 103.682L548.109 97.6629L544.369 95.4649L546.119 89.0355L544.341 76.1528L563.825 70.0785L570.91 97.3297Z" fill="#F9C0B2"/>
<path d="M568.506 88.0852C568.506 88.0852 560.797 85.6392 560.054 83.2884C559.312 80.9377 556.86 75.1431 554.64 77.7795C553.133 79.5649 551.274 79.303 548.303 78.6563C545.333 78.0096 543.701 79.1939 541.254 76.0556C538.806 72.9173 539.576 70.4058 540.616 69.1798C541.137 68.5649 542.961 67.3131 547.884 67.9102C552.806 68.5073 556.609 64.9822 559.646 65.5872C564.445 66.5434 569.672 71.6953 570.538 76.6309C571.403 81.5665 568.506 88.0852 568.506 88.0852Z" fill="#1A2C3D"/>
<path d="M162.229 217.168L168.354 215.559L175.123 217.394L182.091 224.353L180.042 224.922L178.998 223.95L172.445 226.162L172.051 223.815L171.332 223.365L165.908 224.385L161.859 224.21L154.415 225.799L155.502 218.231L162.229 217.168Z" fill="#F9C0B2"/>
<path d="M113.529 235.278L114.62 234.946C116.357 234.421 117.827 233.246 118.723 231.665C119.62 230.084 119.876 228.218 119.438 226.454L102.845 164.79C102.502 163.406 101.881 162.106 101.021 160.969C100.161 159.833 99.0791 158.883 97.8415 158.178C96.6038 157.473 95.236 157.028 93.8212 156.868C92.4063 156.709 90.9739 156.839 89.6109 157.252L89.2149 157.283C83.4721 159.025 80.7374 165.203 82.7612 170.87L104.821 230.876C105.432 232.588 106.676 234 108.297 234.82C109.918 235.639 111.791 235.803 113.529 235.278Z" fill="#0083C7"/>
<path d="M159.609 227.273L159.146 217.053C159.146 217.053 120.259 217.9 108.219 222.409C104.56 223.782 102.649 227.765 104.625 231.137L105.299 232.242C107.279 235.615 110.536 236.16 114.98 234.881L159.609 227.273Z" fill="#0083C7"/>
<path d="M152.213 213.867L158.128 211.272L164.958 212.855L172.18 219.55L170.152 220.197L169.073 219.263L162.605 221.717L162.126 219.386L161.391 218.961L156.009 220.181L151.955 220.157L144.575 222.02L145.383 214.418L152.213 213.867Z" fill="#FACDC1"/>
<path d="M44.1222 269.46L96.0705 270.726L98.1913 265.328L101.324 192.144L102.724 180.021C104.231 162.544 100.564 157.041 92.2941 156.684L71.4281 155.369C56.2395 155.5 49.968 165.31 48.56 174.971C48.56 174.971 44.6332 192.031 43.8411 197.81C41.8608 212.292 39.8013 256.115 39.8013 256.115L44.1222 269.46Z" fill="#0083C7"/>
<path d="M74.5966 148.961L94.823 151.144C95.3874 151.204 95.9564 151.083 96.4474 150.797C96.9384 150.512 97.3259 150.077 97.5537 149.557L100.562 142.715L103.831 141.883L100.32 132.335L100.443 116.176L74.7193 118.919L74.5966 148.961Z" fill="#F9C0B2"/>
<path d="M77.2659 159.973L83.674 160.481C85.7969 160.65 87.6682 160.114 87.8326 157.988L89.3297 137.775L75.2362 136.66L73.7252 155.807C73.6835 156.314 73.7421 156.824 73.8977 157.308C74.0532 157.792 74.3027 158.24 74.6316 158.627C74.9606 159.014 75.3627 159.333 75.8148 159.564C76.2668 159.795 76.76 159.934 77.2659 159.973Z" fill="#F9C0B2"/>
<path d="M75.3114 143.593C75.3114 143.593 75.8956 141.748 76.955 140.76C78.0145 139.773 82.1394 133.946 80.571 132.306C78.5749 130.219 80.6898 126.934 82.2879 127.086C83.08 127.164 83.8503 128.985 84.5791 129.308C85.1731 129.572 86.7574 126.233 86.6821 125.815C86.5336 125.031 86.9693 124.029 87.0168 123.236C87.0683 122.373 88.8703 120.26 89.7337 120.26C91.0387 120.26 99.0073 124.144 100.294 123.922C101.087 123.787 101.205 122.752 101.318 121.962C101.489 120.772 100.7 117.201 100.7 117.201C100.632 116.684 100.408 116.2 100.059 115.813L97.6112 113.156C97.3679 112.887 97.0707 112.673 96.739 112.527C96.4074 112.381 96.0487 112.307 95.6864 112.309L92.1219 114.954C92.0645 114.954 92.0051 114.954 91.9476 114.954L81.7413 114.007C81.2262 114.047 80.7349 114.241 80.3314 114.565L72.6084 119.723C72.0789 120.147 71.738 120.764 71.6598 121.438L70.8677 132.427C70.8329 132.731 70.853 133.04 70.9271 133.337L72.4103 138.015C72.4697 138.258 72.5651 138.491 72.6935 138.705L74.5272 143.534L75.3114 143.593Z" fill="#1A2C3D"/>
<path d="M107.649 232.599L108.651 232.052C110.245 231.182 111.444 229.732 112.001 228.001C112.557 226.271 112.428 224.392 111.639 222.754L72.0935 164.875C71.475 163.591 70.6024 162.446 69.5287 161.509C68.4549 160.573 67.2025 159.865 65.8473 159.428C64.4921 158.991 63.0625 158.834 61.6451 158.968C60.2277 159.101 58.8522 159.522 57.6019 160.204L56.5246 160.882C51.2492 163.762 50.5344 169.809 53.6671 174.937L98.2231 230.074C99.1704 231.627 100.677 232.755 102.432 233.225C104.187 233.695 106.055 233.471 107.649 232.599Z" fill="#339CD2"/>
<path d="M150.249 222.244L151.146 213.047L100.486 220.387C99.7087 220.897 99.0388 221.555 98.515 222.323C97.9911 223.092 97.6236 223.957 97.4334 224.868C97.2433 225.779 97.2342 226.719 97.4067 227.634C97.5793 228.549 97.93 229.42 98.4389 230.199C100.578 233.474 103.914 234.218 108.291 232.724L150.249 222.244Z" fill="#339CD2"/>
<path d="M618.078 220.812L562.967 223.284L560.028 218.285L545.84 145.605L544.105 133.565C542.782 118.721 545.753 109.679 553.864 108.032L575.597 102.511C590.622 100.26 598.604 110.903 601.503 120.226L607.493 142.227L620.262 206.953L618.078 220.812Z" fill="#38B9C6"/>
<path d="M507.007 228.953L511.866 229.233L518.457 226.384L520.793 226.813L519.251 229.233H522.7L525.13 224.845L525.322 221.177L530.396 213.301L523.031 211.07L517.391 218.941L512.401 223.623L501.795 228.092V229.233L507.007 228.953Z" fill="#F9C0B2"/>
<path d="M545.547 182.069L544.503 182.033C542.844 181.976 541.271 181.283 540.108 180.097C538.945 178.91 538.282 177.322 538.255 175.659L544.677 118.385C545.089 112.585 549.119 108.427 554.608 108.615L555.767 108.724C561.258 108.923 564.314 113.555 563.854 119.04L552.212 176.137C552.073 177.794 551.303 179.333 550.062 180.437C548.822 181.541 547.205 182.125 545.547 182.069Z" fill="#60C7D1"/>
<path d="M528.649 218.719L519.126 215.148L538.949 172.471C541.883 167.022 547.959 168.986 550.214 171.763C552.468 174.54 552.696 177.157 550.181 181.347L528.649 218.719Z" fill="#60C7D1"/>
<path d="M357.978 109.199H321.157V110.099H357.978V109.199Z" fill="#58595B"/>
<path d="M342.986 111.855H321.872V112.756H342.986V111.855Z" fill="#0083C7"/>
<path d="M326.767 117.834H321.565V118.735H326.767V117.834Z" fill="#F2706D"/>
<path d="M342.423 117.834H328.755V118.735H342.423V117.834Z" fill="#0083C7"/>
<path d="M332.429 120.669H327.023V121.569H332.429V120.669Z" fill="#58595B"/>
<path d="M338.801 120.669H333.55V121.569H338.801V120.669Z" fill="#58595B"/>
<path d="M350.992 120.669H341.607V121.569H350.992V120.669Z" fill="#38B9C6"/>
<path d="M336.56 123.504H331.969V124.404H336.56V123.504Z" fill="#F2706D"/>
<path d="M341.964 123.504H337.68V124.404H341.964V123.504Z" fill="#58595B"/>
<path d="M357.162 123.504H343.647V124.404H357.162V123.504Z" fill="#58595B"/>
<path d="M389.393 123.504H368.739V124.404H389.393V123.504Z" fill="#58595B"/>
<path d="M401.019 123.504H391.993V124.404H401.019V123.504Z" fill="#38B9C6"/>
<path d="M335.463 126.34H331.969V127.241H335.463V126.34Z" fill="#F2706D"/>
<path d="M342.883 126.34H337.629V127.241H342.883V126.34Z" fill="#58595B"/>
<path d="M362.976 126.34H343.851V127.241H362.976V126.34Z" fill="#38B9C6"/>
<path d="M364.915 129.175H339.568V130.076H364.915V129.175Z" fill="#0083C7"/>
<path d="M339.568 132.01H331.969V132.911H339.568V132.01Z" fill="#58595B"/>
<path d="M335.132 134.847H331.969V135.747H335.132V134.847Z" fill="#F2706D"/>
<path d="M342.831 134.847H337.884V135.747H342.831V134.847Z" fill="#38B9C6"/>
<path d="M368.28 134.847H346.146V135.747H368.28V134.847Z" fill="#58595B"/>
<path d="M366.547 137.682H338.14V138.582H366.547V137.682Z" fill="#58595B"/>
<path d="M338.7 140.517H331.969V141.417H338.7V140.517Z" fill="#58595B"/>
<path d="M337.223 143.351H331.969V144.252H337.223V143.351Z" fill="#F2706D"/>
<path d="M341.633 143.351H338.7V144.252H341.633V143.351Z" fill="#0083C7"/>
<path d="M358.285 143.351H344.566V144.252H358.285V143.351Z" fill="#58595B"/>
<path d="M347.013 146.188H339.16V147.089H347.013V146.188Z" fill="#38B9C6"/>
<path d="M381.589 146.188H350.225V147.089H381.589V146.188Z" fill="#58595B"/>
<path d="M394.952 146.188H384.548V147.089H394.952V146.188Z" fill="#38B9C6"/>
<path d="M421.42 146.188H398.215V147.089H421.42V146.188Z" fill="#58595B"/>
<path d="M334.06 149.023H322.125V149.924H334.06V149.023Z" fill="#58595B"/>
<path d="M349.92 149.023H339.16V149.924H349.92V149.023Z" fill="#58595B"/>
<path d="M340.168 151.858H331.969V152.758H340.168V151.858Z" fill="#58595B"/>
<path d="M334.825 154.695H327.839V155.595H334.825V154.695Z" fill="#0083C7"/>
<path d="M329.571 157.529H322.125V158.43H329.571V157.529Z" fill="#58595B"/>
<path d="M326.256 162.774H322.125V163.675H326.256V162.774Z" fill="#F2706D"/>
<path d="M334.058 162.774H328.347V163.675H334.058V162.774Z" fill="#58595B"/>
<path d="M351.196 162.774H335.641V163.675H351.196V162.774Z" fill="#58595B"/>
<path d="M338.853 165.536H327.124V166.437H338.853V165.536Z" fill="#58595B"/>
<path d="M350.687 165.536H342.322V166.437H350.687V165.536Z" fill="#0083C7"/>
<path d="M355.683 168.299H332.734V169.2H355.683V168.299Z" fill="#58595B"/>
<path d="M337.375 171.061H332.734V171.961H337.375V171.061Z" fill="#F2706D"/>
<path d="M342.78 171.061H339.465V171.961H342.78V171.061Z" fill="#38B9C6"/>
<path d="M375.826 171.061H344.922V171.961H375.826V171.061Z" fill="#58595B"/>
<path d="M385.159 171.061H378.989V171.961H385.159V171.061Z" fill="#58595B"/>
<path d="M334.061 173.824H327.124V174.725H334.061V173.824Z" fill="#58595B"/>
<path d="M331.662 176.586H322.125V177.486H331.662V176.586Z" fill="#58595B"/>
<path d="M278.748 304.609H339.92V268.415H278.748V304.609Z" fill="#005487"/>
<path d="M375.082 415.633H374.65L374.555 417.801H364.202L364.483 414.932H364.822V414.903L365.776 404.524L375.034 404.639L380.789 409.4L397.154 413.899C397.154 413.899 398.391 414.439 398.367 415.119L398.322 416.361L398.296 417.111C398.296 417.111 398.098 417.442 396.825 417.813H378.155L377.068 416.361L376.008 415.694L375.082 415.633Z" fill="#0D0D10"/>
<path d="M377.678 406.081L364.212 407.93L372.608 309.707L356.792 308.517L279.439 304.599V283.001L336.259 284.807L382.363 288.276C384.105 288.408 385.786 288.973 387.254 289.922C388.722 290.87 389.929 292.171 390.767 293.706L393.552 298.81C394.682 300.879 395.083 303.269 394.688 305.595L377.678 406.081Z" fill="#005487"/>
<path d="M339.178 411.372H338.746L338.651 413.538H328.298L328.579 410.669H328.918V410.642L329.872 400.262L339.13 400.377L344.885 405.139L361.249 409.638C361.249 409.638 362.487 410.177 362.463 410.858L362.418 412.1L362.392 412.849C362.392 412.849 362.194 413.181 360.921 413.552H342.251L341.164 412.1L340.104 411.433L339.178 411.372Z" fill="#0D0D10"/>
<path d="M341.774 400.975L328.298 402.825L339.766 303.25L319.25 304.607L278.748 305.952L280.162 284.807H302.228L353.8 284.457C354.584 284.452 355.355 284.66 356.031 285.059C356.706 285.457 357.262 286.032 357.638 286.721L361.701 294.168C362.187 295.06 362.346 296.093 362.151 297.09L341.774 400.975Z" fill="#005487"/>
<path d="M310.947 157.738L332.407 156.093C332.977 156.055 333.509 155.797 333.893 155.374C334.277 154.951 334.483 154.395 334.467 153.824L334.269 146.331L338.459 146.432L335.148 138.152L334.059 136.366L334.15 123.742L307.363 123.506L310.125 151.588L310.947 157.738Z" fill="#F9C0B2"/>
<path d="M310.763 173.661L322.72 174.503C322.873 174.513 323.027 174.494 323.172 174.445C323.318 174.396 323.452 174.319 323.568 174.218C323.684 174.117 323.779 173.994 323.848 173.857C323.916 173.719 323.957 173.569 323.967 173.415L325.34 153.592L310.28 152.532L308.959 171.577C308.923 172.092 309.093 172.602 309.431 172.992C309.769 173.383 310.248 173.624 310.763 173.661Z" fill="#F9C0B2"/>
<path d="M335.748 124.384C335.524 123.591 335.13 122.631 335.047 122.357C333.554 117.429 323.43 116.453 323.43 116.453L313.818 116.727C313.282 116.88 309.462 119.207 309.107 119.635L304.432 125.918C303.964 126.483 302.81 131.631 302.877 132.361L305.765 142.752C305.796 143.082 305.885 143.403 306.028 143.702L307.315 146.962C307.432 147.206 307.79 148.549 307.972 148.747L309.769 151.227L315.339 150.983C316.193 150.949 317.02 150.68 317.731 150.205C318.442 149.731 319.01 149.07 319.371 148.295C320.302 146.281 321.286 143.587 320.721 142.145C319.585 139.241 318.975 136.438 320.442 135.509C322.074 134.476 322.508 136.722 323.351 136.898C324.034 137.047 324.286 133.186 324.26 132.732C324.253 132.369 324.285 132.005 324.357 131.649C325.149 131.127 324.468 130.754 326.508 131.165C329.597 131.788 329.708 132.702 332.567 127.634C333.344 126.255 333.215 124.476 332.858 123.783C333.164 123.932 333.46 124.103 333.742 124.293C334.417 125.585 333.989 127.233 334.169 127.199C334.924 127.053 335.979 125.212 335.748 124.384Z" fill="#1A2C3D"/>
<path opacity="0.2" d="M325.797 156.561L326.391 155.633L330.684 154.076C331.263 153.922 331.793 153.623 332.223 153.206C332.653 152.789 332.969 152.269 333.142 151.695L334.344 149.315L334.375 150.483L334.467 153.824C334.481 154.393 334.275 154.946 333.892 155.368C333.509 155.789 332.978 156.046 332.411 156.085L325.797 156.561Z" fill="#005486"/>
<path d="M367.274 218.898L373.107 216.43L380.07 217.281L387.956 223.173L386.009 224.03L384.837 223.216L378.666 226.343L377.941 224.075L377.167 223.73L371.943 225.515L367.909 225.92L360.768 228.555V220.911L367.274 218.898Z" fill="#F9C0B2"/>
<path d="M323.825 247.26L324.9 246.875C326.609 246.261 328.017 245.013 328.833 243.388C329.65 241.764 329.811 239.887 329.284 238.146L306.026 173.552C305.615 172.187 304.93 170.919 304.014 169.827C303.098 168.734 301.97 167.84 300.698 167.198C299.426 166.557 298.037 166.181 296.616 166.095C295.194 166.008 293.77 166.212 292.43 166.694C291.089 167.175 289.861 167.924 288.818 168.895C287.775 169.867 286.941 171.04 286.365 172.344C285.789 173.649 285.484 175.057 285.467 176.483C285.451 177.909 285.725 179.323 286.271 180.64L314.908 243.306C315.603 244.986 316.917 246.333 318.577 247.069C320.237 247.805 322.116 247.873 323.825 247.26Z" fill="#FBB157"/>
<path d="M366.117 229.275L364.204 219.223C364.204 219.223 328.757 228.826 317.49 235.016C314.062 236.896 312.737 241.108 315.173 244.165L315.997 245.157C318.434 248.214 321.739 248.287 325.953 246.387L366.117 229.275Z" fill="#FBB157"/>
<path d="M278.764 277.711H339.92L341.926 271.849L347.493 205.424L347.423 190.014C346.469 173.747 341.813 166.55 332.769 166.075L303.04 164.403C285.459 164.036 281.829 178.105 281.356 187.161L280.366 209.558L276.269 268.561L278.764 277.711Z" fill="#FBB157"/>
<path d="M408.483 218.094H413.378L427.032 225.525L426.078 226.876L419.891 226.569L412.267 228.983L406.18 228.326L397.138 231.37L395.259 224.17L408.483 218.094Z" fill="#F9C0B2"/>
<path d="M351.907 252.533L353.043 252.417C354.849 252.235 356.516 251.365 357.699 249.986C358.882 248.607 359.49 246.826 359.398 245.01L345.374 176.294C345.303 174.869 344.944 173.474 344.318 172.192C343.692 170.911 342.812 169.771 341.732 168.841C340.652 167.911 339.394 167.211 338.035 166.784C336.677 166.357 335.246 166.211 333.829 166.355L332.571 166.554C326.595 167.149 323.597 172.445 324.496 178.395L344.203 246.538C344.474 248.336 345.425 249.962 346.859 251.078C348.293 252.194 350.1 252.715 351.907 252.533Z" fill="#FBB157"/>
<path d="M400.033 232.691L398.429 221.669L346.942 239.963C345.48 241.14 344.543 242.851 344.339 244.719C344.135 246.587 344.68 248.46 345.853 249.926C348.301 252.979 351.693 253.395 355.905 251.483L400.033 232.691Z" fill="#FBB157"/>
<path d="M308.052 164.685L309.674 161.263L324.744 162.209L326.433 165.718L308.052 164.685Z" fill="#FBB157"/>
<path d="M306.808 402.07H313.24V336.127H306.808V402.07Z" fill="#8691A3"/>
<path d="M342.938 408.515V402.072H277.112V408.515H342.938Z" fill="#8691A3"/>
<path d="M290.109 414.306C290.109 412.679 289.627 411.088 288.724 409.735C287.822 408.382 286.539 407.328 285.039 406.705C283.538 406.082 281.887 405.92 280.294 406.237C278.701 406.555 277.237 407.338 276.089 408.489C274.94 409.64 274.158 411.106 273.842 412.702C273.525 414.298 273.688 415.952 274.31 417.455C274.932 418.958 275.985 420.243 277.335 421.147C278.686 422.051 280.274 422.533 281.898 422.532C282.977 422.532 284.045 422.32 285.041 421.906C286.037 421.493 286.942 420.887 287.705 420.123C288.467 419.359 289.072 418.452 289.484 417.454C289.897 416.456 290.109 415.386 290.109 414.306Z" fill="#485E88"/>
<path d="M318.486 414.306C318.486 412.679 318.004 411.088 317.102 409.735C316.199 408.382 314.917 407.328 313.416 406.705C311.916 406.083 310.265 405.92 308.672 406.237C307.079 406.554 305.615 407.338 304.467 408.489C303.318 409.639 302.536 411.105 302.219 412.701C301.902 414.297 302.065 415.951 302.687 417.454C303.308 418.957 304.361 420.242 305.711 421.146C307.062 422.05 308.649 422.532 310.274 422.532C312.452 422.532 314.54 421.666 316.081 420.123C317.621 418.58 318.486 416.488 318.486 414.306Z" fill="#485E88"/>
<path d="M346.869 414.306C346.869 412.679 346.387 411.088 345.485 409.735C344.583 408.382 343.3 407.328 341.799 406.705C340.299 406.083 338.648 405.92 337.055 406.237C335.462 406.554 333.998 407.338 332.85 408.489C331.701 409.639 330.919 411.105 330.602 412.701C330.286 414.297 330.448 415.951 331.07 417.454C331.691 418.957 332.744 420.242 334.094 421.146C335.445 422.05 337.033 422.532 338.657 422.532C340.835 422.532 342.924 421.666 344.464 420.123C346.004 418.58 346.869 416.488 346.869 414.306Z" fill="#485E88"/>
<path d="M269.118 325.109H351.425C358.412 325.109 364.075 320.521 364.075 314.859C364.075 309.197 358.412 304.607 351.425 304.607H269.118C262.129 304.607 256.468 309.197 256.468 314.859C256.47 320.521 262.131 325.109 269.118 325.109Z" fill="#485E88"/>
<path d="M343.403 325.109C343.403 325.109 312.442 352.791 277.142 325.109H343.403Z" fill="#8691A3"/>
<path d="M283.033 273.186H321.086C335.324 273.186 346.867 261.622 346.867 247.359V223.803C346.867 209.54 335.324 197.977 321.086 197.977H283.033C268.795 197.977 257.252 209.54 257.252 223.803V247.359C257.252 261.622 268.795 273.186 283.033 273.186Z" fill="#485E88"/>
<path d="M300.097 332.949H304.028V244.458H300.097V332.949Z" fill="#8691A3"/>
</svg>
