<svg width="349" height="499" viewBox="0 0 349 499" fill="none" xmlns="http://www.w3.org/2000/svg">
<g opacity="0.4">
<g opacity="0.2">
<path opacity="0.2" d="M104.568 496.668C79.3917 496.588 32.9971 498.21 38.7236 489.991C44.45 481.771 74.6719 489.817 99.4466 487.059C124.221 484.3 146.647 481.146 171.983 485.207C197.318 489.268 190.428 493.944 179.311 495.266C158.874 497.692 155.251 498.74 143.402 497.406C108.725 493.516 114.382 496.7 104.568 496.668Z" fill="#005386"/>
</g>
</g>
<path d="M249.647 130.517H0V276.493H249.647V130.517Z" fill="white"/>
<path d="M249.647 121.533H0V130.867H249.647V121.533Z" fill="#3D95D1"/>
<path opacity="0.2" d="M76.8004 206.937H15.8398V209.595H76.8004V206.937Z" fill="#99B6CA"/>
<path opacity="0.2" d="M97.9698 212.657H15.8398V215.316H97.9698V212.657Z" fill="#99B6CA"/>
<path opacity="0.2" d="M224.079 223.94H37.1729V226.598H224.079V223.94Z" fill="#99B6CA"/>
<path opacity="0.2" d="M232.676 229.66H15.8398V232.318H232.676V229.66Z" fill="#99B6CA"/>
<path opacity="0.2" d="M224.079 236.135H15.8398V238.793H224.079V236.135Z" fill="#99B6CA"/>
<path opacity="0.2" d="M232.676 241.854H15.8398V244.513H232.676V241.854Z" fill="#99B6CA"/>
<path opacity="0.2" d="M224.079 248.327H15.8398V250.985H224.079V248.327Z" fill="#99B6CA"/>
<path opacity="0.2" d="M202.675 254.049H15.8398V256.708H202.675V254.049Z" fill="#99B6CA"/>
<g opacity="0.15">
<path opacity="0.7" d="M79.2032 146.937H15.8398V193.834H79.2032V146.937Z" fill="#99B6CA"/>
<path opacity="0.7" d="M155.937 146.937H92.5737V193.834H155.937V146.937Z" fill="#99B6CA"/>
<path opacity="0.7" d="M232.676 146.937H169.311V193.834H232.676V146.937Z" fill="#99B6CA"/>
</g>
<path d="M216.636 157.814H212.56V161.88H216.636V157.814Z" fill="#FAA634"/>
<path opacity="0.7" d="M227.792 157.814H218.453V158.738H227.792V157.814Z" fill="#99B6CA"/>
<path opacity="0.7" d="M223.984 159.385H218.453V160.309H223.984V159.385Z" fill="#99B6CA"/>
<path d="M216.636 164.262H212.56V168.328H216.636V164.262Z" fill="#005687"/>
<path opacity="0.7" d="M227.792 164.262H218.453V165.186H227.792V164.262Z" fill="#99B6CA"/>
<path opacity="0.7" d="M223.984 165.833H218.453V166.757H223.984V165.833Z" fill="#99B6CA"/>
<path d="M216.636 170.712H212.56V174.778H216.636V170.712Z" fill="#3D95D1"/>
<path opacity="0.7" d="M227.792 170.712H218.453V171.636H227.792V170.712Z" fill="#99B6CA"/>
<path opacity="0.7" d="M223.984 172.283H218.453V173.207H223.984V172.283Z" fill="#99B6CA"/>
<path d="M216.636 177.163H212.56V181.229H216.636V177.163Z" fill="#76BEEA"/>
<path opacity="0.7" d="M227.792 177.163H218.453V178.087H227.792V177.163Z" fill="#99B6CA"/>
<path opacity="0.7" d="M223.984 178.734H218.453V179.657H223.984V178.734Z" fill="#99B6CA"/>
<path d="M193.495 158.166V169.271L197.191 158.816C195.999 158.413 194.753 158.194 193.495 158.166Z" fill="#005687"/>
<path d="M197.609 158.958L193.632 170.182L204.786 165.95C204.144 164.35 203.174 162.902 201.938 161.698C200.703 160.493 199.228 159.56 197.609 158.958Z" fill="#FAA634"/>
<path d="M194.599 170.299L205.653 169.887C205.59 168.688 205.351 167.505 204.943 166.375L194.599 170.299Z" fill="#3D95D1"/>
<path d="M192.954 158.166C190.509 158.229 188.138 159.01 186.137 160.411C184.135 161.811 182.592 163.77 181.701 166.041C180.81 168.313 180.611 170.796 181.127 173.179C181.644 175.563 182.854 177.742 184.606 179.443C186.359 181.145 188.575 182.292 190.978 182.743C193.38 183.194 195.863 182.928 198.115 181.978C200.367 181.028 202.288 179.436 203.637 177.402C204.987 175.369 205.705 172.983 205.702 170.544C205.702 170.502 205.702 170.463 205.702 170.424L192.966 170.82L192.954 158.166Z" fill="#76BEEA"/>
<path d="M200.999 170.544C200.997 172.073 200.541 173.566 199.688 174.836C198.836 176.106 197.625 177.096 196.208 177.679C194.792 178.263 193.234 178.415 191.732 178.115C190.229 177.816 188.849 177.079 187.766 175.997C186.684 174.916 185.946 173.538 185.648 172.039C185.35 170.54 185.504 168.986 186.091 167.574C186.678 166.162 187.671 164.955 188.945 164.106C190.219 163.257 191.717 162.804 193.25 162.804C194.268 162.803 195.277 163.003 196.218 163.392C197.159 163.781 198.014 164.352 198.734 165.071C199.453 165.79 200.024 166.643 200.413 167.582C200.802 168.522 201.001 169.528 200.999 170.544Z" fill="white"/>
<path d="M96.5172 202.251L112.928 200.257L115.22 198.476L116.156 192.517L116.234 189.401L114.627 183.826L114.164 179.293C114.012 177.797 113.44 176.374 112.516 175.186C111.591 173.998 110.35 173.093 108.935 172.574L103.907 170.732L96.3507 173.073L91.021 176.608L91.3737 188.646L95.3979 196.279L96.5172 202.251Z" fill="#F79C8C"/>
<path d="M100.529 211.269L106.471 210.829C107.28 210.769 108.032 210.391 108.562 209.778C109.092 209.165 109.357 208.368 109.297 207.56L107.852 195.483L95.8042 196.372L97.2517 208.45C97.3119 209.257 97.6908 210.007 98.3053 210.536C98.9198 211.065 99.7196 211.328 100.529 211.269Z" fill="#F79C8C"/>
<path d="M111.894 174.329L108.012 176.044L109.552 178.455L109.408 183.572L109.684 187.689L108.759 187.989L107.46 185.905L106.211 186.574L106.184 189.499L107.49 192.649L104.379 196.421L95.4001 197.716L90.6583 187.715L89.4214 178.621L93.9159 172.677L103.62 168.848L109.153 169.395L114.083 171.856L111.894 174.329Z" fill="#002F49"/>
<path d="M85.5099 317.029H132.874V314.756L134.92 311.311L132.997 306.319C132.997 306.319 131.077 287.926 130.883 276.592C130.746 268.595 131.954 254.274 131.98 243.795C132.022 227.522 129.063 220.063 126.744 211.206C125.159 205.083 117.076 206.639 117.076 206.639L91.3246 208.02C76.303 210.436 73.141 219.354 76.1242 241.427L81.4318 277.784L80.942 305.467L80.5599 310.417L84.66 314.475L85.5099 317.029Z" fill="#005D92"/>
<path d="M140.67 489.104H140.362L140.293 490.638H132.926L133.124 488.606H133.369V488.584L135.052 481.112H142.703L142.865 482.089L144.736 484.674L155.91 487.851C155.91 487.851 156.792 488.234 156.775 488.715L156.743 489.597L156.726 490.128C156.726 490.128 156.588 490.372 155.677 490.616H142.85L142.076 489.59L141.322 489.116L140.67 489.104Z" fill="#005386"/>
<path d="M79.9522 489.104H79.6436L79.575 490.638H72.2051L72.4059 488.606H72.6509V488.584L74.3335 481.112H81.9827L82.1468 482.089L84.018 484.674L95.1917 487.851C95.1917 487.851 96.0735 488.234 96.0563 488.715L96.0245 489.597L96.0049 490.128C96.0049 490.128 95.8702 490.372 94.9566 490.616H82.1321L81.3581 489.59L80.6037 489.116L79.9522 489.104Z" fill="#005386"/>
<path d="M138.226 494.047L138.589 494.059V494.047H138.226Z" fill="#2A2A3B"/>
<path d="M82.9898 481.986L71.6201 481.109L77.5744 393.655L81.8557 336.071L81.4149 327.314L84.4104 319.733L84.3001 315.518H112.438L111.713 323.393L95.9025 397.025L82.9898 481.986Z" fill="#3D95D1"/>
<path d="M143.649 482.03L132.081 482.627L119.7 396.639L106.001 321.182V315.518H133.465L134.641 324.854L138.226 394.679L143.649 482.03Z" fill="#3D95D1"/>
<path d="M183.705 174.038L181.378 174.529L180.298 176.562L179.178 179.988L182.791 176.073L182.894 175.582L183.766 175.123L184.584 174.339L183.705 174.038Z" fill="#F79C8C"/>
<path d="M190.333 178.384L189.083 176.918L190.705 174.666C190.853 174.511 191.057 174.422 191.272 174.417C191.486 174.413 191.694 174.493 191.849 174.641C192.004 174.789 192.093 174.993 192.098 175.207C192.102 175.421 192.022 175.628 191.873 175.782L190.333 178.384Z" fill="#F79C8C"/>
<path d="M192.552 176.293C193.201 176.782 192.838 177.542 192.733 177.815C192.346 178.815 191.885 180.014 191.885 180.014L191.601 180.393L190.622 178.438C190.622 178.438 191.2 177.153 191.699 176.596C191.868 176.408 192.138 175.983 192.552 176.293Z" fill="#F79C8C"/>
<path d="M189.054 176.576L187.541 175.157L189.684 173.082C189.83 172.933 190.028 172.846 190.237 172.84C190.446 172.833 190.649 172.907 190.805 173.046C190.96 173.186 191.056 173.38 191.071 173.587C191.087 173.795 191.022 174.001 190.889 174.162L189.054 176.576Z" fill="#F79C8C"/>
<path d="M187.33 174.993L192.388 168.396C192.458 168.316 192.512 168.223 192.546 168.122C192.58 168.021 192.594 167.914 192.587 167.808C192.58 167.702 192.552 167.598 192.504 167.502C192.457 167.407 192.391 167.322 192.311 167.252C192.23 167.182 192.137 167.128 192.035 167.094C191.934 167.06 191.827 167.046 191.721 167.053C191.614 167.06 191.51 167.088 191.414 167.136C191.319 167.183 191.233 167.248 191.163 167.329L185.439 173.51L187.33 174.993Z" fill="#F79C8C"/>
<path d="M185.586 173.376L183.553 175.331L182.742 176.003L179.658 178.573L178.566 181.783L170.64 193.978L177.295 197.714L184.733 187.476L189.071 183.755L191.861 180.073C191.403 177.549 188.875 175.186 188.875 175.186C187.041 173.437 185.784 173.376 185.586 173.376Z" fill="#F79C8C"/>
<path d="M182.478 176.298L182.769 175.509L184.256 174.678L182.478 176.298Z" fill="#B97373"/>
<path d="M183.367 192.082L174.425 186.218L155.379 210.614L120.464 206.534C117.718 207.326 116.42 209.302 115.117 211.013C114.31 212.075 113.76 213.31 113.512 214.62C113.263 215.929 113.322 217.279 113.684 218.562L113.893 219.295C114.198 220.375 114.718 221.382 115.424 222.255C116.129 223.129 117.005 223.851 117.998 224.377C119.788 225.328 121.814 225.11 123.842 225.157C139.517 225.516 159.112 224.004 159.112 224.004L162.377 221.927L183.367 192.082Z" fill="#005D92"/>
<path d="M66.866 316.166L68.7397 321.504L69.2883 324.749C69.2883 324.749 69.2712 326.215 69.2124 326.704C69.1899 326.888 69.1082 327.059 68.9797 327.193C68.9686 327.198 68.9579 327.205 68.9479 327.212C68.8763 327.276 68.7899 327.322 68.6964 327.346C68.6029 327.369 68.5051 327.369 68.4115 327.346C67.9216 327.246 67.6767 326.587 67.5885 325.311L67.4587 324.693L67.4318 324.551L66.9419 323.481L66.9248 323.496L66.6015 323.007L66.3443 325.8C66.1973 325.917 65.2347 326.594 62.8712 326.364C62.8712 326.364 59.6405 326.078 57.8452 324.478L58.2665 317.832L59.3564 314.614L60.7525 300.861L68.4482 301.838L66.866 316.166Z" fill="#F79C8C"/>
<path d="M60.674 332.9L60.6446 333.105C60.6088 333.298 60.4996 333.47 60.3398 333.584C60.18 333.698 59.9821 333.746 59.7877 333.717C59.5933 333.689 59.4175 333.586 59.2973 333.431C59.1771 333.276 59.1219 333.08 59.1431 332.886L59.1823 332.614L60.0029 325.013L61.759 325.463L60.6764 332.9H60.674Z" fill="#F79C8C"/>
<path d="M58.5968 330.581C58.5807 330.68 58.5453 330.774 58.4927 330.859C58.44 330.944 58.3711 331.018 58.2899 331.076C58.2088 331.134 58.1168 331.176 58.0195 331.199C57.9221 331.222 57.8211 331.225 57.7224 331.209C57.6236 331.193 57.529 331.158 57.444 331.105C57.3589 331.053 57.285 330.984 57.2266 330.903C57.1681 330.822 57.1262 330.73 57.1033 330.633C57.0804 330.536 57.0768 330.435 57.0929 330.337L57.1664 329.875L57.8742 324.099L59.6867 324.927L58.6507 330.227L58.5968 330.581Z" fill="#F79C8C"/>
<path d="M63.035 334.434C63.0149 334.634 62.916 334.818 62.76 334.945C62.6041 335.072 62.4039 335.132 62.2035 335.112C62.0031 335.092 61.8189 334.994 61.6914 334.838C61.564 334.682 61.5037 334.483 61.5238 334.283V334.217L62.1312 325.501L64.0637 325.746L63.0375 334.344L63.035 334.434Z" fill="#F79C8C"/>
<path d="M65.8372 333.269L65.8078 333.792C65.7968 333.994 65.7059 334.183 65.5553 334.317C65.4046 334.452 65.2065 334.521 65.0044 334.51C64.8024 334.499 64.6131 334.409 64.478 334.259C64.343 334.108 64.2733 333.911 64.2843 333.709L64.299 333.465L64.4607 325.734L66.3614 325.568L65.8372 333.269Z" fill="#F79C8C"/>
<path opacity="0.1" d="M66.594 323.029L64.6321 321.448L63.7798 318.521L64.495 321.712L66.5965 323.457L66.594 323.029Z" fill="#1A2C3D"/>
<path d="M91.3588 222.12C90.9595 225.296 89.5487 229.631 89.5487 229.631L74.2627 274.182L68.7566 312.525L57.9111 311.609L60.429 272.78L61.007 269.039C61.007 269.039 71.5194 225.274 77.5619 216.119C78.6788 214.428 82.0392 212.369 84.7359 213.238C88.2139 214.357 92.0936 216.344 91.3588 222.12Z" fill="#005D92"/>
<path d="M96.3874 205.693L109.178 205.026L110.108 207.125L95.7065 207.897L96.3874 205.693Z" fill="#005386"/>
<path opacity="0.2" d="M114.922 494.036C142.494 494.036 164.845 492.684 164.845 491.018C164.845 489.351 142.494 488 114.922 488C87.351 488 65 489.351 65 491.018C65 492.684 87.351 494.036 114.922 494.036Z" fill="#005386"/>
<g clip-path="url(#clip0)">
<path d="M286.3 458.711H285.367C283.784 447.744 284.689 413.601 284.689 413.319L285.113 413.488C285.113 413.967 284.745 447.828 286.3 458.711Z" fill="#419495"/>
<path d="M284.859 413.939C283.018 412.85 281.602 411.17 280.844 409.174C280.222 406.355 278.018 399.87 278.47 396.318C278.922 392.765 278.328 385.632 279.572 380.642C280.816 375.651 279.572 371.648 281.297 365.05C283.021 358.453 287.403 336.856 290.343 332.684C293.283 328.511 296.336 326.03 297.071 324C297.071 324 295.629 326.481 297.268 332.148C298.964 339.304 299.724 346.648 299.53 353.998C299.304 360.68 298.908 377.963 298.541 384.025C298.173 390.087 295.714 402.943 292.887 406.298C290.06 409.653 288.844 409.766 287.714 411.232C286.583 412.698 286.272 413.572 284.859 413.939Z" fill="#37A3CA"/>
<path d="M284.689 413.46C284.689 413.46 287.714 388.508 288.816 381.516C289.919 374.524 293.141 352.194 293.594 345.174C293.572 340.397 293.941 335.625 294.696 330.908C294.276 334.113 294.105 337.346 294.187 340.578C294.187 346.837 290.88 370.492 290.88 370.492L287.601 397.079L285.113 413.685L284.689 413.46Z" fill="#5FB5D5"/>
<path d="M349 346.949C346.55 346.592 344.049 346.824 341.707 347.626C331.959 354.616 322.968 362.6 314.88 371.45C307.304 380.387 291.983 403.676 290.795 407.087C289.608 410.499 287.714 413.092 287.742 417.857C287.771 422.622 287.234 425.131 290.173 427.33C290.173 427.33 291.643 427.33 292.689 424.849C293.735 422.368 293.933 423.75 295.884 419.211C297.834 414.671 301.679 411.034 304.59 405.621C307.502 400.208 307.417 404.07 311.544 396.176C315.672 388.282 312.873 396.74 321.212 385.491C329.552 374.241 342.894 360.116 344.675 356.93C346.087 354.651 347.19 352.196 347.954 349.628C348.016 348.649 348.382 347.713 349 346.949Z" fill="#058CBD"/>
<path d="M343.516 351.32C343.516 351.32 319.997 381.741 311.657 392.821C305.321 401.423 299.433 410.344 294.018 419.549L289.862 427.077H290.286C290.286 427.077 298.032 413.769 302.64 406.862C307.247 399.954 315.474 388.113 319.94 382.446C324.406 376.779 343.516 351.32 343.516 351.32Z" fill="#37A3CA"/>
<path d="M288.788 468.155H287.968C285.763 454.876 289.947 427.217 289.975 426.936H290.399C290.371 427.443 286.611 455.017 288.788 468.155Z" fill="#419495"/>
<path d="M279.544 454.03H280.251C282.116 442.753 278.583 419.634 278.555 419.408H278.215C278.244 419.859 281.381 442.978 279.544 454.03Z" fill="#419495"/>
<path d="M229 352.194C231.051 351.899 233.144 352.092 235.106 352.758C243.325 358.624 250.905 365.333 257.721 372.776C265.253 382.199 272.013 392.212 277.933 402.718C279.415 405.512 280.291 408.586 280.505 411.74C280.505 415.743 280.929 417.858 278.442 419.719C278.442 419.719 277.763 421.044 275.756 420.113C272.929 418.845 271.912 419.634 270.244 415.828C268.576 412.022 267.982 412.473 265.523 407.905L259.671 396.91C256.11 390.284 259.389 394.09 252.378 384.561C245.367 375.031 234.173 363.162 232.59 360.596C231.373 358.684 230.422 356.617 229.763 354.45C229.72 353.642 229.456 352.862 229 352.194V352.194Z" fill="#058CBD"/>
<path d="M233.607 355.888C233.607 355.888 253.395 381.46 260.349 390.764C265.641 398.027 270.557 405.555 275.077 413.319L278.554 419.634H278.215C278.215 419.634 271.685 408.357 267.841 402.718C263.996 397.079 257.042 386.986 253.282 382.221C249.523 377.456 233.607 355.888 233.607 355.888Z" fill="#37A3CA"/>
<path d="M287.233 495.42H280.873C279.308 495.55 277.75 495.106 276.491 494.172C275.231 493.237 274.357 491.877 274.032 490.345L269.254 443.74H298.852L294.018 490.345C293.694 491.866 292.828 493.219 291.58 494.152C290.333 495.085 288.788 495.536 287.233 495.42Z" fill="white"/>
<g opacity="0.6">
<path opacity="0.6" d="M280.873 495.42H287.233C288.788 495.535 290.333 495.085 291.58 494.152C292.828 493.219 293.694 491.866 294.018 490.345L298.795 443.684H292.887C292.661 450.732 291.615 474.443 288.505 480.702C285.989 485.777 279.742 488.822 274.032 490.316C274.351 491.853 275.223 493.221 276.483 494.161C277.743 495.101 279.304 495.549 280.873 495.42Z" fill="#DFECF8"/>
</g>
</g>
<defs>
<clipPath id="clip0">
<rect width="120" height="175" fill="white" transform="translate(229 324)"/>
</clipPath>
</defs>
</svg>
