<svg width="250" height="377" viewBox="0 0 250 377" fill="none" xmlns="http://www.w3.org/2000/svg">
<g opacity="0.4">
<g opacity="0.2">
<path opacity="0.2" d="M104.568 375.668C79.3917 375.588 32.9971 377.21 38.7236 368.991C44.45 360.771 74.6719 368.817 99.4466 366.059C124.221 363.3 146.647 360.146 171.983 364.207C197.318 368.268 190.428 372.944 179.311 374.266C158.874 376.692 155.251 377.74 143.402 376.406C108.725 372.516 114.382 375.7 104.568 375.668Z" fill="#005386"/>
</g>
</g>
<path d="M249.647 9.51709H0V155.493H249.647V9.51709Z" fill="white"/>
<path d="M249.647 0.533203H0V9.8667H249.647V0.533203Z" fill="#3D95D1"/>
<path opacity="0.2" d="M76.8004 85.937H15.8398V88.5954H76.8004V85.937Z" fill="#99B6CA"/>
<path opacity="0.2" d="M97.9698 91.6572H15.8398V94.3156H97.9698V91.6572Z" fill="#99B6CA"/>
<path opacity="0.2" d="M224.079 102.94H37.1729V105.598H224.079V102.94Z" fill="#99B6CA"/>
<path opacity="0.2" d="M232.676 108.66H15.8398V111.318H232.676V108.66Z" fill="#99B6CA"/>
<path opacity="0.2" d="M224.079 115.135H15.8398V117.793H224.079V115.135Z" fill="#99B6CA"/>
<path opacity="0.2" d="M232.676 120.854H15.8398V123.513H232.676V120.854Z" fill="#99B6CA"/>
<path opacity="0.2" d="M224.079 127.327H15.8398V129.985H224.079V127.327Z" fill="#99B6CA"/>
<path opacity="0.2" d="M202.675 133.049H15.8398V135.708H202.675V133.049Z" fill="#99B6CA"/>
<g opacity="0.15">
<path opacity="0.7" d="M79.2032 25.9365H15.8398V72.8336H79.2032V25.9365Z" fill="#99B6CA"/>
<path opacity="0.7" d="M155.937 25.9365H92.5737V72.8336H155.937V25.9365Z" fill="#99B6CA"/>
<path opacity="0.7" d="M232.676 25.9365H169.311V72.8336H232.676V25.9365Z" fill="#99B6CA"/>
</g>
<path d="M216.636 36.8145H212.56V40.8801H216.636V36.8145Z" fill="#FAA634"/>
<path opacity="0.7" d="M227.792 36.8145H218.453V37.738H227.792V36.8145Z" fill="#99B6CA"/>
<path opacity="0.7" d="M223.984 38.3853H218.453V39.3088H223.984V38.3853Z" fill="#99B6CA"/>
<path d="M216.636 43.2622H212.56V47.3279H216.636V43.2622Z" fill="#005687"/>
<path opacity="0.7" d="M227.792 43.2622H218.453V44.1858H227.792V43.2622Z" fill="#99B6CA"/>
<path opacity="0.7" d="M223.984 44.8335H218.453V45.757H223.984V44.8335Z" fill="#99B6CA"/>
<path d="M216.636 49.7124H212.56V53.7781H216.636V49.7124Z" fill="#3D95D1"/>
<path opacity="0.7" d="M227.792 49.7124H218.453V50.636H227.792V49.7124Z" fill="#99B6CA"/>
<path opacity="0.7" d="M223.984 51.2832H218.453V52.2068H223.984V51.2832Z" fill="#99B6CA"/>
<path d="M216.636 56.1631H212.56V60.2288H216.636V56.1631Z" fill="#76BEEA"/>
<path opacity="0.7" d="M227.792 56.1631H218.453V57.0867H227.792V56.1631Z" fill="#99B6CA"/>
<path opacity="0.7" d="M223.984 57.7339H218.453V58.6575H223.984V57.7339Z" fill="#99B6CA"/>
<path d="M193.495 37.166V48.2709L197.191 37.8159C195.999 37.4127 194.753 37.1935 193.495 37.166Z" fill="#005687"/>
<path d="M197.609 37.9575L193.632 49.1822L204.786 44.9503C204.144 43.3503 203.174 41.9017 201.938 40.6975C200.703 39.4933 199.228 38.56 197.609 37.9575Z" fill="#FAA634"/>
<path d="M194.599 49.2995L205.653 48.8865C205.59 47.6877 205.351 46.5047 204.943 45.3755L194.599 49.2995Z" fill="#3D95D1"/>
<path d="M192.954 37.166C190.509 37.229 188.138 38.0097 186.137 39.4106C184.135 40.8114 182.592 42.77 181.701 45.0413C180.81 47.3126 180.611 49.7956 181.127 52.1795C181.644 54.5634 182.854 56.7423 184.606 58.4434C186.359 60.1445 188.575 61.2923 190.978 61.7431C193.38 62.1939 195.863 61.9276 198.115 60.9776C200.367 60.0277 202.288 58.4362 203.637 56.4024C204.987 54.3686 205.705 51.9829 205.702 49.5439C205.702 49.5023 205.702 49.4632 205.702 49.4242L192.966 49.82L192.954 37.166Z" fill="#76BEEA"/>
<path d="M200.999 49.5442C200.997 51.0727 200.541 52.5664 199.688 53.8364C198.836 55.1064 197.625 56.0958 196.208 56.6794C194.792 57.263 193.234 57.4147 191.732 57.1153C190.229 56.8159 188.849 56.0789 187.766 54.9973C186.684 53.9158 185.946 52.5383 185.648 51.039C185.35 49.5396 185.504 47.9857 186.091 46.5737C186.678 45.1617 187.671 43.9549 188.945 43.1059C190.219 42.2569 191.717 41.8037 193.25 41.8037C194.268 41.8034 195.277 42.0035 196.218 42.3925C197.159 42.7815 198.014 43.3517 198.734 44.0707C199.453 44.7897 200.024 45.6432 200.413 46.5824C200.802 47.5216 201.001 48.528 200.999 49.5442Z" fill="white"/>
<path d="M96.5172 81.2508L112.928 79.257L115.22 77.4758L116.156 71.5166L116.234 68.4013L114.627 62.8257L114.164 58.2933C114.012 56.797 113.44 55.3737 112.516 54.1856C111.591 52.9976 110.35 52.0927 108.935 51.5742L103.907 49.7319L96.3507 52.0726L91.021 55.6081L91.3737 67.6464L95.3979 75.2793L96.5172 81.2508Z" fill="#F79C8C"/>
<path d="M100.529 90.2692L106.471 89.8294C107.28 89.7694 108.032 89.3914 108.562 88.7784C109.092 88.1654 109.357 87.3676 109.297 86.5602L107.852 74.4829L95.8042 75.3723L97.2517 87.4496C97.3119 88.2569 97.6908 89.0073 98.3053 89.536C98.9198 90.0647 99.7196 90.3284 100.529 90.2692Z" fill="#F79C8C"/>
<path d="M111.894 53.3285L108.012 55.0437L109.552 57.4553L109.408 62.5716L109.684 66.6886L108.759 66.9891L107.46 64.905L106.211 65.5744L106.184 68.4991L107.49 71.6485L104.379 75.421L95.4001 76.716L90.6583 66.7155L89.4214 57.6214L93.9159 51.6768L103.62 47.8481L109.153 48.3954L114.083 50.8559L111.894 53.3285Z" fill="#002F49"/>
<path d="M85.5099 196.029H132.874V193.756L134.92 190.311L132.997 185.319C132.997 185.319 131.077 166.926 130.883 155.592C130.746 147.595 131.954 133.274 131.98 122.795C132.022 106.522 129.063 99.0628 126.744 90.2058C125.159 84.0828 117.076 85.6392 117.076 85.6392L91.3246 87.0197C76.303 89.4361 73.141 98.3542 76.1242 120.427L81.4318 156.784L80.942 184.467L80.5599 189.417L84.66 193.475L85.5099 196.029Z" fill="#005D92"/>
<path d="M140.67 368.104H140.362L140.293 369.638H132.926L133.124 367.606H133.369V367.584L135.052 360.112H142.703L142.865 361.089L144.736 363.674L155.91 366.851C155.91 366.851 156.792 367.234 156.775 367.715L156.743 368.597L156.726 369.128C156.726 369.128 156.588 369.372 155.677 369.616H142.85L142.076 368.59L141.322 368.116L140.67 368.104Z" fill="#005386"/>
<path d="M79.9522 368.104H79.6436L79.575 369.638H72.2051L72.4059 367.606H72.6509V367.584L74.3335 360.112H81.9827L82.1468 361.089L84.018 363.674L95.1917 366.851C95.1917 366.851 96.0735 367.234 96.0563 367.715L96.0245 368.597L96.0049 369.128C96.0049 369.128 95.8702 369.372 94.9566 369.616H82.1321L81.3581 368.59L80.6037 368.116L79.9522 368.104Z" fill="#005386"/>
<path d="M138.226 373.047L138.589 373.059V373.047H138.226Z" fill="#2A2A3B"/>
<path d="M82.9898 360.986L71.6201 360.109L77.5744 272.655L81.8557 215.071L81.4149 206.314L84.4104 198.733L84.3001 194.518H112.438L111.713 202.393L95.9025 276.025L82.9898 360.986Z" fill="#3D95D1"/>
<path d="M143.649 361.03L132.081 361.627L119.7 275.639L106.001 200.182V194.518H133.465L134.641 203.854L138.226 273.679L143.649 361.03Z" fill="#3D95D1"/>
<path d="M183.705 53.0381L181.378 53.5292L180.298 55.562L179.178 58.9876L182.791 55.0734L182.894 54.5823L183.766 54.1229L184.584 53.3386L183.705 53.0381Z" fill="#F79C8C"/>
<path d="M190.333 57.3845L189.083 55.9185L190.705 53.6657C190.853 53.5112 191.057 53.4218 191.272 53.4172C191.486 53.4126 191.694 53.4932 191.849 53.6413C192.004 53.7894 192.093 53.9928 192.098 54.2067C192.102 54.4207 192.022 54.6278 191.873 54.7823L190.333 57.3845Z" fill="#F79C8C"/>
<path d="M192.552 55.2931C193.201 55.7818 192.838 56.5417 192.733 56.8153C192.346 57.8146 191.885 59.0143 191.885 59.0143L191.601 59.393L190.622 57.4384C190.622 57.4384 191.2 56.1532 191.699 55.5961C191.868 55.408 192.138 54.9828 192.552 55.2931Z" fill="#F79C8C"/>
<path d="M189.054 55.5761L187.541 54.1565L189.684 52.0822C189.83 51.9333 190.028 51.8464 190.237 51.8398C190.446 51.8331 190.649 51.9072 190.805 52.0465C190.96 52.1858 191.056 52.3796 191.071 52.5874C191.087 52.7953 191.022 53.0012 190.889 53.1621L189.054 55.5761Z" fill="#F79C8C"/>
<path d="M187.33 53.9933L192.388 47.3964C192.458 47.3162 192.512 47.2229 192.546 47.122C192.58 47.021 192.594 46.9144 192.587 46.8081C192.58 46.7018 192.552 46.5979 192.504 46.5025C192.457 46.407 192.391 46.3218 192.311 46.2517C192.23 46.1816 192.137 46.128 192.035 46.0939C191.934 46.0598 191.827 46.046 191.721 46.0531C191.614 46.0602 191.51 46.0883 191.414 46.1355C191.319 46.1828 191.233 46.2484 191.163 46.3287L185.439 52.5102L187.33 53.9933Z" fill="#F79C8C"/>
<path d="M185.586 52.376L183.553 54.3306L182.742 55.0025L179.658 57.5729L178.566 60.7834L170.64 72.978L177.295 76.7139L184.733 66.4764L189.071 62.7552L191.861 59.0731C191.403 56.5492 188.875 54.1865 188.875 54.1865C187.041 52.4371 185.784 52.376 185.586 52.376Z" fill="#F79C8C"/>
<path d="M182.478 55.2981L182.769 54.5089L184.256 53.6782L182.478 55.2981Z" fill="#B97373"/>
<path d="M183.367 71.0817L174.425 65.2178L155.379 89.6143L120.464 85.5339C117.718 86.3256 116.42 88.3022 115.117 90.0125C114.31 91.075 113.76 92.3096 113.512 93.6196C113.263 94.9295 113.322 96.2791 113.684 97.5624L113.893 98.2954C114.198 99.3751 114.718 100.382 115.424 101.255C116.129 102.129 117.005 102.851 117.998 103.377C119.788 104.328 121.814 104.11 123.842 104.157C139.517 104.516 159.112 103.004 159.112 103.004L162.377 100.927L183.367 71.0817Z" fill="#005D92"/>
<path d="M66.866 195.166L68.7397 200.504L69.2883 203.749C69.2883 203.749 69.2712 205.215 69.2124 205.704C69.1899 205.888 69.1082 206.059 68.9797 206.193C68.9686 206.198 68.9579 206.205 68.9479 206.212C68.8763 206.276 68.7899 206.322 68.6964 206.346C68.6029 206.369 68.5051 206.369 68.4115 206.346C67.9216 206.246 67.6767 205.587 67.5885 204.311L67.4587 203.693L67.4318 203.551L66.9419 202.481L66.9248 202.496L66.6015 202.007L66.3443 204.8C66.1973 204.917 65.2347 205.594 62.8712 205.364C62.8712 205.364 59.6405 205.078 57.8452 203.478L58.2665 196.832L59.3564 193.614L60.7525 179.861L68.4482 180.838L66.866 195.166Z" fill="#F79C8C"/>
<path d="M60.674 211.9L60.6446 212.105C60.6088 212.298 60.4996 212.47 60.3398 212.584C60.18 212.698 59.9821 212.746 59.7877 212.717C59.5933 212.689 59.4175 212.586 59.2973 212.431C59.1771 212.276 59.1219 212.08 59.1431 211.886L59.1823 211.614L60.0029 204.013L61.759 204.463L60.6764 211.9H60.674Z" fill="#F79C8C"/>
<path d="M58.5968 209.581C58.5807 209.68 58.5453 209.774 58.4927 209.859C58.44 209.944 58.3711 210.018 58.2899 210.076C58.2088 210.134 58.1168 210.176 58.0195 210.199C57.9221 210.222 57.8211 210.225 57.7224 210.209C57.6236 210.193 57.529 210.158 57.444 210.105C57.3589 210.053 57.285 209.984 57.2266 209.903C57.1681 209.822 57.1262 209.73 57.1033 209.633C57.0804 209.536 57.0768 209.435 57.0929 209.337L57.1664 208.875L57.8742 203.099L59.6867 203.927L58.6507 209.227L58.5968 209.581Z" fill="#F79C8C"/>
<path d="M63.035 213.434C63.0149 213.634 62.916 213.818 62.76 213.945C62.6041 214.072 62.4039 214.132 62.2035 214.112C62.0031 214.092 61.8189 213.994 61.6914 213.838C61.564 213.682 61.5037 213.483 61.5238 213.283V213.217L62.1312 204.501L64.0637 204.746L63.0375 213.344L63.035 213.434Z" fill="#F79C8C"/>
<path d="M65.8372 212.269L65.8078 212.792C65.7968 212.994 65.7059 213.183 65.5553 213.317C65.4046 213.452 65.2065 213.521 65.0044 213.51C64.8024 213.499 64.6131 213.409 64.478 213.259C64.343 213.108 64.2733 212.911 64.2843 212.709L64.299 212.465L64.4607 204.734L66.3614 204.568L65.8372 212.269Z" fill="#F79C8C"/>
<path opacity="0.1" d="M66.594 202.029L64.6321 200.448L63.7798 197.521L64.495 200.712L66.5965 202.457L66.594 202.029Z" fill="#1A2C3D"/>
<path d="M91.3588 101.12C90.9595 104.296 89.5487 108.631 89.5487 108.631L74.2627 153.182L68.7566 191.525L57.9111 190.609L60.429 151.78L61.007 148.039C61.007 148.039 71.5194 104.274 77.5619 95.119C78.6788 93.4283 82.0392 91.3685 84.7359 92.2384C88.2139 93.3574 92.0936 95.3438 91.3588 101.12Z" fill="#005D92"/>
<path d="M96.3874 84.6934L109.178 84.0264L110.108 86.1252L95.7065 86.8973L96.3874 84.6934Z" fill="#005386"/>
<path opacity="0.2" d="M114.922 373.036C142.494 373.036 164.845 371.684 164.845 370.018C164.845 368.351 142.494 367 114.922 367C87.351 367 65 368.351 65 370.018C65 371.684 87.351 373.036 114.922 373.036Z" fill="#005386"/>
</svg>
