<svg width="570" height="190" viewBox="0 0 550 190" fill="none" xmlns="http://www.w3.org/2000/svg">
	<style>

		.b-ball_bounce1 {
              animation: move 3s linear alternate infinite;
            }
             @keyframes move {
                0% {
                    transform: translate3d(0, 0, 0);
                }
                25% {
                    transform: translate3d(10px, 10px, 10px);
                }
                50% {
                    transform: translate3d(-10px, -10px, -10px);
                }

            }


            .b-ball_bounce2 {
              animation: movee 3s linear alternate infinite;
            }
             @keyframes movee {
                0% {
                    transform: translate3d(0, 0, 0);
                }
                25% {
                    transform: translate3d(-7px, 15px, 10px);
                }
                50% {
                    transform: translate3d(7px, 9px, -16px);
                }

            }

            .b-ball_bounce3 {
              animation: moveee 5s linear alternate infinite;
            }
             @keyframes moveee {
                0% {
                    transform: translate3d(0, 0, 0);
                }
                25% {
                    transform: translate3d(5px, -6px, 10px);
                }
                75% {
                    transform: translate3d(14px, 5px, -16px);
                }

            }

            .b-ball_bounce4 {
              animation: moveeee 7s linear alternate infinite;
            }
             @keyframes moveeee {
                0% {
                    transform: translate3d(0, 0, 0);
                }
                25% {
                    transform: translate3d(5px, 16px, 4px);
                }
                75% {
                    transform: translate3d(14px, 5px, -16px);
                }

            }

            .b-ball_bounce5 {
              animation: moveeeee 7s linear alternate infinite;
            }
             @keyframes moveeeee {
                0% {
                    transform: translate3d(0, 0, 0);
                }
                25% {
                    transform: translate3d(-5px, -7px, 12px);
                }
                75% {
                    transform: translate3d(-9px, 9px, -12px);
                }

            }
	</style>
<g clip-path="url(#clip0)" >
<path d="M547.453 24.8565C547.453 26.3195 545.652 27.015 544.669 25.9316L543.002 24.0954C542.518 23.5613 541.83 23.2567 541.109 23.2567H534.26C531.498 23.2567 529.26 21.0181 529.26 18.2567V13.4679C529.26 10.7065 531.498 8.4679 534.26 8.4679H545C547.761 8.4679 550 10.7065 550 13.4679V21.9833C550 22.6866 549.43 23.2567 548.727 23.2567C548.023 23.2567 547.453 23.8268 547.453 24.5301V24.8565ZM530.334 17.1669C530.334 19.9283 532.573 22.1669 535.334 22.1669H541.917C542.425 22.1669 542.908 22.3813 543.249 22.7573L544.419 24.0482C545.111 24.811 546.379 24.3219 546.379 23.2924C546.379 22.6708 546.882 22.1669 547.504 22.1669H547.652C548.355 22.1669 548.925 21.5967 548.925 20.8934V14.5577C548.925 11.7963 546.687 9.55771 543.925 9.55771H535.334C532.573 9.55771 530.334 11.7963 530.334 14.5577V17.1669Z" fill="#005386"/>
<path d="M517.213 19.0152C517.213 20.5885 519.151 21.3359 520.207 20.1699L521.994 18.1977C522.515 17.6231 523.254 17.2954 524.03 17.2954H533.824C536.585 17.2954 538.824 15.0568 538.824 12.2954V5C538.824 2.23858 536.585 0 533.824 0H519C516.239 0 514 2.23858 514 5V15.6888C514 16.5761 514.719 17.2954 515.607 17.2954C516.494 17.2954 517.213 18.0147 517.213 18.9019V19.0152Z" fill="#3F97C6"/>
<path d="M534.504 4.53363H518.331V4.90417H534.504V4.53363Z" fill="white"/>
<path d="M534.504 8.09735H518.331V8.46789H534.504V8.09735Z" fill="white"/>
<path d="M534.504 11.3668H518.331V11.7374H534.504V11.3668Z" fill="white"/>
</g>

<g class='b-ball_bounce1'>
	<path d="M387 155H470V182.513H463.854V190H463.493L452.014 182.513H387V155Z" fill="#20BCB5"/>
	<path d="M450.568 174.274C450.809 171.267 450.147 170.756 455.148 170.245V169.944L455.298 169.102H454.967C453.22 168.531 453.792 167.629 453.4 166.366C453.22 166.366 452.979 166.126 452.918 165.795C452.858 165.464 452.918 165.163 453.189 165.133C453.239 165.137 453.287 165.152 453.329 165.178C453.371 165.205 453.406 165.241 453.43 165.284C453.43 165.284 453.43 163.6 453.43 163.149C453.443 163.017 453.492 162.891 453.572 162.785C453.651 162.679 453.759 162.596 453.882 162.547C453.702 161.705 454.846 161.886 455.75 161.886C456.945 162.127 458.184 162.001 459.305 161.525C459.238 161.967 459.074 162.388 458.823 162.758C458.938 163.596 458.938 164.446 458.823 165.284C458.87 165.26 458.921 165.247 458.974 165.247C459.026 165.247 459.078 165.26 459.124 165.284C459.305 165.284 459.396 165.584 459.305 165.915C459.215 166.246 459.004 166.516 458.793 166.486C458.281 167.749 458.793 168.591 457.046 169.193H456.744L456.895 170.034V170.335C461.655 170.756 461.294 171.357 461.535 174.364V174.845H456.534V175.146L456.051 175.567L455.6 175.146V174.845H450.568V174.274Z" fill="white"/>
	<path d="M430.684 163.66H393.929V164.652H430.684V163.66Z" fill="white"/>
	<path d="M440.476 167.839H395.074V168.832H440.476V167.839Z" fill="white"/>
	<path d="M440.476 172.019H395.074V173.011H440.476V172.019Z" fill="white"/>
</g>


<g clip-path="url(#clip1)" class='b-ball_bounce3'>
<path d="M315 30H227V79.0219H315V30Z" fill="white"/>
<path d="M315 78.3412H227V91.0001H315V78.3412Z" fill="#F2706D"/>
<path d="M310.493 83.2836H242.787V85.5027H310.493V83.2836Z" fill="#EEEFEF"/>
<path d="M271 83.2836H242.787V85.5027H271V83.2836Z" fill="#005386"/>
<path d="M239.782 78.3412H227V91.0001H239.782V78.3412Z" fill="#F49485"/>
<path d="M232.856 82.1489H231.227V86.6123H232.856V82.1489Z" fill="white"/>
<path d="M235.199 82.1489H233.569V86.6123H235.199V82.1489Z" fill="white"/>
<path d="M263.947 70.0699C263.524 70.0676 263.107 69.9728 262.725 69.7925C262.278 69.567 261.901 69.2246 261.636 68.8023C261.372 68.38 261.228 67.894 261.223 67.3969V46.5676C261.22 46.0691 261.359 45.5798 261.622 45.1551C261.886 44.7304 262.264 44.3871 262.715 44.1642C263.165 43.9412 263.669 43.8474 264.17 43.8933C264.672 43.9393 265.15 44.1232 265.551 44.4242L279.683 54.8388C280.02 55.0876 280.294 55.411 280.483 55.7831C280.672 56.1552 280.77 56.5659 280.77 56.9823C280.77 57.3987 280.672 57.8093 280.483 58.1814C280.294 58.5536 280.02 58.8769 279.683 59.1257L265.551 69.5403C265.088 69.8825 264.525 70.0681 263.947 70.0699ZM263.947 45.3824C263.758 45.3814 263.573 45.4339 263.413 45.5337C263.214 45.6253 263.046 45.7714 262.929 45.9547C262.811 46.1379 262.749 46.3507 262.75 46.5676V67.3969C262.749 67.6139 262.811 67.8266 262.929 68.0098C263.046 68.1931 263.214 68.3392 263.413 68.4308C263.594 68.548 263.807 68.6104 264.024 68.6104C264.241 68.6104 264.453 68.548 264.635 68.4308L278.767 58.0162C278.917 57.9107 279.04 57.7708 279.124 57.6083C279.208 57.4459 279.252 57.2657 279.25 57.0831C279.254 56.9002 279.211 56.7192 279.127 56.5564C279.043 56.3936 278.919 56.2541 278.767 56.1501L264.635 45.6346C264.44 45.4782 264.198 45.3897 263.947 45.3824Z" fill="#005386"/>
</g>
<g class='b-ball_bounce'>
	<path d="M68.7023 174.42H24.2975L19.5303 128.187H73.4695L68.7023 174.42Z" fill="#005386"/>
<path d="M64.1658 20.5009C56.4767 17.881 46.9422 25.8177 42.7131 38.2238C42.1797 39.824 41.7558 41.4588 41.4444 43.1168C36.7729 46.6965 33.4848 51.789 32.1406 57.5263C31.325 61.0019 31.2334 64.6088 31.8715 68.1215C29.8022 71.9002 28.4958 76.0503 28.0269 80.3349C26.4891 95.7461 35.2931 109.154 47.7495 110.464C60.2059 111.774 71.5858 100.331 73.1621 84.9968C73.6987 80.1019 73.1203 75.1487 71.4705 70.5102C71.9108 69.3515 72.2831 68.168 72.5854 66.9657C74.0979 60.6461 73.1347 53.9859 69.8942 48.3566L70.1249 47.6631C74.5077 35.4112 71.778 23.1208 64.1658 20.5009Z" fill="#20BCB5"/>
<path d="M45.4034 130.807C43.7297 95.7802 48.8745 60.7622 60.551 27.7056H61.0123C49.3597 60.7014 44.2151 95.6517 45.8647 130.614L45.4034 130.807Z" fill="#273C75"/>
<path d="M48.749 75.7501H48.4414C48.4414 75.4804 49.6717 69.1233 66.9722 61.9956V62.2653C49.9792 69.2774 48.749 75.7116 48.749 75.7501Z" fill="#273C75"/>
<path d="M2.61357 66.2336C5.30477 62.5734 12.2634 63.1513 18.1841 67.5435C18.9177 68.0695 19.6116 68.649 20.2601 69.2773C22.9105 69.4356 25.4685 70.311 27.6619 71.8103C29.8554 73.3097 31.6022 75.3769 32.7165 77.792C34.8938 78.8336 36.8414 80.3007 38.4449 82.1071C44.0964 88.6954 44.3271 97.7495 38.9831 102.334C33.6392 106.919 24.7198 105.301 19.1068 98.7127C17.2965 96.6345 15.9818 94.1707 15.2622 91.508C14.6696 91.1268 14.1158 90.688 13.609 90.198C10.8752 87.7818 9.18062 84.3991 8.88021 80.7587L8.57265 80.5275C2.57513 76.1738 -0.000731349 69.6626 2.61357 66.2336Z" fill="#4DC9C4"/>
<path d="M45.0196 121.29C42.6744 85.4975 6.15106 67.6205 5.7666 67.4278L5.99728 67.004C12.8615 70.6005 19.2002 75.1249 24.8356 80.4503C36.6532 90.918 44.0377 105.512 45.4809 121.251L45.0196 121.29Z" fill="#273C75"/>
<path d="M33.0243 90.0439C31.1933 88.4766 29.0292 87.3495 26.6971 86.7485C24.3649 86.1475 21.9266 86.0887 19.5684 86.5764V86.3067C21.9599 85.8224 24.4297 85.8862 26.7931 86.4934C29.1565 87.1005 31.3524 88.2352 33.2166 89.8127L33.0243 90.0439Z" fill="#273C75"/>
<path opacity="0.4" d="M50.5192 181C76.2111 181 97.0384 179.965 97.0384 178.689C97.0384 177.412 76.2111 176.377 50.5192 176.377C24.8274 176.377 4 177.412 4 178.689C4 179.965 24.8274 181 50.5192 181Z" fill="#75B3D0"/>
</g>
<defs>
<clipPath id="clip0">
<rect width="36" height="29" fill="white" transform="translate(514)"/>
</clipPath>
<clipPath id="clip1">
<rect x="227" y="30" width="88" height="61" rx="5" fill="white"/>
</clipPath>
</defs>
</svg>
