<svg width="140" height="137" viewBox="0 0 140 137" fill="none" xmlns="http://www.w3.org/2000/svg">
<g clip-path="url(#clip0)">
<path d="M116.33 62.8516C116.775 60.0948 117.649 57.3477 117.748 54.5402C117.763 51.9771 117.522 49.4173 117.028 46.8988C116.127 41.877 114.713 36.9576 112.809 32.218C110.968 27.5414 108.781 23.0069 106.265 18.6525C103.553 13.9734 100.033 9.74584 95.0089 7.49528C93.9254 7.00444 94.8409 5.39296 95.9161 5.89204C105.494 10.2925 110.297 21.6967 113.953 30.9169C115.997 36.0025 117.403 41.318 118.139 46.7415C118.587 49.4767 118.717 52.2526 118.525 55.0135C118.245 57.7213 117.362 60.3032 116.805 62.9812C116.748 63.2948 116.281 63.1653 116.33 62.8516Z" fill="#F2706D"/>
<path d="M113.774 15.5603C110.629 13.7826 106.893 12.6305 103.601 11.0918C102.017 10.3309 100.099 9.77947 98.6301 8.80424C97.4465 8.01576 96.3932 6.6579 95.3906 5.65531L96.8331 4.83426C97.8091 9.02036 99.8415 13.02 101.387 17.0346C102.216 19.1969 103.712 22.1666 102.832 24.5297C102.786 24.7032 102.678 24.8535 102.528 24.9527C102.379 25.0519 102.198 25.0932 102.02 25.0688C101.842 25.0445 101.678 24.9562 101.559 24.8205C101.44 24.6847 101.374 24.5107 101.374 24.3308C101.009 17.5701 96.6786 11.7749 95.1622 5.26228C95.1203 5.08076 95.1377 4.891 95.2117 4.72083C95.2856 4.55065 95.4124 4.40903 95.5732 4.31674C95.7341 4.22444 95.9207 4.18632 96.1056 4.20798C96.2905 4.22964 96.4639 4.30994 96.6005 4.43709C97.7647 5.60125 98.88 6.97997 100.279 7.86C101.801 8.82302 103.55 9.55969 105.16 10.4363C108.076 12.0027 111.317 13.2192 114.082 15.0452C114.136 15.0921 114.172 15.1561 114.184 15.2264C114.197 15.2967 114.185 15.3689 114.15 15.431C114.115 15.493 114.06 15.541 113.994 15.5668C113.927 15.5926 113.854 15.5947 113.786 15.5727L113.774 15.5603Z" fill="#F2706D"/>
</g>
<path d="M67.6032 69.9995C60.8537 71.6481 53.8912 72.2004 47.1503 74.1125C41.0636 75.8131 35.1537 78.0896 29.5011 80.9109C18.9509 86.2477 7.88925 93.9723 2.3414 104.722C-2.49911 114.07 0.347247 124.013 9.20164 129.749C14.2296 133.012 20.0332 134.057 25.8026 135.239C32.7773 136.623 39.8899 137.194 46.9969 136.938C62.2128 136.448 77.3044 134.029 91.908 129.74C104.844 125.959 118.326 120.869 128.987 112.515C137.424 105.946 145.034 95.0431 135.737 85.7123C127.718 77.6987 113.418 75.7526 102.705 74.4269C86.6073 72.3874 69.9638 73.6536 54.1298 76.9763C41.7303 79.5937 26.7656 83.7747 20.1695 95.6719C19.5815 96.7172 21.0217 97.8899 21.8739 96.9806C29.7057 88.7631 38.347 84.2931 49.3404 81.5737C61.5422 78.585 74.0687 77.1178 86.6329 77.2058C98.5637 77.2738 110.81 78.5485 122.229 82.1431C126.917 83.6218 132.004 85.7633 135.012 89.8678C139.955 96.6662 134.578 103.771 129.405 108.427C120.38 116.552 108.654 121.54 97.3195 125.525C84.8627 129.771 71.9867 132.677 58.9107 134.193C46.3337 135.848 33.5679 135.394 21.141 132.851C9.56809 130.514 -2.59285 121.727 1.77895 108.461C5.78431 96.3093 18.3117 87.3864 29.1091 81.6757C34.8833 78.6504 40.9436 76.2024 47.2014 74.3674C53.6441 72.4469 60.9219 70.3734 67.6543 70.3394C67.6767 70.336 67.6982 70.3283 67.7176 70.3167C67.737 70.3051 67.7539 70.2897 67.7673 70.2716C67.7808 70.2534 67.7905 70.2328 67.796 70.2109C67.8014 70.189 67.8025 70.1662 67.7992 70.1439C67.7958 70.1216 67.7881 70.1002 67.7764 70.0808C67.7647 70.0615 67.7494 70.0446 67.7312 70.0312C67.713 70.0178 67.6923 70.0081 67.6703 70.0026C67.6484 69.9972 67.6255 69.9961 67.6032 69.9995Z" fill="#F2706D"/>
<path d="M38.1575 108.16H39.1175C39.3948 107.744 39.6135 107.216 39.7735 106.576C39.9335 105.925 40.0135 105.157 40.0135 104.272V101.744H46.0455V108.16H47.3255V112.24H45.1815V110H40.3015V112.24H38.1575V108.16ZM43.7575 108.16V103.584H42.1415V104.336C42.1415 105.168 42.0828 105.909 41.9655 106.56C41.8481 107.21 41.6828 107.744 41.4695 108.16H43.7575ZM48.6792 101.744H50.9832V104.4L50.7912 106.832H50.8872L53.8792 101.744H56.1032V110H53.7992V107.344L53.9912 104.912H53.8952L50.9032 110H48.6792V101.744ZM61.809 110.192C60.945 110.192 60.1823 110.053 59.521 109.776C58.8596 109.498 58.353 109.125 58.001 108.656L59.361 107.392C59.681 107.744 60.033 108.005 60.417 108.176C60.801 108.346 61.2863 108.432 61.873 108.432C62.3636 108.432 62.737 108.346 62.993 108.176C63.249 108.005 63.377 107.776 63.377 107.488V107.392C63.377 106.901 63.0783 106.656 62.481 106.656H60.545V105.088H62.273C62.6143 105.088 62.8543 105.018 62.993 104.88C63.1423 104.73 63.217 104.533 63.217 104.288V104.192C63.217 103.946 63.0943 103.738 62.849 103.568C62.6143 103.397 62.2516 103.312 61.761 103.312C61.281 103.312 60.865 103.392 60.513 103.552C60.1716 103.701 59.8463 103.936 59.537 104.256L58.225 103.04C58.6623 102.57 59.169 102.208 59.745 101.952C60.3316 101.685 61.073 101.552 61.969 101.552C62.545 101.552 63.057 101.61 63.505 101.728C63.953 101.834 64.3316 101.989 64.641 102.192C64.961 102.394 65.201 102.634 65.361 102.912C65.521 103.178 65.601 103.472 65.601 103.792C65.601 104.304 65.441 104.72 65.121 105.04C64.8116 105.349 64.401 105.552 63.889 105.648V105.728C64.433 105.813 64.881 106.026 65.233 106.368C65.585 106.709 65.761 107.152 65.761 107.696C65.761 108.442 65.425 109.045 64.753 109.504C64.081 109.962 63.0996 110.192 61.809 110.192ZM74.5707 110C74.0801 110 73.6854 109.877 73.3867 109.632C73.0881 109.376 72.9121 109.013 72.8587 108.544H72.7787C72.6294 109.088 72.3307 109.498 71.8827 109.776C71.4454 110.053 70.9067 110.192 70.2667 110.192C69.4667 110.192 68.8214 109.978 68.3307 109.552C67.8507 109.114 67.6107 108.506 67.6107 107.728C67.6107 106.864 67.9254 106.224 68.5547 105.808C69.1841 105.392 70.1067 105.184 71.3227 105.184H72.6507V104.768C72.6507 104.277 72.5334 103.909 72.2987 103.664C72.0747 103.408 71.6907 103.28 71.1467 103.28C70.6454 103.28 70.2401 103.376 69.9307 103.568C69.6214 103.76 69.3547 104.01 69.1307 104.32L67.8347 103.168C68.1121 102.698 68.5441 102.314 69.1307 102.016C69.7281 101.706 70.4907 101.552 71.4187 101.552C72.5494 101.552 73.4294 101.813 74.0587 102.336C74.6987 102.848 75.0187 103.626 75.0187 104.672V108.288H75.9307V110H74.5707ZM71.1627 108.64C71.5787 108.64 71.9307 108.538 72.2187 108.336C72.5067 108.133 72.6507 107.84 72.6507 107.456V106.464H71.3867C70.4161 106.464 69.9307 106.789 69.9307 107.44V107.76C69.9307 108.048 70.0427 108.266 70.2667 108.416C70.4907 108.565 70.7894 108.64 71.1627 108.64ZM77.4605 101.744H79.7645V104.4L79.5725 106.832H79.6685L82.6605 101.744H84.8845V110H82.5805V107.344L82.7725 104.912H82.6765L79.6845 110H77.4605V101.744ZM81.2045 100.88C80.5005 100.88 79.9245 100.725 79.4765 100.416C79.0285 100.096 78.6925 99.6424 78.4685 99.0558L78.1325 98.1758L79.9725 97.4878L80.4845 99.1998C80.5485 99.2318 80.6498 99.2584 80.7885 99.2798C80.9271 99.3011 81.0658 99.3118 81.2045 99.3118C81.3431 99.3118 81.4818 99.3011 81.6205 99.2798C81.7591 99.2584 81.8605 99.2318 81.9245 99.1998L82.4365 97.4878L84.2765 98.1758L83.9405 99.0558C83.7165 99.6424 83.3805 100.096 82.9325 100.416C82.4845 100.725 81.9085 100.88 81.2045 100.88ZM87.0542 101.744H89.4222V104.896H92.1102V101.744H94.4782V110H92.1102V106.736H89.4222V110H87.0542V101.744Z" fill="#476481"/>
<defs>
<clipPath id="clip0">
<rect width="56.5685" height="32.3249" fill="white" transform="matrix(-0.707107 -0.707107 -0.707107 0.707107 139.855 40)"/>
</clipPath>
</defs>
</svg>
