<svg width="667" height="563" xmlns="http://www.w3.org/2000/svg">
 <defs>
  <clipPath id="clip0">
   <rect id="svg_1" transform="matrix(-1,0,0,1,667,243) " fill="white" height="320" width="667"/>
  </clipPath>
 </defs>
 <g>
  <title>background</title>
  <rect fill="none" id="canvas_background" height="402" width="582" y="-1" x="-1"/>
 </g>
 <g>
  <title>Layer 1</title>
  <g id="svg_2" clip-path="url(#clip0)">
   <path id="svg_3" fill="#058CBD" d="m0.09656,400.268c0,1.541 36.11394,2.768 80.46184,2.768c44.3476,0 80.4376,-1.227 80.4376,-2.768c0,-1.54 -36.114,-2.792 -80.4376,-2.792c-44.3239,0 -80.46184,1.252 -80.46184,2.792z" opacity="0.2"/>
   <path id="svg_4" fill="#FFC4BF" d="m84.0468,274.025l13.8437,-0.529l1.0112,-5.873l1.2033,-0.241l-1.2274,-5.704l-0.1685,-8.352l-14.7345,0.048l0.0722,20.651z"/>
   <path id="svg_5" fill="#FFC4BF" d="m84.2902,269.411l7.1903,0.349l-0.5197,10.698l-7.1902,-0.349l0.5196,-10.698z"/>
   <path id="svg_6" fill="#132233" d="m69.5312,265.745c-0.0082,-1.235 0.3672,-2.443 1.0744,-3.456c0.7072,-1.013 1.7114,-1.781 2.8741,-2.2c0.4281,-0.741 0.9636,-1.414 1.589,-1.998c0.073,-1.536 0.7069,-2.991 1.7816,-4.091l0,-0.169c0.1204,-4.814 3.3948,-8.737 7.2228,-8.641c0.1763,-0.013 0.3534,-0.013 0.5297,0c0.687,-0.753 1.5354,-1.341 2.4818,-1.72c0.9464,-0.38 1.9662,-0.54 2.9834,-0.47c1.8089,0.013 3.5395,0.74 4.8152,2.022c0.3929,-0.024 0.7868,-0.024 1.1797,0c0.8374,0.109 1.6449,0.383 2.3759,0.806c0.731,0.423 1.3712,0.986 1.8832,1.657c0.513,0.671 0.887,1.437 1.103,2.254c0.215,0.816 0.266,1.667 0.151,2.504c0.194,0.804 0.117,1.649 -0.216,2.406c0.964,1.213 1.452,2.737 1.372,4.285c0.076,1.105 -0.203,2.205 -0.797,3.14c-0.593,0.935 -1.469,1.656 -2.5015,2.059l-0.5296,-2.407l-0.0963,-5.488c-0.6857,-0.062 -1.3436,-0.3 -1.9091,-0.693c-0.5656,-0.392 -1.0194,-0.925 -1.3171,-1.545c-0.1187,-0.218 -0.2233,-0.443 -0.313,-0.674l-2.239,0c-0.4381,0.996 -1.1686,1.835 -2.0947,2.407c0,0 0,0.168 0,0.24c0.358,1.003 0.5215,2.065 0.4816,3.129c-0.0024,1.356 -0.3508,2.689 -1.0122,3.872c-0.6615,1.184 -1.6141,2.179 -2.7677,2.892c-0.0405,0.436 -0.1048,0.87 -0.1927,1.299c-0.4617,2.063 -1.6386,3.897 -3.3224,5.175l0,2.576c-0.3608,0.023 -0.7227,0.023 -1.0835,0c-1.1952,-0.039 -2.3551,-0.415 -3.3465,-1.083l-0.5537,0c-0.8266,-0.02 -1.6413,-0.202 -2.3974,-0.536c-0.756,-0.335 -1.4386,-0.815 -2.0085,-1.414c-1.5021,-0.129 -2.8921,-0.847 -3.8665,-1.997c-0.9744,-1.15 -1.454,-2.638 -1.334,-4.141z"/>
   <path id="svg_7" fill="#FFC4BF" d="m56.7941,408.548l-5.9468,1.661l-4.1651,-1.204c-0.9609,-0.091 -1.9283,-0.091 -2.8892,0l-5.6578,11.433c-1.3242,2.238 -3.2262,6.86 -2.4076,9.146c0.4093,1.252 2.7447,-2.07 3.9726,-2.551l7.9209,-6.33l6.3561,-3.153l6.1634,-2.407l-3.3465,-6.595z"/>
   <path id="svg_8" fill="#FFC4BF" d="m116.335,404.264l5.971,1.66l4.165,-1.203c0.413,-0.125 0.852,-0.141 1.273,-0.049c0.421,0.093 0.812,0.292 1.135,0.579l9.63,8.279c1.83,1.613 4.671,5.921 3.901,8.208c-0.434,1.251 -3.612,0 -4.816,-0.506l-11.893,-4.813l-6.38,-3.153l-6.573,-1.565l3.587,-7.437z"/>
   <path id="svg_9" fill="#058CBD" d="m164.464,343.152l3.491,-7.702l-36.716,-17.98l-21.451,-34.274c-0.675,-1.103 -1.707,-1.943 -2.924,-2.38c-1.217,-0.438 -2.546,-0.447 -3.77,-0.027l-0.914,0.626c-3.997,2.96 -4.5749,10.253 -1.541,14.2l19.405,30.544c0.566,0.841 1.326,1.534 2.215,2.022l42.205,14.971z"/>
   <path id="svg_10" fill="#BE9567" d="m165.378,336.172l3.275,1.372l3.9,-0.819l3.997,1.011l-0.626,1.228l-1.445,0l-1.637,-0.097l0.192,0.434l2.288,0.914l1.348,1.132l-2.263,8.015l-2.336,-3.611l-3.491,-0.866l-3.202,-3.274l-4.478,-1.757l2.336,-4.549l2.142,0.867z"/>
   <path id="svg_11" fill="#04698E" d="m63.4659,400.484c12.2547,0 41.9401,-1.54 41.9401,-1.54c2.408,0 8.74,-2.166 9.631,-7.822c0.746,-4.814 -4.816,-20.724 -4.816,-20.724l-54.1464,0c0,0 -2.4076,16.993 -1.8298,21.662c0.3712,2.234 1.4818,4.278 3.1538,5.806c1.672,1.527 3.8086,2.45 6.0673,2.618z"/>
   <path id="svg_12" fill="#04698E" d="m23.9305,363.37l51.4504,14.153l-11.7251,20.074l-47.7667,-11.193l8.0414,-23.034z"/>
   <path id="svg_13" fill="#04698E" d="m115.228,413.699l3.852,-10.446l-93.896,-39.522c-5.4412,-2.021 -14.4457,0.963 -16.54027,6.403l-0.2889,0.987c-2.02238,5.439 2.64837,13.527 8.08957,15.524l98.7836,27.054z"/>
   <path id="svg_14" fill="#058CBD" d="m54.3157,371.626c9.0379,3.47 18.5897,5.414 28.2652,5.752c10.0878,0 26.8211,-7.774 30.5761,-9.627c0.674,-0.337 0.169,-0.289 0,-1.059l-2.961,-33.697l3.058,-31.507c-0.674,-15.308 -2.288,-20.194 -8.884,-21.229l-10.1845,-0.698l-11.6287,0l-10.7379,0.65c-6.6449,0.89 -10.6174,1.757 -11.0267,16.271l-6.4765,75.144z"/>
   <path id="svg_15" fill="#2D3B54" d="m106.777,398.078l-12.2543,9.94l-6.7413,-1.853l18.9956,-8.087z"/>
   <path id="svg_16" fill="white" d="m122.906,356.991l49.476,0l7.175,-33.72l-49.476,0l-7.175,33.72z"/>
   <path id="svg_17" fill="white" d="m95.8474,356.992l76.5376,0l0,1.155l-76.5376,0l0,-1.155z"/>
   <path id="svg_18" fill="#04698E" d="m144.408,355.403l-56.3134,22.216l20.4644,13.141l50.8,-15.837l-14.951,-19.52z"/>
   <path id="svg_19" fill="#04698E" d="m57.1801,417.718l-4.8151,-8.833l92.042,-53.482c5.225,-2.551 15.65,-0.457 18.202,4.814l0.289,0.698c2.552,5.223 -0.867,13.31 -6.092,15.861l-99.6259,40.942z"/>
   <path id="svg_20" fill="#FFC4BF" d="m176.67,341.346l-3.684,-1.227l-0.361,1.131l0.458,1.252l-0.65,4.813c-0.014,0.132 0.005,0.264 0.056,0.386c0.05,0.122 0.13,0.229 0.233,0.312l1.685,1.348l2.263,-8.015z"/>
   <path id="svg_21" fill="#FFC4BF" d="m91.5605,279.537l-2.6243,16.391l-5.6819,-16.367l0.2408,-0.048l7.7524,0.024l0.313,0z"/>
   <path id="svg_22" fill="#3C4F70" d="m132.369,416.852c0.415,-1.024 0.441,-2.165 0.073,-3.207c-0.368,-1.042 -1.105,-1.913 -2.072,-2.449c-3.129,-2.407 -7.343,-5.681 -7.415,-5.681l3.323,-0.963c0.415,-0.114 0.853,-0.124 1.273,-0.027c0.421,0.097 0.81,0.296 1.134,0.581l9.823,8.545c1.878,1.636 4.815,6.065 4.021,8.424c-0.458,1.3 -3.732,0 -5.128,-0.361l-7.536,-3.346c0,0 1.083,0.53 1.348,0.337c0.479,-0.554 0.869,-1.179 1.156,-1.853z"/>
   <path id="svg_23" fill="#3C4F70" d="m38.039,420.318l5.7781,-11.649c0.9851,-0.091 1.9764,-0.091 2.9614,0l3.3465,0.987l-6.6931,9.483l0,4.814l-3.9002,3.129c-1.2761,0.481 -3.6355,3.851 -4.0689,2.575c-0.6982,-2.335 1.2279,-7.052 2.5762,-9.339z"/>
   <path id="svg_24" fill="#00578A" d="m73.5039,303.004l-5.5134,27.078l-2.9373,0.385l8.4507,-27.463z" opacity="0.6"/>
   <path id="svg_25" fill="#00578A" d="m100.638,332.706l0,0.553l2.408,0l5.393,-2.792l1.95,0.409l-0.193,2.143l0.265,3.056l-3.997,2.215l-4.117,-0.265l-2.094,0.265l0,1.564l-42.3017,10.591c-0.624,0.071 -1.254,0.071 -1.8779,0l0.8667,-10.206l13.2418,-5.776l30.4561,-1.757z" opacity="0.6"/>
   <path id="svg_26" fill="#FFC4BF" d="m95.4622,329.24l7.4878,-0.337l5.609,-2.672l7.753,1.613l2.672,8.015l-1.372,0.169l-0.987,-1.42l-4.165,0.673l-1.445,-1.805l-4.285,2.359l-4.117,-0.265l-7.1508,0.891l0,-7.221z"/>
   <path id="svg_27" fill="#058CBD" d="m58.0223,346.209l42.4697,-8.81l0.145,-8.929l-35.5845,1.998l10.7138,-34.756c0.7934,-2.416 0.7656,-5.027 -0.0791,-7.426c-0.8448,-2.398 -2.4591,-4.45 -4.5916,-5.837c-5.2004,-3.08 -8.0655,1.18 -9.1248,4.814l-13.9881,48.307c-0.3324,1.411 -0.3094,2.882 0.0668,4.282c0.3763,1.4 1.094,2.684 2.089,3.739c0.9949,1.054 2.236,1.845 3.6119,2.302c1.3759,0.457 2.8437,0.565 4.2719,0.316z"/>
   <path id="svg_28" fill="white" d="m66.4505,457.288l-14.0363,21.807l33.1286,5.439l10.8342,-24.213l-29.9265,-3.033z"/>
   <path id="svg_29" fill="#F4C5AA" d="m82.2664,463.835l17.1179,-1.637l0.313,3.442l-17.118,1.637l-3.5873,-0.77l-0.1204,-1.276l3.3948,-1.396z"/>
   <path id="svg_30" fill="white" d="m113.711,460.898c0.987,0 1.83,0.386 1.902,1.084l0,0.962c0,0.674 -0.698,1.3 -1.685,1.396l-2.143,0.193l-0.337,-3.442l2.263,-0.193z"/>
   <path id="svg_31" fill="#D1D3D4" d="m112.529,462.102l0.121,1.252l0.096,1.107l-0.867,0.072l-0.12,-1.107l-0.096,-1.228l-0.121,-1.107l0.891,-0.072l0.096,1.083z"/>
   <path id="svg_32" fill="#F68B3C" d="m83.1101,464.292c0,-0.289 -0.3853,-0.506 -0.7945,-0.482l29.4934,-2.744l0,1.108l-29.4934,2.743c0.5055,-0.048 0.8426,-0.312 0.7945,-0.625z"/>
   <path id="svg_33" fill="#F68B3C" d="m112.121,464.437l-29.469,2.768c0.4093,0 0.7223,-0.337 0.6742,-0.626c-0.0482,-0.289 -0.3852,-0.53 -0.8427,-0.481l29.5415,-2.768l0.096,1.107z"/>
   <path id="svg_34" fill="#E7D893" d="m111.905,462.174l0.12,1.228l-29.5409,2.768c0.4575,0 0.7705,-0.361 0.7464,-0.698c-0.0241,-0.337 -0.4093,-0.554 -0.8427,-0.53l29.5172,-2.768z"/>
   <path id="svg_35" fill="#1B325F" d="m78.8718,465.231l0.1204,1.276l-2.0947,-0.457l1.9743,-0.819z"/>
   <path id="svg_36" fill="#058CBD" d="m424.344,535.994c-43.267,0 -78.343,-1.433 -78.343,-3.201c0,-1.768 35.076,-3.201 78.343,-3.201c43.268,0 78.344,1.433 78.344,3.201c0,1.768 -35.076,3.201 -78.344,3.201z" opacity="0.2"/>
   <path id="svg_37" fill="#FFC4BF" d="m340.126,489.469l-3.346,3.851c-1.269,0.858 -2.454,1.833 -3.54,2.912c-0.963,1.348 -3.274,5.271 -3.274,5.271l-4.093,2.937c-1.757,0.842 -1.589,2.407 -0.65,2.599c0.497,0.373 0.963,0.783 1.397,1.228c1.661,2.262 3.659,2.407 4.815,1.661l3.563,-1.974l2.408,-2.937l3.563,-6.715l3.972,-3.345l-4.815,-5.488z"/>
   <path id="svg_38" fill="#827A53" d="m488.217,501.19l1.396,15.621l-2.913,6.764l-0.746,0c-0.377,0.031 -0.754,-0.059 -1.074,-0.259c-0.321,-0.199 -0.569,-0.497 -0.708,-0.848l0.963,-7.895l-3.948,-2.744l-8.884,-0.433l-0.554,-7.63l8.932,-1.035l5.417,-1.396l2.119,-0.145z"/>
   <path id="svg_39" fill="#2B455F" d="m475.554,502.658l-80.053,5.584l62.333,-14.032c2.539,-0.576 4.904,-1.751 6.897,-3.425c1.994,-1.675 3.558,-3.801 4.563,-6.203c2.408,-5.752 4.502,-13.575 1.686,-20.097l-4.286,-9.46c0,0 -75.213,28.258 -100.084,41.351c-7.8,4.092 -3.322,30.713 8.644,29.1l101.432,-12.179l-1.132,-10.639z"/>
   <path id="svg_40" fill="#ADA26E" d="m493.154,507.353l1.397,15.62l-2.913,6.74l-0.747,0c-0.377,0.035 -0.755,-0.054 -1.077,-0.254c-0.322,-0.2 -0.569,-0.5 -0.704,-0.853l0.987,-7.871l-3.973,-2.768l-8.884,-0.409l-0.554,-7.654l8.933,-1.011l5.417,-1.42l2.118,-0.12z"/>
   <path id="svg_41" fill="#395C7F" d="m482.006,507.352l-79.282,8.833l61.129,-15.813c5.128,-1.155 10.762,-4.501 12.832,-9.315c2.94,-6.424 3.353,-13.72 1.156,-20.435c-8.619,-21.662 -23.402,-10.422 -23.402,-10.422c0,0 -55.736,34.636 -81.087,45.563c-8.066,3.49 -3.323,30.737 8.667,29.1l100.71,-15.404l-0.723,-12.107z"/>
   <path id="svg_42" fill="#FFC4BF" d="m393.842,384.744l-6.934,12.035c-0.349,0.485 -0.838,0.852 -1.402,1.05c-0.565,0.198 -1.176,0.218 -1.752,0.057l-3.371,-1.324l-6.259,-4.381l-3.178,-1.083l-6.549,-5.512l10.569,-14.826l18.876,13.984z"/>
   <path id="svg_43" fill="#FFC4BF" d="m401.52,391.001l-7.247,6.066l-8.234,-8.93l5.513,-5.223l9.968,8.087z"/>
   <path id="svg_44" fill="#091018" d="m372.196,368.786c-1.17,-0.267 -2.398,-0.073 -3.429,0.541c-1.031,0.614 -1.786,1.601 -2.109,2.756c-1.09,1.026 -1.921,2.297 -2.424,3.707c-0.502,1.411 -0.661,2.92 -0.465,4.405c1.06,4.115 -6.621,7.437 -4.815,8.52c0.626,0.385 2.287,1.974 3.611,1.54c2.408,-0.746 4.069,0.313 6.236,-5.006c1.011,-2.407 2.721,-7.774 8.258,-4.068c0,0 3.082,3.731 3.828,2.648c1.132,-1.011 -1.3,-1.733 -1.179,-2.648c0.12,-0.914 1.757,-0.89 2.407,-0.698c2.408,0.819 6.356,2.167 7.223,0.771c0.241,-0.434 -1.18,-1.854 -1.469,-2.407c-0.13,-1.441 -0.646,-2.821 -1.493,-3.994c-0.847,-1.173 -1.995,-2.096 -3.322,-2.674c-1.371,-0.573 -2.537,-1.546 -3.346,-2.792c-2.89,-3.201 -6.26,-2.406 -7.512,-0.601z"/>
   <path id="svg_45" fill="#E7D893" d="m477.166,466.843l-36.258,6.691c-1.975,1.444 -18.804,1.878 -20.152,-0.192l-14.445,-31.916c-8.114,-10.422 -18.298,-26.187 -20.224,-38.848c-0.289,-1.973 4.02,-7.052 4.02,-7.052l7.801,-6.86c0.602,-0.481 12.327,-4.067 17.311,-2.768c7.511,1.95 29.396,22.673 43.722,42.434c8.06,11.801 14.211,24.797 18.225,38.511z"/>
   <path id="svg_46" fill="#FFC4BF" d="m391.528,394.226c0,0 0,3.49 2.046,3.009c2.047,-0.481 6.549,-3.129 6.573,-5.512c0.024,-2.383 -0.241,-3.755 -2.239,-3.49l-6.38,5.993z"/>
   <path id="svg_47" fill="#E7D893" d="m343.953,497.46l40.664,-35.623l16.853,-51.821c1.685,-4.26 -2.696,-9.892 -6.958,-11.577l-0.144,0c-0.783,-0.307 -1.618,-0.457 -2.458,-0.44c-0.841,0.016 -1.669,0.199 -2.439,0.536c-0.77,0.338 -1.465,0.825 -2.046,1.432c-0.581,0.607 -1.036,1.323 -1.339,2.106l-16.252,51.412l-31.01,36.898l5.129,7.077z"/>
   <path id="svg_48" fill="#FFC4BF" d="m388.881,495.318l-3.612,3.225c-0.806,1.229 -1.734,2.374 -2.768,3.418c-1.516,0.731 -3.144,1.203 -4.815,1.396l-2.914,4.814c-0.197,0.38 -0.505,0.693 -0.883,0.895c-0.378,0.201 -0.809,0.284 -1.235,0.236l-1.637,-0.169c-2.143,1.011 -1.662,-0.89 -1.349,-2.406l1.06,-3.418l2.792,-4.116l6.381,-4.284l3.707,-3.996l5.273,4.405z"/>
   <path id="svg_49" fill="#ECE0A9" d="m388.279,497.46l44.709,-37.62c1.248,-1.085 2.173,-2.491 2.674,-4.067c0.501,-1.575 0.559,-3.257 0.167,-4.863l-13.579,-56.274c-0.505,-1.918 -1.664,-3.6 -3.277,-4.756c-1.613,-1.156 -3.579,-1.712 -5.559,-1.574c-1.19,0.08 -2.349,0.41 -3.404,0.966c-1.054,0.557 -1.98,1.329 -2.718,2.266c-0.737,0.937 -1.27,2.018 -1.563,3.173c-0.293,1.156 -0.341,2.36 -0.139,3.535l10.473,54.445l-33.875,38.968l6.091,5.801z"/>
   <path id="svg_50" fill="white" d="m367.814,543.576l-21.812,-7.581l-40.039,6.763l22.078,12.636l39.773,-11.818z"/>
   <path id="svg_51" fill="white" d="m288.965,525.669l-21.669,-10.133l-43.288,5.945l24.076,11.36l40.881,-7.172z"/>
   <path id="svg_52" fill="white" d="m347.637,506.582l-21.669,-10.157c-1.487,1.719 -3.446,2.966 -5.633,3.586c-5.923,1.685 -12.448,5.079 -13.627,8.28c-2.167,5.849 -20.826,9.17 -20.826,9.17l21.428,11.096c3.939,-1.321 7.693,-3.141 11.171,-5.415c3.611,-2.744 3.635,-5.921 5.345,-6.716c4.499,-2.225 9.189,-4.046 14.012,-5.439c3.455,-1.007 6.752,-2.49 9.799,-4.405z"/>
   <path id="svg_53" fill="white" d="m306.781,555.827l-21.668,-10.133l-43.289,5.945l24.1,11.361l40.857,-7.173z"/>
   <path id="svg_54" fill="#FFC4BF" d="m336.877,493.32l-6.404,1.661c0,0 -2.047,1.131 -3.491,2.021c-1.011,0.602 -2.263,1.252 -2.071,1.757c0.193,0.506 0.915,0.578 0.915,0.578c0.515,0.188 1.064,0.259 1.609,0.209c0.546,-0.05 1.073,-0.22 1.545,-0.498l1.661,-0.842l3.395,-0.169l2.841,-4.717z"/>
   <path id="svg_55" fill="white" d="m289.061,490.961l-18.539,11.722l-37.944,-11.722l18.78,-13.623l37.703,13.623z"/>
   <path id="svg_56" fill="#058CBD" d="m619,526c-12.703,0 -23,-0.895 -23,-2c0,-1.105 10.297,-2 23,-2c12.703,0 23,0.895 23,2c0,1.105 -10.297,2 -23,2z" opacity="0.2"/>
   <g id="svg_88">
    <path id="svg_57" fill="#419495" d="m616.198,487.567l0.794,0c1.348,-9.362 0.578,-38.51 0.578,-38.775l-0.361,0.168c0,0.41 0.313,29.293 -1.011,38.607z"/>
    <path id="svg_58" fill="#37A3CA" d="m617.425,449.322c1.569,-0.918 2.775,-2.345 3.419,-4.044c0.53,-2.407 2.408,-7.967 2.022,-11c-0.385,-3.032 0.121,-9.098 -0.939,-13.382c-1.059,-4.284 0,-7.654 -1.468,-13.31c-1.469,-5.657 -5.201,-24.07 -7.705,-27.632c-2.503,-3.562 -5.104,-5.656 -5.73,-7.389c0,0 1.228,2.094 -0.168,6.956c-1.445,6.109 -2.093,12.379 -1.926,18.654c0.192,5.68 0.529,20.458 0.842,25.633c0.313,5.175 2.408,16.151 4.816,19.015c2.407,2.864 3.442,2.96 4.405,4.212c0.964,1.252 1.228,1.974 2.432,2.287z"/>
    <path id="svg_59" fill="#5FB5D5" d="m617.572,448.912c0,0 -2.576,-21.301 -3.515,-27.27c-0.939,-5.97 -3.683,-25.056 -4.069,-31.002c0.02,-4.078 -0.294,-8.151 -0.939,-12.179c0.36,2.737 0.505,5.497 0.434,8.256c0,5.344 2.817,25.538 2.817,25.538l2.792,22.673l2.119,14.177l0.361,-0.193z"/>
    <path id="svg_60" fill="#058CBD" d="m562.799,392.133c2.088,-0.291 4.214,-0.093 6.212,0.578c8.301,5.977 15.959,12.801 22.848,20.362c6.452,7.51 19.501,27.487 20.513,30.424c1.011,2.936 2.624,5.126 2.6,9.29c-0.024,4.164 0.433,6.21 -2.071,8.112c0,0 -1.252,0 -2.142,-2.143c-0.891,-2.142 -1.06,-0.938 -2.721,-4.813c-1.661,-3.876 -4.936,-6.98 -7.415,-11.626c-2.48,-4.645 -2.408,-1.324 -5.923,-8.039c-3.515,-6.715 -1.132,0.457 -8.234,-9.122c-7.103,-9.58 -18.466,-21.662 -19.983,-24.382c-1.203,-1.946 -2.142,-4.042 -2.793,-6.234c-0.034,-0.877 -0.346,-1.719 -0.891,-2.407z"/>
    <path id="svg_61" fill="#37A3CA" d="m567.47,395.888c0,0 20.031,25.97 27.133,35.43c5.403,7.339 10.417,14.955 15.024,22.817l3.539,6.427l-0.361,0c0,0 -6.597,-11.361 -10.521,-17.282c-3.925,-5.921 -10.931,-16.006 -14.735,-20.844c-3.804,-4.838 -20.079,-26.548 -20.079,-26.548z"/>
    <path id="svg_62" fill="#419495" d="m614.08,495.631l0.698,0c1.878,-11.361 -1.686,-34.973 -1.71,-35.19l-0.361,0c0.024,0.41 3.226,23.949 1.373,35.19z"/>
    <path id="svg_63" fill="#419495" d="m621.952,483.572l-0.601,0c-1.589,-9.628 1.42,-29.365 1.444,-29.557l0.289,0c-0.024,0.361 -2.697,20.122 -1.132,29.557z"/>
    <path id="svg_64" fill="#058CBD" d="m665,396.634c-1.749,-0.239 -3.53,-0.066 -5.2,0.505c-7.001,5.008 -13.456,10.735 -19.261,17.089c-6.414,8.037 -12.171,16.577 -17.214,25.538c-1.26,2.395 -2.007,5.026 -2.191,7.726c0,3.394 -0.362,5.199 1.757,6.812c0,0 0.578,1.107 2.287,0.337c2.408,-1.084 3.275,-0.41 4.695,-3.659c1.223,-2.33 2.565,-4.596 4.021,-6.787l4.984,-9.387c3.033,-5.657 0.24,-2.407 6.211,-10.519c5.971,-8.111 15.505,-18.268 16.853,-20.483c1.037,-1.632 1.847,-3.397 2.408,-5.247c0.043,-0.688 0.267,-1.352 0.65,-1.925l0,0z"/>
    <path id="svg_65" fill="#37A3CA" d="m661.074,399.835c0,0 -16.853,21.831 -22.776,29.75c-4.507,6.2 -8.693,12.627 -12.543,19.255l-2.962,5.392l0.289,0c0,0 5.562,-9.628 8.836,-14.442c3.275,-4.814 9.197,-13.478 12.399,-17.618c3.202,-4.14 16.757,-22.337 16.757,-22.337z"/>
    <path id="svg_66" fill="white" d="m615.403,518.881l5.417,0c1.323,0.12 2.644,-0.247 3.716,-1.031c1.073,-0.784 1.823,-1.932 2.11,-3.229l4.069,-39.834l-25.208,0l4.117,39.834c0.287,1.288 1.029,2.429 2.092,3.212c1.062,0.783 2.371,1.155 3.687,1.048z"/>
    <g id="svg_67" opacity="0.6">
     <path id="svg_68" fill="#DFECF8" d="m620.822,518.881l-5.417,0c-1.315,0.107 -2.625,-0.265 -3.687,-1.048c-1.062,-0.783 -1.805,-1.924 -2.091,-3.212l-4.069,-39.834l5.032,0c0.192,5.993 1.083,26.259 3.732,31.602c2.142,4.333 7.463,6.908 12.326,8.208c-0.282,1.301 -1.03,2.455 -2.102,3.244c-1.073,0.789 -2.397,1.159 -3.724,1.04z" opacity="0.6"/>
    </g>
   </g>
  </g>
  <path id="svg_69" fill="#058CBD" d="m377.737,194.459c-98.516,0 -178.379,-3.297 -178.379,-7.365c0,-4.068 79.863,-7.365 178.379,-7.365c98.515,0 178.378,3.297 178.378,7.365c0,4.068 -79.863,7.365 -178.378,7.365z" opacity="0.2"/>
  <path id="svg_70" fill="white" d="m357.73,183.82l146.646,3.9c7.792,0.183 15.541,-1.194 22.792,-4.049c7.252,-2.855 13.859,-7.13 19.433,-12.575c5.575,-5.445 10.004,-11.95 13.027,-19.131c3.023,-7.181 4.579,-14.894 4.577,-22.685c-0.004,-13.882 -4.945,-27.31 -13.94,-37.8852l-50.03,-62.9169c-4.761,-6.0147 -11.663,-9.9567 -19.264,-11.0018c-7.601,-1.0452 -15.312,0.8874 -21.52,5.3936c-22.102,16.0783 -34.405,44.7447 -55.495,91.0293c0,0 -22.319,21.302 -62.598,29.943c-21.139,4.549 -12.977,39.473 16.372,39.978z"/>
  <path id="svg_71" fill="#419495" d="m429.934,66.7724c9.871,-10.0368 3.081,-18.8221 15.095,-20.2181c12.014,-1.396 12.038,28.7146 5.49,36.1038c-8.885,9.9406 -10.305,20.2659 -12.038,32.8059c-1.734,12.541 -14.446,21.663 -23.739,22.481c-28.891,2.744 -45.745,14.008 -50.343,7.726c-5.297,-7.341 44.733,-57.7417 65.535,-78.8986z" opacity="0.1"/>
  <path id="svg_72" fill="#FFC4BF" d="m346.486,54.3764l-8.474,-2.8883l-2.769,-3.7789l-2.937,-2.7679l-3.684,-2.1903l-0.337,2.0459l2.239,2.094l0.241,0.7221l-3.612,-0.9387l-4.502,-2.07l-0.77,1.9737l0.361,1.0109l0.602,3.6585l0.578,2.3106l6.909,2.5032l3.106,0.1685l2.576,0.8184l7.055,2.3588l3.418,-5.0305z"/>
  <path id="svg_73" fill="#BF9B5C" d="m219.365,181.823l-11.315,-17.811l0.577,-0.361c0.313,-0.197 0.682,-0.283 1.049,-0.244c0.367,0.04 0.71,0.202 0.974,0.461l5.778,4.813l5.417,2.407l2.552,-1.203l3.732,5.632l-3.058,1.974l-3.924,3.249l-1.782,1.083z"/>
  <path id="svg_74" fill="#F68B3C" d="m369.936,68.6013c1.263,0.46 2.62,0.6017 3.951,0.4128c1.331,-0.1889 2.595,-0.7026 3.681,-1.4959c0,0 26.869,-15.1636 33.104,-22.9138c2.408,-3.0568 4.478,-10.0128 2.143,-12.2031l-0.987,-0.6018c-3.178,-0.9627 -12.471,0.2648 -15.746,3.1772c-6.741,5.9691 -25.352,19.8571 -25.352,19.8571l-32.021,-3.466l-1.613,7.0041l32.84,10.2294z"/>
  <path id="svg_75" fill="#BF9B5C" d="m337.434,186.035l-22.511,0.433l0,-0.746c-0.002,-0.385 0.125,-0.76 0.361,-1.065c0.235,-0.305 0.565,-0.523 0.939,-0.62l7.439,-2.575l4.045,-3.683l0,-3.297l7.825,0l0.529,4.019l1.324,5.392l0.049,2.142z"/>
  <path id="svg_76" fill="#2B455F" d="m229.428,177.683l75.503,-31.025l87.419,-6.186c7.223,-0.578 18.394,-12.781 18.996,-16.849l1.011,-9.796l-108.341,10.133c-4.454,0.674 -7.223,0.987 -9.944,2.696l-70.759,43.132l6.115,7.895z"/>
  <path id="svg_77" fill="#395C7F" d="m337.867,175.637l-11.556,-64.241l59.444,27.993c2.228,0.901 4.639,1.259 7.033,1.046c2.395,-0.213 4.704,-0.993 6.738,-2.274c4.815,-3.105 10.593,-8.015 11.869,-14.441l1.734,-9.483l-97.58,-28.6428c-1.593,-0.5713 -3.312,-0.6946 -4.97,-0.3564c-1.658,0.3383 -3.192,1.125 -4.433,2.2745c-1.242,1.1494 -2.144,2.6176 -2.609,4.2444c-0.464,1.6269 -0.473,3.35 -0.026,4.9815l23.522,79.1878l10.834,-0.289z"/>
  <path id="svg_78" fill="#FFC4BF" d="m421.268,28.5742l-12.809,0c-0.562,-0.0429 -1.097,-0.2611 -1.529,-0.6237c-0.432,-0.3627 -0.739,-0.8517 -0.878,-1.3981l-0.506,-3.3215l0.506,-7.0523l-0.626,-3.0568l1.42,-7.82248l16.853,1.58856l-2.431,21.68632z"/>
  <path id="svg_79" fill="#FFC4BF" d="m420.954,36.8058l-8.523,-2.0699l2.119,-11.0718l6.958,1.2516l-0.554,11.8901z"/>
  <path id="svg_80" fill="#091018" d="m424.011,3.78268c-0.324,-1.06808 -1.049,-1.96964 -2.022,-2.51672c-0.974,-0.54707 -2.121,-0.69743 -3.202,-0.41973c-1.331,-0.39229 -2.737,-0.46376 -4.101,-0.20856c-1.364,0.2552 -2.648,0.82981 -3.748,1.67678c-2.817,2.76796 -9.052,-1.85332 -9.125,0c0,0.67394 -0.529,2.71982 0.434,3.61038c1.685,1.51636 1.637,3.39376 6.934,2.67169c2.407,-0.33697 6.187,-1.20346 5.802,4.95828c0,0 -1.565,4.2121 -0.337,4.3324c1.228,0.1204 0.746,-1.8774 1.565,-2.1903c0.818,-0.3129 1.926,0.8425 2.046,1.4201c0.434,2.2384 2.119,6.0173 3.612,6.0414c0.481,0 0.963,-1.8052 1.276,-2.4069c1.101,-0.7746 1.973,-1.8318 2.524,-3.0602c0.551,-1.2284 0.76,-2.5826 0.606,-3.9199c-0.161,-1.348 0.082,-2.7134 0.698,-3.92329c1.276,-3.56224 -0.915,-5.92102 -2.962,-6.06543z"/>
  <path id="svg_81" fill="#F68B3C" d="m405.667,134.599l-19.261,-25.995c-2.191,-0.674 -14.831,-3.297 -14.036,-5.44l15.481,-34.5148c3.298,-11.818 9.462,-28.1128 17.864,-36.513c1.3,-1.2997 7.464,-0.8905 7.464,-0.8905l9.486,2.0458c0.698,0.1926 8.113,2.5995 10.93,6.0173c4.526,5.5119 0,39.7864 -6.837,61.3042c-5.827,18.509 -21.091,33.986 -21.091,33.986z"/>
  <path id="svg_82" fill="#FFC4BF" d="m371.404,78.6381l-7.897,-0.8184l-3.346,-4.7898l-7.247,-1.42l-5.176,5.921l1.107,0.6499l1.372,-0.8665l3.323,2.0699l1.902,-1.035l3.058,3.2494l3.298,1.1553l7.295,1.3719l2.311,-5.4877z"/>
  <path id="svg_83" fill="#FFC4BF" d="m413.033,31.1255c0,0 -2.625,1.9015 -1.132,3.2012c1.493,1.2997 5.971,3.1531 7.729,1.8533c1.757,-1.2997 2.696,-2.2384 1.396,-3.5863l-7.993,-1.4682z"/>
  <path id="svg_84" fill="#F8A263" d="m398.611,99.4094c4.815,2.1906 9.847,-2.4069 11.845,-4.8138c6.206,-7.0397 11.902,-14.512 17.046,-22.3603c3.998,-7.7359 5.67,-16.4631 4.815,-25.1283c-0.529,-2.0699 -1.3,-5.2711 -2.744,-6.282c-3.371,-2.4069 -9.005,0.3369 -10.979,4.2602l-20.224,36.1038l-33.947,-4.1399l0,6.7635c0,0 16.853,8.713 24.485,11.8661c2.528,0.9387 9.703,3.7307 9.703,3.7307z"/>
  <path id="svg_85" fill="white" d="m301.031,81.0449l43.096,13.214l0,-25.8744l-43.096,-13.8879l0,26.5483z"/>
  <path id="svg_86" fill="white" d="m301.105,79.7212l59.395,18.076l-0.409,1.5163l-59.059,-18.2685l0.073,-1.3238z"/>
  <path id="svg_87" fill="white" d="m214.719,201.873l18.562,19.712l-33.128,5.44l-15.337,-22.12l29.903,-3.032z"/>
 </g>
</svg>