<svg width="667" height="563" viewBox="0 0 667 563" fill="none" xmlns="http://www.w3.org/2000/svg">
<g clip-path="url(#clip0)">
<path opacity="0.2" d="M0.0965576 400.268C0.0965576 401.809 36.2105 403.036 80.5584 403.036C124.906 403.036 160.996 401.809 160.996 400.268C160.996 398.728 124.882 397.476 80.5584 397.476C36.2345 397.476 0.0965576 398.728 0.0965576 400.268Z" fill="#058CBD"/>
<path d="M84.0468 274.025L97.8905 273.496L98.9017 267.623L100.105 267.382L98.8776 261.678L98.7091 253.326L83.9746 253.374L84.0468 274.025Z" fill="#FFC4BF"/>
<path d="M84.2902 269.411L91.4805 269.76L90.9608 280.458L83.7706 280.109L84.2902 269.411Z" fill="#FFC4BF"/>
<path d="M69.5312 265.745C69.523 264.51 69.8984 263.302 70.6056 262.289C71.3128 261.276 72.317 260.508 73.4797 260.089C73.9078 259.348 74.4433 258.675 75.0687 258.091C75.1417 256.555 75.7756 255.1 76.8503 254V253.831C76.9707 249.017 80.2451 245.094 84.0731 245.19C84.2494 245.177 84.4265 245.177 84.6028 245.19C85.2898 244.437 86.1382 243.849 87.0846 243.47C88.031 243.09 89.0508 242.93 90.068 243C91.8769 243.013 93.6075 243.74 94.8832 245.022C95.2761 244.998 95.67 244.998 96.0629 245.022C96.9003 245.131 97.7078 245.405 98.4388 245.828C99.1698 246.251 99.81 246.814 100.322 247.485C100.835 248.156 101.209 248.922 101.425 249.739C101.64 250.555 101.691 251.406 101.576 252.243C101.77 253.047 101.693 253.892 101.36 254.649C102.324 255.862 102.812 257.386 102.732 258.934C102.808 260.039 102.529 261.139 101.935 262.074C101.342 263.009 100.466 263.73 99.4335 264.133L98.9039 261.726L98.8076 256.238C98.1219 256.176 97.464 255.938 96.8985 255.545C96.3329 255.153 95.8791 254.62 95.5814 254C95.4627 253.782 95.3581 253.557 95.2684 253.326H93.0294C92.5913 254.322 91.8608 255.161 90.9347 255.733C90.9347 255.733 90.9347 255.901 90.9347 255.973C91.2927 256.976 91.4562 258.038 91.4163 259.102C91.4139 260.458 91.0655 261.791 90.4041 262.974C89.7426 264.158 88.79 265.153 87.6364 265.866C87.5959 266.302 87.5316 266.736 87.4437 267.165C86.982 269.228 85.8051 271.062 84.1213 272.34V274.916C83.7605 274.939 83.3986 274.939 83.0378 274.916C81.8426 274.877 80.6827 274.501 79.6913 273.833H79.1376C78.311 273.813 77.4963 273.631 76.7402 273.297C75.9842 272.962 75.3016 272.482 74.7317 271.883C73.2296 271.754 71.8396 271.036 70.8652 269.886C69.8908 268.736 69.4112 267.248 69.5312 265.745Z" fill="#132233"/>
<path d="M56.7941 408.548L50.8473 410.209L46.6822 409.005C45.7213 408.914 44.7539 408.914 43.793 409.005L38.1352 420.438C36.811 422.676 34.909 427.298 35.7276 429.584C36.1369 430.836 38.4723 427.514 39.7002 427.033L47.6211 420.703L53.9772 417.55L60.1406 415.143L56.7941 408.548Z" fill="#FFC4BF"/>
<path d="M116.335 404.264L122.306 405.924L126.471 404.721C126.884 404.596 127.323 404.58 127.744 404.672C128.165 404.765 128.556 404.964 128.879 405.251L138.509 413.53C140.339 415.143 143.18 419.451 142.41 421.738C141.976 422.989 138.798 421.738 137.594 421.232L125.701 416.419L119.321 413.266L112.748 411.701L116.335 404.264Z" fill="#FFC4BF"/>
<path d="M164.464 343.152L167.955 335.45L131.239 317.47L109.788 283.196C109.113 282.093 108.081 281.253 106.864 280.816C105.647 280.378 104.318 280.369 103.094 280.789L102.18 281.415C98.183 284.375 97.6051 291.668 100.639 295.615L120.044 326.159C120.61 327 121.37 327.693 122.259 328.181L164.464 343.152Z" fill="#058CBD"/>
<path d="M165.378 336.172L168.653 337.544L172.553 336.725L176.55 337.736L175.924 338.964H174.479L172.842 338.867L173.034 339.301L175.322 340.215L176.67 341.347L174.407 349.362L172.071 345.751L168.58 344.885L165.378 341.611L160.9 339.854L163.236 335.305L165.378 336.172Z" fill="#BE9567"/>
<path d="M63.4659 400.484C75.7206 400.484 105.406 398.944 105.406 398.944C107.814 398.944 114.146 396.778 115.037 391.122C115.783 386.308 110.221 370.398 110.221 370.398H56.0746C56.0746 370.398 53.667 387.391 54.2448 392.06C54.616 394.294 55.7266 396.338 57.3986 397.866C59.0706 399.393 61.2072 400.316 63.4659 400.484Z" fill="#04698E"/>
<path d="M23.9305 363.37L75.3809 377.523L63.6558 397.597L15.8891 386.404L23.9305 363.37Z" fill="#04698E"/>
<path d="M115.228 413.699L119.08 403.253L25.184 363.731C19.7428 361.71 10.7383 364.694 8.64373 370.134L8.35483 371.121C6.33245 376.56 11.0032 384.648 16.4444 386.645L115.228 413.699Z" fill="#04698E"/>
<path d="M54.3157 371.626C63.3536 375.096 72.9054 377.04 82.5809 377.378C92.6687 377.378 109.402 369.604 113.157 367.751C113.831 367.414 113.326 367.462 113.157 366.692L110.196 332.995L113.254 301.488C112.58 286.18 110.966 281.294 104.37 280.259L94.1855 279.561H82.5568L71.8189 280.211C65.174 281.101 61.2015 281.968 60.7922 296.482L54.3157 371.626Z" fill="#058CBD"/>
<path d="M106.777 398.078L94.5227 408.018L87.7814 406.165L106.777 398.078Z" fill="#2D3B54"/>
<path d="M122.906 356.991H172.382L179.557 323.271H130.081L122.906 356.991Z" fill="white"/>
<path d="M95.8474 356.992H172.385V358.147H95.8474V356.992Z" fill="white"/>
<path d="M144.408 355.403L88.0946 377.619L108.559 390.76L159.359 374.923L144.408 355.403Z" fill="#04698E"/>
<path d="M57.1801 417.718L52.365 408.885L144.407 355.403C149.632 352.852 160.057 354.946 162.609 360.217L162.898 360.915C165.45 366.138 162.031 374.225 156.806 376.776L57.1801 417.718Z" fill="#04698E"/>
<path d="M176.67 341.346L172.986 340.119L172.625 341.25L173.083 342.502L172.433 347.315C172.419 347.447 172.438 347.579 172.489 347.701C172.539 347.823 172.619 347.93 172.722 348.013L174.407 349.361L176.67 341.346Z" fill="#FFC4BF"/>
<path d="M91.5605 279.537L88.9362 295.928L83.2543 279.561L83.4951 279.513L91.2475 279.537H91.5605Z" fill="#FFC4BF"/>
<path d="M132.369 416.852C132.784 415.828 132.81 414.687 132.442 413.645C132.074 412.603 131.337 411.732 130.37 411.196C127.241 408.789 123.027 405.515 122.955 405.515L126.278 404.552C126.693 404.438 127.131 404.428 127.551 404.525C127.972 404.622 128.361 404.821 128.685 405.106L138.508 413.651C140.386 415.287 143.323 419.716 142.529 422.075C142.071 423.375 138.797 422.075 137.401 421.714L129.865 418.368C129.865 418.368 130.948 418.898 131.213 418.705C131.692 418.151 132.082 417.526 132.369 416.852Z" fill="#3C4F70"/>
<path d="M38.039 420.318L43.8171 408.669C44.8022 408.578 45.7935 408.578 46.7785 408.669L50.125 409.656L43.4319 419.139V423.953L39.5317 427.082C38.2556 427.563 35.8962 430.933 35.4628 429.657C34.7646 427.322 36.6907 422.605 38.039 420.318Z" fill="#3C4F70"/>
<path opacity="0.6" d="M73.5039 303.004L67.9905 330.082L65.0532 330.467L73.5039 303.004Z" fill="#00578A"/>
<path opacity="0.6" d="M100.638 332.706V333.259H103.046L108.439 330.467L110.389 330.876L110.196 333.019L110.461 336.075L106.464 338.29L102.347 338.025L100.253 338.29V339.854L57.9513 350.445C57.3273 350.516 56.6973 350.516 56.0734 350.445L56.9401 340.239L70.1819 334.463L100.638 332.706Z" fill="#00578A"/>
<path d="M95.4622 329.24L102.95 328.903L108.559 326.231L116.312 327.844L118.984 335.859L117.612 336.028L116.625 334.608L112.46 335.281L111.015 333.476L106.73 335.835L102.613 335.57L95.4622 336.461V329.24Z" fill="#FFC4BF"/>
<path d="M58.0223 346.209L100.492 337.399L100.637 328.47L65.0525 330.468L75.7663 295.712C76.5597 293.296 76.5319 290.685 75.6872 288.286C74.8424 285.888 73.2281 283.836 71.0956 282.449C65.8952 279.369 63.0301 283.629 61.9708 287.263L47.9827 335.57C47.6503 336.981 47.6733 338.452 48.0495 339.852C48.4258 341.252 49.1435 342.536 50.1385 343.591C51.1334 344.645 52.3745 345.436 53.7504 345.893C55.1263 346.35 56.5941 346.458 58.0223 346.209Z" fill="#058CBD"/>
<path d="M66.4505 457.288L52.4142 479.095L85.5428 484.534L96.377 460.321L66.4505 457.288Z" fill="white"/>
<path d="M82.2664 463.835L99.3843 462.198L99.6973 465.64L82.5793 467.277L78.992 466.507L78.8716 465.231L82.2664 463.835Z" fill="#F4C5AA"/>
<path d="M113.711 460.898C114.698 460.898 115.541 461.284 115.613 461.982V462.944C115.613 463.618 114.915 464.244 113.928 464.34L111.785 464.533L111.448 461.091L113.711 460.898Z" fill="white"/>
<path d="M112.529 462.102L112.65 463.354L112.746 464.461L111.879 464.533L111.759 463.426L111.663 462.198L111.542 461.091L112.433 461.019L112.529 462.102Z" fill="#D1D3D4"/>
<path d="M83.1101 464.292C83.1101 464.003 82.7248 463.786 82.3156 463.81L111.809 461.066V462.174L82.3156 464.917C82.8211 464.869 83.1582 464.605 83.1101 464.292Z" fill="#F68B3C"/>
<path d="M112.121 464.437L82.652 467.205C83.0613 467.205 83.3743 466.868 83.3262 466.579C83.278 466.29 82.941 466.049 82.4835 466.098L112.025 463.33L112.121 464.437Z" fill="#F68B3C"/>
<path d="M111.905 462.174L112.025 463.402L82.4841 466.17C82.9416 466.17 83.2546 465.809 83.2305 465.472C83.2064 465.135 82.8212 464.918 82.3878 464.942L111.905 462.174Z" fill="#E7D893"/>
<path d="M78.8718 465.231L78.9922 466.507L76.8975 466.05L78.8718 465.231Z" fill="#1B325F"/>
<path opacity="0.2" d="M424.344 535.994C381.077 535.994 346.001 534.561 346.001 532.793C346.001 531.025 381.077 529.592 424.344 529.592C467.612 529.592 502.688 531.025 502.688 532.793C502.688 534.561 467.612 535.994 424.344 535.994Z" fill="#058CBD"/>
<path d="M340.126 489.469L336.78 493.32C335.511 494.178 334.326 495.153 333.24 496.232C332.277 497.58 329.966 501.503 329.966 501.503L325.873 504.44C324.116 505.282 324.284 506.847 325.223 507.039C325.72 507.412 326.186 507.822 326.62 508.267C328.281 510.529 330.279 510.674 331.435 509.928L334.998 507.954L337.406 505.017L340.969 498.302L344.941 494.957L340.126 489.469Z" fill="#FFC4BF"/>
<path d="M488.217 501.19L489.613 516.811L486.7 523.575H485.954C485.577 523.606 485.2 523.516 484.88 523.316C484.559 523.117 484.311 522.819 484.172 522.468L485.135 514.573L481.187 511.829L472.303 511.396L471.749 503.766L480.681 502.731L486.098 501.335L488.217 501.19Z" fill="#827A53"/>
<path d="M475.554 502.658L395.501 508.242L457.834 494.21C460.373 493.634 462.738 492.459 464.731 490.785C466.725 489.11 468.289 486.984 469.294 484.582C471.702 478.83 473.796 471.007 470.98 464.485L466.694 455.025C466.694 455.025 391.481 483.283 366.61 496.376C358.81 500.468 363.288 527.089 375.254 525.476L476.686 513.297L475.554 502.658Z" fill="#2B455F"/>
<path d="M493.154 507.353L494.551 522.973L491.638 529.713H490.891C490.514 529.748 490.136 529.659 489.814 529.459C489.492 529.259 489.245 528.959 489.11 528.606L490.097 520.735L486.124 517.967L477.24 517.558L476.686 509.904L485.619 508.893L491.036 507.473L493.154 507.353Z" fill="#ADA26E"/>
<path d="M482.006 507.352L402.724 516.185L463.853 500.372C468.981 499.217 474.615 495.871 476.685 491.057C479.625 484.633 480.038 477.337 477.841 470.622C469.222 448.96 454.439 460.2 454.439 460.2C454.439 460.2 398.703 494.836 373.352 505.763C365.286 509.253 370.029 536.5 382.019 534.863L482.729 519.459L482.006 507.352Z" fill="#395C7F"/>
<path d="M393.842 384.744L386.908 396.779C386.559 397.264 386.07 397.631 385.506 397.829C384.941 398.027 384.33 398.047 383.754 397.886L380.383 396.562L374.124 392.181L370.946 391.098L364.397 385.586L374.966 370.76L393.842 384.744Z" fill="#FFC4BF"/>
<path d="M401.52 391.001L394.273 397.067L386.039 388.137L391.552 382.914L401.52 391.001Z" fill="#FFC4BF"/>
<path d="M372.196 368.786C371.026 368.519 369.798 368.713 368.767 369.327C367.736 369.941 366.981 370.928 366.658 372.083C365.568 373.109 364.737 374.38 364.234 375.79C363.732 377.201 363.573 378.71 363.769 380.195C364.829 384.31 357.148 387.632 358.954 388.715C359.58 389.1 361.241 390.689 362.565 390.255C364.973 389.509 366.634 390.568 368.801 385.249C369.812 382.842 371.522 377.475 377.059 381.181C377.059 381.181 380.141 384.912 380.887 383.829C382.019 382.818 379.587 382.096 379.708 381.181C379.828 380.267 381.465 380.291 382.115 380.483C384.523 381.302 388.471 382.65 389.338 381.254C389.579 380.82 388.158 379.4 387.869 378.847C387.739 377.406 387.223 376.026 386.376 374.853C385.529 373.68 384.381 372.757 383.054 372.179C381.683 371.606 380.517 370.633 379.708 369.387C376.818 366.186 373.448 366.981 372.196 368.786Z" fill="#091018"/>
<path d="M477.166 466.843L440.908 473.534C438.933 474.978 422.104 475.412 420.756 473.342L406.311 441.426C398.197 431.004 388.013 415.239 386.087 402.578C385.798 400.605 390.107 395.526 390.107 395.526L397.908 388.666C398.51 388.185 410.235 384.599 415.219 385.898C422.73 387.848 444.615 408.571 458.941 428.332C467.001 440.133 473.152 453.129 477.166 466.843Z" fill="#E7D893"/>
<path d="M391.528 394.226C391.528 394.226 391.528 397.716 393.574 397.235C395.621 396.754 400.123 394.106 400.147 391.723C400.171 389.34 399.906 387.968 397.908 388.233L391.528 394.226Z" fill="#FFC4BF"/>
<path d="M343.953 497.46L384.617 461.837L401.47 410.016C403.155 405.756 398.774 400.124 394.512 398.439H394.368C393.585 398.132 392.75 397.982 391.91 397.999C391.069 398.015 390.241 398.198 389.471 398.535C388.701 398.873 388.006 399.36 387.425 399.967C386.844 400.574 386.389 401.29 386.086 402.073L369.834 453.485L338.824 490.383L343.953 497.46Z" fill="#E7D893"/>
<path d="M388.881 495.318L385.269 498.543C384.463 499.772 383.535 500.917 382.501 501.961C380.985 502.692 379.357 503.164 377.686 503.357L374.772 508.171C374.575 508.551 374.267 508.864 373.889 509.066C373.511 509.267 373.08 509.35 372.654 509.302L371.017 509.133C368.874 510.144 369.355 508.243 369.668 506.727L370.728 503.309L373.52 499.193L379.901 494.909L383.608 490.913L388.881 495.318Z" fill="#FFC4BF"/>
<path d="M388.279 497.46L432.988 459.84C434.236 458.755 435.161 457.349 435.662 455.773C436.163 454.198 436.221 452.516 435.829 450.91L422.25 394.636C421.745 392.718 420.586 391.036 418.973 389.88C417.36 388.724 415.394 388.168 413.414 388.306C412.224 388.386 411.065 388.716 410.01 389.272C408.956 389.829 408.03 390.601 407.292 391.538C406.555 392.475 406.022 393.556 405.729 394.711C405.436 395.867 405.388 397.071 405.59 398.246L416.063 452.691L382.188 491.659L388.279 497.46Z" fill="#ECE0A9"/>
<path d="M367.814 543.576L346.002 535.995L305.963 542.758L328.041 555.394L367.814 543.576Z" fill="white"/>
<path d="M288.965 525.669L267.296 515.536L224.008 521.481L248.084 532.841L288.965 525.669Z" fill="white"/>
<path d="M347.637 506.582L325.968 496.425C324.481 498.144 322.522 499.391 320.335 500.011C314.412 501.696 307.887 505.09 306.708 508.291C304.541 514.14 285.882 517.461 285.882 517.461L307.31 528.557C311.249 527.236 315.003 525.416 318.481 523.142C322.092 520.398 322.116 517.221 323.826 516.426C328.325 514.201 333.015 512.38 337.838 510.987C341.293 509.98 344.59 508.497 347.637 506.582Z" fill="white"/>
<path d="M306.781 555.827L285.113 545.694L241.824 551.639L265.924 563L306.781 555.827Z" fill="white"/>
<path d="M336.877 493.32L330.473 494.981C330.473 494.981 328.426 496.112 326.982 497.002C325.971 497.604 324.719 498.254 324.911 498.759C325.104 499.265 325.826 499.337 325.826 499.337C326.341 499.525 326.89 499.596 327.435 499.546C327.981 499.496 328.508 499.326 328.98 499.048L330.641 498.206L334.036 498.037L336.877 493.32Z" fill="#FFC4BF"/>
<path d="M289.061 490.961L270.522 502.683L232.578 490.961L251.358 477.338L289.061 490.961Z" fill="white"/>
</g>
<path opacity="0.2" d="M377.737 194.459C279.221 194.459 199.358 191.162 199.358 187.094C199.358 183.026 279.221 179.729 377.737 179.729C476.252 179.729 556.115 183.026 556.115 187.094C556.115 191.162 476.252 194.459 377.737 194.459Z" fill="#058CBD"/>
<path d="M357.73 183.82L504.376 187.72C512.168 187.903 519.917 186.526 527.168 183.671C534.42 180.816 541.027 176.541 546.601 171.096C552.176 165.651 556.605 159.146 559.628 151.965C562.651 144.784 564.207 137.071 564.205 129.28C564.201 115.398 559.26 101.97 550.265 91.3948L500.235 28.4779C495.474 22.4632 488.572 18.5212 480.971 17.4761C473.37 16.4309 465.659 18.3635 459.451 22.8697C437.349 38.948 425.046 67.6144 403.956 113.899C403.956 113.899 381.637 135.201 341.358 143.842C320.219 148.391 328.381 183.315 357.73 183.82Z" fill="white"/>
<path opacity="0.1" d="M429.934 66.7724C439.805 56.7356 433.015 47.9503 445.029 46.5543C457.043 45.1583 457.067 75.2689 450.519 82.6581C441.634 92.5987 440.214 102.924 438.481 115.464C436.747 128.005 424.035 137.127 414.742 137.945C385.851 140.689 368.997 151.953 364.399 145.671C359.102 138.33 409.132 87.9293 429.934 66.7724Z" fill="#419495"/>
<path d="M346.486 54.3764L338.012 51.4881L335.243 47.7092L332.306 44.9413L328.622 42.751L328.285 44.7969L330.524 46.8909L330.765 47.613L327.153 46.6743L322.651 44.6043L321.881 46.578L322.242 47.5889L322.844 51.2474L323.422 53.558L330.331 56.0612L333.437 56.2297L336.013 57.0481L343.068 59.4069L346.486 54.3764Z" fill="#FFC4BF"/>
<path d="M219.365 181.823L208.05 164.012L208.627 163.651C208.94 163.454 209.309 163.368 209.676 163.407C210.043 163.447 210.386 163.609 210.65 163.868L216.428 168.681L221.845 171.088L224.397 169.885L228.129 175.517L225.071 177.491L221.147 180.74L219.365 181.823Z" fill="#BF9B5C"/>
<path d="M369.936 68.6013C371.199 69.0613 372.556 69.203 373.887 69.0141C375.218 68.8252 376.482 68.3115 377.568 67.5182C377.568 67.5182 404.437 52.3546 410.672 44.6044C413.08 41.5476 415.15 34.5916 412.815 32.4013L411.828 31.7995C408.65 30.8368 399.357 32.0643 396.082 34.9767C389.341 40.9458 370.73 54.8338 370.73 54.8338L338.709 51.3678L337.096 58.3719L369.936 68.6013Z" fill="#F68B3C"/>
<path d="M337.434 186.035L314.923 186.468V185.722C314.921 185.337 315.048 184.962 315.284 184.657C315.519 184.352 315.849 184.134 316.223 184.037L323.662 181.462L327.707 177.779V174.482H335.532L336.061 178.501L337.385 183.893L337.434 186.035Z" fill="#BF9B5C"/>
<path d="M229.428 177.683L304.931 146.658L392.35 140.472C399.573 139.894 410.744 127.691 411.346 123.623L412.357 113.827L304.016 123.96C299.562 124.634 296.793 124.947 294.072 126.656L223.313 169.788L229.428 177.683Z" fill="#2B455F"/>
<path d="M337.867 175.637L326.311 111.396L385.755 139.389C387.983 140.29 390.394 140.648 392.788 140.435C395.183 140.222 397.492 139.442 399.526 138.161C404.341 135.056 410.119 130.146 411.395 123.72L413.129 114.237L315.549 85.5942C313.956 85.0229 312.237 84.8996 310.579 85.2378C308.921 85.5761 307.387 86.3628 306.146 87.5123C304.904 88.6617 304.002 90.1299 303.537 91.7567C303.073 93.3836 303.064 95.1067 303.511 96.7382L327.033 175.926L337.867 175.637Z" fill="#395C7F"/>
<path d="M421.268 28.5742H408.459C407.897 28.5313 407.362 28.3131 406.93 27.9505C406.498 27.5878 406.191 27.0988 406.052 26.5524L405.546 23.2309L406.052 16.1786L405.426 13.1218L406.846 5.29932L423.699 6.88788L421.268 28.5742Z" fill="#FFC4BF"/>
<path d="M420.954 36.8058L412.431 34.7359L414.55 23.6641L421.508 24.9157L420.954 36.8058Z" fill="#FFC4BF"/>
<path d="M424.011 3.78268C423.687 2.7146 422.962 1.81304 421.989 1.26596C421.015 0.71889 419.868 0.568531 418.787 0.846233C417.456 0.45394 416.05 0.382467 414.686 0.637667C413.322 0.892866 412.038 1.46748 410.938 2.31445C408.121 5.08241 401.886 0.461126 401.813 2.31445C401.813 2.98839 401.284 5.03427 402.247 5.92483C403.932 7.44119 403.884 9.31859 409.181 8.59652C411.588 8.25955 415.368 7.39306 414.983 13.5548C414.983 13.5548 413.418 17.7669 414.646 17.8872C415.874 18.0076 415.392 16.0098 416.211 15.6969C417.029 15.384 418.137 16.5394 418.257 17.117C418.691 19.3554 420.376 23.1343 421.869 23.1584C422.35 23.1584 422.832 21.3532 423.145 20.7515C424.246 19.9769 425.118 18.9197 425.669 17.6913C426.22 16.4629 426.429 15.1087 426.275 13.7714C426.114 12.4234 426.357 11.058 426.973 9.84811C428.249 6.28587 426.058 3.92709 424.011 3.78268Z" fill="#091018"/>
<path d="M405.667 134.599L386.406 108.604C384.215 107.93 371.575 105.307 372.37 103.164L387.851 68.6492C391.149 56.8312 397.313 40.5364 405.715 32.1362C407.015 30.8365 413.179 31.2457 413.179 31.2457L422.665 33.2915C423.363 33.4841 430.778 35.891 433.595 39.3088C438.121 44.8207 433.595 79.0952 426.758 100.613C420.931 119.122 405.667 134.599 405.667 134.599Z" fill="#F68B3C"/>
<path d="M371.404 78.6381L363.507 77.8197L360.161 73.0299L352.914 71.6099L347.738 77.5309L348.845 78.1808L350.217 77.3143L353.54 79.3842L355.442 78.3492L358.5 81.5986L361.798 82.7539L369.093 84.1258L371.404 78.6381Z" fill="#FFC4BF"/>
<path d="M413.033 31.1255C413.033 31.1255 410.408 33.027 411.901 34.3267C413.394 35.6264 417.872 37.4798 419.63 36.18C421.387 34.8803 422.326 33.9416 421.026 32.5937L413.033 31.1255Z" fill="#FFC4BF"/>
<path d="M398.611 99.4094C403.426 101.6 408.458 97.0025 410.456 94.5956C416.662 87.5559 422.358 80.0836 427.502 72.2353C431.5 64.4994 433.172 55.7722 432.317 47.107C431.788 45.0371 431.017 41.8359 429.573 40.825C426.202 38.4181 420.568 41.1619 418.594 45.0852L398.37 81.189L364.423 77.0491V83.8126C364.423 83.8126 381.276 92.5256 388.908 95.6787C391.436 96.6174 398.611 99.4094 398.611 99.4094Z" fill="#F8A263"/>
<path d="M301.031 81.0449L344.127 94.2589V68.3845L301.031 54.4966V81.0449Z" fill="white"/>
<path d="M301.105 79.7212L360.5 97.7972L360.091 99.3135L301.032 81.045L301.105 79.7212Z" fill="white"/>
<path d="M214.719 201.873L233.281 221.585L200.153 227.025L184.816 204.905L214.719 201.873Z" fill="white"/>
<defs>
<clipPath id="clip0">
<rect width="667" height="320" fill="white" transform="matrix(-1 0 0 1 667 243)"/>
</clipPath>
</defs>
</svg>
