<svg width="356" height="142" viewBox="0 0 356 142" fill="none" xmlns="http://www.w3.org/2000/svg">
<g clip-path="url(#clip0)">
<path d="M119.112 5.98964C107.585 7.65409 95.7754 7.79529 84.2429 9.82201C73.8317 11.6165 63.6779 14.217 53.9199 17.5879C35.7018 23.9768 16.4477 33.5975 6.29648 47.8581C-2.55822 60.2573 1.5382 74.1537 16.0932 82.8098C24.3578 87.7334 34.0929 89.6819 43.7606 91.814C55.4511 94.332 67.4333 95.7448 79.4653 96.024C105.222 96.6993 130.906 94.7171 155.901 90.1251C178.041 86.0817 201.196 80.2906 219.819 69.7716C234.553 61.5044 248.201 47.2166 233.156 33.5883C220.176 21.8808 196.144 17.9434 178.131 15.1751C151.065 10.9502 122.84 11.2133 95.8352 14.3704C74.6867 16.8637 49.0897 21.2756 37.0841 37.0177C36.0149 38.4 38.3651 40.1369 39.8711 38.9646C53.7009 28.3815 68.6297 23.0129 87.4086 20.2551C108.249 17.2346 129.53 16.3309 150.762 17.5647C170.925 18.7149 191.534 21.5491 210.579 27.4937C218.396 29.9381 226.842 33.3275 231.632 39.2267C239.499 48.994 229.898 58.2669 220.819 64.1992C204.979 74.5484 184.798 80.355 165.352 84.8203C143.989 89.5425 122.015 92.3895 99.8018 93.3127C78.4227 94.4693 56.8759 92.7156 36.0524 88.1241C16.6576 83.8918 -3.26735 70.7562 5.0768 52.9395C12.7214 36.618 34.5395 25.4829 53.2022 18.6027C63.1805 14.9626 73.6009 12.1401 84.311 10.1764C95.3399 8.11159 107.791 5.91086 119.174 6.46064C119.212 6.45803 119.249 6.44935 119.283 6.4351C119.317 6.42085 119.346 6.40132 119.37 6.3776C119.394 6.35389 119.412 6.32646 119.423 6.29689C119.434 6.26732 119.437 6.23618 119.433 6.20525C119.429 6.17433 119.418 6.14422 119.399 6.11664C119.381 6.08907 119.356 6.06457 119.326 6.04455C119.297 6.02453 119.262 6.00938 119.226 5.99995C119.189 5.99053 119.15 5.98703 119.112 5.98964Z" fill="#0083C7"/>
</g>
<path d="M49.4 56.474C48.776 56.474 48.2213 56.3527 47.736 56.11C47.268 55.8673 46.7567 55.5293 46.202 55.096C45.786 54.784 45.448 54.5587 45.188 54.42C44.9453 54.2813 44.694 54.212 44.434 54.212C43.966 54.212 43.5847 54.394 43.29 54.758C42.9953 55.122 42.8393 55.616 42.822 56.24H40.3C40.3173 54.6453 40.6813 53.4233 41.392 52.574C42.1027 51.7073 43.0387 51.274 44.2 51.274C44.824 51.274 45.3613 51.3953 45.812 51.638C46.2627 51.8633 46.7913 52.2013 47.398 52.652C47.814 52.964 48.1433 53.1893 48.386 53.328C48.6287 53.4667 48.88 53.536 49.14 53.536C49.6253 53.536 50.0067 53.354 50.284 52.99C50.5613 52.626 50.7173 52.132 50.752 51.508H53.3C53.2653 53.1027 52.8927 54.3333 52.182 55.2C51.4713 56.0493 50.544 56.474 49.4 56.474ZM66.8781 63.208C65.3874 63.208 64.0441 62.9047 62.8481 62.298C61.6694 61.674 60.7421 60.816 60.0661 59.724C59.4074 58.632 59.0781 57.3927 59.0781 56.006C59.0781 54.6193 59.4074 53.38 60.0661 52.288C60.7421 51.196 61.6694 50.3467 62.8481 49.74C64.0441 49.116 65.3874 48.804 66.8781 48.804C68.3514 48.804 69.6341 49.116 70.7261 49.74C71.8354 50.3467 72.6414 51.222 73.1441 52.366L69.9981 54.056C69.2701 52.7733 68.2214 52.132 66.8521 52.132C65.7948 52.132 64.9194 52.4787 64.2261 53.172C63.5328 53.8653 63.1861 54.81 63.1861 56.006C63.1861 57.202 63.5328 58.1467 64.2261 58.84C64.9194 59.5333 65.7948 59.88 66.8521 59.88C68.2388 59.88 69.2874 59.2387 69.9981 57.956L73.1441 59.672C72.6414 60.7813 71.8354 61.648 70.7261 62.272C69.6341 62.896 68.3514 63.208 66.8781 63.208ZM93.4454 48.804C95.1961 48.804 96.5828 49.324 97.6054 50.364C98.6454 51.3867 99.1654 52.9293 99.1654 54.992V63H95.1094V55.616C95.1094 54.5067 94.8754 53.6833 94.4074 53.146C93.9568 52.5913 93.3068 52.314 92.4574 52.314C91.5041 52.314 90.7501 52.626 90.1954 53.25C89.6408 53.8567 89.3634 54.7667 89.3634 55.98V63H85.3074V55.616C85.3074 53.4147 84.4234 52.314 82.6554 52.314C81.7194 52.314 80.9741 52.626 80.4194 53.25C79.8648 53.8567 79.5874 54.7667 79.5874 55.98V63H75.5314V49.012H79.4054V50.624C79.9254 50.0347 80.5581 49.584 81.3034 49.272C82.0661 48.96 82.8981 48.804 83.7994 48.804C84.7874 48.804 85.6801 49.0033 86.4774 49.402C87.2748 49.7833 87.9161 50.3467 88.4014 51.092C88.9734 50.364 89.6928 49.8007 90.5594 49.402C91.4434 49.0033 92.4054 48.804 93.4454 48.804ZM116.714 49.012V60.66C116.714 63.2253 116.064 65.132 114.764 66.38C113.464 67.628 111.575 68.252 109.096 68.252C107.779 68.252 106.531 68.0873 105.352 67.758C104.191 67.4287 103.211 66.952 102.414 66.328L104.026 63.416C104.615 63.9013 105.335 64.2827 106.184 64.56C107.033 64.8373 107.891 64.976 108.758 64.976C110.11 64.976 111.098 64.664 111.722 64.04C112.346 63.416 112.658 62.4627 112.658 61.18V60.712C112.138 61.232 111.523 61.6307 110.812 61.908C110.101 62.1853 109.339 62.324 108.524 62.324C106.687 62.324 105.231 61.804 104.156 60.764C103.081 59.7067 102.544 58.1293 102.544 56.032V49.012H106.6V55.434C106.6 57.7047 107.545 58.84 109.434 58.84C110.405 58.84 111.185 58.528 111.774 57.904C112.363 57.2627 112.658 56.318 112.658 55.07V49.012H116.714ZM134.824 49.012V60.66C134.824 63.2253 134.156 65.132 132.822 66.38C131.487 67.628 129.537 68.252 126.972 68.252C125.62 68.252 124.337 68.0873 123.124 67.758C121.91 67.4287 120.905 66.952 120.108 66.328L121.72 63.416C122.309 63.9013 123.054 64.2827 123.956 64.56C124.857 64.8547 125.758 65.002 126.66 65.002C128.064 65.002 129.095 64.6813 129.754 64.04C130.43 63.416 130.768 62.4627 130.768 61.18V60.582C129.71 61.7433 128.237 62.324 126.348 62.324C125.065 62.324 123.886 62.0467 122.812 61.492C121.754 60.92 120.914 60.1227 120.29 59.1C119.666 58.0773 119.354 56.8987 119.354 55.564C119.354 54.2293 119.666 53.0507 120.29 52.028C120.914 51.0053 121.754 50.2167 122.812 49.662C123.886 49.09 125.065 48.804 126.348 48.804C128.376 48.804 129.918 49.4713 130.976 50.806V49.012H134.824ZM127.154 58.996C128.228 58.996 129.104 58.684 129.78 58.06C130.473 57.4187 130.82 56.5867 130.82 55.564C130.82 54.5413 130.473 53.718 129.78 53.094C129.104 52.4527 128.228 52.132 127.154 52.132C126.079 52.132 125.195 52.4527 124.502 53.094C123.808 53.718 123.462 54.5413 123.462 55.564C123.462 56.5867 123.808 57.4187 124.502 58.06C125.195 58.684 126.079 58.996 127.154 58.996ZM152.535 49.012V63H148.661V61.362C148.141 61.9687 147.5 62.428 146.737 62.74C145.992 63.052 145.195 63.208 144.345 63.208C142.508 63.208 141.043 62.6793 139.951 61.622C138.877 60.5647 138.339 58.996 138.339 56.916V49.012H142.395V56.318C142.395 58.5713 143.34 59.698 145.229 59.698C146.217 59.698 147.006 59.386 147.595 58.762C148.185 58.1207 148.479 57.176 148.479 55.928V49.012H152.535ZM168.829 49.012V63H165.215V58.996H162.225L159.573 63H155.257L158.455 58.424C157.485 58.0427 156.739 57.4967 156.219 56.786C155.717 56.058 155.465 55.1827 155.465 54.16C155.465 52.5133 156.055 51.248 157.233 50.364C158.429 49.4627 160.067 49.012 162.147 49.012H168.829ZM162.225 52.314C161.359 52.314 160.7 52.47 160.249 52.782C159.816 53.094 159.599 53.5967 159.599 54.29C159.599 54.9833 159.807 55.4947 160.223 55.824C160.657 56.136 161.307 56.292 162.173 56.292H165.215V52.314H162.225ZM193.403 44.8V47.53L186.643 63H182.067L188.593 48.232H182.561V51.196H178.817V44.8H193.403Z" fill="white"/>
<g clip-path="url(#clip1)">
<path d="M267.818 65.9825C272.218 66.3929 276.785 66.1466 281.116 67.1046C285.039 68.0919 288.849 69.4675 292.488 71.2111C299.781 74.5616 306.7 78.651 313.137 83.4151C319.505 88.058 325.51 93.1721 331.1 98.7144C337.104 104.683 342.076 111.701 343.392 120.228C343.685 122.069 346.534 121.312 346.225 119.481C343.548 103.183 328.152 91.3838 315.608 82.1894C308.701 77.0764 301.174 72.8426 293.198 69.5851C289.208 67.8253 285.021 66.5334 280.722 65.7353C276.466 65.0933 272.148 65.4182 267.821 65.2088C267.317 65.1714 267.318 65.9326 267.818 65.9825Z" fill="#0083C7"/>
<path d="M338.998 88.5178C340.386 93.9991 340.568 100.135 341.528 105.746C342.021 108.455 342.054 111.588 342.923 114.206C343.628 116.317 345.258 118.454 346.366 120.373L348.23 118.504C342.246 115.369 336.993 110.702 331.512 106.769C328.558 104.657 324.653 101.21 320.67 101.616C320.386 101.618 320.111 101.723 319.896 101.911C319.681 102.099 319.542 102.358 319.504 102.639C319.465 102.919 319.531 103.203 319.688 103.438C319.846 103.672 320.084 103.84 320.358 103.912C330.534 107.133 337.56 116.002 346.87 120.876C347.13 121.011 347.427 121.059 347.718 121.014C348.009 120.968 348.279 120.832 348.488 120.623C348.697 120.415 348.834 120.147 348.879 119.857C348.924 119.567 348.875 119.272 348.738 119.014C347.451 116.785 345.816 114.546 345.062 112.072C344.234 109.377 343.848 106.427 343.188 103.635C342.027 98.5835 341.537 93.1757 339.915 88.2527C339.866 88.152 339.784 88.0716 339.682 88.025C339.58 87.9783 339.464 87.9683 339.355 87.9967C339.245 88.0251 339.148 88.0901 339.081 88.1807C339.013 88.2713 338.979 88.382 338.984 88.494L338.998 88.5178Z" fill="#0083C7"/>
</g>
<defs>
<clipPath id="clip0">
<rect width="236.981" height="92.091" fill="white" transform="translate(4.83203) rotate(3)"/>
</clipPath>
<clipPath id="clip1">
<rect width="88.4381" height="51.4789" fill="white" transform="translate(311.582 39) rotate(60)"/>
</clipPath>
</defs>
</svg>
