<svg width="625" height="384" viewBox="0 0 625 384" fill="none" xmlns="http://www.w3.org/2000/svg">
<g clip-path="url(#clip0)">
<path d="M486.755 346.754L486.797 354.334H485.852L483.373 345.999L486.755 346.754Z" fill="#2B455F"/>
<path d="M492.005 357.672C492.005 358.756 491.684 359.815 491.081 360.716C490.479 361.618 489.623 362.32 488.621 362.735C487.619 363.149 486.517 363.258 485.454 363.047C484.39 362.835 483.413 362.313 482.647 361.547C481.88 360.781 481.358 359.804 481.146 358.741C480.935 357.678 481.043 356.576 481.458 355.575C481.873 354.574 482.576 353.718 483.477 353.116C484.379 352.514 485.439 352.192 486.523 352.192C487.977 352.192 489.372 352.77 490.4 353.797C491.428 354.825 492.005 356.219 492.005 357.672Z" fill="#231F20"/>
<path opacity="0.2" d="M205.801 383.937C229.454 383.937 248.629 382.687 248.629 381.144C248.629 379.602 229.454 378.352 205.801 378.352C182.147 378.352 162.973 379.602 162.973 381.144C162.973 382.687 182.147 383.937 205.801 383.937Z" fill="#08111A"/>
<path opacity="0.2" d="M356.465 383.937C382.009 383.937 402.716 382.687 402.716 381.144C402.716 379.602 382.009 378.352 356.465 378.352C330.92 378.352 310.213 379.602 310.213 381.144C310.213 382.687 330.92 383.937 356.465 383.937Z" fill="#08111A"/>
<path opacity="0.2" d="M500.996 360.128H61.0388C59.3799 360.128 58.0352 361.473 58.0352 363.131V363.194C58.0352 364.852 59.3799 366.196 61.0388 366.196H500.996C502.655 366.196 504 364.852 504 363.194V363.131C504 361.473 502.655 360.128 500.996 360.128Z" fill="#08111A"/>
<path d="M131.193 354.334L131.151 346.755L104.685 340.813H98.1526L71.4141 346.755V349.757H71.4351L71.4141 354.334H72.3593L73.8086 349.442L98.2156 346.041H104.538L128.672 349.002L130.247 354.334H131.193Z" fill="#2B455F"/>
<path d="M76.8315 357.672C76.8314 358.759 76.5082 359.821 75.903 360.723C75.2978 361.626 74.4379 362.328 73.4324 362.741C72.427 363.154 71.3216 363.258 70.2564 363.042C69.1913 362.825 68.2147 362.297 67.4505 361.524C66.6864 360.752 66.1693 359.769 65.965 358.702C65.7606 357.635 65.8782 356.532 66.3028 355.531C66.7274 354.531 67.4399 353.68 68.3497 353.085C69.2594 352.491 70.3255 352.18 71.4124 352.193C72.8554 352.209 74.2336 352.794 75.2481 353.82C76.2627 354.846 76.8316 356.23 76.8315 357.672Z" fill="#231F20"/>
<path d="M136.401 357.672C136.405 358.762 136.085 359.828 135.482 360.736C134.879 361.644 134.02 362.352 133.013 362.771C132.007 363.19 130.899 363.301 129.829 363.089C128.76 362.878 127.777 362.353 127.006 361.583C126.235 360.812 125.711 359.83 125.499 358.761C125.288 357.692 125.398 356.584 125.817 355.578C126.237 354.572 126.945 353.714 127.853 353.111C128.762 352.508 129.828 352.188 130.919 352.192C132.373 352.192 133.767 352.77 134.795 353.797C135.823 354.825 136.401 356.219 136.401 357.672Z" fill="#231F20"/>
<path d="M486.756 349.317L460.143 346.041H453.821L427.02 349.757V346.755L453.758 340.813H460.311L486.756 346.755V349.317Z" fill="#2B455F"/>
<path d="M427.018 346.754L426.955 354.334H427.921L430.379 345.999L427.018 346.754Z" fill="#2B455F"/>
<path d="M432.437 357.672C432.437 358.756 432.115 359.815 431.513 360.716C430.911 361.618 430.054 362.32 429.053 362.735C428.051 363.149 426.949 363.258 425.885 363.047C424.822 362.835 423.845 362.313 423.078 361.547C422.312 360.781 421.79 359.804 421.578 358.741C421.366 357.678 421.475 356.576 421.89 355.575C422.305 354.574 423.008 353.718 423.909 353.116C424.811 352.514 425.871 352.192 426.955 352.192C428.409 352.192 429.803 352.77 430.831 353.797C431.859 354.825 432.437 356.219 432.437 357.672Z" fill="#231F20"/>
<path d="M458.883 0H98.9941V203.841H458.883V0Z" fill="white"/>
<path d="M164.423 203.841H98.9941V181.88H155.937L164.423 190.656V203.841Z" fill="#F1F2F2"/>
<path d="M103.279 181.88H98.9941V343.585H103.279V181.88Z" fill="#2B455F"/>
<path d="M458.881 181.88H454.596V343.081H458.881V181.88Z" fill="#2B455F"/>
<path d="M189.481 347.3L181.961 359.981L187.737 365.314L196.538 350.03L189.481 347.3Z" fill="#FAC0B3"/>
<path d="M175.848 368.107L192.441 376.505L202.04 378.604L202.439 377.849C202.641 377.455 202.713 377.007 202.645 376.57C202.577 376.132 202.373 375.727 202.061 375.413L194.395 374.531L187.379 364.811L190.551 359.247L184.838 355.657L180.637 361.808L176.94 366.007L175.848 368.107Z" fill="#FAC0B3"/>
<path d="M202.061 375.434L195.193 374.09H194.92L188.828 370.269L179.965 361.871L177.024 366.07L175.848 368.17L192.42 377.659L202.04 378.688L202.439 377.932C202.656 377.531 202.736 377.071 202.668 376.62C202.6 376.169 202.387 375.753 202.061 375.434Z" fill="#16242D"/>
<path d="M205.129 356.014L204.541 370.731L212.145 372.684L212.628 355.069L205.129 356.014Z" fill="#FAC0B3"/>
<path d="M206.639 91.5384C206.036 93.4376 206.2 95.497 207.094 97.2775C207.989 99.058 209.544 100.419 211.428 101.07C212.38 101.296 213.367 101.331 214.333 101.172C215.298 101.013 216.223 100.663 217.051 100.143C217.88 99.6235 218.598 98.9439 219.161 98.1442C219.725 97.3445 220.123 96.4407 220.334 95.4854C220.904 93.6029 220.724 91.5729 219.831 89.8199C218.939 88.0669 217.403 86.7267 215.545 86.0797C214.601 85.8458 213.62 85.8018 212.659 85.9504C211.699 86.099 210.777 86.4371 209.948 86.9451C209.119 87.4531 208.4 88.1209 207.832 88.9094C207.264 89.698 206.858 90.5916 206.639 91.5384Z" fill="#132233"/>
<path d="M199.645 120.448L215.609 119.462C216.285 119.421 216.931 119.171 217.458 118.745C217.986 118.32 218.367 117.741 218.549 117.089L220.229 111.315L221.511 110.518L220.461 103.127L218.36 91.3491L197.965 92.6298L199.645 120.448Z" fill="#FAC0B3"/>
<path d="M199.499 129.414L209.329 129.246L207.187 115.767L199.289 114.99L199.499 129.414Z" fill="#FAC0B3"/>
<path d="M203.364 380.473L231.216 381.145V380.641C231.204 380.2 231.053 379.774 230.786 379.424C230.518 379.073 230.147 378.816 229.724 378.688L218.445 375.686L211.724 372.432L211.871 366.133L205.149 365.65L204.414 373.041L203.133 378.436L203.364 380.473Z" fill="#FAC0B3"/>
<path d="M193.932 355.51L186.434 350.303L223.422 282.216L204.938 205.437L229.934 206.025L241.78 281.124C242.147 282.907 242.122 284.748 241.709 286.52C241.296 288.292 240.503 289.954 239.386 291.391L193.932 355.51Z" fill="#04698E"/>
<path d="M213.76 360.317H204.161L203.531 290.467L197.818 240.771L194.982 229.623C193.745 227.401 192.992 224.944 192.771 222.411C192.551 219.879 192.867 217.328 193.701 214.926L197.062 205.059L226.636 206.297L220.67 287.17L213.76 360.317Z" fill="#058CBD"/>
<path d="M229.724 208.943L196.537 205.583C196.361 205.569 196.191 205.509 196.043 205.411C195.896 205.313 195.776 205.179 195.694 205.022C195.612 204.865 195.571 204.689 195.576 204.512C195.58 204.335 195.629 204.162 195.718 204.009L197.819 188.137L196.81 161.851C192.61 151.857 189.501 130.694 196.81 127.713C197.609 127.377 198.365 124.668 199.226 124.584L209.161 126.096L210.589 127.65C216.891 144.11 228.527 142.745 228.023 161.095L231.048 201.888C231.195 208.355 230.522 209.027 229.724 208.943Z" fill="#57C5C7"/>
<path d="M273.666 180.411L263.478 179.004L260.79 177.534H261.378L264.34 177.094V175.477H260.706H258.227H255.938H252.283L222.289 174.847L209.14 136.279C208.5 134.45 207.158 132.95 205.411 132.109C203.664 131.269 201.655 131.156 199.825 131.797C197.995 132.437 196.494 133.778 195.653 135.524C194.812 137.27 194.7 139.279 195.34 141.108L211.514 181.419C212.208 182.813 213.292 183.975 214.634 184.765C215.976 185.555 217.519 185.939 219.075 185.869L247.116 180.81L252.178 180.117L261.294 183.476L273.897 182.615L273.666 180.411Z" fill="#FAC0B3"/>
<path d="M221.807 172.559L209.204 136.279C208.916 135.369 208.45 134.525 207.834 133.796C207.218 133.066 206.463 132.466 205.614 132.029C204.765 131.592 203.838 131.327 202.886 131.249C201.934 131.171 200.976 131.283 200.067 131.576C196.077 132.857 193.619 142.347 196.056 146.84L209.393 181.881C210.675 184.841 214.708 186.374 219.055 186.374L221.156 186.143C222.143 185.996 226.323 178.857 226.512 174.742C226.491 173.776 221.807 172.559 221.807 172.559Z" fill="#57C5C7"/>
<path d="M218.068 95.2548C218.201 93.8566 217.955 92.4484 217.356 91.1777C216.757 89.9071 215.828 88.8207 214.665 88.0325L216.471 86.3739C198.639 78.2278 192.652 89.7331 191.434 97.1654C190.952 99.8632 190.299 102.528 189.481 105.144C187.668 106.027 186.118 107.37 184.987 109.039C183.855 110.707 183.181 112.644 183.032 114.654C182.94 115.828 183.018 117.009 183.263 118.16C180.281 119.924 178.054 125.446 177.697 129.414C177.13 135.712 185.511 140.982 191.287 141.612C195.929 142.116 200.067 136.972 201.789 132.521C205.528 132.857 204.814 130.296 205.192 126.223C205.289 125.114 205.152 123.997 204.79 122.945C204.428 121.893 203.85 120.928 203.092 120.113C203.444 119.296 203.712 118.445 203.89 117.573C204.687 116.429 205.172 115.098 205.297 113.709C205.329 113.346 205.329 112.981 205.297 112.618C206.63 111.555 207.569 110.077 207.965 108.419C211.409 108.209 211.325 106.067 211.682 102.12C211.682 101.994 214.686 101.112 214.686 101.007C215.649 100.368 216.454 99.5174 217.04 98.5207C217.626 97.5241 217.977 96.4073 218.068 95.2548Z" fill="#132233"/>
<path d="M232.245 378.688L222.898 376.862H222.625L215.462 376.4L203.742 373.25L203.133 378.331V380.809L233.841 381.481V380.641C233.823 380.186 233.657 379.75 233.369 379.398C233.081 379.046 232.687 378.797 232.245 378.688Z" fill="#16242D"/>
<path opacity="0.4" d="M291.498 45.328H312.838L308.028 23.3252L290.553 24.186L291.498 45.328Z" fill="#8BA4B7"/>
<path d="M309.266 45.328H288.178V23.3252H308.027L309.266 45.328Z" fill="#F68B3C"/>
<path d="M295.216 31.262C294.316 31.2427 293.418 31.1655 292.527 31.031L292.653 30.0862C294.295 30.4441 296.001 30.3791 297.61 29.8973L298.409 29.4984C298.989 29.1653 299.621 28.9312 300.278 28.8055C301.253 28.7218 302.222 29.0149 302.987 29.6243L302.42 30.4012C301.834 29.9148 301.079 29.6807 300.32 29.7503C299.78 29.8702 299.262 30.0758 298.787 30.3592L297.904 30.7791C297.047 31.1075 296.134 31.2713 295.216 31.262Z" fill="white"/>
<path d="M296.793 35.2299C295.406 35.2299 294.02 35.2299 292.592 35.0619V34.1172C294.89 34.3376 297.204 34.3376 299.502 34.1172C300.529 33.9877 301.547 33.7914 302.548 33.5293L302.779 34.4741C301.74 34.7257 300.688 34.9219 299.628 35.0619C298.687 35.1741 297.74 35.2302 296.793 35.2299Z" fill="white"/>
<path d="M300.991 40.4993L299.479 40.3733C297.387 40.1417 295.283 40.0366 293.178 40.0584V39.1136C295.317 39.0838 297.456 39.182 299.584 39.4075L301.096 39.5545L300.991 40.4993Z" fill="white"/>
<path opacity="0.4" d="M273.852 60.3188L270.303 82.8885H293.282L292.084 61.4526L273.852 60.3188Z" fill="#8BA4B7"/>
<path d="M296.729 84.4632L275.032 83.6234L273.855 60.3188L294.881 61.6205L296.729 84.4632Z" fill="#57C5C7"/>
<path d="M290.932 68.9476C289.31 68.5545 287.644 68.3711 285.975 68.4018C283.832 68.4981 281.69 68.1699 279.674 67.436L280.052 66.5752C281.946 67.2374 283.949 67.5365 285.954 67.457C287.701 67.4263 289.444 67.6168 291.142 68.0239L290.932 68.9476Z" fill="white"/>
<path d="M288.937 73.0629C287.909 72.472 286.774 72.0936 285.597 71.9501C284.967 71.9501 284.274 71.8452 283.665 71.8242L277.363 71.6982V70.7534L283.665 70.8794C284.367 70.8789 285.068 70.921 285.765 71.0054C287.065 71.1679 288.32 71.5815 289.462 72.2231L288.937 73.0629Z" fill="white"/>
<path d="M280.618 76.7161C279.715 76.7161 278.812 76.7161 277.93 76.5902V75.6454C279.713 75.8633 281.519 75.8067 283.286 75.4774L284.042 75.2675L284.651 75.0995C285.981 74.7589 287.358 74.6453 288.726 74.7636V75.7084C287.471 75.6016 286.207 75.708 284.987 76.0233L284.399 76.1913L283.601 76.4012C282.624 76.6303 281.622 76.7361 280.618 76.7161Z" fill="white"/>
<path opacity="0.4" d="M244.699 60.7812L247.031 82.3642H224.955L226.068 60.7812H244.699Z" fill="#8BA4B7"/>
<path d="M242.305 84.0648H222.477L224.85 60.7812H244.699L242.305 84.0648Z" fill="#E7D893"/>
<path d="M237.014 68.4862C234.448 68.4897 231.893 68.1652 229.41 67.5205L229.641 66.5967C232.964 67.4551 236.411 67.7321 239.828 67.4155V68.3603C238.946 68.4443 237.98 68.4862 237.014 68.4862Z" fill="white"/>
<path d="M227.959 72.5589H227.623V71.6141C228.862 71.6141 230.186 71.6141 231.446 71.4461C233.705 71.1625 235.992 71.1625 238.251 71.4461L238.062 72.3909C235.891 72.0831 233.689 72.0479 231.509 72.286C230.354 72.4749 229.156 72.5589 227.959 72.5589Z" fill="white"/>
<path d="M232.435 77.0307C230.604 77.034 228.775 76.9429 226.953 76.7578V75.813C229.78 76.086 232.624 76.1492 235.46 76.0019V76.9467C234.557 77.0097 233.507 77.0307 232.435 77.0307Z" fill="white"/>
<path d="M234.659 81.377C233.566 81.377 232.558 81.104 231.403 80.9361C229.755 80.5738 228.068 80.4256 226.383 80.4952V79.5504C228.152 79.4648 229.925 79.613 231.655 79.9913C232.697 80.1912 233.749 80.3383 234.806 80.4322L234.659 81.377Z" fill="white"/>
<path opacity="0.4" d="M339.219 60.7812L341.571 82.3642H319.475L320.588 60.7812H339.219Z" fill="#8BA4B7"/>
<path d="M336.845 84.0648H316.996L319.37 60.7812H339.219L336.845 84.0648Z" fill="#058CBD"/>
<path d="M331.532 68.4862C328.973 68.4912 326.425 68.1666 323.949 67.5205L324.18 66.5967C327.503 67.4551 330.95 67.7321 334.367 67.4155V68.3603C333.485 68.4442 332.498 68.4862 331.532 68.4862Z" fill="white"/>
<path d="M322.479 72.5589H322.143V71.6141C323.361 71.6141 324.684 71.6141 325.944 71.4461C328.204 71.1625 330.49 71.1625 332.75 71.4461L332.582 72.3909C330.403 72.0829 328.195 72.0476 326.007 72.286C324.873 72.4749 323.676 72.5589 322.479 72.5589Z" fill="white"/>
<path d="M326.974 77.0307C325.143 77.0346 323.314 76.9435 321.492 76.7578V75.813C324.326 76.0862 327.177 76.1494 330.02 76.0019V76.9467C329.096 77.0097 328.025 77.0307 326.974 77.0307Z" fill="white"/>
<path d="M329.178 81.377C328.086 81.377 327.078 81.1041 325.943 80.9361C324.289 80.5746 322.595 80.4264 320.902 80.4952V79.5504C322.665 79.4647 324.43 79.613 326.153 79.9913C327.204 80.1803 328.254 80.3483 329.325 80.4322L329.178 81.377Z" fill="white"/>
<path d="M311.871 209.489L308.027 213.499L306.872 214.675L303.49 215.976L299.058 219.189C299.058 219.189 300.045 220.091 300.465 220.133C301.213 220.03 301.93 219.765 302.566 219.356L300.465 222.023L297.378 225.928C297.303 226.023 297.251 226.133 297.225 226.251C297.2 226.369 297.201 226.491 297.229 226.608C297.258 226.725 297.312 226.834 297.389 226.928C297.465 227.021 297.562 227.095 297.672 227.146L303.868 229.245C304.124 229.328 304.397 229.344 304.662 229.293C304.926 229.241 305.173 229.124 305.38 228.951L310.001 224.437L312.102 220.238L313.887 217.824L316.744 213.457L311.871 209.489Z" fill="#FAC0B3"/>
<path d="M318.255 128.07L312.962 122.8L308.762 118.601L304.561 115.137L300.696 112.009C300.602 111.934 300.493 111.88 300.376 111.853C300.259 111.826 300.138 111.826 300.021 111.852C299.904 111.878 299.794 111.93 299.7 112.005C299.606 112.079 299.53 112.174 299.478 112.282L297.377 118.433C297.294 118.688 297.275 118.96 297.323 119.224C297.37 119.487 297.483 119.735 297.65 119.945L302.103 124.648L306.304 126.747L308.699 128.574L313.614 133.193L318.255 128.07Z" fill="#FAC0B3"/>
<path d="M309.268 131.219L314.939 123.682L343.253 146.966C343.892 147.406 344.602 147.733 345.353 147.931C345.353 147.931 371.105 125.719 382.153 123.934C385.724 123.346 388.454 128.133 387.551 131.534L387.341 132.374C386.417 135.88 382.573 139.365 379.737 141.633C368.689 150.493 359.132 162.082 349.722 163.909C346.691 164.535 343.543 164.258 340.669 163.111C331.238 158.702 309.268 131.219 309.268 131.219Z" fill="#E7D893"/>
<path d="M370.829 117.551L357.282 119.084L355.328 112.869L352.808 110.329L353.774 104.492L352.598 94.2256H370.829V117.551Z" fill="#FAC0B3"/>
<path d="M370.832 114.213H362.703V127.44H370.832V114.213Z" fill="#FAC0B3"/>
<path d="M350.919 96.5775L356.737 96.1786L356.044 98.4881L355.624 100.021L355.645 101.112L356.527 101.826L356.506 103.926L357.682 104.346L358.291 102.33L360.014 103.254L361.715 110.791L366.273 113.038L370.831 112.786L370.957 111.736L373.037 103.863L374.024 94.2261L367.428 88.2635L360.917 87.1927L352.389 84.5054L346.004 88.5154L346.739 94.9399L350.919 96.5775Z" fill="#132233"/>
<path d="M343.232 383.412C342.287 384.42 337.729 383.832 337.729 383.832L318.195 382.404V381.522C318.201 381.069 318.354 380.63 318.63 380.27C318.906 379.911 319.292 379.65 319.729 379.528L327.521 378.163L333.402 373.964L334.579 370.794L342.434 371.025L342.539 375.056L343.232 380.914C343.232 380.914 343.653 382.95 343.232 383.412Z" fill="#16242D"/>
<path d="M390.154 381.102C389.209 382.131 384.651 381.522 384.651 381.522L365.117 380.116V379.234C365.123 378.781 365.276 378.341 365.552 377.982C365.828 377.622 366.214 377.362 366.651 377.239L374.443 375.854L380.324 371.655L381.501 368.484L389.356 368.736V372.746L390.049 378.604C390.049 378.604 390.68 380.641 390.154 381.102Z" fill="#16242D"/>
<path d="M343.441 372.432H332.246L333.464 295.947L336.846 219.839H372.512L353.377 299.684L343.441 372.432Z" fill="#395C7F"/>
<path d="M389.105 370.563L381.207 370.206C380.283 370.206 379.632 370.374 379.548 369.471L372.512 292.482L363.963 221.456H394.692L395.763 236.614L391.941 294.036L392.571 308.88L391.058 369.513C391.037 370.584 391.037 370.584 389.105 370.563Z" fill="#395C7F"/>
<path d="M396.268 223.409L333.969 224.647C333.969 224.647 338.905 180.558 339.85 165.861C340.333 158.639 340.732 141.675 340.963 131.387C341.014 129.093 341.918 126.899 343.498 125.234C345.079 123.569 347.222 122.552 349.512 122.38L361.085 121.499H371.189L381.082 122.296C383.576 122.486 385.909 123.605 387.617 125.433C389.325 127.261 390.283 129.663 390.302 132.164C390.429 142.662 390.66 159.458 391.08 166.701C391.92 180.999 396.268 223.409 396.268 223.409Z" fill="#E7D893"/>
<path d="M315.401 217.131L307.734 212.155L331.427 176.127C331.843 175.485 332.142 174.774 332.31 174.028L341.194 128.783C341.39 127.942 341.749 127.148 342.252 126.446C342.755 125.743 343.391 125.147 344.125 124.691C344.858 124.235 345.674 123.927 346.527 123.787C347.379 123.646 348.251 123.674 349.092 123.871L349.932 124.06C354.91 124.815 357.62 131.702 356.717 136.132C356.717 136.132 350.415 168.317 348 179.235C347.006 181.638 345.87 183.979 344.597 186.247C336.93 196.849 315.401 217.131 315.401 217.131Z" fill="#ECE0A9"/>
<path d="M304.52 127.86L283.264 125.194L288.956 100.566L310.212 103.254L304.52 127.86Z" fill="#F68B3C"/>
<path d="M300.93 110.476C298.186 110.113 295.497 109.407 292.928 108.377L293.306 107.411C296.747 108.781 300.4 109.541 304.102 109.658V110.686C303.01 110.672 301.953 110.602 300.93 110.476Z" fill="white"/>
<path d="M290.7 113.604H290.322L290.469 112.576C291.772 112.765 293.221 112.849 294.67 112.933C297.127 112.961 299.57 113.307 301.938 113.961L301.623 114.948C299.342 114.325 296.992 113.994 294.628 113.961C293.263 113.835 291.961 113.772 290.7 113.604Z" fill="white"/>
<path d="M294.879 119C292.925 118.748 290.972 118.412 289.061 117.971L289.271 116.963C292.262 117.651 295.303 118.101 298.365 118.307V119.336C297.168 119.252 296.034 119.147 294.879 119Z" fill="white"/>
<path d="M296.687 123.87C295.53 123.622 294.387 123.314 293.263 122.947C291.541 122.341 289.747 121.96 287.928 121.813V120.784C289.833 120.931 291.712 121.326 293.515 121.96C294.604 122.322 295.712 122.623 296.834 122.863L296.687 123.87Z" fill="white"/>
<path d="M311.346 121.31L310.296 117.258L307.586 112.492C307.586 112.492 306.578 113.373 306.494 113.793C306.655 115.094 307.054 116.353 307.67 117.51L307.859 121.709L309.96 122.653L311.346 121.31Z" fill="#FAC0B3"/>
</g>
<path opacity="0.2" d="M573.5 364C589.792 364 603 362.881 603 361.5C603 360.119 589.792 359 573.5 359C557.208 359 544 360.119 544 361.5C544 362.881 557.208 364 573.5 364Z" fill="#058CBD"/>
<path d="M538.5 247.551C538.5 247.551 579.64 277.661 558.512 339.379L564.262 339.724C564.262 339.724 581.487 277.963 538.5 247.551Z" fill="#364766"/>
<path d="M614.551 252.705C614.551 252.705 572.19 273.442 581.472 333.142L576.178 332.509C576.178 332.509 570.462 273.442 614.551 252.705Z" fill="#364766"/>
<path d="M541.183 258.127C545.34 251.039 547.671 241.673 548.598 237.221C547.193 235.928 546.807 233.973 546.491 231.955C546.119 229.718 543.935 224.29 543.935 224.29C543.233 220.071 538.592 218.58 535.418 221.59L525.588 230.921C518.067 238.009 515.111 249.169 518.229 258.605L525.847 276.185C526.325 277.647 527.252 282.373 528.516 285.108C528.797 284.117 529.056 282.021 529.288 281.079C532.448 268.253 535.551 267.747 541.183 258.127Z" fill="#85D2DA"/>
<path d="M531.746 283.526L550.704 272.739C560.534 267.226 567.247 256.474 568.258 244.78L568.96 236.342C569.361 231.729 566.243 229.887 561.342 230.787C559.446 231.138 557.529 231.919 553.934 233.642C552.382 234.387 550.262 236.876 548.598 237.221C547.657 241.672 545.325 251.039 541.169 258.127C535.551 267.746 532.448 268.252 529.288 281.064C529.056 282.007 528.796 284.102 528.516 285.094C529.674 284.116 530.664 284.13 531.746 283.526Z" fill="#9DDBE1"/>
<path d="M604.567 243.346C603.889 243.596 603.152 243.642 602.448 243.48C601.743 243.318 601.101 242.953 600.6 242.431L594.477 236.806C591.668 234.232 589.007 235.35 589.393 239.359C589.534 240.807 589.183 245.835 589.183 245.835C589.112 256.024 592.693 262.578 599.343 269.314C602.411 272.408 607.481 279.335 611.027 282.267C611.863 282.97 615.71 286.486 616.567 286.359C615.121 278.343 612.775 269.11 609.847 262.064C607.383 256.046 605.611 249.766 604.567 243.346Z" fill="#85D2DA"/>
<path d="M619.003 279.707C621.109 276.191 624.353 267.915 624.873 262.936C625.491 255.311 623.286 247.725 618.68 241.623C616.91 239.288 616.679 234.141 615.654 231.778C614.165 228.312 609.425 229.936 608.59 233.993C608.204 235.885 606.87 240.491 606.87 240.491C606.744 241.117 606.469 241.704 606.068 242.202C605.667 242.699 605.152 243.091 604.566 243.346C605.613 249.754 607.385 256.022 609.847 262.029C612.775 269.061 615.12 278.308 616.566 286.324C617.542 283.575 616.005 284.749 619.003 279.707Z" fill="#9DDBE1"/>
<path d="M582 245.455C582 245.455 578.707 259.224 575.582 285.094C574.178 296.457 574.571 309.079 574.037 321.315H575.919C575.166 309.301 575.357 297.246 576.488 285.262C578.692 264.357 582.021 248.936 582.611 245.026C583.79 237.235 582 245.455 582 245.455Z" fill="#0083C7"/>
<path d="M579.999 257.789C578.187 257.417 578.026 254.512 578.594 252.115C580.076 246.215 582.253 236.145 584.043 231.019C584.844 228.734 585.244 226.8 585.918 226.863H586.297C586.999 227.25 587.259 228.973 587.083 230.443C586.381 236.307 584.598 247.896 583.334 253.887C582.863 256.327 581.81 258.162 579.999 257.789Z" fill="#F47954"/>
<path d="M548.598 280.474C548.598 280.474 555.76 284.792 561.033 302.554C566.306 320.316 569.824 322.243 569.824 322.243L568.209 322.883C564.27 315.549 560.268 307.068 558.66 300.381C555.065 285.396 548.598 280.474 548.598 280.474Z" fill="#85D2DA"/>
<path d="M563.638 316.083C563.638 316.083 557.803 306.801 556.027 296.9C554.25 287 550.557 282.506 548.598 280.474C548.598 280.474 555.1 285.396 558.695 300.353C560.303 307.047 564.312 315.528 568.244 322.855L567.289 323.235L563.638 316.083Z" fill="#A6A8AB"/>
<path d="M563.638 316.083C563.638 316.083 557.803 306.801 556.027 296.9C554.25 287 550.557 282.506 548.598 280.474C548.598 280.474 555.1 285.396 558.695 300.353C560.303 307.047 564.312 315.528 568.244 322.855L567.289 323.235L563.638 316.083Z" fill="#9DDBE1"/>
<path d="M599.609 274.651C599.609 274.651 591.731 279.482 586.135 299.129C580.538 318.776 576.684 320.928 576.684 320.928L578.474 321.631C582.687 313.495 587.034 304.101 588.726 296.703C592.503 280.136 599.609 274.651 599.609 274.651Z" fill="#85D2DA"/>
<path d="M583.432 314.072C583.432 314.072 589.751 303.77 591.584 292.836C593.417 281.901 597.433 276.902 599.61 274.651C599.61 274.651 592.504 280.136 588.726 296.689C587.034 304.087 582.723 313.481 578.475 321.617L579.535 322.025L583.432 314.072Z" fill="#A6A8AB"/>
<path d="M583.432 314.072C583.432 314.072 589.751 303.77 591.584 292.836C593.417 281.901 597.433 276.902 599.61 274.651C599.61 274.651 592.504 280.136 588.726 296.689C587.034 304.087 582.723 313.481 578.475 321.617L579.535 322.025L583.432 314.072Z" fill="#9DDBE1"/>
<path d="M588.15 260.855C588.15 260.855 580.742 267.57 578.734 289.559C576.726 311.547 573.061 314.606 573.061 314.606L575.104 314.979C577.983 305.486 580.679 294.643 580.995 286.451C581.697 268.112 588.15 260.855 588.15 260.855Z" fill="#85D2DA"/>
<path d="M578.854 305.971C578.854 305.971 583.503 293.764 583.264 281.782C583.025 269.799 586.29 263.689 588.179 260.855C588.179 260.855 581.726 268.112 581.024 286.451C580.708 294.643 578.012 305.486 575.133 314.979L576.334 315.204L578.854 305.971Z" fill="#A6A8AB"/>
<path d="M578.854 305.971C578.854 305.971 583.503 293.764 583.264 281.782C583.025 269.799 586.29 263.689 588.179 260.855C588.179 260.855 581.726 268.112 581.024 286.451C580.708 294.643 578.012 305.486 575.133 314.979L576.334 315.204L578.854 305.971Z" fill="#9DDBE1"/>
<path d="M570.49 245.667C570.49 245.667 578.214 256.369 574.851 285.34C571.487 314.311 575.363 319.276 575.363 319.276L572.618 319.205C571.473 306.14 570.947 291.387 572.772 280.706C576.852 256.805 570.49 245.667 570.49 245.667Z" fill="#85D2DA"/>
<path d="M570.225 306.527C570.225 306.527 567.557 289.475 571.11 274.054C574.663 258.633 572.128 249.829 570.492 245.667C570.492 245.667 576.854 256.805 572.774 280.706C570.948 291.387 571.475 306.14 572.62 319.205L571.005 319.156L570.225 306.527Z" fill="#A6A8AB"/>
<path d="M570.225 306.527C570.225 306.527 567.557 289.475 571.11 274.054C574.663 258.633 572.128 249.829 570.492 245.667C570.492 245.667 576.854 256.805 572.774 280.706C570.948 291.387 571.475 306.14 572.62 319.205L571.005 319.156L570.225 306.527Z" fill="#9DDBE1"/>
<path d="M590.714 352.993H552.804L551.983 343.809L549.321 342.459L546.913 315.345L544.877 315L544.111 309.951H599.379L598.613 314.979L596.542 315.443L593.902 342.241L591.62 343.823L590.714 352.993Z" fill="#4195C9"/>
<defs>
<clipPath id="clip0">
<rect width="504" height="384" fill="white"/>
</clipPath>
</defs>
</svg>
