<svg width="446" height="384" viewBox="0 0 446 384" fill="none" xmlns="http://www.w3.org/2000/svg">
<path d="M428.755 346.754L428.797 354.334H427.852L425.373 345.999L428.755 346.754Z" fill="#2B455F"/>
<path d="M434.005 357.672C434.005 358.756 433.684 359.815 433.081 360.716C432.479 361.618 431.623 362.32 430.621 362.735C429.619 363.149 428.517 363.258 427.454 363.047C426.39 362.835 425.413 362.313 424.647 361.547C423.88 360.781 423.358 359.804 423.146 358.741C422.935 357.678 423.043 356.576 423.458 355.575C423.873 354.574 424.576 353.718 425.477 353.116C426.379 352.514 427.439 352.192 428.523 352.192C429.977 352.192 431.372 352.77 432.4 353.797C433.428 354.825 434.005 356.219 434.005 357.672Z" fill="#231F20"/>
<path opacity="0.2" d="M147.801 383.937C171.454 383.937 190.629 382.687 190.629 381.144C190.629 379.602 171.454 378.352 147.801 378.352C124.147 378.352 104.973 379.602 104.973 381.144C104.973 382.687 124.147 383.937 147.801 383.937Z" fill="#08111A"/>
<path opacity="0.2" d="M298.465 383.937C324.009 383.937 344.716 382.687 344.716 381.144C344.716 379.602 324.009 378.352 298.465 378.352C272.92 378.352 252.213 379.602 252.213 381.144C252.213 382.687 272.92 383.937 298.465 383.937Z" fill="#08111A"/>
<path opacity="0.2" d="M442.996 360.128H3.03878C1.37993 360.128 0.0351562 361.473 0.0351562 363.131V363.194C0.0351562 364.852 1.37993 366.196 3.03878 366.196H442.996C444.655 366.196 446 364.852 446 363.194V363.131C446 361.473 444.655 360.128 442.996 360.128Z" fill="#08111A"/>
<path d="M73.1925 354.334L73.1505 346.755L46.685 340.813H40.1526L13.4141 346.755V349.757H13.4351L13.4141 354.334H14.3593L15.8086 349.442L40.2156 346.041H46.538L70.672 349.002L72.2473 354.334H73.1925Z" fill="#2B455F"/>
<path d="M18.8315 357.672C18.8314 358.759 18.5082 359.821 17.903 360.723C17.2978 361.626 16.4379 362.328 15.4324 362.741C14.427 363.154 13.3216 363.258 12.2564 363.042C11.1913 362.825 10.2147 362.297 9.45054 361.524C8.68641 360.752 8.16932 359.769 7.96496 358.702C7.7606 357.635 7.87819 356.532 8.3028 355.531C8.72741 354.531 9.43987 353.68 10.3497 353.085C11.2594 352.491 12.3255 352.18 13.4124 352.193C14.8554 352.209 16.2336 352.794 17.2481 353.82C18.2627 354.846 18.8316 356.23 18.8315 357.672Z" fill="#231F20"/>
<path d="M78.4008 357.672C78.405 358.762 78.0852 359.828 77.4821 360.736C76.879 361.644 76.0198 362.352 75.0133 362.771C74.0069 363.19 72.8987 363.301 71.8292 363.089C70.7598 362.878 69.7773 362.353 69.0064 361.583C68.2355 360.812 67.7109 359.83 67.4993 358.761C67.2876 357.692 67.3983 356.584 67.8175 355.578C68.2366 354.572 68.9452 353.714 69.8534 353.111C70.7616 352.508 71.8285 352.188 72.9187 352.192C74.3726 352.192 75.767 352.77 76.7951 353.797C77.8232 354.825 78.4008 356.219 78.4008 357.672Z" fill="#231F20"/>
<path d="M428.756 349.317L402.143 346.041H395.821L369.02 349.757V346.755L395.758 340.813H402.311L428.756 346.755V349.317Z" fill="#2B455F"/>
<path d="M369.018 346.754L368.955 354.334H369.921L372.379 345.999L369.018 346.754Z" fill="#2B455F"/>
<path d="M374.437 357.672C374.437 358.756 374.115 359.815 373.513 360.716C372.911 361.618 372.054 362.32 371.053 362.735C370.051 363.149 368.949 363.258 367.885 363.047C366.822 362.835 365.845 362.313 365.078 361.547C364.312 360.781 363.79 359.804 363.578 358.741C363.366 357.678 363.475 356.576 363.89 355.575C364.305 354.574 365.008 353.718 365.909 353.116C366.811 352.514 367.871 352.192 368.955 352.192C370.409 352.192 371.803 352.77 372.831 353.797C373.859 354.825 374.437 356.219 374.437 357.672Z" fill="#231F20"/>
<path d="M400.883 0H40.9941V203.841H400.883V0Z" fill="white"/>
<path d="M106.423 203.841H40.9941V181.88H97.937L106.423 190.656V203.841Z" fill="#F1F2F2"/>
<path d="M45.279 181.88H40.9941V343.585H45.279V181.88Z" fill="#2B455F"/>
<path d="M400.881 181.88H396.596V343.081H400.881V181.88Z" fill="#2B455F"/>
<path d="M131.481 347.3L123.961 359.981L129.737 365.314L138.538 350.03L131.481 347.3Z" fill="#FAC0B3"/>
<path d="M117.848 368.107L134.441 376.505L144.04 378.604L144.439 377.849C144.641 377.455 144.713 377.007 144.645 376.57C144.577 376.132 144.373 375.727 144.061 375.413L136.395 374.531L129.379 364.811L132.551 359.247L126.838 355.657L122.637 361.808L118.94 366.007L117.848 368.107Z" fill="#FAC0B3"/>
<path d="M144.061 375.434L137.193 374.09H136.92L130.828 370.269L121.965 361.871L119.024 366.07L117.848 368.17L134.42 377.659L144.04 378.688L144.439 377.932C144.656 377.531 144.736 377.071 144.668 376.62C144.6 376.169 144.387 375.753 144.061 375.434Z" fill="#16242D"/>
<path d="M147.129 356.014L146.541 370.731L154.145 372.684L154.628 355.069L147.129 356.014Z" fill="#FAC0B3"/>
<path d="M148.639 91.5384C148.036 93.4376 148.2 95.497 149.094 97.2775C149.989 99.058 151.544 100.419 153.428 101.07C154.38 101.296 155.367 101.331 156.333 101.172C157.298 101.013 158.223 100.663 159.051 100.143C159.88 99.6235 160.598 98.9439 161.161 98.1442C161.725 97.3445 162.123 96.4407 162.334 95.4854C162.904 93.6029 162.724 91.5729 161.831 89.8199C160.939 88.0669 159.403 86.7267 157.545 86.0797C156.601 85.8458 155.62 85.8018 154.659 85.9504C153.699 86.099 152.777 86.4371 151.948 86.9451C151.119 87.4531 150.4 88.1209 149.832 88.9094C149.264 89.698 148.858 90.5916 148.639 91.5384Z" fill="#132233"/>
<path d="M141.645 120.448L157.609 119.462C158.285 119.421 158.931 119.171 159.458 118.745C159.986 118.32 160.367 117.741 160.549 117.089L162.229 111.315L163.511 110.518L162.461 103.127L160.36 91.3491L139.965 92.6298L141.645 120.448Z" fill="#FAC0B3"/>
<path d="M141.499 129.414L151.329 129.246L149.187 115.767L141.289 114.99L141.499 129.414Z" fill="#FAC0B3"/>
<path d="M145.364 380.473L173.216 381.145V380.641C173.204 380.2 173.053 379.774 172.786 379.424C172.518 379.073 172.147 378.816 171.724 378.688L160.445 375.686L153.724 372.432L153.871 366.133L147.149 365.65L146.414 373.041L145.133 378.436L145.364 380.473Z" fill="#FAC0B3"/>
<path d="M135.932 355.51L128.434 350.303L165.422 282.216L146.938 205.437L171.934 206.025L183.78 281.124C184.147 282.907 184.122 284.748 183.709 286.52C183.296 288.292 182.503 289.954 181.386 291.391L135.932 355.51Z" fill="#04698E"/>
<path d="M155.76 360.317H146.161L145.531 290.467L139.818 240.771L136.982 229.623C135.745 227.401 134.992 224.944 134.771 222.411C134.551 219.879 134.867 217.328 135.701 214.926L139.062 205.059L168.636 206.297L162.67 287.17L155.76 360.317Z" fill="#058CBD"/>
<path d="M171.724 208.943L138.537 205.583C138.361 205.569 138.191 205.509 138.043 205.411C137.896 205.313 137.776 205.179 137.694 205.022C137.612 204.865 137.571 204.689 137.576 204.512C137.58 204.335 137.629 204.162 137.718 204.009L139.819 188.137L138.81 161.851C134.61 151.857 131.501 130.694 138.81 127.713C139.609 127.377 140.365 124.668 141.226 124.584L151.161 126.096L152.589 127.65C158.891 144.11 170.527 142.745 170.023 161.095L173.048 201.888C173.195 208.355 172.522 209.027 171.724 208.943Z" fill="#57C5C7"/>
<path d="M215.666 180.411L205.478 179.004L202.79 177.534H203.378L206.34 177.094V175.477H202.706H200.227H197.938H194.283L164.289 174.847L151.14 136.279C150.5 134.45 149.158 132.95 147.411 132.109C145.664 131.269 143.655 131.156 141.825 131.797C139.995 132.437 138.494 133.778 137.653 135.524C136.812 137.27 136.7 139.279 137.34 141.108L153.514 181.419C154.208 182.813 155.292 183.975 156.634 184.765C157.976 185.555 159.519 185.939 161.075 185.869L189.116 180.81L194.178 180.117L203.294 183.476L215.897 182.615L215.666 180.411Z" fill="#FAC0B3"/>
<path d="M163.807 172.559L151.204 136.279C150.916 135.369 150.45 134.525 149.834 133.796C149.218 133.066 148.463 132.466 147.614 132.029C146.765 131.592 145.838 131.327 144.886 131.249C143.934 131.171 142.976 131.283 142.067 131.576C138.077 132.857 135.619 142.347 138.056 146.84L151.393 181.881C152.675 184.841 156.708 186.374 161.055 186.374L163.156 186.143C164.143 185.996 168.323 178.857 168.512 174.742C168.491 173.776 163.807 172.559 163.807 172.559Z" fill="#57C5C7"/>
<path d="M160.068 95.2548C160.201 93.8566 159.955 92.4484 159.356 91.1777C158.757 89.9071 157.828 88.8207 156.665 88.0325L158.471 86.3739C140.639 78.2278 134.652 89.7331 133.434 97.1654C132.952 99.8632 132.299 102.528 131.481 105.144C129.668 106.027 128.118 107.37 126.987 109.039C125.855 110.707 125.181 112.644 125.032 114.654C124.94 115.828 125.018 117.009 125.263 118.16C122.281 119.924 120.054 125.446 119.697 129.414C119.13 135.712 127.511 140.982 133.287 141.612C137.929 142.116 142.067 136.972 143.789 132.521C147.528 132.857 146.814 130.296 147.192 126.223C147.289 125.114 147.152 123.997 146.79 122.945C146.428 121.893 145.85 120.928 145.092 120.113C145.444 119.296 145.712 118.445 145.89 117.573C146.687 116.429 147.172 115.098 147.297 113.709C147.329 113.346 147.329 112.981 147.297 112.618C148.63 111.555 149.569 110.077 149.965 108.419C153.409 108.209 153.325 106.067 153.682 102.12C153.682 101.994 156.686 101.112 156.686 101.007C157.649 100.368 158.454 99.5174 159.04 98.5207C159.626 97.5241 159.977 96.4073 160.068 95.2548Z" fill="#132233"/>
<path d="M174.245 378.688L164.898 376.862H164.625L157.462 376.4L145.742 373.25L145.133 378.331V380.809L175.841 381.481V380.641C175.823 380.186 175.657 379.75 175.369 379.398C175.081 379.046 174.687 378.797 174.245 378.688Z" fill="#16242D"/>
<path opacity="0.4" d="M233.498 45.328H254.838L250.028 23.3252L232.553 24.186L233.498 45.328Z" fill="#8BA4B7"/>
<path d="M251.266 45.328H230.178V23.3252H250.027L251.266 45.328Z" fill="#F68B3C"/>
<path d="M237.216 31.262C236.316 31.2427 235.418 31.1655 234.527 31.031L234.653 30.0862C236.295 30.4441 238.001 30.3791 239.61 29.8973L240.409 29.4984C240.989 29.1653 241.621 28.9312 242.278 28.8055C243.253 28.7218 244.222 29.0149 244.987 29.6243L244.42 30.4012C243.834 29.9148 243.079 29.6807 242.32 29.7503C241.78 29.8702 241.262 30.0758 240.787 30.3592L239.904 30.7791C239.047 31.1075 238.134 31.2713 237.216 31.262Z" fill="white"/>
<path d="M238.793 35.2299C237.406 35.2299 236.02 35.2299 234.592 35.0619V34.1172C236.89 34.3376 239.204 34.3376 241.502 34.1172C242.529 33.9877 243.547 33.7914 244.548 33.5293L244.779 34.4741C243.74 34.7257 242.688 34.9219 241.628 35.0619C240.687 35.1741 239.74 35.2302 238.793 35.2299Z" fill="white"/>
<path d="M242.991 40.4993L241.479 40.3733C239.387 40.1417 237.283 40.0366 235.178 40.0584V39.1136C237.317 39.0838 239.456 39.182 241.584 39.4075L243.096 39.5545L242.991 40.4993Z" fill="white"/>
<path opacity="0.4" d="M215.852 60.3188L212.303 82.8885H235.282L234.084 61.4526L215.852 60.3188Z" fill="#8BA4B7"/>
<path d="M238.729 84.4632L217.032 83.6234L215.855 60.3188L236.881 61.6205L238.729 84.4632Z" fill="#57C5C7"/>
<path d="M232.932 68.9476C231.31 68.5545 229.644 68.3711 227.975 68.4018C225.832 68.4981 223.69 68.1699 221.674 67.436L222.052 66.5752C223.946 67.2374 225.949 67.5365 227.954 67.457C229.701 67.4263 231.444 67.6168 233.142 68.0239L232.932 68.9476Z" fill="white"/>
<path d="M230.937 73.0629C229.909 72.472 228.774 72.0936 227.597 71.9501C226.967 71.9501 226.274 71.8452 225.665 71.8242L219.363 71.6982V70.7534L225.665 70.8794C226.367 70.8789 227.068 70.921 227.765 71.0054C229.065 71.1679 230.32 71.5815 231.462 72.2231L230.937 73.0629Z" fill="white"/>
<path d="M222.618 76.7161C221.715 76.7161 220.812 76.7161 219.93 76.5902V75.6454C221.713 75.8633 223.519 75.8067 225.286 75.4774L226.042 75.2675L226.651 75.0995C227.981 74.7589 229.358 74.6453 230.726 74.7636V75.7084C229.471 75.6016 228.207 75.708 226.987 76.0233L226.399 76.1913L225.601 76.4012C224.624 76.6303 223.622 76.7361 222.618 76.7161Z" fill="white"/>
<path opacity="0.4" d="M186.699 60.7812L189.031 82.3642H166.955L168.068 60.7812H186.699Z" fill="#8BA4B7"/>
<path d="M184.305 84.0648H164.477L166.85 60.7812H186.699L184.305 84.0648Z" fill="#E7D893"/>
<path d="M179.014 68.4862C176.448 68.4897 173.893 68.1652 171.41 67.5205L171.641 66.5967C174.964 67.4551 178.411 67.7321 181.828 67.4155V68.3603C180.946 68.4443 179.98 68.4862 179.014 68.4862Z" fill="white"/>
<path d="M169.959 72.5589H169.623V71.6141C170.862 71.6141 172.186 71.6141 173.446 71.4461C175.705 71.1625 177.992 71.1625 180.251 71.4461L180.062 72.3909C177.891 72.0831 175.689 72.0479 173.509 72.286C172.354 72.4749 171.156 72.5589 169.959 72.5589Z" fill="white"/>
<path d="M174.435 77.0307C172.604 77.034 170.775 76.9429 168.953 76.7578V75.813C171.78 76.086 174.624 76.1492 177.46 76.0019V76.9467C176.557 77.0097 175.507 77.0307 174.435 77.0307Z" fill="white"/>
<path d="M176.659 81.377C175.566 81.377 174.558 81.104 173.403 80.9361C171.755 80.5738 170.068 80.4256 168.383 80.4952V79.5504C170.152 79.4648 171.925 79.613 173.655 79.9913C174.697 80.1912 175.749 80.3383 176.806 80.4322L176.659 81.377Z" fill="white"/>
<path opacity="0.4" d="M281.219 60.7812L283.571 82.3642H261.475L262.588 60.7812H281.219Z" fill="#8BA4B7"/>
<path d="M278.845 84.0648H258.996L261.37 60.7812H281.219L278.845 84.0648Z" fill="#058CBD"/>
<path d="M273.532 68.4862C270.973 68.4912 268.425 68.1666 265.949 67.5205L266.18 66.5967C269.503 67.4551 272.95 67.7321 276.367 67.4155V68.3603C275.485 68.4442 274.498 68.4862 273.532 68.4862Z" fill="white"/>
<path d="M264.479 72.5589H264.143V71.6141C265.361 71.6141 266.684 71.6141 267.944 71.4461C270.204 71.1625 272.49 71.1625 274.75 71.4461L274.582 72.3909C272.403 72.0829 270.195 72.0476 268.007 72.286C266.873 72.4749 265.676 72.5589 264.479 72.5589Z" fill="white"/>
<path d="M268.974 77.0307C267.143 77.0346 265.314 76.9435 263.492 76.7578V75.813C266.326 76.0862 269.177 76.1494 272.02 76.0019V76.9467C271.096 77.0097 270.025 77.0307 268.974 77.0307Z" fill="white"/>
<path d="M271.178 81.377C270.086 81.377 269.078 81.1041 267.943 80.9361C266.289 80.5746 264.595 80.4264 262.902 80.4952V79.5504C264.665 79.4647 266.43 79.613 268.153 79.9913C269.204 80.1803 270.254 80.3483 271.325 80.4322L271.178 81.377Z" fill="white"/>
<path d="M253.871 209.489L250.027 213.499L248.872 214.675L245.49 215.976L241.058 219.189C241.058 219.189 242.045 220.091 242.465 220.133C243.213 220.03 243.93 219.765 244.566 219.356L242.465 222.023L239.378 225.928C239.303 226.023 239.251 226.133 239.225 226.251C239.2 226.369 239.201 226.491 239.229 226.608C239.258 226.725 239.312 226.834 239.389 226.928C239.465 227.021 239.562 227.095 239.672 227.146L245.868 229.245C246.124 229.328 246.397 229.344 246.662 229.293C246.926 229.241 247.173 229.124 247.38 228.951L252.001 224.437L254.102 220.238L255.887 217.824L258.744 213.457L253.871 209.489Z" fill="#FAC0B3"/>
<path d="M260.255 128.07L254.962 122.8L250.762 118.601L246.561 115.137L242.696 112.009C242.602 111.934 242.493 111.88 242.376 111.853C242.259 111.826 242.138 111.826 242.021 111.852C241.904 111.878 241.794 111.93 241.7 112.005C241.606 112.079 241.53 112.174 241.478 112.282L239.377 118.433C239.294 118.688 239.275 118.96 239.323 119.224C239.37 119.487 239.483 119.735 239.65 119.945L244.103 124.648L248.304 126.747L250.699 128.574L255.614 133.193L260.255 128.07Z" fill="#FAC0B3"/>
<path d="M251.268 131.219L256.939 123.682L285.253 146.966C285.892 147.406 286.602 147.733 287.353 147.931C287.353 147.931 313.105 125.719 324.153 123.934C327.724 123.346 330.454 128.133 329.551 131.534L329.341 132.374C328.417 135.88 324.573 139.365 321.737 141.633C310.689 150.493 301.132 162.082 291.722 163.909C288.691 164.535 285.543 164.258 282.669 163.111C273.238 158.702 251.268 131.219 251.268 131.219Z" fill="#E7D893"/>
<path d="M312.829 117.551L299.282 119.084L297.328 112.869L294.808 110.329L295.774 104.492L294.598 94.2256H312.829V117.551Z" fill="#FAC0B3"/>
<path d="M312.832 114.213H304.703V127.44H312.832V114.213Z" fill="#FAC0B3"/>
<path d="M292.919 96.5775L298.737 96.1786L298.044 98.4881L297.624 100.021L297.645 101.112L298.527 101.826L298.506 103.926L299.682 104.346L300.291 102.33L302.014 103.254L303.715 110.791L308.273 113.038L312.831 112.786L312.957 111.736L315.037 103.863L316.024 94.2261L309.428 88.2635L302.917 87.1927L294.389 84.5054L288.004 88.5154L288.739 94.9399L292.919 96.5775Z" fill="#132233"/>
<path d="M285.232 383.412C284.287 384.42 279.729 383.832 279.729 383.832L260.195 382.404V381.522C260.201 381.069 260.354 380.63 260.63 380.27C260.906 379.911 261.292 379.65 261.729 379.528L269.521 378.163L275.402 373.964L276.579 370.794L284.434 371.025L284.539 375.056L285.232 380.914C285.232 380.914 285.653 382.95 285.232 383.412Z" fill="#16242D"/>
<path d="M332.154 381.102C331.209 382.131 326.651 381.522 326.651 381.522L307.117 380.116V379.234C307.123 378.781 307.276 378.341 307.552 377.982C307.828 377.622 308.214 377.362 308.651 377.239L316.443 375.854L322.324 371.655L323.501 368.484L331.356 368.736V372.746L332.049 378.604C332.049 378.604 332.68 380.641 332.154 381.102Z" fill="#16242D"/>
<path d="M285.441 372.432H274.246L275.464 295.947L278.846 219.839H314.512L295.377 299.684L285.441 372.432Z" fill="#395C7F"/>
<path d="M331.105 370.563L323.207 370.206C322.283 370.206 321.632 370.374 321.548 369.471L314.512 292.482L305.963 221.456H336.692L337.763 236.614L333.941 294.036L334.571 308.88L333.058 369.513C333.037 370.584 333.037 370.584 331.105 370.563Z" fill="#395C7F"/>
<path d="M338.268 223.409L275.969 224.647C275.969 224.647 280.905 180.558 281.85 165.861C282.333 158.639 282.732 141.675 282.963 131.387C283.014 129.093 283.918 126.899 285.498 125.234C287.079 123.569 289.222 122.552 291.512 122.38L303.085 121.499H313.189L323.082 122.296C325.576 122.486 327.909 123.605 329.617 125.433C331.325 127.261 332.283 129.663 332.302 132.164C332.429 142.662 332.66 159.458 333.08 166.701C333.92 180.999 338.268 223.409 338.268 223.409Z" fill="#E7D893"/>
<path d="M257.401 217.131L249.734 212.155L273.427 176.127C273.843 175.485 274.142 174.774 274.31 174.028L283.194 128.783C283.39 127.942 283.749 127.148 284.252 126.446C284.755 125.743 285.391 125.147 286.125 124.691C286.858 124.235 287.674 123.927 288.527 123.787C289.379 123.646 290.251 123.674 291.092 123.871L291.932 124.06C296.91 124.815 299.62 131.702 298.717 136.132C298.717 136.132 292.415 168.317 290 179.235C289.006 181.638 287.87 183.979 286.597 186.247C278.93 196.849 257.401 217.131 257.401 217.131Z" fill="#ECE0A9"/>
<path d="M246.52 127.86L225.264 125.194L230.956 100.566L252.212 103.254L246.52 127.86Z" fill="#F68B3C"/>
<path d="M242.93 110.476C240.186 110.113 237.497 109.407 234.928 108.377L235.306 107.411C238.747 108.781 242.4 109.541 246.102 109.658V110.686C245.01 110.672 243.953 110.602 242.93 110.476Z" fill="white"/>
<path d="M232.7 113.604H232.322L232.469 112.576C233.772 112.765 235.221 112.849 236.67 112.933C239.127 112.961 241.57 113.307 243.938 113.961L243.623 114.948C241.342 114.325 238.992 113.994 236.628 113.961C235.263 113.835 233.961 113.772 232.7 113.604Z" fill="white"/>
<path d="M236.879 119C234.925 118.748 232.972 118.412 231.061 117.971L231.271 116.963C234.262 117.651 237.303 118.101 240.365 118.307V119.336C239.168 119.252 238.034 119.147 236.879 119Z" fill="white"/>
<path d="M238.687 123.87C237.53 123.622 236.387 123.314 235.263 122.947C233.541 122.341 231.747 121.96 229.928 121.813V120.784C231.833 120.931 233.712 121.326 235.515 121.96C236.604 122.322 237.712 122.623 238.834 122.863L238.687 123.87Z" fill="white"/>
<path d="M253.346 121.31L252.296 117.258L249.586 112.492C249.586 112.492 248.578 113.373 248.494 113.793C248.655 115.094 249.054 116.353 249.67 117.51L249.859 121.709L251.96 122.653L253.346 121.31Z" fill="#FAC0B3"/>
</svg>
