<svg width="427" height="251" viewBox="0 0 427 251" fill="none" xmlns="http://www.w3.org/2000/svg">
<path d="M102 114.98C101.52 114.98 101.093 114.887 100.72 114.7C100.36 114.513 99.9667 114.253 99.54 113.92C99.22 113.68 98.96 113.507 98.76 113.4C98.5733 113.293 98.38 113.24 98.18 113.24C97.82 113.24 97.5267 113.38 97.3 113.66C97.0733 113.94 96.9533 114.32 96.94 114.8H95C95.0133 113.573 95.2933 112.633 95.84 111.98C96.3867 111.313 97.1067 110.98 98 110.98C98.48 110.98 98.8933 111.073 99.24 111.26C99.5867 111.433 99.9933 111.693 100.46 112.04C100.78 112.28 101.033 112.453 101.22 112.56C101.407 112.667 101.6 112.72 101.8 112.72C102.173 112.72 102.467 112.58 102.68 112.3C102.893 112.02 103.013 111.64 103.04 111.16H105C104.973 112.387 104.687 113.333 104.14 114C103.593 114.653 102.88 114.98 102 114.98ZM110.305 109.24H113.405V113.44H118.085V109.24H121.205V120H118.085V115.98H113.405V120H110.305V109.24ZM135.051 109.24V120H132.071V118.76C131.298 119.693 130.178 120.16 128.711 120.16C127.698 120.16 126.778 119.933 125.951 119.48C125.138 119.027 124.498 118.38 124.031 117.54C123.565 116.7 123.331 115.727 123.331 114.62C123.331 113.513 123.565 112.54 124.031 111.7C124.498 110.86 125.138 110.213 125.951 109.76C126.778 109.307 127.698 109.08 128.711 109.08C130.085 109.08 131.158 109.513 131.931 110.38V109.24H135.051ZM129.251 117.6C130.038 117.6 130.691 117.333 131.211 116.8C131.731 116.253 131.991 115.527 131.991 114.62C131.991 113.713 131.731 112.993 131.211 112.46C130.691 111.913 130.038 111.64 129.251 111.64C128.451 111.64 127.791 111.913 127.271 112.46C126.751 112.993 126.491 113.713 126.491 114.62C126.491 115.527 126.751 116.253 127.271 116.8C127.791 117.333 128.451 117.6 129.251 117.6ZM154.42 109.24V120H138V109.24H141.1V117.44H144.68V109.24H147.78V117.44H151.32V109.24H154.42ZM168.034 109.24V120H165.054V118.74C164.654 119.207 164.161 119.56 163.574 119.8C163.001 120.04 162.387 120.16 161.734 120.16C160.321 120.16 159.194 119.753 158.354 118.94C157.527 118.127 157.114 116.92 157.114 115.32V109.24H160.234V114.86C160.234 116.593 160.961 117.46 162.414 117.46C163.174 117.46 163.781 117.22 164.234 116.74C164.687 116.247 164.914 115.52 164.914 114.56V109.24H168.034ZM181.792 120.16C180.645 120.16 179.612 119.927 178.692 119.46C177.785 118.98 177.072 118.32 176.552 117.48C176.045 116.64 175.792 115.687 175.792 114.62C175.792 113.553 176.045 112.6 176.552 111.76C177.072 110.92 177.785 110.267 178.692 109.8C179.612 109.32 180.645 109.08 181.792 109.08C182.925 109.08 183.912 109.32 184.752 109.8C185.605 110.267 186.225 110.94 186.612 111.82L184.192 113.12C183.632 112.133 182.825 111.64 181.772 111.64C180.959 111.64 180.285 111.907 179.752 112.44C179.219 112.973 178.952 113.7 178.952 114.62C178.952 115.54 179.219 116.267 179.752 116.8C180.285 117.333 180.959 117.6 181.772 117.6C182.839 117.6 183.645 117.107 184.192 116.12L186.612 117.44C186.225 118.293 185.605 118.96 184.752 119.44C183.912 119.92 182.925 120.16 181.792 120.16ZM199.128 109.24V120H196.148V118.74C195.748 119.207 195.254 119.56 194.668 119.8C194.094 120.04 193.481 120.16 192.828 120.16C191.414 120.16 190.288 119.753 189.448 118.94C188.621 118.127 188.208 116.92 188.208 115.32V109.24H191.328V114.86C191.328 116.593 192.054 117.46 193.508 117.46C194.268 117.46 194.874 117.22 195.328 116.74C195.781 116.247 196.008 115.52 196.008 114.56V109.24H199.128ZM212.422 109.24V120H209.302V111.8H205.902L205.802 113.7C205.748 115.113 205.615 116.287 205.402 117.22C205.188 118.153 204.842 118.887 204.362 119.42C203.882 119.953 203.215 120.22 202.362 120.22C201.908 120.22 201.368 120.14 200.742 119.98L200.902 117.42C201.115 117.447 201.268 117.46 201.362 117.46C201.828 117.46 202.175 117.293 202.402 116.96C202.642 116.613 202.802 116.18 202.882 115.66C202.962 115.127 203.022 114.427 203.062 113.56L203.222 109.24H212.422ZM220.362 120.3C218.655 120.3 217.362 119.92 216.482 119.16C215.615 118.4 215.182 117.28 215.182 115.8V109.24H218.282V112.88C218.615 112.64 219.042 112.453 219.562 112.32C220.095 112.187 220.689 112.12 221.342 112.12C222.689 112.12 223.742 112.453 224.502 113.12C225.262 113.787 225.642 114.76 225.642 116.04C225.642 117.413 225.169 118.467 224.222 119.2C223.289 119.933 222.002 120.3 220.362 120.3ZM220.362 118.1C221.029 118.1 221.542 117.92 221.902 117.56C222.275 117.2 222.462 116.713 222.462 116.1C222.462 115.513 222.282 115.053 221.922 114.72C221.575 114.387 221.075 114.22 220.422 114.22C219.942 114.22 219.515 114.307 219.142 114.48C218.769 114.653 218.482 114.9 218.282 115.22V116.1C218.282 116.727 218.462 117.22 218.822 117.58C219.195 117.927 219.709 118.1 220.362 118.1ZM227.648 109.24H230.748V113.44H235.428V109.24H238.548V120H235.428V115.98H230.748V120H227.648V109.24ZM246.415 120.3C244.708 120.3 243.428 119.92 242.575 119.16C241.722 118.4 241.295 117.28 241.295 115.8V109.24H244.395V112.88C244.702 112.667 245.102 112.487 245.595 112.34C246.102 112.193 246.675 112.12 247.315 112.12C248.635 112.12 249.668 112.453 250.415 113.12C251.162 113.787 251.535 114.76 251.535 116.04C251.535 117.4 251.075 118.453 250.155 119.2C249.235 119.933 247.988 120.3 246.415 120.3ZM252.675 109.24H255.795V120H252.675V109.24ZM246.415 118.1C247.055 118.1 247.542 117.913 247.875 117.54C248.208 117.167 248.375 116.68 248.375 116.08C248.375 115.52 248.202 115.073 247.855 114.74C247.522 114.393 247.035 114.22 246.395 114.22C245.942 114.22 245.542 114.313 245.195 114.5C244.862 114.673 244.595 114.913 244.395 115.22V116.1C244.395 116.727 244.568 117.22 244.915 117.58C245.262 117.927 245.762 118.1 246.415 118.1ZM264.141 117.66C264.701 117.66 265.195 117.58 265.621 117.42C266.061 117.247 266.468 116.98 266.841 116.62L268.501 118.42C267.488 119.58 266.008 120.16 264.061 120.16C262.848 120.16 261.775 119.927 260.841 119.46C259.908 118.98 259.188 118.32 258.681 117.48C258.175 116.64 257.921 115.687 257.921 114.62C257.921 113.567 258.168 112.62 258.661 111.78C259.168 110.927 259.855 110.267 260.721 109.8C261.601 109.32 262.588 109.08 263.681 109.08C264.708 109.08 265.641 109.3 266.481 109.74C267.321 110.167 267.988 110.793 268.481 111.62C268.988 112.433 269.241 113.4 269.241 114.52L261.281 116.06C261.508 116.593 261.861 116.993 262.341 117.26C262.835 117.527 263.435 117.66 264.141 117.66ZM263.681 111.44C262.895 111.44 262.255 111.693 261.761 112.2C261.268 112.707 261.008 113.407 260.981 114.3L266.221 113.28C266.075 112.72 265.775 112.273 265.321 111.94C264.868 111.607 264.321 111.44 263.681 111.44ZM100.62 150.16C99.4733 150.16 98.44 149.927 97.52 149.46C96.6133 148.98 95.9 148.32 95.38 147.48C94.8733 146.64 94.62 145.687 94.62 144.62C94.62 143.553 94.8733 142.6 95.38 141.76C95.9 140.92 96.6133 140.267 97.52 139.8C98.44 139.32 99.4733 139.08 100.62 139.08C101.753 139.08 102.74 139.32 103.58 139.8C104.433 140.267 105.053 140.94 105.44 141.82L103.02 143.12C102.46 142.133 101.653 141.64 100.6 141.64C99.7867 141.64 99.1133 141.907 98.58 142.44C98.0467 142.973 97.78 143.7 97.78 144.62C97.78 145.54 98.0467 146.267 98.58 146.8C99.1133 147.333 99.7867 147.6 100.6 147.6C101.667 147.6 102.473 147.107 103.02 146.12L105.44 147.44C105.053 148.293 104.433 148.96 103.58 149.44C102.74 149.92 101.753 150.16 100.62 150.16ZM121.096 139.08C122.443 139.08 123.509 139.48 124.296 140.28C125.096 141.067 125.496 142.253 125.496 143.84V150H122.376V144.32C122.376 143.467 122.196 142.833 121.836 142.42C121.489 141.993 120.989 141.78 120.336 141.78C119.603 141.78 119.023 142.02 118.596 142.5C118.169 142.967 117.956 143.667 117.956 144.6V150H114.836V144.32C114.836 142.627 114.156 141.78 112.796 141.78C112.076 141.78 111.503 142.02 111.076 142.5C110.649 142.967 110.436 143.667 110.436 144.6V150H107.316V139.24H110.296V140.48C110.696 140.027 111.183 139.68 111.756 139.44C112.343 139.2 112.983 139.08 113.676 139.08C114.436 139.08 115.123 139.233 115.736 139.54C116.349 139.833 116.843 140.267 117.216 140.84C117.656 140.28 118.209 139.847 118.876 139.54C119.556 139.233 120.296 139.08 121.096 139.08ZM133.255 150.16C132.122 150.16 131.102 149.927 130.195 149.46C129.302 148.98 128.602 148.32 128.095 147.48C127.588 146.64 127.335 145.687 127.335 144.62C127.335 143.553 127.588 142.6 128.095 141.76C128.602 140.92 129.302 140.267 130.195 139.8C131.102 139.32 132.122 139.08 133.255 139.08C134.388 139.08 135.402 139.32 136.295 139.8C137.188 140.267 137.888 140.92 138.395 141.76C138.902 142.6 139.155 143.553 139.155 144.62C139.155 145.687 138.902 146.64 138.395 147.48C137.888 148.32 137.188 148.98 136.295 149.46C135.402 149.927 134.388 150.16 133.255 150.16ZM133.255 147.6C134.055 147.6 134.708 147.333 135.215 146.8C135.735 146.253 135.995 145.527 135.995 144.62C135.995 143.713 135.735 142.993 135.215 142.46C134.708 141.913 134.055 141.64 133.255 141.64C132.455 141.64 131.795 141.913 131.275 142.46C130.755 142.993 130.495 143.713 130.495 144.62C130.495 145.527 130.755 146.253 131.275 146.8C131.795 147.333 132.455 147.6 133.255 147.6ZM146.821 139.08C147.967 139.08 148.967 139.307 149.821 139.76C150.674 140.213 151.334 140.86 151.801 141.7C152.267 142.54 152.501 143.52 152.501 144.64C152.501 145.733 152.281 146.7 151.841 147.54C151.401 148.367 150.781 149.013 149.981 149.48C149.181 149.933 148.261 150.16 147.221 150.16C145.847 150.16 144.774 149.727 144.001 148.86V153.88H140.881V144.66C140.881 143.553 141.127 142.58 141.621 141.74C142.114 140.9 142.807 140.247 143.701 139.78C144.594 139.313 145.634 139.08 146.821 139.08ZM146.681 147.6C147.494 147.6 148.154 147.327 148.661 146.78C149.167 146.233 149.421 145.52 149.421 144.64C149.421 143.747 149.167 143.027 148.661 142.48C148.154 141.92 147.494 141.64 146.681 141.64C145.867 141.64 145.207 141.913 144.701 142.46C144.207 143.007 143.961 143.727 143.961 144.62C143.961 145.513 144.207 146.233 144.701 146.78C145.194 147.327 145.854 147.6 146.681 147.6ZM159.739 150.16C158.606 150.16 157.586 149.927 156.679 149.46C155.786 148.98 155.086 148.32 154.579 147.48C154.073 146.64 153.819 145.687 153.819 144.62C153.819 143.553 154.073 142.6 154.579 141.76C155.086 140.92 155.786 140.267 156.679 139.8C157.586 139.32 158.606 139.08 159.739 139.08C160.873 139.08 161.886 139.32 162.779 139.8C163.673 140.267 164.373 140.92 164.879 141.76C165.386 142.6 165.639 143.553 165.639 144.62C165.639 145.687 165.386 146.64 164.879 147.48C164.373 148.32 163.673 148.98 162.779 149.46C161.886 149.927 160.873 150.16 159.739 150.16ZM159.739 147.6C160.539 147.6 161.193 147.333 161.699 146.8C162.219 146.253 162.479 145.527 162.479 144.62C162.479 143.713 162.219 142.993 161.699 142.46C161.193 141.913 160.539 141.64 159.739 141.64C158.939 141.64 158.279 141.913 157.759 142.46C157.239 142.993 156.979 143.713 156.979 144.62C156.979 145.527 157.239 146.253 157.759 146.8C158.279 147.333 158.939 147.6 159.739 147.6ZM167.785 139.24H170.885V143.44H175.565V139.24H178.685V150H175.565V145.98H170.885V150H167.785V139.24ZM186.552 150.3C184.845 150.3 183.565 149.92 182.712 149.16C181.859 148.4 181.432 147.28 181.432 145.8V139.24H184.532V142.88C184.839 142.667 185.239 142.487 185.732 142.34C186.239 142.193 186.812 142.12 187.452 142.12C188.772 142.12 189.805 142.453 190.552 143.12C191.299 143.787 191.672 144.76 191.672 146.04C191.672 147.4 191.212 148.453 190.292 149.2C189.372 149.933 188.125 150.3 186.552 150.3ZM192.812 139.24H195.932V150H192.812V139.24ZM186.552 148.1C187.192 148.1 187.679 147.913 188.012 147.54C188.345 147.167 188.512 146.68 188.512 146.08C188.512 145.52 188.339 145.073 187.992 144.74C187.659 144.393 187.172 144.22 186.532 144.22C186.079 144.22 185.679 144.313 185.332 144.5C184.999 144.673 184.732 144.913 184.532 145.22V146.1C184.532 146.727 184.705 147.22 185.052 147.58C185.399 147.927 185.899 148.1 186.552 148.1Z" fill="white"/>
<path d="M177.461 53.7502C162.797 55.584 147.958 55.0338 133.247 57.4299C119.97 59.5384 106.923 62.9152 94.2838 67.5145C70.6748 76.2494 45.3905 89.9355 30.9941 111.421C18.4411 130.099 21.971 151.947 39.2365 166.339C49.0394 174.523 61.0331 178.184 72.9209 182.125C87.303 186.797 102.179 189.772 117.25 190.989C149.502 193.716 181.972 192.311 213.878 186.809C242.138 181.972 271.875 174.487 296.471 159.364C315.924 147.486 334.714 126.186 317.409 104.041C302.475 85.0139 272.765 77.3333 250.477 71.8607C216.993 63.5358 181.534 62.1054 147.27 65.2487C120.435 67.7429 87.793 72.9266 70.897 96.5917C69.3946 98.6688 72.1432 101.519 74.1695 99.7969C92.7568 84.2625 112.119 76.8979 136.01 73.8386C162.521 70.5057 189.337 70.4888 215.845 73.7883C241.021 76.8884 266.561 82.6326 289.778 93.1054C299.306 97.4108 309.515 103.225 314.843 112.698C323.584 128.379 310.457 142.154 298.372 150.776C277.289 165.816 251.284 173.519 226.356 179.186C198.994 185.128 171.081 188.117 143.091 188.103C116.122 188.507 89.2789 184.379 63.6735 175.892C39.8195 168.056 16.333 146.358 28.8737 119.233C40.3628 94.3835 69.0412 78.5125 93.2652 69.0437C106.212 64.0408 119.62 60.3364 133.291 57.9847C147.375 55.4967 163.259 52.8903 177.484 54.4857C177.532 54.4842 177.579 54.4731 177.623 54.4532C177.667 54.4332 177.706 54.4048 177.739 54.3695C177.772 54.3343 177.798 54.2929 177.815 54.2476C177.832 54.2024 177.84 54.1543 177.838 54.106C177.837 54.0577 177.826 54.0102 177.806 53.9662C177.786 53.9222 177.758 53.8825 177.723 53.8495C177.688 53.8164 177.647 53.7907 177.602 53.7736C177.557 53.7566 177.509 53.7487 177.461 53.7502Z" fill="#0083C7"/>
<g clip-path="url(#clip0)">
<path d="M360.613 146.2C363.908 146.508 367.327 146.323 370.569 147.041C373.506 147.78 376.358 148.81 379.083 150.115C384.543 152.623 389.723 155.685 394.542 159.251C399.31 162.727 403.805 166.556 407.99 170.705C412.485 175.174 416.207 180.428 417.193 186.812C417.412 188.19 419.544 187.623 419.314 186.252C417.309 174.051 405.783 165.217 396.392 158.334C391.221 154.506 385.585 151.336 379.614 148.898C376.627 147.58 373.493 146.613 370.274 146.015C367.088 145.535 363.855 145.778 360.616 145.621C360.239 145.593 360.239 146.163 360.613 146.2Z" fill="#0083C7"/>
<path d="M409.841 163.072C410.88 167.175 411.016 171.769 411.735 175.97C412.105 177.998 412.129 180.343 412.78 182.304C413.307 183.884 414.527 185.483 415.357 186.921L416.753 185.521C412.273 183.174 408.34 179.68 404.237 176.736C402.025 175.154 399.102 172.574 396.12 172.878C395.907 172.88 395.701 172.958 395.54 173.099C395.38 173.24 395.275 173.433 395.247 173.643C395.218 173.854 395.267 174.066 395.385 174.242C395.503 174.417 395.681 174.543 395.886 174.597C403.505 177.008 408.764 183.648 415.735 187.297C415.929 187.398 416.151 187.434 416.37 187.4C416.588 187.366 416.79 187.264 416.946 187.108C417.103 186.952 417.205 186.751 417.239 186.534C417.273 186.317 417.236 186.096 417.133 185.903C416.17 184.234 414.946 182.558 414.381 180.706C413.761 178.688 413.472 176.48 412.978 174.389C412.109 170.607 411.742 166.559 410.528 162.873C410.491 162.798 410.43 162.738 410.353 162.703C410.277 162.668 410.19 162.66 410.108 162.682C410.026 162.703 409.954 162.752 409.903 162.819C409.853 162.887 409.827 162.97 409.831 163.054L409.841 163.072Z" fill="#0083C7"/>
</g>
<defs>
<clipPath id="clip0">
<rect width="66.2097" height="38.54" fill="white" transform="translate(393.377 126) rotate(60)"/>
</clipPath>
</defs>
</svg>
