<svg width="684" height="521" viewBox="0 0 684 521" fill="none" xmlns="http://www.w3.org/2000/svg">
<path d="M611.637 4.24121H385V155.421H611.637V4.24121Z" fill="white"/>
<path d="M387.684 2.09565e-06H611.637V8.48336H385V2.68213C385 2.32978 385.069 1.98081 385.203 1.6552C385.338 1.32959 385.536 1.03374 385.785 0.784596C386.034 0.53545 386.331 0.337901 386.656 0.203268C386.982 0.0686346 387.331 -0.000438613 387.684 2.09565e-06Z" fill="#6D7EA0"/>
<path opacity="0.7" d="M539.333 49.0679H497.102V80.7126H539.333V49.0679Z" fill="#D2EEFD"/>
<path d="M539.667 121.067H496.777V88.7793H539.667V121.067ZM497.429 120.422H539.007V89.4222H497.429V120.422Z" fill="#E6E7E8"/>
<path opacity="0.7" d="M451.503 19.5298H409.271V39.5285H451.503V19.5298Z" fill="#D2EEFD"/>
<path d="M588.038 39.8527H456.766V19.2026H588.038V39.8527ZM457.417 39.2014H587.384V19.8539H457.417V39.2014Z" fill="#E6E7E8"/>
<path opacity="0.7" d="M589.372 49.0679H547.141V80.7126H589.372V49.0679Z" fill="#D2EEFD"/>
<path d="M504.731 74.6699H502.463V75.3145H504.731V74.6699Z" fill="#6D7EA0"/>
<path d="M510.257 74.6699H506.709V75.3145H510.257V74.6699Z" fill="#6D7EA0"/>
<path d="M528.514 74.6699H512.637V75.3145H528.514V74.6699Z" fill="#6D7EA0"/>
<path d="M527.269 76.6992H506.893V77.3438H527.269V76.6992Z" fill="#6D7EA0"/>
<path d="M555.931 74.6699H553.662V75.3145H555.931V74.6699Z" fill="#6D7EA0"/>
<path d="M561.453 74.6699H557.904V75.3145H561.453V74.6699Z" fill="#6D7EA0"/>
<path d="M579.708 74.6699H563.832V75.3145H579.708V74.6699Z" fill="#6D7EA0"/>
<path d="M578.464 76.6992H558.088V77.3438H578.464V76.6992Z" fill="#6D7EA0"/>
<path d="M589.704 147.398H408.947V129.86H589.704V147.398ZM409.599 146.746H589.05V130.506H409.601L409.599 146.746Z" fill="#E6E7E8"/>
<path opacity="0.4" d="M489.829 48.9092H409.113V120.742H489.829V48.9092Z" fill="#E6E7E8"/>
<path d="M491.249 47.811H488.73V50.3274H491.249V47.811Z" fill="#B6BFCF"/>
<path d="M491.249 83.6484H488.73V86.1648H491.249V83.6484Z" fill="#B6BFCF"/>
<path d="M491.249 119.485H488.73V122.002H491.249V119.485Z" fill="#B6BFCF"/>
<path d="M130.248 346.606L133.662 354.032L138.883 355.787L146.859 355.384L158.048 355.586L159.597 353.801L146.084 349.829L138.568 347.815L136.531 342.461L130.248 346.606Z" fill="#FAC0B3"/>
<path d="M129.531 349.282L105.777 299.632L93.125 237.117L107.986 235.418L119.834 291.66L137.593 343.411L129.531 349.282Z" fill="#F68B3C"/>
<path d="M90.8861 505.054H122.817V504.076C122.801 503.57 122.622 503.083 122.306 502.688C121.991 502.294 121.556 502.013 121.067 501.888L108.128 498.779L101.53 494.232L100.669 487.094L91.0869 488.13L91.4886 495.671L90.8574 502.176L90.8861 505.054Z" fill="#7B461E"/>
<path d="M101.902 490.95L88.275 491.727L78.3774 415.741L37.2949 326.026L69.4265 320.528C69.4265 320.528 94.5866 380.281 99.4924 415.511C102.419 436.58 101.902 490.95 101.902 490.95Z" fill="#2B455F"/>
<path d="M169.147 311.75L158.446 307.203L155.921 304.785L156.581 304.9L159.966 305.303L160.511 303.547L156.581 302.367L153.827 301.734L151.302 301.158L147.401 300.065L140.659 299.633L139.941 305.418L146.224 305.764L154.831 311.462L168.946 314.254L169.147 311.75Z" fill="#FAC0B3"/>
<path d="M33.1934 508.911L65.0954 509.717V508.738C65.099 508.233 64.9346 507.74 64.628 507.339C64.3215 506.938 63.8903 506.65 63.4027 506.522L50.5501 503.097L44.0378 498.406L43.8656 492.649L34.7139 492.217L33.968 499.499L33.1934 506.004V508.911Z" fill="#7B461E"/>
<path d="M102.82 223.359L123.706 231.217L127.464 224.654L131.394 222.841L130.735 215.53L133.804 203.038L113.32 195.296L102.82 223.359Z" fill="#FAC0B3"/>
<path d="M96.9082 230.583L106.031 236.915L111.999 222.092L105.027 217.314L96.9082 230.583Z" fill="#FAC0B3"/>
<path d="M107.21 203.24C107.552 202.339 108.094 201.529 108.795 200.871C109.496 200.212 110.337 199.723 111.255 199.44C111.195 198.181 111.411 196.923 111.887 195.756C112.268 194.685 112.857 193.699 113.62 192.857C114.382 192.014 115.303 191.331 116.33 190.847C117.356 190.363 118.468 190.087 119.601 190.036C120.734 189.984 121.866 190.158 122.932 190.546C124.285 191.081 125.487 191.941 126.432 193.051C128.677 192.531 131.026 192.701 133.174 193.54C137.707 195.238 142.125 200.189 140.575 204.707C139.026 209.226 130.735 211.126 126.231 209.428L125.801 209.198L124.079 213.803L122.76 213.313L123.047 210.435H120.493L118.313 211.644L116.505 215.213C115.783 216.647 114.573 217.774 113.095 218.392C111.617 219.009 109.967 219.076 108.444 218.581C107.93 218.411 107.458 218.135 107.058 217.77C106.658 217.405 106.339 216.959 106.123 216.462C105.906 215.965 105.796 215.427 105.801 214.885C105.805 214.342 105.924 213.807 106.149 213.313L108.042 209.198C107.422 208.352 107.021 207.364 106.876 206.324C106.731 205.284 106.846 204.224 107.21 203.24Z" fill="#091018"/>
<path d="M45.4131 497.974H33.1055L37.2941 419.743L30.8965 335.841L33.1055 319.521H65.983C62.6551 353.024 60.6755 388.974 57.3763 422.477C54.6796 450.885 48.1672 469.623 45.4131 497.974Z" fill="#395C7F"/>
<path d="M78.2044 337.281L30.8965 319.522L37.2941 301.331C37.2941 301.331 55.6263 264.518 62.8272 254.3C72.6675 240.37 86.6963 225.892 95.5038 227.331C96.4793 227.331 98.803 225.316 99.6924 225.748L108.299 233.116L108.758 235.448C112.746 253.667 107.037 270.591 99.7498 285.846L78.2044 337.281Z" fill="#F68B3C"/>
<path d="M94.1585 302.252C92.4446 301.745 90.9104 300.759 89.7364 299.407C88.5624 298.056 87.7974 296.397 87.5313 294.624L84.0887 245.406C83.8538 243.098 84.5304 240.789 85.9733 238.975C87.4162 237.162 89.5102 235.988 91.806 235.706L94.4454 235.418C95.48 235.385 96.5103 235.568 97.4711 235.954C98.4319 236.341 99.3024 236.923 100.028 237.664C100.753 238.405 101.317 239.289 101.684 240.26C102.052 241.231 102.215 242.268 102.163 243.305L105.462 287.285L144.938 298.97L142.528 308.008L94.1585 302.252Z" fill="#F8A263"/>
<path d="M422.588 412.461L440.26 421.153L446.084 421.096L463.871 412.403L422.588 412.461Z" fill="#364664"/>
<path d="M445.966 406.417H440.688V479.035H445.966V406.417Z" fill="#364664"/>
<path d="M475.489 487.353L446.972 483.841H440.201L411.455 487.842V484.618L440.115 478.229H447.144L475.489 484.618V487.353Z" fill="#364664"/>
<path d="M411.456 484.618L411.398 492.763H412.431L415.071 483.812L411.456 484.618Z" fill="#364664"/>
<path d="M475.49 484.618L475.547 492.763H474.514L471.875 483.812L475.49 484.618Z" fill="#364664"/>
<path d="M439.83 483.323L440.691 492.763H441.724L444.851 483.323H439.83Z" fill="#364664"/>
<path d="M417.28 496.361C417.308 497.54 416.984 498.7 416.349 499.692C415.714 500.684 414.797 501.463 413.717 501.927C412.636 502.391 411.442 502.52 410.288 502.297C409.134 502.074 408.073 501.509 407.242 500.676C406.411 499.842 405.848 498.778 405.626 497.62C405.403 496.462 405.532 495.264 405.995 494.18C406.458 493.096 407.233 492.176 408.222 491.539C409.211 490.902 410.367 490.576 411.542 490.605C413.053 490.641 414.491 491.259 415.559 492.331C416.628 493.403 417.244 494.846 417.28 496.361V496.361Z" fill="#231F20"/>
<path d="M447.372 496.362C447.4 497.535 447.08 498.689 446.451 499.678C445.823 500.667 444.914 501.446 443.843 501.915C442.771 502.384 441.584 502.521 440.434 502.31C439.284 502.099 438.222 501.549 437.386 500.729C436.549 499.91 435.974 498.859 435.735 497.711C435.497 496.563 435.604 495.369 436.045 494.282C436.485 493.196 437.239 492.266 438.209 491.611C439.179 490.956 440.322 490.606 441.491 490.605C443.026 490.605 444.501 491.207 445.599 492.282C446.698 493.358 447.334 494.822 447.372 496.362V496.362Z" fill="#231F20"/>
<path d="M481.114 496.361C481.143 497.54 480.818 498.7 480.183 499.692C479.548 500.684 478.631 501.463 477.551 501.927C476.47 502.391 475.276 502.52 474.122 502.297C472.968 502.074 471.907 501.509 471.076 500.676C470.245 499.842 469.682 498.778 469.46 497.62C469.237 496.462 469.366 495.264 469.829 494.18C470.292 493.096 471.067 492.176 472.056 491.539C473.045 490.902 474.202 490.576 475.376 490.605C476.898 490.605 478.358 491.211 479.434 492.291C480.51 493.37 481.114 494.835 481.114 496.361Z" fill="#231F20"/>
<path d="M478.5 403.682H424.737L417.507 313.189C417.424 312.087 417.569 310.98 417.932 309.937C418.295 308.894 418.869 307.937 419.618 307.126C420.366 306.316 421.273 305.669 422.283 305.227C423.292 304.784 424.381 304.555 425.483 304.554H477.754C478.806 304.55 479.848 304.756 480.821 305.158C481.794 305.56 482.678 306.151 483.422 306.898C484.166 307.644 484.755 308.531 485.156 309.507C485.557 310.483 485.762 311.529 485.758 312.585L478.5 403.682Z" fill="#F6F4F4"/>
<path d="M485.761 403.278H375.051V412.46H485.761V403.278Z" fill="white"/>
<path d="M475.145 403.192C475.145 403.192 480.682 360.019 478.559 347.239C476.436 334.46 477.325 325.911 471.215 322.457C464.942 319.08 458.071 316.968 450.989 316.24C447.775 316.327 444.612 317.068 441.693 318.419C438.773 319.77 436.158 321.702 434.005 324.098C430.005 330.992 427.101 338.469 425.399 346.26C423.935 353.37 425.743 357.284 425.399 369.085C425.054 380.886 425.743 390.01 425.399 393.924C425.181 397.039 425.181 400.165 425.399 403.279L475.145 403.192Z" fill="#F0ECEC"/>
<path d="M338.702 343.267L327.829 342.778L321.431 338.719L312.079 340.676L310.271 347.095L310.558 348.505L318.735 349.081L323.009 349.887L326.768 349.973L336.436 350.319L338.702 343.267Z" fill="#FAC0B3"/>
<path d="M311.301 351.412C311.301 351.412 310.813 352.247 310.928 352.506C310.991 352.534 311.059 352.549 311.128 352.549C311.198 352.549 311.266 352.534 311.329 352.506C311.587 352.506 311.874 351.441 311.874 351.441L311.301 351.412Z" fill="#506995"/>
<path d="M314.199 349.859L311.33 348.535L319.535 329.567C319.711 329.171 320.036 328.861 320.439 328.704C320.842 328.548 321.291 328.558 321.687 328.732C321.887 328.814 322.069 328.935 322.222 329.089C322.375 329.243 322.495 329.426 322.575 329.628C322.656 329.829 322.695 330.045 322.69 330.262C322.685 330.479 322.637 330.693 322.547 330.891L314.199 349.859Z" fill="#364664"/>
<path d="M314.199 349.858L311.186 348.534L311.129 351.642L311.817 351.959L314.199 349.858Z" fill="#364664"/>
<path d="M312.707 349.053C312.048 349.053 312.277 346.635 312.908 346.433C315.966 345.11 318.945 343.61 321.83 341.943L327.568 342.778L338.441 343.267L336.175 350.319L325.99 349.945L319.535 347.671C317.38 348.604 315.055 349.075 312.707 349.053V349.053Z" fill="#FBCDC2"/>
<path d="M376.512 350.261C378.298 350.378 380.077 349.948 381.614 349.028C383.15 348.108 384.373 346.741 385.118 345.109C385.118 345.109 404.942 308.642 408.5 296.179C409.906 291.315 407.123 284.982 403.221 283.543L401.758 283.313C399.287 283.431 396.909 284.293 394.933 285.787C392.958 287.281 391.477 289.338 390.684 291.689L371.376 335.266L331.212 342.778L330.438 351.413L376.512 350.261Z" fill="#57C5C7"/>
<path d="M419.518 508.681L393.182 509.401V508.508C393.183 508.045 393.335 507.595 393.615 507.226C393.894 506.857 394.286 506.59 394.731 506.465L403.567 503.328L409.563 499.01L409.907 495.499L418.342 495.096L418.485 499.672L419.518 506.091V508.681Z" fill="#ADA26E"/>
<path d="M366.444 506.407L340.108 507.127V506.234C340.099 505.769 340.248 505.314 340.529 504.943C340.81 504.572 341.207 504.307 341.657 504.191L350.493 501.054L356.489 496.736L358.01 492.764H366.186L365.44 497.369L366.444 503.817V506.407Z" fill="#ADA26E"/>
<path d="M366.931 494.433L361.194 413.842L439.514 402.991C440.743 402.992 441.957 402.713 443.062 402.173C444.168 401.634 445.136 400.849 445.894 399.878C446.652 398.907 447.179 397.775 447.435 396.569C447.692 395.363 447.671 394.114 447.375 392.917L443.645 380.685L346.591 393.493C344.682 393.712 342.837 394.32 341.168 395.277C339.5 396.234 338.043 397.522 336.887 399.062C335.73 400.602 334.898 402.362 334.44 404.235C333.983 406.108 333.91 408.054 334.226 409.956L356.316 493.973L366.931 494.433Z" fill="#034F6B"/>
<path d="M419.515 495.441L412.085 407.884L443.642 404.085C445.147 402.707 446.289 400.976 446.965 399.048C447.641 397.119 447.83 395.052 447.515 393.032L444.675 380.8L391.916 391.622C389.306 392.397 387.107 394.174 385.796 396.567C384.485 398.96 384.169 401.776 384.916 404.402L408.757 495.556L419.515 495.441Z" fill="#04698E"/>
<path d="M413.664 273.642L397.111 275.571C396.389 275.59 395.678 275.384 395.077 274.982C394.477 274.58 394.014 274.002 393.754 273.326L392.606 269.095L392.348 259.884L391.086 256.027L391.717 245.694L413.635 245.234L413.664 273.642Z" fill="#FAC0B3"/>
<path d="M417.623 285.961L406.262 286.767L404.541 272.174L413.635 270.994L417.623 285.961Z" fill="#FAC0B3"/>
<path d="M412.489 238.729C412.489 238.729 409.247 233.174 404.513 235.246C404.513 235.246 395.132 229.72 390.456 234.095C387.243 238.096 384.489 240.197 384.718 242.73C384.718 243.622 384.431 246.356 385.808 247.364C388.218 249.062 388.448 251.508 395.132 249.781C398.259 248.975 409.706 245.003 410.108 253.034C410.108 253.034 408.731 258.79 410.337 258.79C412.087 259.164 411.026 256.286 412.001 255.739C412.977 255.192 413.235 256.516 413.464 257.265C414.325 260.143 412.977 261.755 413.694 264.691C413.837 265.295 414.641 264.316 414.985 263.626C416.987 260.051 417.696 255.893 416.993 251.854C416.46 250.316 416.46 248.642 416.993 247.104C418.055 242.01 415.157 238.642 412.489 238.729Z" fill="#091018"/>
<path d="M409.934 387.506H449.209L447.287 368.135L444.418 322.831C442.525 300.294 438.221 282.161 429.213 279.945C424.71 279.119 420.134 278.762 415.557 278.88L403.164 281.183C403.164 281.183 395.59 283.802 394.557 286.047C388.819 300.438 389.536 323.032 391.545 338.863L391.401 387.016C391.573 389.923 406.979 387.793 409.934 387.506Z" fill="#57C5C7"/>
<g opacity="0.4">
<path opacity="0.4" d="M393.755 273.469C394.015 274.145 394.478 274.723 395.079 275.125C395.68 275.527 396.39 275.733 397.112 275.714L408.157 274.447L413.608 270.533V268.029C413.366 266.321 412.65 264.715 411.542 263.395C410.796 262.589 411.542 259.74 410.538 259.106C410.251 258.905 409.362 258.818 409.132 259.106C408.501 259.855 408.702 262.215 408.788 263.769C408.788 264.604 406.522 266.647 404.972 266.935C404.972 266.935 397.226 268.95 394.931 268.115C393.985 267.799 392.521 265.237 392.521 265.237V265.554V269.353L393.755 273.469Z" fill="#091018"/>
</g>
<path d="M363.086 341.828L353.217 344.822L346.819 340.763L337.466 342.72L334.225 352.449L335.889 352.65L337.093 350.923L342.114 351.758L343.835 349.542L349.172 351.902L353.647 351.643L363.086 349.599V341.828Z" fill="#FAC0B3"/>
<path d="M405.548 280.694C405.548 280.694 403.195 284.205 405.548 285.011C407.9 285.817 414.154 285.817 415.732 283.342C417.31 280.866 417.826 279.657 415.732 278.708L405.548 280.694Z" fill="#FAC0B3"/>
<path d="M130.962 510.637C130.351 510.637 129.747 510.507 129.189 510.257C128.631 510.007 128.131 509.643 127.723 509.187C127.315 508.731 127.006 508.194 126.818 507.611C126.629 507.028 126.565 506.411 126.63 505.802L140.572 367.357H149.409L135.322 506.608C135.229 507.705 134.73 508.727 133.923 509.473C133.115 510.219 132.059 510.634 130.962 510.637V510.637Z" fill="#DDF3F4"/>
<path d="M220.447 510.637C219.406 510.636 218.4 510.26 217.611 509.579C216.822 508.898 216.302 507.957 216.144 506.924L194.283 367.357H203.119L224.751 505.514C224.86 506.143 224.83 506.788 224.664 507.405C224.498 508.021 224.199 508.593 223.789 509.082C223.379 509.57 222.867 509.962 222.29 510.231C221.713 510.5 221.084 510.638 220.447 510.637Z" fill="#DDF3F4"/>
<path d="M466.452 355.787H110.652V370.84H466.452V355.787Z" fill="white"/>
<path d="M368.391 510.637C367.78 510.637 367.176 510.507 366.618 510.257C366.06 510.007 365.561 509.643 365.153 509.187C364.744 508.731 364.436 508.194 364.247 507.611C364.059 507.028 363.995 506.411 364.059 505.802L378.146 367.357H386.982L372.637 506.694C372.538 507.761 372.05 508.753 371.267 509.481C370.483 510.209 369.459 510.621 368.391 510.637Z" fill="#DDF3F4"/>
<path d="M457.875 510.637C456.834 510.636 455.828 510.26 455.038 509.579C454.249 508.898 453.729 507.957 453.571 506.924L431.682 367.357H440.518L462.178 505.514C462.287 506.143 462.257 506.788 462.091 507.405C461.925 508.021 461.626 508.593 461.216 509.082C460.806 509.57 460.294 509.962 459.717 510.231C459.14 510.5 458.511 510.638 457.875 510.637V510.637Z" fill="#DDF3F4"/>
<path d="M467.541 355.787H351.064V370.84H467.541V355.787Z" fill="#EBF8F8"/>
<path d="M354.736 352.65H245.059V355.758H354.736V352.65Z" fill="#DDF3F4"/>
<path d="M284.993 333.913H247.525V355.788H284.993V333.913Z" fill="white"/>
<path d="M330.607 246.701H212.352C207.884 246.701 204.262 250.335 204.262 254.818V332.243C204.262 336.726 207.884 340.36 212.352 340.36H330.607C335.076 340.36 338.698 336.726 338.698 332.243V254.818C338.698 250.335 335.076 246.701 330.607 246.701Z" fill="white"/>
<g opacity="0.7">
<path opacity="0.7" d="M298.017 260.862L225.836 256.976C221.625 256.768 217.431 257.645 213.654 259.524C209.878 261.404 206.644 264.223 204.262 267.712V267.712V332.272C204.262 334.415 205.106 336.47 206.611 337.991C208.116 339.511 210.159 340.373 212.295 340.388H301.976L313.452 333.567C317.813 331.043 321.301 327.243 323.449 322.675C325.598 318.107 326.303 312.99 325.472 308.008L320.997 281.327C320.043 275.809 317.25 270.779 313.075 267.061C308.9 263.344 303.591 261.158 298.017 260.862V260.862Z" fill="#DDF3F4"/>
</g>
<path opacity="0.2" d="M404.054 347.441C405.152 347.596 406.27 347.52 407.337 347.218C408.404 346.916 409.396 346.394 410.251 345.685C413.489 341.886 416.461 337.866 419.144 333.654C419.144 333.654 434.091 310.34 436.673 301.561C437.074 298.933 437.266 296.276 437.247 293.617L429.587 295.459L417.279 317.334L397.197 340.36L391.976 345.426L391.574 346.951L404.054 347.441Z" fill="#419495"/>
<path d="M404.254 345.109C408.07 345.109 410.336 341.31 412.258 337.597C412.258 337.597 433.459 309.102 437.017 296.61C437.687 294.342 437.543 291.911 436.61 289.738C435.677 287.566 434.014 285.791 431.91 284.723L429.73 284.493C425.455 284.924 420.75 286.623 419.23 292.12L398.115 332.416L354.307 343.583L355.971 352.218L391.574 346.98L404.254 345.109Z" fill="#79D1D2"/>
</svg>
