<svg width="322" height="248" viewBox="0 0 322 248" fill="none" xmlns="http://www.w3.org/2000/svg">
<path d="M163.568 49.613C149.927 51.099 136.104 50.5114 122.422 52.4858C110.074 54.2208 97.9493 57.0601 86.2129 60.9649C64.2919 68.3839 40.8472 80.0946 27.5991 98.665C16.047 114.809 19.4952 133.827 35.6795 146.464C44.8686 153.651 56.0644 156.922 67.1638 160.435C80.5913 164.602 94.4666 167.298 108.51 168.467C138.564 171.076 168.79 170.094 198.462 165.545C224.743 161.549 252.38 155.262 275.173 142.298C293.201 132.115 310.541 113.739 294.263 94.3611C280.216 77.7111 252.493 70.8156 231.697 65.8941C200.455 58.4108 167.423 56.906 135.539 59.3859C110.567 61.3562 80.2084 65.6217 64.6487 86.0686C63.2649 87.8631 65.8455 90.3612 67.7198 88.8789C84.9143 75.5123 102.89 69.2531 125.117 66.7698C149.779 64.068 174.752 64.251 199.461 67.3145C222.928 70.1949 246.755 75.3764 268.452 84.6512C277.356 88.464 286.906 93.5934 291.938 101.868C300.193 115.563 288.07 127.441 276.88 134.846C257.358 147.764 233.198 154.269 210.026 159.011C184.589 163.975 158.617 166.368 132.553 166.149C107.441 166.301 82.4135 162.516 58.5063 154.949C36.235 147.961 14.2038 128.927 25.6821 105.44C36.198 83.9241 62.7872 70.3392 85.2756 62.2867C97.2957 58.0333 109.754 54.9119 122.468 52.9684C135.564 50.9094 150.337 48.7608 163.595 50.2526C163.64 50.2515 163.684 50.2423 163.725 50.2253C163.765 50.2083 163.802 50.1839 163.832 50.1534C163.863 50.123 163.887 50.0872 163.902 50.048C163.918 50.0088 163.925 49.9671 163.923 49.9251C163.921 49.8831 163.91 49.8417 163.892 49.8033C163.873 49.7649 163.846 49.7302 163.813 49.7012C163.78 49.6723 163.742 49.6496 163.7 49.6344C163.658 49.6193 163.613 49.612 163.568 49.613Z" fill="#38B9C6"/>
<path d="M96 101.98C95.52 101.98 95.0933 101.887 94.72 101.7C94.36 101.513 93.9667 101.253 93.54 100.92C93.22 100.68 92.96 100.507 92.76 100.4C92.5733 100.293 92.38 100.24 92.18 100.24C91.82 100.24 91.5267 100.38 91.3 100.66C91.0733 100.94 90.9533 101.32 90.94 101.8H89C89.0133 100.573 89.2933 99.6333 89.84 98.98C90.3867 98.3133 91.1067 97.98 92 97.98C92.48 97.98 92.8933 98.0733 93.24 98.26C93.5867 98.4333 93.9933 98.6933 94.46 99.04C94.78 99.28 95.0333 99.4533 95.22 99.56C95.4067 99.6667 95.6 99.72 95.8 99.72C96.1733 99.72 96.4667 99.58 96.68 99.3C96.8933 99.02 97.0133 98.64 97.04 98.16H99C98.9733 99.3867 98.6867 100.333 98.14 101C97.5933 101.653 96.88 101.98 96 101.98ZM109.425 107.16C108.278 107.16 107.245 106.927 106.325 106.46C105.418 105.98 104.705 105.32 104.185 104.48C103.678 103.64 103.425 102.687 103.425 101.62C103.425 100.553 103.678 99.6 104.185 98.76C104.705 97.92 105.418 97.2667 106.325 96.8C107.245 96.32 108.278 96.08 109.425 96.08C110.558 96.08 111.545 96.32 112.385 96.8C113.238 97.2667 113.858 97.94 114.245 98.82L111.825 100.12C111.265 99.1333 110.458 98.64 109.405 98.64C108.591 98.64 107.918 98.9067 107.385 99.44C106.851 99.9733 106.585 100.7 106.585 101.62C106.585 102.54 106.851 103.267 107.385 103.8C107.918 104.333 108.591 104.6 109.405 104.6C110.471 104.6 111.278 104.107 111.825 103.12L114.245 104.44C113.858 105.293 113.238 105.96 112.385 106.44C111.545 106.92 110.558 107.16 109.425 107.16ZM129.901 96.08C131.247 96.08 132.314 96.48 133.101 97.28C133.901 98.0667 134.301 99.2533 134.301 100.84V107H131.181V101.32C131.181 100.467 131.001 99.8333 130.641 99.42C130.294 98.9933 129.794 98.78 129.141 98.78C128.407 98.78 127.827 99.02 127.401 99.5C126.974 99.9667 126.761 100.667 126.761 101.6V107H123.641V101.32C123.641 99.6267 122.961 98.78 121.601 98.78C120.881 98.78 120.307 99.02 119.881 99.5C119.454 99.9667 119.241 100.667 119.241 101.6V107H116.121V96.24H119.101V97.48C119.501 97.0267 119.987 96.68 120.561 96.44C121.147 96.2 121.787 96.08 122.481 96.08C123.241 96.08 123.927 96.2333 124.541 96.54C125.154 96.8333 125.647 97.2667 126.021 97.84C126.461 97.28 127.014 96.8467 127.681 96.54C128.361 96.2333 129.101 96.08 129.901 96.08ZM142.38 104.66C142.94 104.66 143.433 104.58 143.86 104.42C144.3 104.247 144.706 103.98 145.08 103.62L146.74 105.42C145.726 106.58 144.246 107.16 142.3 107.16C141.086 107.16 140.013 106.927 139.08 106.46C138.146 105.98 137.426 105.32 136.92 104.48C136.413 103.64 136.16 102.687 136.16 101.62C136.16 100.567 136.406 99.62 136.9 98.78C137.406 97.9267 138.093 97.2667 138.96 96.8C139.84 96.32 140.826 96.08 141.92 96.08C142.946 96.08 143.88 96.3 144.72 96.74C145.56 97.1667 146.226 97.7933 146.72 98.62C147.226 99.4333 147.48 100.4 147.48 101.52L139.52 103.06C139.746 103.593 140.1 103.993 140.58 104.26C141.073 104.527 141.673 104.66 142.38 104.66ZM141.92 98.44C141.133 98.44 140.493 98.6933 140 99.2C139.506 99.7067 139.246 100.407 139.22 101.3L144.46 100.28C144.313 99.72 144.013 99.2733 143.56 98.94C143.106 98.6067 142.56 98.44 141.92 98.44ZM154.377 102.92H152.757V107H149.637V96.24H152.757V100.42H154.437L157.357 96.24H160.677L156.917 101.4L160.937 107H157.257L154.377 102.92ZM103.26 120.08C104.607 120.08 105.673 120.48 106.46 121.28C107.26 122.067 107.66 123.253 107.66 124.84V131H104.54V125.32C104.54 124.467 104.36 123.833 104 123.42C103.653 122.993 103.153 122.78 102.5 122.78C101.767 122.78 101.187 123.02 100.76 123.5C100.333 123.967 100.12 124.667 100.12 125.6V131H97V125.32C97 123.627 96.32 122.78 94.96 122.78C94.24 122.78 93.6667 123.02 93.24 123.5C92.8133 123.967 92.6 124.667 92.6 125.6V131H89.48V120.24H92.46V121.48C92.86 121.027 93.3467 120.68 93.92 120.44C94.5067 120.2 95.1467 120.08 95.84 120.08C96.6 120.08 97.2867 120.233 97.9 120.54C98.5133 120.833 99.0067 121.267 99.38 121.84C99.82 121.28 100.373 120.847 101.04 120.54C101.72 120.233 102.46 120.08 103.26 120.08ZM115.739 128.66C116.299 128.66 116.792 128.58 117.219 128.42C117.659 128.247 118.066 127.98 118.439 127.62L120.099 129.42C119.086 130.58 117.606 131.16 115.659 131.16C114.446 131.16 113.372 130.927 112.439 130.46C111.506 129.98 110.786 129.32 110.279 128.48C109.772 127.64 109.519 126.687 109.519 125.62C109.519 124.567 109.766 123.62 110.259 122.78C110.766 121.927 111.452 121.267 112.319 120.8C113.199 120.32 114.186 120.08 115.279 120.08C116.306 120.08 117.239 120.3 118.079 120.74C118.919 121.167 119.586 121.793 120.079 122.62C120.586 123.433 120.839 124.4 120.839 125.52L112.879 127.06C113.106 127.593 113.459 127.993 113.939 128.26C114.432 128.527 115.032 128.66 115.739 128.66ZM115.279 122.44C114.492 122.44 113.852 122.693 113.359 123.2C112.866 123.707 112.606 124.407 112.579 125.3L117.819 124.28C117.672 123.72 117.372 123.273 116.919 122.94C116.466 122.607 115.919 122.44 115.279 122.44ZM129.463 131L127.103 127.7L124.663 131H121.263L125.403 125.58L121.403 120.24H124.903L127.183 123.38L129.523 120.24H132.843L128.843 125.5L133.003 131H129.463ZM134.539 120.24H137.639V124.44H142.319V120.24H145.439V131H142.319V126.98H137.639V131H134.539V120.24ZM153.466 131.16C152.332 131.16 151.312 130.927 150.406 130.46C149.512 129.98 148.812 129.32 148.306 128.48C147.799 127.64 147.546 126.687 147.546 125.62C147.546 124.553 147.799 123.6 148.306 122.76C148.812 121.92 149.512 121.267 150.406 120.8C151.312 120.32 152.332 120.08 153.466 120.08C154.599 120.08 155.612 120.32 156.506 120.8C157.399 121.267 158.099 121.92 158.606 122.76C159.112 123.6 159.366 124.553 159.366 125.62C159.366 126.687 159.112 127.64 158.606 128.48C158.099 129.32 157.399 129.98 156.506 130.46C155.612 130.927 154.599 131.16 153.466 131.16ZM153.466 128.6C154.266 128.6 154.919 128.333 155.426 127.8C155.946 127.253 156.206 126.527 156.206 125.62C156.206 124.713 155.946 123.993 155.426 123.46C154.919 122.913 154.266 122.64 153.466 122.64C152.666 122.64 152.006 122.913 151.486 123.46C150.966 123.993 150.706 124.713 150.706 125.62C150.706 126.527 150.966 127.253 151.486 127.8C152.006 128.333 152.666 128.6 153.466 128.6ZM171.675 120.24V131H168.555V122.8H165.155L165.055 124.7C165.002 126.113 164.869 127.287 164.655 128.22C164.442 129.153 164.095 129.887 163.615 130.42C163.135 130.953 162.469 131.22 161.615 131.22C161.162 131.22 160.622 131.14 159.995 130.98L160.155 128.42C160.369 128.447 160.522 128.46 160.615 128.46C161.082 128.46 161.429 128.293 161.655 127.96C161.895 127.613 162.055 127.18 162.135 126.66C162.215 126.127 162.275 125.427 162.315 124.56L162.475 120.24H171.675ZM179.716 131.16C178.582 131.16 177.562 130.927 176.656 130.46C175.762 129.98 175.062 129.32 174.556 128.48C174.049 127.64 173.796 126.687 173.796 125.62C173.796 124.553 174.049 123.6 174.556 122.76C175.062 121.92 175.762 121.267 176.656 120.8C177.562 120.32 178.582 120.08 179.716 120.08C180.849 120.08 181.862 120.32 182.756 120.8C183.649 121.267 184.349 121.92 184.856 122.76C185.362 123.6 185.616 124.553 185.616 125.62C185.616 126.687 185.362 127.64 184.856 128.48C184.349 129.32 183.649 129.98 182.756 130.46C181.862 130.927 180.849 131.16 179.716 131.16ZM179.716 128.6C180.516 128.6 181.169 128.333 181.676 127.8C182.196 127.253 182.456 126.527 182.456 125.62C182.456 124.713 182.196 123.993 181.676 123.46C181.169 122.913 180.516 122.64 179.716 122.64C178.916 122.64 178.256 122.913 177.736 123.46C177.216 123.993 176.956 124.713 176.956 125.62C176.956 126.527 177.216 127.253 177.736 127.8C178.256 128.333 178.916 128.6 179.716 128.6ZM196.382 122.8H190.862V131H187.762V120.24H196.382V122.8ZM208.655 120.24V131H205.675V129.74C205.275 130.207 204.782 130.56 204.195 130.8C203.622 131.04 203.008 131.16 202.355 131.16C200.942 131.16 199.815 130.753 198.975 129.94C198.148 129.127 197.735 127.92 197.735 126.32V120.24H200.855V125.86C200.855 127.593 201.582 128.46 203.035 128.46C203.795 128.46 204.402 128.22 204.855 127.74C205.308 127.247 205.535 126.52 205.535 125.56V120.24H208.655ZM222.249 120.24V131H219.269V129.74C218.869 130.207 218.376 130.56 217.789 130.8C217.216 131.04 216.602 131.16 215.949 131.16C214.536 131.16 213.409 130.753 212.569 129.94C211.742 129.127 211.329 127.92 211.329 126.32V120.24H214.449V125.86C214.449 127.593 215.176 128.46 216.629 128.46C217.389 128.46 217.996 128.22 218.449 127.74C218.902 127.247 219.129 126.52 219.129 125.56V120.24H222.249ZM216.709 119.08C214.362 119.08 213.182 118.047 213.169 115.98H215.209C215.222 116.447 215.349 116.813 215.589 117.08C215.842 117.333 216.209 117.46 216.689 117.46C217.169 117.46 217.536 117.333 217.789 117.08C218.056 116.813 218.189 116.447 218.189 115.98H220.269C220.256 118.047 219.069 119.08 216.709 119.08Z" fill="white"/>
<g clip-path="url(#clip0)">
<path d="M74.869 191.2C71.5747 191.508 68.1556 191.323 64.913 192.041C61.9762 192.78 59.1242 193.81 56.3993 195.115C50.9399 197.623 45.7597 200.685 40.9402 204.251C36.1728 207.727 31.6777 211.556 27.4924 215.705C22.9977 220.174 19.275 225.428 18.2897 231.812C18.0709 233.19 15.938 232.623 16.1688 231.252C18.1731 219.051 29.6995 210.217 39.0902 203.334C44.2612 199.506 49.897 196.336 55.8682 193.898C58.8554 192.58 61.9897 191.613 65.2084 191.015C68.3945 190.535 71.6274 190.778 74.8669 190.621C75.2436 190.593 75.2431 191.163 74.869 191.2Z" fill="#38B9C6"/>
<path d="M25.6413 208.072C24.6022 212.175 24.4662 216.769 23.7472 220.97C23.3778 222.998 23.3536 225.343 22.7027 227.304C22.1751 228.884 20.955 230.483 20.1252 231.921L18.7298 230.521C23.2096 228.174 27.142 224.68 31.2456 221.736C33.4569 220.154 36.3808 217.574 39.3623 217.878C39.5754 217.88 39.7815 217.958 39.9422 218.099C40.1029 218.24 40.2072 218.433 40.2358 218.643C40.2644 218.854 40.2153 219.066 40.0976 219.242C39.9798 219.417 39.8016 219.543 39.596 219.597C31.9778 222.008 26.7182 228.648 19.7479 232.297C19.5535 232.398 19.3309 232.434 19.1129 232.4C18.8948 232.366 18.6927 232.264 18.5363 232.108C18.3798 231.952 18.2772 231.751 18.2435 231.534C18.2098 231.317 18.2468 231.096 18.349 230.903C19.3125 229.234 20.5369 227.558 21.1012 225.706C21.7212 223.688 22.0106 221.48 22.5044 219.389C23.3738 215.607 23.7402 211.559 24.9546 207.873C24.9912 207.798 25.0529 207.738 25.1294 207.703C25.2059 207.668 25.2924 207.66 25.3743 207.682C25.4563 207.703 25.5286 207.752 25.5792 207.819C25.6297 207.887 25.6552 207.97 25.6516 208.054L25.6413 208.072Z" fill="#38B9C6"/>
</g>
<defs>
<clipPath id="clip0">
<rect width="66.2097" height="38.54" fill="white" transform="matrix(-0.5 0.866025 0.866025 0.5 42.1055 171)"/>
</clipPath>
</defs>
</svg>
