<svg width="342" height="99" viewBox="0 0 342 99" fill="none" xmlns="http://www.w3.org/2000/svg">
<path d="M126.844 8.46107C114.509 9.38392 101.86 9.15294 89.5241 10.3481C78.3868 11.4007 67.5321 13.0668 57.108 15.3238C37.6471 19.6094 17.1039 26.2963 6.35134 36.7334C-3.02823 45.8072 1.47833 56.3771 17.1435 63.3039C26.0386 67.2434 36.4836 68.9871 46.8579 70.8669C59.4023 73.0948 72.2497 74.4996 85.1409 75.0532C112.737 76.2966 140.234 75.539 166.969 72.7985C190.651 70.3892 215.406 66.6944 235.265 59.3136C250.978 53.5158 265.476 43.1581 249.243 32.4772C235.24 23.3002 209.462 19.6522 190.143 17.0556C161.114 13.1048 130.881 12.4968 101.981 14.1004C79.3475 15.3721 51.9653 17.9598 39.2389 29.4583C38.1054 30.4675 40.6377 31.8412 42.2409 31.0024C56.9654 23.4366 72.9115 19.8246 93.0041 18.2863C115.303 16.6094 138.091 16.5373 160.846 18.0716C182.455 19.5125 204.556 22.2329 225.008 27.2482C233.402 29.3101 242.478 32.1008 247.66 36.675C256.169 44.2466 245.964 50.9475 236.289 55.1506C219.409 62.483 197.841 66.2745 177.048 69.0781C154.204 72.0202 130.689 73.5342 106.902 73.5944C84.0109 73.854 60.9147 71.9196 38.5694 67.8712C17.7574 64.1339 -3.69838 53.6843 5.0881 40.5208C13.138 28.462 36.4148 20.7091 56.3478 16.0667C67.0057 13.6135 78.144 11.7879 89.6001 10.6167C101.397 9.37842 114.716 8.07856 126.914 8.81713C126.955 8.81626 126.995 8.81078 127.03 8.80103C127.066 8.79127 127.098 8.77742 127.124 8.76027C127.149 8.74311 127.168 8.723 127.179 8.70106C127.191 8.67913 127.194 8.6558 127.19 8.63242C127.185 8.60905 127.172 8.58607 127.152 8.5648C127.133 8.54354 127.106 8.52441 127.074 8.50849C127.042 8.49258 127.005 8.48021 126.965 8.47207C126.926 8.46393 126.885 8.4602 126.844 8.46107Z" fill="#0083C7"/>
<g clip-path="url(#clip0)">
<path d="M275.613 42.2005C278.908 42.5077 282.327 42.3233 285.569 43.0405C288.506 43.7797 291.358 44.8096 294.083 46.1149C299.543 48.6232 304.723 51.6848 309.542 55.2515C314.31 58.7274 318.805 62.5561 322.99 66.7054C327.485 71.1736 331.207 76.428 332.193 82.8116C332.412 84.1897 334.544 83.6234 334.314 82.2522C332.309 70.051 320.783 61.2173 311.392 54.3338C306.221 50.506 300.585 47.3363 294.614 44.8976C291.627 43.5801 288.493 42.6129 285.274 42.0154C282.088 41.5348 278.855 41.778 275.616 41.6212C275.239 41.5933 275.239 42.1631 275.613 42.2005Z" fill="#0083C7"/>
<path d="M324.841 59.0717C325.88 63.1753 326.016 67.7687 326.735 71.97C327.105 73.9977 327.129 76.3434 327.78 78.3035C328.307 79.8835 329.527 81.4833 330.357 82.9205L331.753 81.521C327.273 79.1742 323.34 75.68 319.237 72.7359C317.025 71.1541 314.102 68.5741 311.12 68.8781C310.907 68.8796 310.701 68.958 310.54 69.0988C310.38 69.2396 310.275 69.4331 310.247 69.6433C310.218 69.8535 310.267 70.0661 310.385 70.2415C310.503 70.4169 310.681 70.5431 310.886 70.5967C318.505 73.0082 323.764 79.6479 330.735 83.2965C330.929 83.3978 331.151 83.4341 331.37 83.4001C331.588 83.3661 331.79 83.2637 331.946 83.1078C332.103 82.9519 332.205 82.7508 332.239 82.534C332.273 82.3171 332.236 82.096 332.133 81.9029C331.17 80.2341 329.946 78.5576 329.381 76.7058C328.761 74.6882 328.472 72.4798 327.978 70.3894C327.109 66.6075 326.742 62.5589 325.528 58.8732C325.491 58.7979 325.43 58.7377 325.353 58.7027C325.277 58.6678 325.19 58.6604 325.108 58.6816C325.026 58.7029 324.954 58.7515 324.903 58.8193C324.853 58.8872 324.827 58.97 324.831 59.0539L324.841 59.0717Z" fill="#0083C7"/>
</g>
<path d="M33.5486 38.832H37.3406C38.3006 38.832 39.0526 39.0933 39.5966 39.616C40.1406 40.1387 40.4126 40.8373 40.4126 41.712C40.4126 42.384 40.2473 42.912 39.9166 43.296C39.5966 43.68 39.1806 43.952 38.6686 44.112V44.16C39.298 44.3093 39.8153 44.592 40.2206 45.008C40.626 45.4133 40.8286 46.0053 40.8286 46.784C40.8286 47.232 40.754 47.6533 40.6046 48.048C40.4553 48.4427 40.242 48.784 39.9646 49.072C39.698 49.36 39.378 49.5893 39.0046 49.76C38.642 49.92 38.2473 50 37.8206 50H33.5486V38.832ZM37.4206 48.832C38.0393 48.832 38.5246 48.6933 38.8766 48.416C39.2286 48.1387 39.4046 47.712 39.4046 47.136V46.48C39.4046 45.9147 39.2286 45.4933 38.8766 45.216C38.5246 44.928 38.0393 44.784 37.4206 44.784H34.8926V48.832H37.4206ZM37.1966 43.68C37.762 43.68 38.2046 43.5573 38.5246 43.312C38.8446 43.056 39.0046 42.672 39.0046 42.16V41.536C39.0046 41.024 38.8446 40.64 38.5246 40.384C38.2046 40.128 37.762 40 37.1966 40H34.8926V43.68H37.1966ZM49.6544 50C49.153 50 48.7957 49.872 48.5824 49.616C48.369 49.36 48.2357 49.04 48.1824 48.656H48.1024C47.921 49.136 47.6277 49.5147 47.2224 49.792C46.8277 50.0587 46.2944 50.192 45.6224 50.192C44.7584 50.192 44.0704 49.968 43.5584 49.52C43.0464 49.072 42.7904 48.4587 42.7904 47.68C42.7904 46.912 43.0677 46.32 43.6224 45.904C44.1877 45.488 45.0944 45.28 46.3424 45.28H48.1024V44.464C48.1024 43.856 47.9317 43.4027 47.5904 43.104C47.249 42.7947 46.7637 42.64 46.1344 42.64C45.5797 42.64 45.1264 42.752 44.7744 42.976C44.4224 43.1893 44.1397 43.4827 43.9264 43.856L43.0624 43.216C43.169 43.0027 43.313 42.7947 43.4944 42.592C43.6757 42.3893 43.8997 42.2133 44.1664 42.064C44.433 41.904 44.737 41.7813 45.0784 41.696C45.4197 41.6 45.7984 41.552 46.2144 41.552C47.185 41.552 47.953 41.7973 48.5184 42.288C49.0944 42.7787 49.3824 43.4613 49.3824 44.336V48.88H50.5344V50H49.6544ZM45.8464 49.12C46.177 49.12 46.4757 49.0827 46.7424 49.008C47.0197 48.9227 47.2597 48.816 47.4624 48.688C47.665 48.5493 47.8197 48.3893 47.9264 48.208C48.0437 48.016 48.1024 47.8133 48.1024 47.6V46.24H46.3424C45.5744 46.24 45.0144 46.3467 44.6624 46.56C44.3104 46.7733 44.1344 47.0827 44.1344 47.488V47.824C44.1344 48.2507 44.2837 48.576 44.5824 48.8C44.8917 49.0133 45.313 49.12 45.8464 49.12ZM56.4161 50.192C55.8188 50.192 55.2855 50.0907 54.8161 49.888C54.3575 49.6747 53.9681 49.3813 53.6481 49.008C53.3281 48.6347 53.0828 48.1813 52.9121 47.648C52.7521 47.1147 52.6721 46.5227 52.6721 45.872C52.6721 45.2213 52.7575 44.6293 52.9281 44.096C53.0988 43.5627 53.3441 43.1093 53.6641 42.736C53.9841 42.352 54.3735 42.0587 54.8321 41.856C55.2908 41.6533 55.8135 41.552 56.4001 41.552C57.2001 41.552 57.8508 41.728 58.3521 42.08C58.8535 42.432 59.2215 42.8907 59.4561 43.456L58.4321 44C58.2828 43.5733 58.0321 43.2427 57.6801 43.008C57.3388 42.7733 56.9121 42.656 56.4001 42.656C56.0268 42.656 55.6908 42.72 55.3921 42.848C55.1041 42.9653 54.8588 43.136 54.6561 43.36C54.4535 43.584 54.2988 43.8507 54.1921 44.16C54.0961 44.4693 54.0481 44.8053 54.0481 45.168V46.576C54.0481 46.9387 54.0961 47.2747 54.1921 47.584C54.2988 47.8933 54.4535 48.16 54.6561 48.384C54.8588 48.608 55.1095 48.784 55.4081 48.912C55.7068 49.0293 56.0481 49.088 56.4321 49.088C56.9868 49.088 57.4455 48.96 57.8081 48.704C58.1708 48.448 58.4588 48.096 58.6721 47.648L59.5841 48.272C59.3388 48.8267 58.9548 49.2853 58.4321 49.648C57.9201 50.0107 57.2481 50.192 56.4161 50.192ZM62.6019 38.16H63.8819V45.632H63.9459L65.3859 44.272L68.1379 41.744H69.7059L66.2819 44.976L70.1059 50H68.5219L65.3059 45.712L63.8819 47.008V50H62.6019V38.16ZM75.4596 50.192C74.8623 50.192 74.3236 50.0907 73.8436 49.888C73.3743 49.6853 72.969 49.3973 72.6276 49.024C72.297 48.64 72.041 48.1867 71.8596 47.664C71.6783 47.1307 71.5876 46.5387 71.5876 45.888C71.5876 45.2267 71.6783 44.6293 71.8596 44.096C72.0516 43.5627 72.313 43.1093 72.6436 42.736C72.9743 42.352 73.369 42.0587 73.8276 41.856C74.297 41.6533 74.8143 41.552 75.3796 41.552C75.9343 41.552 76.4356 41.6533 76.8836 41.856C77.3423 42.0587 77.7316 42.3413 78.0516 42.704C78.3716 43.056 78.617 43.4773 78.7876 43.968C78.9583 44.4587 79.0436 44.9973 79.0436 45.584V46.192H72.9316V46.576C72.9316 46.9387 72.9903 47.2747 73.1076 47.584C73.225 47.8933 73.3903 48.16 73.6036 48.384C73.8276 48.608 74.0943 48.784 74.4036 48.912C74.7236 49.0293 75.0756 49.088 75.4596 49.088C76.0143 49.088 76.4943 48.96 76.8996 48.704C77.305 48.448 77.6143 48.096 77.8276 47.648L78.7716 48.288C78.5263 48.8427 78.1156 49.3013 77.5396 49.664C76.9743 50.016 76.281 50.192 75.4596 50.192ZM75.3796 42.608C75.0276 42.608 74.7023 42.672 74.4036 42.8C74.105 42.928 73.8436 43.104 73.6196 43.328C73.4063 43.552 73.2356 43.8187 73.1076 44.128C72.9903 44.4267 72.9316 44.7573 72.9316 45.12V45.232H77.6676V45.056C77.6676 44.6933 77.609 44.3627 77.4916 44.064C77.385 43.7653 77.2303 43.5093 77.0276 43.296C76.8356 43.072 76.5956 42.9013 76.3076 42.784C76.0303 42.6667 75.721 42.608 75.3796 42.608ZM81.6774 50V41.744H82.9574V43.088H83.0214C83.1067 42.8853 83.2134 42.6933 83.3414 42.512C83.4694 42.32 83.624 42.1547 83.8054 42.016C83.9974 41.8773 84.2214 41.7653 84.4774 41.68C84.7334 41.5947 85.032 41.552 85.3734 41.552C86.2374 41.552 86.9307 41.8293 87.4534 42.384C87.976 42.928 88.2374 43.7013 88.2374 44.704V50H86.9574V44.928C86.9574 44.1707 86.792 43.6107 86.4614 43.248C86.1307 42.8747 85.6454 42.688 85.0054 42.688C84.7494 42.688 84.4987 42.72 84.2534 42.784C84.008 42.848 83.7894 42.944 83.5974 43.072C83.4054 43.2 83.2507 43.3653 83.1334 43.568C83.016 43.7707 82.9574 44.0053 82.9574 44.272V50H81.6774ZM96.5031 48.656H96.4391C95.9058 49.68 95.0578 50.192 93.8951 50.192C92.8818 50.192 92.0871 49.8133 91.5111 49.056C90.9458 48.2987 90.6631 47.2373 90.6631 45.872C90.6631 44.5067 90.9458 43.4453 91.5111 42.688C92.0871 41.9307 92.8818 41.552 93.8951 41.552C95.0578 41.552 95.9058 42.064 96.4391 43.088H96.5031V38.16H97.7831V50H96.5031V48.656ZM94.3911 49.056C94.6791 49.056 94.9511 49.0187 95.2071 48.944C95.4631 48.8693 95.6871 48.7627 95.8791 48.624C96.0711 48.4747 96.2205 48.2987 96.3271 48.096C96.4445 47.8827 96.5031 47.6373 96.5031 47.36V44.384C96.5031 44.1067 96.4445 43.8667 96.3271 43.664C96.2205 43.4507 96.0711 43.2747 95.8791 43.136C95.6871 42.9867 95.4631 42.8747 95.2071 42.8C94.9511 42.7253 94.6791 42.688 94.3911 42.688C93.6445 42.688 93.0631 42.9173 92.6471 43.376C92.2418 43.824 92.0391 44.4213 92.0391 45.168V46.576C92.0391 47.3227 92.2418 47.9253 92.6471 48.384C93.0631 48.832 93.6445 49.056 94.3911 49.056ZM110.411 41.744H111.691V43.088H111.755C112.288 42.064 113.136 41.552 114.299 41.552C115.312 41.552 116.101 41.9307 116.667 42.688C117.243 43.4453 117.531 44.5067 117.531 45.872C117.531 47.2373 117.243 48.2987 116.667 49.056C116.101 49.8133 115.312 50.192 114.299 50.192C113.136 50.192 112.288 49.68 111.755 48.656H111.691V53.2H110.411V41.744ZM113.803 49.056C114.549 49.056 115.125 48.832 115.531 48.384C115.947 47.9253 116.155 47.3227 116.155 46.576V45.168C116.155 44.4213 115.947 43.824 115.531 43.376C115.125 42.9173 114.549 42.688 113.803 42.688C113.515 42.688 113.243 42.7253 112.987 42.8C112.731 42.8747 112.507 42.9867 112.315 43.136C112.123 43.2747 111.968 43.4507 111.851 43.664C111.744 43.8667 111.691 44.1067 111.691 44.384V47.36C111.691 47.6373 111.744 47.8827 111.851 48.096C111.968 48.2987 112.123 48.4747 112.315 48.624C112.507 48.7627 112.731 48.8693 112.987 48.944C113.243 49.0187 113.515 49.056 113.803 49.056ZM126.404 50C125.903 50 125.546 49.872 125.332 49.616C125.119 49.36 124.986 49.04 124.932 48.656H124.852C124.671 49.136 124.378 49.5147 123.972 49.792C123.578 50.0587 123.044 50.192 122.372 50.192C121.508 50.192 120.82 49.968 120.308 49.52C119.796 49.072 119.54 48.4587 119.54 47.68C119.54 46.912 119.818 46.32 120.372 45.904C120.938 45.488 121.844 45.28 123.092 45.28H124.852V44.464C124.852 43.856 124.682 43.4027 124.34 43.104C123.999 42.7947 123.514 42.64 122.884 42.64C122.33 42.64 121.876 42.752 121.524 42.976C121.172 43.1893 120.89 43.4827 120.676 43.856L119.812 43.216C119.919 43.0027 120.063 42.7947 120.244 42.592C120.426 42.3893 120.65 42.2133 120.916 42.064C121.183 41.904 121.487 41.7813 121.828 41.696C122.17 41.6 122.548 41.552 122.964 41.552C123.935 41.552 124.703 41.7973 125.268 42.288C125.844 42.7787 126.132 43.4613 126.132 44.336V48.88H127.284V50H126.404ZM122.596 49.12C122.927 49.12 123.226 49.0827 123.492 49.008C123.77 48.9227 124.01 48.816 124.212 48.688C124.415 48.5493 124.57 48.3893 124.676 48.208C124.794 48.016 124.852 47.8133 124.852 47.6V46.24H123.092C122.324 46.24 121.764 46.3467 121.412 46.56C121.06 46.7733 120.884 47.0827 120.884 47.488V47.824C120.884 48.2507 121.034 48.576 121.332 48.8C121.642 49.0133 122.063 49.12 122.596 49.12ZM132.542 50.192C131.689 50.192 130.979 50.0533 130.414 49.776C129.859 49.4987 129.406 49.104 129.054 48.592L129.998 47.824C130.254 48.2293 130.59 48.544 131.006 48.768C131.422 48.9813 131.934 49.088 132.542 49.088C133.31 49.088 133.865 48.9653 134.206 48.72C134.547 48.4747 134.718 48.16 134.718 47.776V47.552C134.718 47.136 134.579 46.8213 134.302 46.608C134.035 46.384 133.646 46.272 133.134 46.272H130.91V45.2H132.974C134.019 45.2 134.542 44.8107 134.542 44.032V43.84C134.542 43.488 134.393 43.2053 134.094 42.992C133.806 42.768 133.299 42.656 132.574 42.656C131.934 42.656 131.417 42.7627 131.022 42.976C130.638 43.1893 130.323 43.488 130.078 43.872L129.182 43.264C129.555 42.72 130.009 42.2987 130.542 42C131.075 41.7013 131.774 41.552 132.638 41.552C133.737 41.552 134.553 41.7493 135.086 42.144C135.63 42.5387 135.902 43.0827 135.902 43.776C135.902 44.288 135.769 44.6933 135.502 44.992C135.235 45.2907 134.862 45.4987 134.382 45.616V45.68C134.937 45.7653 135.358 45.9787 135.646 46.32C135.934 46.6507 136.078 47.0773 136.078 47.6C136.078 48.4 135.769 49.0347 135.15 49.504C134.542 49.9627 133.673 50.192 132.542 50.192ZM139.192 41.744H140.472V43.088H140.536C141.069 42.064 141.917 41.552 143.08 41.552C144.093 41.552 144.883 41.9307 145.448 42.688C146.024 43.4453 146.312 44.5067 146.312 45.872C146.312 47.2373 146.024 48.2987 145.448 49.056C144.883 49.8133 144.093 50.192 143.08 50.192C141.917 50.192 141.069 49.68 140.536 48.656H140.472V53.2H139.192V41.744ZM142.584 49.056C143.331 49.056 143.907 48.832 144.312 48.384C144.728 47.9253 144.936 47.3227 144.936 46.576V45.168C144.936 44.4213 144.728 43.824 144.312 43.376C143.907 42.9173 143.331 42.688 142.584 42.688C142.296 42.688 142.024 42.7253 141.768 42.8C141.512 42.8747 141.288 42.9867 141.096 43.136C140.904 43.2747 140.749 43.4507 140.632 43.664C140.525 43.8667 140.472 44.1067 140.472 44.384V47.36C140.472 47.6373 140.525 47.8827 140.632 48.096C140.749 48.2987 140.904 48.4747 141.096 48.624C141.288 48.7627 141.512 48.8693 141.768 48.944C142.024 49.0187 142.296 49.056 142.584 49.056ZM155.186 50C154.684 50 154.327 49.872 154.114 49.616C153.9 49.36 153.767 49.04 153.714 48.656H153.634C153.452 49.136 153.159 49.5147 152.754 49.792C152.359 50.0587 151.826 50.192 151.154 50.192C150.29 50.192 149.602 49.968 149.09 49.52C148.578 49.072 148.322 48.4587 148.322 47.68C148.322 46.912 148.599 46.32 149.154 45.904C149.719 45.488 150.626 45.28 151.874 45.28H153.634V44.464C153.634 43.856 153.463 43.4027 153.122 43.104C152.78 42.7947 152.295 42.64 151.666 42.64C151.111 42.64 150.658 42.752 150.306 42.976C149.954 43.1893 149.671 43.4827 149.458 43.856L148.594 43.216C148.7 43.0027 148.844 42.7947 149.026 42.592C149.207 42.3893 149.431 42.2133 149.698 42.064C149.964 41.904 150.268 41.7813 150.61 41.696C150.951 41.6 151.33 41.552 151.746 41.552C152.716 41.552 153.484 41.7973 154.05 42.288C154.626 42.7787 154.914 43.4613 154.914 44.336V48.88H156.066V50H155.186ZM151.378 49.12C151.708 49.12 152.007 49.0827 152.274 49.008C152.551 48.9227 152.791 48.816 152.994 48.688C153.196 48.5493 153.351 48.3893 153.458 48.208C153.575 48.016 153.634 47.8133 153.634 47.6V46.24H151.874C151.106 46.24 150.546 46.3467 150.194 46.56C149.842 46.7733 149.666 47.0827 149.666 47.488V47.824C149.666 48.2507 149.815 48.576 150.114 48.8C150.423 49.0133 150.844 49.12 151.378 49.12ZM161.675 50.192C161.121 50.192 160.614 50.0907 160.155 49.888C159.707 49.6853 159.318 49.376 158.987 48.96C158.667 48.544 158.417 48.0213 158.235 47.392C158.054 46.752 157.963 45.9947 157.963 45.12C157.963 43.904 158.043 42.8693 158.203 42.016C158.374 41.1627 158.63 40.4587 158.971 39.904C159.323 39.3493 159.766 38.9387 160.299 38.672C160.843 38.4053 161.489 38.2453 162.235 38.192L164.763 38.032V39.296L162.107 39.472C161.649 39.504 161.254 39.5893 160.923 39.728C160.603 39.8667 160.331 40.0907 160.107 40.4C159.894 40.6987 159.723 41.0933 159.595 41.584C159.467 42.0747 159.371 42.688 159.307 43.424H159.387C159.611 42.8907 159.926 42.48 160.331 42.192C160.737 41.8933 161.243 41.744 161.851 41.744C162.374 41.744 162.854 41.84 163.291 42.032C163.729 42.224 164.102 42.5013 164.411 42.864C164.721 43.216 164.961 43.6587 165.131 44.192C165.313 44.7147 165.403 45.312 165.403 45.984C165.403 46.6133 165.313 47.184 165.131 47.696C164.95 48.208 164.694 48.6507 164.363 49.024C164.033 49.3973 163.638 49.6853 163.179 49.888C162.731 50.0907 162.23 50.192 161.675 50.192ZM161.675 49.088C162.369 49.088 162.934 48.8747 163.371 48.448C163.819 48.0107 164.043 47.376 164.043 46.544V45.536C164.043 44.64 163.825 43.968 163.387 43.52C162.961 43.072 162.401 42.848 161.707 42.848C160.897 42.848 160.294 43.0453 159.899 43.44C159.515 43.824 159.323 44.32 159.323 44.928V46.544C159.323 47.376 159.537 48.0107 159.963 48.448C160.401 48.8747 160.971 49.088 161.675 49.088ZM171.253 50.192C170.677 50.192 170.154 50.0907 169.685 49.888C169.226 49.6853 168.832 49.3973 168.501 49.024C168.181 48.64 167.936 48.1867 167.765 47.664C167.594 47.1307 167.509 46.5333 167.509 45.872C167.509 45.2213 167.594 44.6293 167.765 44.096C167.936 43.5627 168.181 43.1093 168.501 42.736C168.832 42.352 169.226 42.0587 169.685 41.856C170.154 41.6533 170.677 41.552 171.253 41.552C171.829 41.552 172.346 41.6533 172.805 41.856C173.274 42.0587 173.669 42.352 173.989 42.736C174.32 43.1093 174.57 43.5627 174.741 44.096C174.912 44.6293 174.997 45.2213 174.997 45.872C174.997 46.5333 174.912 47.1307 174.741 47.664C174.57 48.1867 174.32 48.64 173.989 49.024C173.669 49.3973 173.274 49.6853 172.805 49.888C172.346 50.0907 171.829 50.192 171.253 50.192ZM171.253 49.088C171.968 49.088 172.544 48.8747 172.981 48.448C173.418 48.0213 173.637 47.36 173.637 46.464V45.28C173.637 44.384 173.418 43.7227 172.981 43.296C172.544 42.8693 171.968 42.656 171.253 42.656C170.538 42.656 169.962 42.8693 169.525 43.296C169.088 43.7227 168.869 44.384 168.869 45.28V46.464C168.869 47.36 169.088 48.0213 169.525 48.448C169.962 48.8747 170.538 49.088 171.253 49.088ZM180.207 42.832H177.167V41.744H184.527V42.832H181.487V50H180.207V42.832ZM192.201 46.208H192.121C191.822 46.5387 191.481 46.7893 191.097 46.96C190.723 47.12 190.243 47.2 189.657 47.2C188.761 47.2 188.078 46.992 187.609 46.576C187.15 46.1493 186.921 45.5093 186.921 44.656V41.744H188.201V44.544C188.201 45.056 188.345 45.4347 188.633 45.68C188.921 45.9253 189.39 46.048 190.041 46.048C190.681 46.048 191.198 45.968 191.593 45.808C191.998 45.6373 192.201 45.3813 192.201 45.04V41.744H193.481V50H192.201V46.208ZM196.754 41.744H198.034V45.952L197.906 48.064H197.97L202.114 41.744H203.314V50H202.034V45.792L202.162 43.68H202.098L197.954 50H196.754V41.744ZM206.54 41.744H207.82V45.2H209.58L211.804 41.744H213.132L211.116 44.88C210.935 45.1573 210.775 45.3547 210.636 45.472C210.497 45.5787 210.332 45.6587 210.14 45.712V45.776C210.353 45.808 210.535 45.8827 210.684 46C210.833 46.1067 210.988 46.2987 211.148 46.576L212.492 48.912H213.42V50H212.492C212.215 50 211.975 49.9253 211.772 49.776C211.569 49.6267 211.367 49.3813 211.164 49.04L209.58 46.288H207.82V50H206.54V41.744Z" fill="white"/>
<defs>
<clipPath id="clip0">
<rect width="66.2097" height="38.54" fill="white" transform="translate(308.377 22) rotate(60)"/>
</clipPath>
</defs>
</svg>
