<svg width="358" height="99" viewBox="0 0 358 99" fill="none" xmlns="http://www.w3.org/2000/svg">
<g clip-path="url(#clip0)">
<path d="M291.613 42.2005C294.908 42.5077 298.327 42.3233 301.569 43.0405C304.506 43.7797 307.358 44.8096 310.083 46.1149C315.543 48.6232 320.723 51.6848 325.542 55.2515C330.31 58.7274 334.805 62.5561 338.99 66.7054C343.485 71.1736 347.207 76.428 348.193 82.8116C348.412 84.1897 350.544 83.6234 350.314 82.2522C348.309 70.051 336.783 61.2173 327.392 54.3338C322.221 50.506 316.585 47.3363 310.614 44.8976C307.627 43.5801 304.493 42.6129 301.274 42.0154C298.088 41.5348 294.855 41.778 291.616 41.6212C291.239 41.5933 291.239 42.1631 291.613 42.2005Z" fill="#38B9C6"/>
<path d="M340.841 59.0717C341.88 63.1753 342.016 67.7687 342.735 71.97C343.105 73.9977 343.129 76.3434 343.78 78.3035C344.307 79.8835 345.527 81.4833 346.357 82.9205L347.753 81.521C343.273 79.1742 339.34 75.68 335.237 72.7359C333.025 71.1541 330.102 68.5741 327.12 68.8781C326.907 68.8796 326.701 68.958 326.54 69.0988C326.38 69.2396 326.275 69.4331 326.247 69.6433C326.218 69.8535 326.267 70.0661 326.385 70.2415C326.503 70.4169 326.681 70.5431 326.886 70.5967C334.505 73.0082 339.764 79.6479 346.735 83.2965C346.929 83.3978 347.151 83.4341 347.37 83.4001C347.588 83.3661 347.79 83.2637 347.946 83.1078C348.103 82.9519 348.205 82.7508 348.239 82.534C348.273 82.3171 348.236 82.096 348.133 81.9029C347.17 80.2341 345.946 78.5576 345.381 76.7058C344.761 74.6882 344.472 72.4798 343.978 70.3894C343.109 66.6075 342.742 62.5589 341.528 58.8732C341.491 58.7979 341.43 58.7377 341.353 58.7027C341.277 58.6678 341.19 58.6604 341.108 58.6816C341.026 58.7029 340.954 58.7515 340.903 58.8193C340.853 58.8872 340.827 58.97 340.831 59.0539L340.841 59.0717Z" fill="#38B9C6"/>
</g>
<path d="M38.7623 47.9062V36.7382H45.8023V37.9062H40.1063V41.6662H45.3223V42.8342H40.1063V47.9062H38.7623ZM48.148 46.8182H50.564V40.7382H48.148V39.6502H51.844V41.7302H51.924C52.0947 41.0796 52.4147 40.5729 52.884 40.2102C53.364 39.8369 53.972 39.6502 54.708 39.6502H55.86V40.9302H54.308C53.572 40.9302 52.9747 41.1436 52.516 41.5702C52.068 41.9969 51.844 42.5569 51.844 43.2502V46.8182H55.044V47.9062H48.148V46.8182ZM61.3098 48.0983C60.7338 48.0983 60.2111 47.9969 59.7418 47.7942C59.2831 47.5916 58.8884 47.3036 58.5578 46.9302C58.2378 46.5462 57.9924 46.0929 57.8218 45.5702C57.6511 45.0369 57.5658 44.4396 57.5658 43.7782C57.5658 43.1276 57.6511 42.5356 57.8218 42.0022C57.9924 41.4689 58.2378 41.0156 58.5578 40.6422C58.8884 40.2582 59.2831 39.9649 59.7418 39.7622C60.2111 39.5596 60.7338 39.4583 61.3098 39.4583C61.8858 39.4583 62.4031 39.5596 62.8618 39.7622C63.3311 39.9649 63.7258 40.2582 64.0458 40.6422C64.3764 41.0156 64.6271 41.4689 64.7978 42.0022C64.9684 42.5356 65.0538 43.1276 65.0538 43.7782C65.0538 44.4396 64.9684 45.0369 64.7978 45.5702C64.6271 46.0929 64.3764 46.5462 64.0458 46.9302C63.7258 47.3036 63.3311 47.5916 62.8618 47.7942C62.4031 47.9969 61.8858 48.0983 61.3098 48.0983ZM61.3098 46.9942C62.0244 46.9942 62.6004 46.7809 63.0378 46.3542C63.4751 45.9276 63.6938 45.2662 63.6938 44.3702V43.1862C63.6938 42.2902 63.4751 41.6289 63.0378 41.2022C62.6004 40.7756 62.0244 40.5622 61.3098 40.5622C60.5951 40.5622 60.0191 40.7756 59.5818 41.2022C59.1444 41.6289 58.9258 42.2902 58.9258 43.1862V44.3702C58.9258 45.2662 59.1444 45.9276 59.5818 46.3542C60.0191 46.7809 60.5951 46.9942 61.3098 46.9942ZM67.6715 47.9062V39.6502H68.9515V40.9942H69.0155C69.1008 40.7916 69.2075 40.5996 69.3355 40.4182C69.4635 40.2262 69.6182 40.0609 69.7995 39.9222C69.9915 39.7836 70.2155 39.6716 70.4715 39.5862C70.7275 39.5009 71.0262 39.4583 71.3675 39.4583C72.2315 39.4583 72.9248 39.7356 73.4475 40.2902C73.9702 40.8342 74.2315 41.6076 74.2315 42.6102V47.9062H72.9515V42.8342C72.9515 42.0769 72.7862 41.5169 72.4555 41.1542C72.1248 40.7809 71.6395 40.5942 70.9995 40.5942C70.7435 40.5942 70.4928 40.6262 70.2475 40.6902C70.0022 40.7542 69.7835 40.8502 69.5915 40.9782C69.3995 41.1062 69.2448 41.2716 69.1275 41.4742C69.0102 41.6769 68.9515 41.9116 68.9515 42.1782V47.9062H67.6715ZM80.8973 47.9062C80.2679 47.9062 79.8039 47.7303 79.5053 47.3783C79.2173 47.0263 79.0733 46.5729 79.0733 46.0182V40.7382H76.3213V39.6502H78.3693C78.6466 39.6502 78.8386 39.5969 78.9453 39.4902C79.0626 39.3729 79.1213 39.1756 79.1213 38.8982V36.7382H80.3533V39.6502H84.1133V40.7382H80.3533V46.8182H84.1133V47.9062H80.8973ZM90.235 48.0983C89.6377 48.0983 89.099 47.9969 88.619 47.7942C88.1497 47.5916 87.7443 47.3036 87.403 46.9302C87.0723 46.5462 86.8163 46.0929 86.635 45.5702C86.4537 45.0369 86.363 44.4449 86.363 43.7943C86.363 43.1329 86.4537 42.5356 86.635 42.0022C86.827 41.4689 87.0883 41.0156 87.419 40.6422C87.7497 40.2582 88.1443 39.9649 88.603 39.7622C89.0723 39.5596 89.5897 39.4583 90.155 39.4583C90.7097 39.4583 91.211 39.5596 91.659 39.7622C92.1177 39.9649 92.507 40.2476 92.827 40.6102C93.147 40.9622 93.3923 41.3836 93.563 41.8742C93.7337 42.3649 93.819 42.9036 93.819 43.4902V44.0982H87.707V44.4822C87.707 44.8449 87.7657 45.1809 87.883 45.4902C88.0003 45.7996 88.1657 46.0662 88.379 46.2902C88.603 46.5142 88.8697 46.6902 89.179 46.8182C89.499 46.9356 89.851 46.9942 90.235 46.9942C90.7897 46.9942 91.2697 46.8662 91.675 46.6102C92.0803 46.3542 92.3897 46.0022 92.603 45.5543L93.547 46.1942C93.3017 46.7489 92.891 47.2076 92.315 47.5702C91.7497 47.9222 91.0563 48.0983 90.235 48.0983ZM90.155 40.5142C89.803 40.5142 89.4777 40.5782 89.179 40.7062C88.8803 40.8342 88.619 41.0102 88.395 41.2342C88.1817 41.4582 88.011 41.7249 87.883 42.0342C87.7657 42.3329 87.707 42.6636 87.707 43.0262V43.1382H92.443V42.9622C92.443 42.5996 92.3843 42.2689 92.267 41.9702C92.1603 41.6716 92.0057 41.4156 91.803 41.2022C91.611 40.9782 91.371 40.8076 91.083 40.6902C90.8057 40.5729 90.4963 40.5142 90.155 40.5142ZM96.4528 47.9062V39.6502H97.7328V40.9942H97.7968C97.8821 40.7916 97.9888 40.5996 98.1168 40.4182C98.2448 40.2262 98.3994 40.0609 98.5808 39.9222C98.7728 39.7836 98.9968 39.6716 99.2528 39.5862C99.5088 39.5009 99.8074 39.4583 100.149 39.4583C101.013 39.4583 101.706 39.7356 102.229 40.2902C102.751 40.8342 103.013 41.6076 103.013 42.6102V47.9062H101.733V42.8342C101.733 42.0769 101.567 41.5169 101.237 41.1542C100.906 40.7809 100.421 40.5942 99.7808 40.5942C99.5248 40.5942 99.2741 40.6262 99.0288 40.6902C98.7834 40.7542 98.5648 40.8502 98.3728 40.9782C98.1808 41.1062 98.0261 41.2716 97.9088 41.4742C97.7914 41.6769 97.7328 41.9116 97.7328 42.1782V47.9062H96.4528ZM111.279 46.5622H111.215C110.681 47.5862 109.833 48.0983 108.671 48.0983C107.657 48.0983 106.863 47.7196 106.287 46.9622C105.721 46.2049 105.439 45.1436 105.439 43.7782C105.439 42.4129 105.721 41.3516 106.287 40.5942C106.863 39.8369 107.657 39.4583 108.671 39.4583C109.833 39.4583 110.681 39.9702 111.215 40.9942H111.279V36.0662H112.559V47.9062H111.279V46.5622ZM109.167 46.9622C109.455 46.9622 109.727 46.9249 109.983 46.8503C110.239 46.7756 110.463 46.6689 110.655 46.5302C110.847 46.3809 110.996 46.2049 111.103 46.0022C111.22 45.7889 111.279 45.5436 111.279 45.2662V42.2902C111.279 42.0129 111.22 41.7729 111.103 41.5702C110.996 41.3569 110.847 41.1809 110.655 41.0422C110.463 40.8929 110.239 40.7809 109.983 40.7062C109.727 40.6316 109.455 40.5942 109.167 40.5942C108.42 40.5942 107.839 40.8236 107.423 41.2822C107.017 41.7302 106.815 42.3276 106.815 43.0742V44.4822C106.815 45.2289 107.017 45.8316 107.423 46.2902C107.839 46.7382 108.42 46.9622 109.167 46.9622ZM125.186 39.6502H126.466V40.9942H126.53C127.063 39.9702 127.911 39.4583 129.074 39.4583C130.087 39.4583 130.877 39.8369 131.442 40.5942C132.018 41.3516 132.306 42.4129 132.306 43.7782C132.306 45.1436 132.018 46.2049 131.442 46.9622C130.877 47.7196 130.087 48.0983 129.074 48.0983C127.911 48.0983 127.063 47.5862 126.53 46.5622H126.466V51.1063H125.186V39.6502ZM128.578 46.9622C129.325 46.9622 129.901 46.7382 130.306 46.2902C130.722 45.8316 130.93 45.2289 130.93 44.4822V43.0742C130.93 42.3276 130.722 41.7302 130.306 41.2822C129.901 40.8236 129.325 40.5942 128.578 40.5942C128.29 40.5942 128.018 40.6316 127.762 40.7062C127.506 40.7809 127.282 40.8929 127.09 41.0422C126.898 41.1809 126.743 41.3569 126.626 41.5702C126.519 41.7729 126.466 42.0129 126.466 42.2902V45.2662C126.466 45.5436 126.519 45.7889 126.626 46.0022C126.743 46.2049 126.898 46.3809 127.09 46.5302C127.282 46.6689 127.506 46.7756 127.762 46.8503C128.018 46.9249 128.29 46.9622 128.578 46.9622ZM141.18 47.9062C140.678 47.9062 140.321 47.7782 140.108 47.5222C139.894 47.2662 139.761 46.9462 139.708 46.5622H139.628C139.446 47.0422 139.153 47.4209 138.748 47.6982C138.353 47.9649 137.82 48.0983 137.148 48.0983C136.284 48.0983 135.596 47.8742 135.084 47.4262C134.572 46.9782 134.316 46.3649 134.316 45.5862C134.316 44.8182 134.593 44.2262 135.148 43.8102C135.713 43.3942 136.62 43.1862 137.868 43.1862H139.628V42.3702C139.628 41.7622 139.457 41.3089 139.116 41.0102C138.774 40.7009 138.289 40.5462 137.66 40.5462C137.105 40.5462 136.652 40.6582 136.3 40.8822C135.948 41.0956 135.665 41.3889 135.452 41.7622L134.588 41.1222C134.694 40.9089 134.838 40.7009 135.02 40.4982C135.201 40.2956 135.425 40.1196 135.692 39.9702C135.958 39.8102 136.262 39.6876 136.604 39.6022C136.945 39.5062 137.324 39.4583 137.74 39.4583C138.71 39.4583 139.478 39.7036 140.044 40.1942C140.62 40.6849 140.908 41.3676 140.908 42.2422V46.7862H142.06V47.9062H141.18ZM137.372 47.0262C137.702 47.0262 138.001 46.9889 138.268 46.9142C138.545 46.8289 138.785 46.7222 138.988 46.5942C139.19 46.4556 139.345 46.2956 139.452 46.1142C139.569 45.9222 139.628 45.7196 139.628 45.5062V44.1462H137.868C137.1 44.1462 136.54 44.2529 136.188 44.4662C135.836 44.6796 135.66 44.9889 135.66 45.3942V45.7302C135.66 46.1569 135.809 46.4822 136.108 46.7062C136.417 46.9196 136.838 47.0262 137.372 47.0262ZM147.318 48.0983C146.464 48.0983 145.755 47.9596 145.19 47.6822C144.635 47.4049 144.182 47.0102 143.83 46.4982L144.774 45.7302C145.03 46.1356 145.366 46.4502 145.782 46.6742C146.198 46.8876 146.71 46.9942 147.318 46.9942C148.086 46.9942 148.64 46.8716 148.982 46.6262C149.323 46.3809 149.494 46.0662 149.494 45.6822V45.4582C149.494 45.0422 149.355 44.7276 149.078 44.5142C148.811 44.2902 148.422 44.1782 147.91 44.1782H145.686V43.1062H147.75C148.795 43.1062 149.318 42.7169 149.318 41.9382V41.7462C149.318 41.3942 149.168 41.1116 148.87 40.8982C148.582 40.6742 148.075 40.5622 147.35 40.5622C146.71 40.5622 146.192 40.6689 145.798 40.8822C145.414 41.0956 145.099 41.3942 144.854 41.7782L143.958 41.1702C144.331 40.6262 144.784 40.2049 145.318 39.9062C145.851 39.6076 146.55 39.4583 147.414 39.4583C148.512 39.4583 149.328 39.6556 149.862 40.0502C150.406 40.4449 150.678 40.9889 150.678 41.6822C150.678 42.1942 150.544 42.5996 150.278 42.8982C150.011 43.1969 149.638 43.4049 149.158 43.5222V43.5862C149.712 43.6716 150.134 43.8849 150.422 44.2262C150.71 44.5569 150.854 44.9836 150.854 45.5062C150.854 46.3062 150.544 46.9409 149.926 47.4102C149.318 47.8689 148.448 48.0983 147.318 48.0983ZM153.967 39.6502H155.247V40.9942H155.311C155.845 39.9702 156.693 39.4583 157.855 39.4583C158.869 39.4583 159.658 39.8369 160.223 40.5942C160.799 41.3516 161.087 42.4129 161.087 43.7782C161.087 45.1436 160.799 46.2049 160.223 46.9622C159.658 47.7196 158.869 48.0983 157.855 48.0983C156.693 48.0983 155.845 47.5862 155.311 46.5622H155.247V51.1063H153.967V39.6502ZM157.359 46.9622C158.106 46.9622 158.682 46.7382 159.087 46.2902C159.503 45.8316 159.711 45.2289 159.711 44.4822V43.0742C159.711 42.3276 159.503 41.7302 159.087 41.2822C158.682 40.8236 158.106 40.5942 157.359 40.5942C157.071 40.5942 156.799 40.6316 156.543 40.7062C156.287 40.7809 156.063 40.8929 155.871 41.0422C155.679 41.1809 155.525 41.3569 155.407 41.5702C155.301 41.7729 155.247 42.0129 155.247 42.2902V45.2662C155.247 45.5436 155.301 45.7889 155.407 46.0022C155.525 46.2049 155.679 46.3809 155.871 46.5302C156.063 46.6689 156.287 46.7756 156.543 46.8503C156.799 46.9249 157.071 46.9622 157.359 46.9622ZM169.961 47.9062C169.46 47.9062 169.102 47.7782 168.889 47.5222C168.676 47.2662 168.542 46.9462 168.489 46.5622H168.409C168.228 47.0422 167.934 47.4209 167.529 47.6982C167.134 47.9649 166.601 48.0983 165.929 48.0983C165.065 48.0983 164.377 47.8742 163.865 47.4262C163.353 46.9782 163.097 46.3649 163.097 45.5862C163.097 44.8182 163.374 44.2262 163.929 43.8102C164.494 43.3942 165.401 43.1862 166.649 43.1862H168.409V42.3702C168.409 41.7622 168.238 41.3089 167.897 41.0102C167.556 40.7009 167.07 40.5462 166.441 40.5462C165.886 40.5462 165.433 40.6582 165.081 40.8822C164.729 41.0956 164.446 41.3889 164.233 41.7622L163.369 41.1222C163.476 40.9089 163.62 40.7009 163.801 40.4982C163.982 40.2956 164.206 40.1196 164.473 39.9702C164.74 39.8102 165.044 39.6876 165.385 39.6022C165.726 39.5062 166.105 39.4583 166.521 39.4583C167.492 39.4583 168.26 39.7036 168.825 40.1942C169.401 40.6849 169.689 41.3676 169.689 42.2422V46.7862H170.841V47.9062H169.961ZM166.153 47.0262C166.484 47.0262 166.782 46.9889 167.049 46.9142C167.326 46.8289 167.566 46.7222 167.769 46.5942C167.972 46.4556 168.126 46.2956 168.233 46.1142C168.35 45.9222 168.409 45.7196 168.409 45.5062V44.1462H166.649C165.881 44.1462 165.321 44.2529 164.969 44.4662C164.617 44.6796 164.441 44.9889 164.441 45.3942V45.7302C164.441 46.1569 164.59 46.4822 164.889 46.7062C165.198 46.9196 165.62 47.0262 166.153 47.0262ZM176.451 48.0983C175.896 48.0983 175.389 47.9969 174.931 47.7942C174.483 47.5916 174.093 47.2822 173.763 46.8662C173.443 46.4502 173.192 45.9276 173.011 45.2982C172.829 44.6582 172.739 43.9009 172.739 43.0262C172.739 41.8102 172.819 40.7756 172.979 39.9222C173.149 39.0689 173.405 38.3649 173.747 37.8102C174.099 37.2556 174.541 36.8449 175.075 36.5782C175.619 36.3116 176.264 36.1516 177.011 36.0982L179.539 35.9382V37.2022L176.883 37.3782C176.424 37.4102 176.029 37.4956 175.699 37.6342C175.379 37.7729 175.107 37.9969 174.883 38.3062C174.669 38.6049 174.499 38.9996 174.371 39.4902C174.243 39.9809 174.147 40.5942 174.083 41.3302H174.163C174.387 40.7969 174.701 40.3862 175.107 40.0982C175.512 39.7996 176.019 39.6502 176.627 39.6502C177.149 39.6502 177.629 39.7462 178.067 39.9382C178.504 40.1302 178.877 40.4076 179.187 40.7702C179.496 41.1222 179.736 41.5649 179.907 42.0982C180.088 42.6209 180.179 43.2182 180.179 43.8902C180.179 44.5196 180.088 45.0902 179.907 45.6022C179.725 46.1142 179.469 46.5569 179.139 46.9302C178.808 47.3036 178.413 47.5916 177.955 47.7942C177.507 47.9969 177.005 48.0983 176.451 48.0983ZM176.451 46.9942C177.144 46.9942 177.709 46.7809 178.147 46.3542C178.595 45.9169 178.819 45.2822 178.819 44.4502V43.4422C178.819 42.5462 178.6 41.8742 178.163 41.4262C177.736 40.9782 177.176 40.7542 176.483 40.7542C175.672 40.7542 175.069 40.9516 174.675 41.3462C174.291 41.7302 174.099 42.2262 174.099 42.8342V44.4502C174.099 45.2822 174.312 45.9169 174.739 46.3542C175.176 46.7809 175.747 46.9942 176.451 46.9942ZM186.029 48.0983C185.453 48.0983 184.93 47.9969 184.461 47.7942C184.002 47.5916 183.607 47.3036 183.277 46.9302C182.957 46.5462 182.711 46.0929 182.541 45.5702C182.37 45.0369 182.285 44.4396 182.285 43.7782C182.285 43.1276 182.37 42.5356 182.541 42.0022C182.711 41.4689 182.957 41.0156 183.277 40.6422C183.607 40.2582 184.002 39.9649 184.461 39.7622C184.93 39.5596 185.453 39.4583 186.029 39.4583C186.605 39.4583 187.122 39.5596 187.581 39.7622C188.05 39.9649 188.445 40.2582 188.765 40.6422C189.095 41.0156 189.346 41.4689 189.517 42.0022C189.687 42.5356 189.773 43.1276 189.773 43.7782C189.773 44.4396 189.687 45.0369 189.517 45.5702C189.346 46.0929 189.095 46.5462 188.765 46.9302C188.445 47.3036 188.05 47.5916 187.581 47.7942C187.122 47.9969 186.605 48.0983 186.029 48.0983ZM186.029 46.9942C186.743 46.9942 187.319 46.7809 187.757 46.3542C188.194 45.9276 188.413 45.2662 188.413 44.3702V43.1862C188.413 42.2902 188.194 41.6289 187.757 41.2022C187.319 40.7756 186.743 40.5622 186.029 40.5622C185.314 40.5622 184.738 40.7756 184.301 41.2022C183.863 41.6289 183.645 42.2902 183.645 43.1862V44.3702C183.645 45.2662 183.863 45.9276 184.301 46.3542C184.738 46.7809 185.314 46.9942 186.029 46.9942ZM194.982 40.7382H191.942V39.6502H199.302V40.7382H196.262V47.9062H194.982V40.7382ZM206.976 44.1142H206.896C206.597 44.4449 206.256 44.6956 205.872 44.8662C205.499 45.0262 205.019 45.1062 204.432 45.1062C203.536 45.1062 202.853 44.8982 202.384 44.4822C201.925 44.0556 201.696 43.4156 201.696 42.5622V39.6502H202.976V42.4502C202.976 42.9622 203.12 43.3409 203.408 43.5862C203.696 43.8316 204.165 43.9542 204.816 43.9542C205.456 43.9542 205.973 43.8742 206.368 43.7142C206.773 43.5436 206.976 43.2876 206.976 42.9462V39.6502H208.256V47.9062H206.976V44.1142ZM211.53 39.6502H212.81V43.8582L212.682 45.9702H212.746L216.89 39.6502H218.09V47.9062H216.81V43.6982L216.938 41.5862H216.874L212.73 47.9062H211.53V39.6502ZM221.316 39.6502H222.596V43.1062H224.356L226.58 39.6502H227.908L225.892 42.7862C225.71 43.0636 225.55 43.2609 225.412 43.3782C225.273 43.4849 225.108 43.5649 224.916 43.6182V43.6823C225.129 43.7142 225.31 43.7889 225.46 43.9062C225.609 44.0129 225.764 44.2049 225.924 44.4822L227.268 46.8182H228.196V47.9062H227.268C226.99 47.9062 226.75 47.8316 226.548 47.6822C226.345 47.5329 226.142 47.2876 225.94 46.9462L224.356 44.1942H222.596V47.9062H221.316V39.6502Z" fill="white"/>
<path d="M124.972 4.28511C100.986 5.51206 77.014 8.50045 54.2654 14.841C37.352 19.5484 14.9119 26.2488 4.52431 38.7441C-19.6461 67.9577 78.9236 71.1569 94.4045 71.2421C142.452 71.5082 191.444 69.0444 236.776 55.6896C247.422 52.5547 262.523 47.8447 267.074 38.6371C271.909 28.893 260.109 21.8015 250.157 18.5696C232.083 12.7163 210.96 12.5403 191.84 12.2826C159.887 11.8499 128.147 14.5063 96.4833 17.1198C94.6842 17.2695 95.3812 19.4799 97.1609 19.3447C137.849 16.2114 179.227 12.8137 220.184 16.0504C233.366 17.0876 254.743 18.669 262.851 28.7285C272.389 40.5533 249.775 48.9935 239.232 52.4205C204.261 63.784 164.748 67.854 127.247 68.9127C105.878 69.7681 84.4396 69.4556 63.0787 67.9774C52.5352 67.1067 42.0775 65.5895 31.7973 63.439C22.5901 61.5994 6.01884 57.5899 3.60695 48.792C0.781073 38.8714 16.9674 31.1936 25.4522 27.2241C35.6829 22.5028 46.4971 18.6336 57.7296 15.6754C79.4703 10.0957 102.049 6.77766 124.92 5.80132C126.111 5.73668 126.183 4.23628 124.972 4.28511Z" fill="#38B9C6"/>
<defs>
<clipPath id="clip0">
<rect width="66.2097" height="38.54" fill="white" transform="translate(324.377 22) rotate(60)"/>
</clipPath>
</defs>
</svg>
