<svg width="149" height="84" viewBox="0 0 149 84" fill="none" xmlns="http://www.w3.org/2000/svg">
<path d="M148.999 26.3813H63V83.7867H148.999V26.3813Z" fill="#F7FCFD"/>
<path d="M98.2171 33.905H74.8105V34.4765H98.2171V33.905Z" fill="#58595B"/>
<path d="M88.6833 35.5918H75.2617V36.1633H88.6833V35.5918Z" fill="#0083C7"/>
<path d="M78.3752 39.3843H75.0684V39.9558H78.3752V39.3843Z" fill="#F2706D"/>
<path d="M88.3292 39.3843H79.6406V39.9558H88.3292V39.3843Z" fill="#0083C7"/>
<path d="M81.9757 41.1838H78.5391V41.7554H81.9757V41.1838Z" fill="#58595B"/>
<path d="M86.0266 41.1838H82.6875V41.7554H86.0266V41.1838Z" fill="#58595B"/>
<path d="M93.7756 41.1838H87.8105V41.7554H93.7756V41.1838Z" fill="#38B9C6"/>
<path d="M84.5974 42.9829H81.6797V43.5544H84.5974V42.9829Z" fill="#F2706D"/>
<path d="M88.0331 42.9829H85.3105V43.5544H88.0331V42.9829Z" fill="#58595B"/>
<path d="M97.6946 42.9829H89.1035V43.5544H97.6946V42.9829Z" fill="#58595B"/>
<path d="M118.187 42.9829H105.057V43.5544H118.187V42.9829Z" fill="#58595B"/>
<path d="M125.578 42.9829H119.84V43.5544H125.578V42.9829Z" fill="#38B9C6"/>
<path d="M83.9004 44.7825H81.6797V45.354H83.9004V44.7825Z" fill="#F2706D"/>
<path d="M88.6204 44.7825H85.2812V45.354H88.6204V44.7825Z" fill="#58595B"/>
<path d="M101.392 44.7825H89.2344V45.354H101.392V44.7825Z" fill="#38B9C6"/>
<path d="M102.624 46.5815H86.5117V47.1531H102.624V46.5815Z" fill="#0083C7"/>
<path d="M86.5103 48.3811H81.6797V48.9526H86.5103V48.3811Z" fill="#58595B"/>
<path d="M83.6902 50.1799H81.6797V50.7514H83.6902V50.1799Z" fill="#F2706D"/>
<path d="M88.5864 50.1799H85.4414V50.7514H88.5864V50.1799Z" fill="#38B9C6"/>
<path d="M104.764 50.1799H90.6934V50.7514H104.764V50.1799Z" fill="#58595B"/>
<path d="M103.664 51.979H85.6055V52.5505H103.664V51.979Z" fill="#58595B"/>
<path d="M85.9592 53.7786H81.6797V54.3501H85.9592V53.7786Z" fill="#58595B"/>
<path d="M85.0187 55.5779H81.6797V56.1494H85.0187V55.5779Z" fill="#F2706D"/>
<path d="M87.8226 55.5779H85.959V56.1494H87.8226V55.5779Z" fill="#0083C7"/>
<path d="M98.4083 55.5779H89.6875V56.1494H98.4083V55.5779Z" fill="#58595B"/>
<path d="M91.2425 57.377H86.25V57.9485H91.2425V57.377Z" fill="#38B9C6"/>
<path d="M113.227 57.377H93.2891V57.9485H113.227V57.377Z" fill="#58595B"/>
<path d="M121.719 57.377H115.105V57.9485H121.719V57.377Z" fill="#38B9C6"/>
<path d="M83.0121 59.1763H75.4258V59.7478H83.0121V59.1763Z" fill="#58595B"/>
<path d="M93.09 59.1763H86.25V59.7478H93.09V59.1763Z" fill="#58595B"/>
<path d="M86.8909 60.9753H81.6797V61.5469H86.8909V60.9753Z" fill="#58595B"/>
<path d="M83.498 62.7749H79.0566V63.3464H83.498V62.7749Z" fill="#0083C7"/>
<path d="M80.1588 64.5745H75.4258V65.146H80.1588V64.5745Z" fill="#58595B"/>
<path d="M78.0518 67.9021H75.4258V68.4736H78.0518V67.9021Z" fill="#F2706D"/>
<path d="M83.0116 67.9021H79.3809V68.4736H83.0116V67.9021Z" fill="#58595B"/>
<path d="M93.903 67.9021H84.0156V68.4736H93.903V67.9021Z" fill="#58595B"/>
<path d="M86.0582 69.6543H78.6016V70.2258H86.0582V69.6543Z" fill="#58595B"/>
<path d="M93.578 69.6543H88.2617V70.2258H93.578V69.6543Z" fill="#0083C7"/>
<path d="M96.7562 71.4075H82.168V71.979H96.7562V71.4075Z" fill="#58595B"/>
<path d="M85.1178 73.1594H82.168V73.7309H85.1178V73.1594Z" fill="#F2706D"/>
<path d="M88.5542 73.1594H86.4473V73.7309H88.5542V73.1594Z" fill="#38B9C6"/>
<path d="M109.564 73.1594H89.918V73.7309H109.564V73.1594Z" fill="#58595B"/>
<path d="M115.495 73.1594H111.572V73.7309H115.495V73.1594Z" fill="#58595B"/>
<path d="M83.0108 74.9126H78.6016V75.4841H83.0108V74.9126Z" fill="#58595B"/>
<path d="M81.4884 76.6658H75.4258V77.2373H81.4884V76.6658Z" fill="#58595B"/>
<path d="M63.8735 25H148.126C148.358 25 148.58 25.0921 148.744 25.256C148.908 25.4198 149 25.6421 149 25.8739V27.7621H63.0039V25.8685C63.0053 25.6384 63.0974 25.4182 63.2602 25.2556C63.423 25.093 63.6434 25.0011 63.8735 25Z" fill="#485E88"/>
<path d="M3.90901 24.0674C1.39527 21.5205 -0.0100735 18.0804 5.43641e-05 14.4988C0.0101823 10.9172 1.43494 7.48513 3.96305 4.95252C6.49116 2.41992 9.91712 0.992622 13.4924 0.982476C17.0677 0.97233 20.5016 2.38016 23.044 4.89837C27.6021 9.46451 28.2164 16.4741 24.9124 21.7157L25.4397 26.47L20.6929 25.9419C18.0979 27.583 15.023 28.2914 11.9731 27.9507C8.92317 27.6101 6.07951 26.2407 3.90901 24.0674Z" fill="#D9DFE7"/>
<path d="M5.86133 14.0872L10.8939 11.491V12.2409L6.6526 14.3699V14.3917L10.8939 16.5216V17.2716L5.86133 14.6744V14.0872Z" fill="#485E88"/>
<path d="M11.6016 17.7059L14.6269 9.82812H15.3647L12.3284 17.7059H11.6016Z" fill="#485E88"/>
<path d="M21.0834 14.6853L16.0508 17.2716V16.5216L20.3248 14.3917V14.3699L16.0508 12.2409V11.491L21.0834 14.0772V14.6853Z" fill="#485E88"/>
</svg>
