<svg width="140" height="88" viewBox="0 0 140 88" fill="none" xmlns="http://www.w3.org/2000/svg">
<path d="M139.7 17.6816H35V87.5699H139.7V17.6816Z" fill="#F7FCFD"/>
<path d="M77.8733 26.8416H49.377V27.5373H77.8733V26.8416Z" fill="#58595B"/>
<path d="M66.2679 28.8948H49.9277V29.5906H66.2679V28.8948Z" fill="#0083C7"/>
<path d="M53.7174 33.5122H49.6914V34.208H53.7174V33.5122Z" fill="#F2706D"/>
<path d="M65.8377 33.5122H55.2598V34.208H65.8377V33.5122Z" fill="#0083C7"/>
<path d="M58.0999 35.7029H53.916V36.3987H58.0999V35.7029Z" fill="#58595B"/>
<path d="M63.0339 35.7029H58.9688V36.3987H63.0339V35.7029Z" fill="#58595B"/>
<path d="M72.4672 35.7029H65.2051V36.3987H72.4672V35.7029Z" fill="#38B9C6"/>
<path d="M61.2943 37.8936H57.7422V38.5893H61.2943V37.8936Z" fill="#F2706D"/>
<path d="M65.4786 37.8936H62.1641V38.5893H65.4786V37.8936Z" fill="#58595B"/>
<path d="M77.2405 37.8936H66.7812V38.5893H77.2405V37.8936Z" fill="#58595B"/>
<path d="M102.186 37.8936H86.2012V38.5893H102.186V37.8936Z" fill="#58595B"/>
<path d="M111.187 37.8936H104.201V38.5893H111.187V37.8936Z" fill="#38B9C6"/>
<path d="M60.4458 40.0842H57.7422V40.78H60.4458V40.0842Z" fill="#F2706D"/>
<path d="M66.1902 40.0842H62.125V40.78H66.1902V40.0842Z" fill="#58595B"/>
<path d="M81.7405 40.0842H66.9395V40.78H81.7405V40.0842Z" fill="#38B9C6"/>
<path d="M83.2405 42.2744H63.625V42.9702H83.2405V42.2744Z" fill="#0083C7"/>
<path d="M63.6232 44.4653H57.7422V45.1611H63.6232V44.4653Z" fill="#58595B"/>
<path d="M60.1899 46.6555H57.7422V47.3513H60.1899V46.6555Z" fill="#F2706D"/>
<path d="M66.1491 46.6555H62.3203V47.3513H66.1491V46.6555Z" fill="#38B9C6"/>
<path d="M85.8448 46.6555H68.7148V47.3513H85.8448V46.6555Z" fill="#58595B"/>
<path d="M84.5045 48.8457H62.5195V49.5415H84.5045V48.8457Z" fill="#58595B"/>
<path d="M62.9522 51.0364H57.7422V51.7322H62.9522V51.0364Z" fill="#58595B"/>
<path d="M61.8073 53.2273H57.7422V53.9231H61.8073V53.2273Z" fill="#F2706D"/>
<path d="M65.222 53.2273H62.9531V53.9231H65.222V53.2273Z" fill="#0083C7"/>
<path d="M78.1074 53.2273H67.4902V53.9231H78.1074V53.2273Z" fill="#58595B"/>
<path d="M69.3848 55.4172H63.3066V56.113H69.3848V55.4172Z" fill="#38B9C6"/>
<path d="M96.1503 55.4172H71.877V56.113H96.1503V55.4172Z" fill="#58595B"/>
<path d="M106.487 55.4172H98.4355V56.113H106.487V55.4172Z" fill="#38B9C6"/>
<path d="M59.3629 57.6079H50.127V58.3037H59.3629V57.6079Z" fill="#58595B"/>
<path d="M71.634 57.6079H63.3066V58.3037H71.634V57.6079Z" fill="#58595B"/>
<path d="M64.0866 59.7983H57.7422V60.4941H64.0866V59.7983Z" fill="#58595B"/>
<path d="M59.954 61.9893H54.5469V62.6851H59.954V61.9893Z" fill="#0083C7"/>
<path d="M55.8891 64.1799H50.127V64.8757H55.8891V64.1799Z" fill="#58595B"/>
<path d="M53.324 68.231H50.127V68.9267H53.324V68.231Z" fill="#F2706D"/>
<path d="M59.3616 68.231H54.9414V68.9267H59.3616V68.231Z" fill="#58595B"/>
<path d="M72.6233 68.231H60.5859V68.9267H72.6233V68.231Z" fill="#58595B"/>
<path d="M63.0722 70.3645H53.9941V71.0603H63.0722V70.3645Z" fill="#58595B"/>
<path d="M72.2282 70.3645H65.7559V71.0603H72.2282V70.3645Z" fill="#0083C7"/>
<path d="M76.0964 72.499H58.3359V73.1948H76.0964V72.499Z" fill="#58595B"/>
<path d="M61.9272 74.6316H58.3359V75.3274H61.9272V74.6316Z" fill="#F2706D"/>
<path d="M66.11 74.6316H63.5449V75.3274H66.11V74.6316Z" fill="#38B9C6"/>
<path d="M91.6896 74.6316H67.7715V75.3274H91.6896V74.6316Z" fill="#58595B"/>
<path d="M98.9081 74.6316H94.1328V75.3274H98.9081V74.6316Z" fill="#58595B"/>
<path d="M59.3622 76.7664H53.9941V77.4622H59.3622V76.7664Z" fill="#58595B"/>
<path d="M57.5079 78.9004H50.127V79.5962H57.5079V78.9004Z" fill="#58595B"/>
<path d="M36.0626 16H138.636C138.918 16 139.189 16.1121 139.388 16.3116C139.588 16.5111 139.7 16.7817 139.7 17.0639V19.3628H35.0039V17.0574C35.0056 16.7773 35.1177 16.5091 35.316 16.3111C35.5142 16.1132 35.7825 16.0014 36.0626 16Z" fill="#485E88"/>
<path d="M2.31645 13.68C0.826824 12.1707 -0.0059695 10.1321 3.22158e-05 8.0097C0.00603393 5.88725 0.850332 3.85345 2.34847 2.35265C3.84661 0.851849 5.87681 0.00604465 7.99549 3.22732e-05C10.1142 -0.0059801 12.1491 0.828288 13.6557 2.32056C16.3568 5.02642 16.7208 9.18028 14.7629 12.2864L15.0754 15.1038L12.2624 14.7908C10.7247 15.7633 8.90252 16.1831 7.09516 15.9812C5.2878 15.7794 3.60267 14.9679 2.31645 13.68Z" fill="white"/>
<path d="M3.47461 7.76556L6.45689 6.22705V6.67147L3.94351 7.93309V7.94602L6.45689 9.20818V9.6526L3.47461 8.11355V7.76556Z" fill="#485E88"/>
<path d="M6.87695 9.91026L8.66976 5.24194H9.10695L7.30768 9.91026H6.87695Z" fill="#485E88"/>
<path d="M12.494 8.12002L9.51172 9.6526V9.20818L12.0445 7.94602V7.93309L9.51172 6.67147V6.22705L12.494 7.75963V8.12002Z" fill="#485E88"/>
</svg>
