<svg width="275" height="104" viewBox="0 0 275 104" fill="none" xmlns="http://www.w3.org/2000/svg">
<path d="M93.9449 5.67722C84.9021 6.84316 75.6505 6.83916 66.6014 8.28267C58.4324 9.55889 50.4589 11.4551 42.7897 13.9456C28.4708 18.6684 13.3159 25.8577 5.25676 36.6893C-1.77275 46.1067 1.33161 56.7945 12.668 63.566C19.105 67.4175 26.7162 69.0032 34.2733 70.7289C43.4119 72.7695 52.7874 73.966 62.2105 74.2942C82.3813 75.0565 102.516 73.7816 122.13 70.5002C139.503 67.6121 157.686 63.3944 172.352 55.5105C183.956 49.3154 194.755 38.4962 183.072 27.9098C172.993 18.815 154.197 15.5694 140.107 13.2769C118.938 9.78212 96.8255 9.71558 75.6479 11.8782C59.0627 13.5879 38.9783 16.7256 29.4554 28.6748C28.6075 29.7239 30.4355 31.0772 31.624 30.1932C42.537 22.2147 54.2717 18.2426 69.0027 16.3077C85.3509 14.1911 102.027 13.7008 118.65 14.848C134.436 15.921 150.559 18.2886 165.433 23.025C171.538 24.9724 178.128 27.65 181.836 32.2161C187.925 39.7756 180.334 46.7902 173.178 51.2499C160.692 59.03 144.839 63.2879 129.573 66.5249C112.803 69.9406 95.5684 71.9134 78.1613 72.4098C61.4055 73.093 44.5402 71.5444 28.2629 67.828C13.102 64.4005 -2.40721 54.1453 4.26311 40.5716C10.3742 28.1369 27.5489 19.8114 42.2199 14.7164C50.0637 12.0218 58.2477 9.95789 66.6521 8.55488C75.307 7.0774 85.0773 5.50928 93.9899 6.03874C94.0197 6.0371 94.0487 6.0308 94.0751 6.0202C94.1016 6.0096 94.125 5.99491 94.144 5.97697C94.163 5.95903 94.1773 5.93818 94.186 5.91562C94.1947 5.89306 94.1976 5.86923 94.1947 5.8455C94.1917 5.82176 94.1829 5.79858 94.1687 5.77727C94.1546 5.75597 94.1354 5.73696 94.1122 5.72134C94.089 5.70571 94.0623 5.69377 94.0336 5.6862C94.0049 5.67863 93.9747 5.67558 93.9449 5.67722Z" fill="#4C6E80"/>
<g clip-path="url(#clip0)">
<path d="M208.705 47.2005C212 47.5077 215.419 47.3233 218.661 48.0405C221.598 48.7797 224.45 49.8096 227.175 51.1149C232.634 53.6232 237.815 56.6848 242.634 60.2515C247.401 63.7274 251.897 67.5561 256.082 71.7054C260.577 76.1736 264.299 81.428 265.285 87.8116C265.503 89.1897 267.636 88.6234 267.405 87.2522C265.401 75.051 253.875 66.2173 244.484 59.3338C239.313 55.506 233.677 52.3363 227.706 49.8976C224.719 48.5801 221.585 47.6129 218.366 47.0154C215.18 46.5348 211.947 46.778 208.707 46.6212C208.331 46.5933 208.331 47.1631 208.705 47.2005Z" fill="#4C6E80"/>
<path d="M257.933 64.0717C258.972 68.1753 259.108 72.7687 259.827 76.97C260.196 78.9977 260.221 81.3434 260.871 83.3035C261.399 84.8835 262.619 86.4833 263.449 87.9205L264.844 86.521C260.365 84.1742 256.432 80.68 252.329 77.7359C250.117 76.1541 247.193 73.5741 244.212 73.8781C243.999 73.8796 243.793 73.958 243.632 74.0988C243.471 74.2396 243.367 74.4331 243.338 74.6433C243.31 74.8535 243.359 75.0661 243.477 75.2415C243.594 75.4169 243.773 75.5431 243.978 75.5967C251.596 78.0082 256.856 84.6479 263.826 88.2965C264.021 88.3978 264.243 88.4341 264.461 88.4001C264.679 88.3661 264.881 88.2637 265.038 88.1078C265.194 87.9519 265.297 87.7508 265.331 87.534C265.364 87.3171 265.327 87.096 265.225 86.9029C264.262 85.2341 263.037 83.5576 262.473 81.7058C261.853 79.6882 261.564 77.4798 261.07 75.3894C260.2 71.6075 259.834 67.5589 258.62 63.8732C258.583 63.7979 258.521 63.7377 258.445 63.7027C258.368 63.6678 258.282 63.6604 258.2 63.6816C258.118 63.7029 258.046 63.7515 257.995 63.8193C257.945 63.8872 257.919 63.97 257.923 64.0539L257.933 64.0717Z" fill="#4C6E80"/>
</g>
<path d="M37.7044 39.3086V49.3086H36.3604V39.3086H32.6324V38.1406H41.4324V39.3086H37.7044ZM46.7702 49.5006C46.1728 49.5006 45.6342 49.3993 45.1542 49.1966C44.6848 48.9939 44.2795 48.7059 43.9382 48.3326C43.6075 47.9486 43.3515 47.4953 43.1702 46.9726C42.9888 46.4393 42.8982 45.8473 42.8982 45.1966C42.8982 44.5353 42.9888 43.9379 43.1702 43.4046C43.3622 42.8713 43.6235 42.4179 43.9542 42.0446C44.2848 41.6606 44.6795 41.3673 45.1382 41.1646C45.6075 40.9619 46.1248 40.8606 46.6902 40.8606C47.2448 40.8606 47.7462 40.9619 48.1942 41.1646C48.6528 41.3673 49.0422 41.6499 49.3622 42.0126C49.6822 42.3646 49.9275 42.7859 50.0982 43.2766C50.2688 43.7673 50.3542 44.3059 50.3542 44.8926V45.5006H44.2422V45.8846C44.2422 46.2473 44.3008 46.5833 44.4182 46.8926C44.5355 47.2019 44.7008 47.4686 44.9142 47.6926C45.1382 47.9166 45.4048 48.0926 45.7142 48.2206C46.0342 48.3379 46.3862 48.3966 46.7702 48.3966C47.3248 48.3966 47.8048 48.2686 48.2102 48.0126C48.6155 47.7566 48.9248 47.4046 49.1382 46.9566L50.0822 47.5966C49.8368 48.1513 49.4262 48.6099 48.8502 48.9726C48.2848 49.3246 47.5915 49.5006 46.7702 49.5006ZM46.6902 41.9166C46.3382 41.9166 46.0128 41.9806 45.7142 42.1086C45.4155 42.2366 45.1542 42.4126 44.9302 42.6366C44.7168 42.8606 44.5462 43.1273 44.4182 43.4366C44.3008 43.7353 44.2422 44.0659 44.2422 44.4286V44.5406H48.9782V44.3646C48.9782 44.0019 48.9195 43.6713 48.8022 43.3726C48.6955 43.0739 48.5408 42.8179 48.3382 42.6046C48.1462 42.3806 47.9062 42.2099 47.6182 42.0926C47.3408 41.9753 47.0315 41.9166 46.6902 41.9166ZM56.5079 49.5006C55.9106 49.5006 55.3773 49.3993 54.9079 49.1966C54.4493 48.9833 54.0599 48.6899 53.7399 48.3166C53.4199 47.9433 53.1746 47.4899 53.0039 46.9566C52.8439 46.4233 52.7639 45.8313 52.7639 45.1806C52.7639 44.5299 52.8493 43.9379 53.0199 43.4046C53.1906 42.8713 53.4359 42.4179 53.7559 42.0446C54.0759 41.6606 54.4653 41.3673 54.9239 41.1646C55.3826 40.9619 55.9053 40.8606 56.4919 40.8606C57.2919 40.8606 57.9426 41.0366 58.4439 41.3886C58.9453 41.7406 59.3133 42.1993 59.5479 42.7646L58.5239 43.3086C58.3746 42.8819 58.1239 42.5513 57.7719 42.3166C57.4306 42.0819 57.0039 41.9646 56.4919 41.9646C56.1186 41.9646 55.7826 42.0286 55.4839 42.1566C55.1959 42.2739 54.9506 42.4446 54.7479 42.6686C54.5453 42.8926 54.3906 43.1593 54.2839 43.4686C54.1879 43.7779 54.1399 44.1139 54.1399 44.4766V45.8846C54.1399 46.2473 54.1879 46.5833 54.2839 46.8926C54.3906 47.2019 54.5453 47.4686 54.7479 47.6926C54.9506 47.9166 55.2013 48.0926 55.4999 48.2206C55.7986 48.3379 56.1399 48.3966 56.5239 48.3966C57.0786 48.3966 57.5373 48.2686 57.8999 48.0126C58.2626 47.7566 58.5506 47.4046 58.7639 46.9566L59.6759 47.5806C59.4306 48.1353 59.0466 48.5939 58.5239 48.9566C58.0119 49.3193 57.3399 49.5006 56.5079 49.5006ZM65.1737 42.1406H62.1337V41.0526H69.4937V42.1406H66.4537V49.3086H65.1737V42.1406ZM72.1274 41.0526H73.4074V45.2606L73.2794 47.3726H73.3434L77.4874 41.0526H78.6874V49.3086H77.4074V45.1006L77.5354 42.9886H77.4714L73.3274 49.3086H72.1274V41.0526ZM81.7212 41.0526H83.0012V42.3966H83.0652C83.5985 41.3726 84.4465 40.8606 85.6092 40.8606C86.6225 40.8606 87.4118 41.2393 87.9772 41.9966C88.5532 42.7539 88.8412 43.8153 88.8412 45.1806C88.8412 46.5459 88.5532 47.6073 87.9772 48.3646C87.4118 49.1219 86.6225 49.5006 85.6092 49.5006C84.4465 49.5006 83.5985 48.9886 83.0652 47.9646H83.0012V52.5086H81.7212V41.0526ZM85.1132 48.3646C85.8598 48.3646 86.4358 48.1406 86.8412 47.6926C87.2572 47.2339 87.4652 46.6313 87.4652 45.8846V44.4766C87.4652 43.7299 87.2572 43.1326 86.8412 42.6846C86.4358 42.2259 85.8598 41.9966 85.1132 41.9966C84.8252 41.9966 84.5532 42.0339 84.2972 42.1086C84.0412 42.1833 83.8172 42.2953 83.6252 42.4446C83.4332 42.5833 83.2785 42.7593 83.1612 42.9726C83.0545 43.1753 83.0012 43.4153 83.0012 43.6926V46.6686C83.0012 46.9459 83.0545 47.1913 83.1612 47.4046C83.2785 47.6073 83.4332 47.7833 83.6252 47.9326C83.8172 48.0713 84.0412 48.1779 84.2972 48.2526C84.5532 48.3273 84.8252 48.3646 85.1132 48.3646ZM94.5949 49.5006C94.0189 49.5006 93.4963 49.3993 93.0269 49.1966C92.5683 48.9939 92.1736 48.7059 91.8429 48.3326C91.5229 47.9486 91.2776 47.4953 91.1069 46.9726C90.9363 46.4393 90.8509 45.8419 90.8509 45.1806C90.8509 44.5299 90.9363 43.9379 91.1069 43.4046C91.2776 42.8713 91.5229 42.4179 91.8429 42.0446C92.1736 41.6606 92.5683 41.3673 93.0269 41.1646C93.4963 40.9619 94.0189 40.8606 94.5949 40.8606C95.1709 40.8606 95.6883 40.9619 96.1469 41.1646C96.6163 41.3673 97.0109 41.6606 97.3309 42.0446C97.6616 42.4179 97.9123 42.8713 98.0829 43.4046C98.2536 43.9379 98.3389 44.5299 98.3389 45.1806C98.3389 45.8419 98.2536 46.4393 98.0829 46.9726C97.9123 47.4953 97.6616 47.9486 97.3309 48.3326C97.0109 48.7059 96.6163 48.9939 96.1469 49.1966C95.6883 49.3993 95.1709 49.5006 94.5949 49.5006ZM94.5949 48.3966C95.3096 48.3966 95.8856 48.1833 96.3229 47.7566C96.7603 47.3299 96.9789 46.6686 96.9789 45.7726V44.5886C96.9789 43.6926 96.7603 43.0313 96.3229 42.6046C95.8856 42.1779 95.3096 41.9646 94.5949 41.9646C93.8803 41.9646 93.3043 42.1779 92.8669 42.6046C92.4296 43.0313 92.2109 43.6926 92.2109 44.5886V45.7726C92.2109 46.6686 92.4296 47.3299 92.8669 47.7566C93.3043 48.1833 93.8803 48.3966 94.5949 48.3966ZM101.101 41.0526H105.309C105.981 41.0526 106.509 41.2446 106.893 41.6286C107.277 42.0019 107.469 42.5086 107.469 43.1486C107.469 44.1833 106.93 44.7646 105.853 44.8926V44.9566C106.493 45.0099 106.967 45.2126 107.277 45.5646C107.597 45.9059 107.757 46.3326 107.757 46.8446C107.757 47.1753 107.703 47.4899 107.597 47.7886C107.49 48.0873 107.335 48.3486 107.133 48.5726C106.93 48.7966 106.679 48.9779 106.381 49.1166C106.082 49.2446 105.741 49.3086 105.357 49.3086H101.101V41.0526ZM105.037 48.2846C105.474 48.2846 105.81 48.1779 106.045 47.9646C106.279 47.7513 106.397 47.4579 106.397 47.0846V46.7166C106.397 46.3433 106.279 46.0553 106.045 45.8526C105.821 45.6393 105.517 45.5326 105.133 45.5326H102.381V48.2846H105.037ZM104.973 44.5246C105.325 44.5246 105.602 44.4339 105.805 44.2526C106.007 44.0713 106.109 43.8153 106.109 43.4846V43.1326C106.109 42.8019 106.007 42.5459 105.805 42.3646C105.602 42.1726 105.325 42.0766 104.973 42.0766H102.381V44.5246H104.973ZM117.462 49.3086H109.846V41.0526H111.03V48.2526H113.19V41.0526H114.374V48.2526H116.534V41.0526H117.718V48.2206H118.582V51.5486H117.462V49.3086ZM120.096 41.0526H121.376V45.2606L121.248 47.3726H121.312L125.456 41.0526H126.656V49.3086H125.376V45.1006L125.504 42.9886H125.44L121.296 49.3086H120.096V41.0526ZM129.882 41.0526H131.162V44.5086H132.922L135.146 41.0526H136.474L134.458 44.1886C134.277 44.4659 134.117 44.6633 133.978 44.7806C133.839 44.8873 133.674 44.9673 133.482 45.0206V45.0846C133.695 45.1166 133.877 45.1913 134.026 45.3086C134.175 45.4153 134.33 45.6073 134.49 45.8846L135.834 48.2206H136.762V49.3086H135.834C135.557 49.3086 135.317 49.2339 135.114 49.0846C134.911 48.9353 134.709 48.6899 134.506 48.3486L132.922 45.5966H131.162V49.3086H129.882V41.0526Z" fill="white"/>
<defs>
<clipPath id="clip0">
<rect width="66.2097" height="38.54" fill="white" transform="translate(241.469 27) rotate(60)"/>
</clipPath>
</defs>
</svg>
