<svg width="247" height="154" viewBox="0 0 247 154" fill="none" xmlns="http://www.w3.org/2000/svg">
<g clip-path="url(#clip0)">
<path d="M184.034 54.0121C185.184 50.9095 185.891 47.5592 187.423 44.6127C188.897 41.9673 190.63 39.479 192.596 37.1849C196.432 32.5607 200.73 28.3494 205.422 24.6172C210.013 20.9119 214.875 17.5609 219.966 14.5922C225.446 11.407 231.484 9.1711 237.905 9.87159C239.293 10.017 239.298 7.81013 237.914 7.67817C225.61 6.45634 214.094 15.3036 205.015 22.5928C199.979 26.5969 195.458 31.2202 191.557 36.3568C189.512 38.9012 187.766 41.6784 186.356 44.6327C185.067 47.5859 184.465 50.7716 183.475 53.8601C183.351 54.2168 183.901 54.3638 184.034 54.0121Z" fill="#F2706D"/>
<path d="M213.072 10.827C217.305 10.8853 221.777 11.9428 226.021 12.3358C228.075 12.5038 230.347 13.0875 232.409 12.9661C234.072 12.8654 235.933 12.1009 237.536 11.6714L236.545 9.96125C233.119 13.6811 228.726 16.5751 224.82 19.7769C222.72 21.5035 219.471 23.6599 218.993 26.6185C218.939 26.8247 218.962 27.0441 219.056 27.2358C219.15 27.4274 219.31 27.5783 219.506 27.6603C219.702 27.7423 219.92 27.7499 220.12 27.6816C220.319 27.6133 220.487 27.4738 220.592 27.289C224.894 20.5546 232.668 17.1926 237.997 11.4042C238.145 11.2426 238.237 11.0371 238.261 10.8176C238.285 10.5982 238.238 10.3765 238.128 10.185C238.018 9.99354 237.85 9.84238 237.649 9.7537C237.449 9.66503 237.225 9.64351 237.013 9.6923C235.151 10.191 233.215 10.9398 231.28 11.0056C229.171 11.0823 226.963 10.7903 224.816 10.7262C220.938 10.5871 216.932 9.89314 213.058 10.1123C212.976 10.1281 212.901 10.1722 212.848 10.237C212.794 10.3018 212.765 10.3835 212.764 10.4681C212.763 10.5528 212.792 10.6353 212.844 10.7016C212.897 10.768 212.97 10.8141 213.052 10.8323L213.072 10.827Z" fill="#F2706D"/>
</g>
<path d="M44.9812 95.4V91.864H44.8532L42.5012 97.608L40.1492 91.864H40.0212V95.4V101H38.7892V89.832H40.5172L42.4852 94.76H42.5812L44.5492 89.832H46.2132V101H44.9812V95.4ZM52.2389 101.192C51.6416 101.192 51.1029 101.091 50.6229 100.888C50.1536 100.685 49.7483 100.397 49.4069 100.024C49.0763 99.64 48.8203 99.1867 48.6389 98.664C48.4576 98.1307 48.3669 97.5387 48.3669 96.888C48.3669 96.2267 48.4576 95.6293 48.6389 95.096C48.8309 94.5627 49.0923 94.1093 49.4229 93.736C49.7536 93.352 50.1483 93.0587 50.6069 92.856C51.0763 92.6533 51.5936 92.552 52.1589 92.552C52.7136 92.552 53.2149 92.6533 53.6629 92.856C54.1216 93.0587 54.5109 93.3413 54.8309 93.704C55.1509 94.056 55.3963 94.4773 55.5669 94.968C55.7376 95.4587 55.8229 95.9973 55.8229 96.584V97.192H49.7109V97.576C49.7109 97.9387 49.7696 98.2747 49.8869 98.584C50.0043 98.8933 50.1696 99.16 50.3829 99.384C50.6069 99.608 50.8736 99.784 51.1829 99.912C51.5029 100.029 51.8549 100.088 52.2389 100.088C52.7936 100.088 53.2736 99.96 53.6789 99.704C54.0843 99.448 54.3936 99.096 54.6069 98.648L55.5509 99.288C55.3056 99.8427 54.8949 100.301 54.3189 100.664C53.7536 101.016 53.0603 101.192 52.2389 101.192ZM52.1589 93.608C51.8069 93.608 51.4816 93.672 51.1829 93.8C50.8843 93.928 50.6229 94.104 50.3989 94.328C50.1856 94.552 50.0149 94.8187 49.8869 95.128C49.7696 95.4267 49.7109 95.7573 49.7109 96.12V96.232H54.4469V96.056C54.4469 95.6933 54.3883 95.3627 54.2709 95.064C54.1643 94.7653 54.0096 94.5093 53.8069 94.296C53.6149 94.072 53.3749 93.9013 53.0869 93.784C52.8096 93.6667 52.5003 93.608 52.1589 93.608ZM58.4087 92.744H59.6887V96.2H63.6887V92.744H64.9687V101H63.6887V97.288H59.6887V101H58.4087V92.744ZM71.4264 101.192C70.8291 101.192 70.2904 101.091 69.8104 100.888C69.3411 100.685 68.9358 100.397 68.5944 100.024C68.2638 99.64 68.0078 99.1867 67.8264 98.664C67.6451 98.1307 67.5544 97.5387 67.5544 96.888C67.5544 96.2267 67.6451 95.6293 67.8264 95.096C68.0184 94.5627 68.2798 94.1093 68.6104 93.736C68.9411 93.352 69.3358 93.0587 69.7944 92.856C70.2638 92.6533 70.7811 92.552 71.3464 92.552C71.9011 92.552 72.4024 92.6533 72.8504 92.856C73.3091 93.0587 73.6984 93.3413 74.0184 93.704C74.3384 94.056 74.5838 94.4773 74.7544 94.968C74.9251 95.4587 75.0104 95.9973 75.0104 96.584V97.192H68.8984V97.576C68.8984 97.9387 68.9571 98.2747 69.0744 98.584C69.1918 98.8933 69.3571 99.16 69.5704 99.384C69.7944 99.608 70.0611 99.784 70.3704 99.912C70.6904 100.029 71.0424 100.088 71.4264 100.088C71.9811 100.088 72.4611 99.96 72.8664 99.704C73.2718 99.448 73.5811 99.096 73.7944 98.648L74.7384 99.288C74.4931 99.8427 74.0824 100.301 73.5064 100.664C72.9411 101.016 72.2478 101.192 71.4264 101.192ZM71.3464 93.608C70.9944 93.608 70.6691 93.672 70.3704 93.8C70.0718 93.928 69.8104 94.104 69.5864 94.328C69.3731 94.552 69.2024 94.8187 69.0744 95.128C68.9571 95.4267 68.8984 95.7573 68.8984 96.12V96.232H73.6344V96.056C73.6344 95.6933 73.5758 95.3627 73.4584 95.064C73.3518 94.7653 73.1971 94.5093 72.9944 94.296C72.8024 94.072 72.5624 93.9013 72.2744 93.784C71.9971 93.6667 71.6878 93.608 71.3464 93.608ZM76.4282 99.912H77.3562C77.6975 99.368 77.9642 98.728 78.1562 97.992C78.3588 97.2453 78.4602 96.3707 78.4602 95.368V92.744H83.7882V99.912H85.1482V103.24H83.9802V101H77.5962V103.24H76.4282V99.912ZM82.5082 99.912V93.832H79.7082V95.432C79.7082 96.424 79.6282 97.2773 79.4682 97.992C79.3082 98.696 79.0682 99.336 78.7482 99.912H82.5082ZM89.8779 97.272H88.4699L87.4299 101H86.1499L87.0619 97.752C87.2326 97.1653 87.5313 96.84 87.9579 96.776V96.712C87.5526 96.616 87.2753 96.3013 87.1259 95.768L86.2459 92.744H87.4619L88.4699 96.216H89.8779V92.744H91.0619V96.216H92.4699L93.4939 92.744H94.6939L93.7979 95.768C93.7126 96.0453 93.6059 96.2587 93.4779 96.408C93.3606 96.5573 93.1953 96.6587 92.9819 96.712V96.776C93.4406 96.84 93.7446 97.1653 93.8939 97.752L94.7899 101H93.4939L92.4699 97.272H91.0619V101H89.8779V97.272ZM100.208 101.192C99.6103 101.192 99.0717 101.091 98.5917 100.888C98.1223 100.685 97.717 100.397 97.3757 100.024C97.045 99.64 96.789 99.1867 96.6077 98.664C96.4263 98.1307 96.3357 97.5387 96.3357 96.888C96.3357 96.2267 96.4263 95.6293 96.6077 95.096C96.7997 94.5627 97.061 94.1093 97.3917 93.736C97.7223 93.352 98.117 93.0587 98.5757 92.856C99.045 92.6533 99.5623 92.552 100.128 92.552C100.682 92.552 101.184 92.6533 101.632 92.856C102.09 93.0587 102.48 93.3413 102.8 93.704C103.12 94.056 103.365 94.4773 103.536 94.968C103.706 95.4587 103.792 95.9973 103.792 96.584V97.192H97.6797V97.576C97.6797 97.9387 97.7383 98.2747 97.8557 98.584C97.973 98.8933 98.1383 99.16 98.3517 99.384C98.5757 99.608 98.8423 99.784 99.1517 99.912C99.4717 100.029 99.8237 100.088 100.208 100.088C100.762 100.088 101.242 99.96 101.648 99.704C102.053 99.448 102.362 99.096 102.576 98.648L103.52 99.288C103.274 99.8427 102.864 100.301 102.288 100.664C101.722 101.016 101.029 101.192 100.208 101.192ZM100.128 93.608C99.7757 93.608 99.4503 93.672 99.1517 93.8C98.853 93.928 98.5917 94.104 98.3677 94.328C98.1543 94.552 97.9837 94.8187 97.8557 95.128C97.7383 95.4267 97.6797 95.7573 97.6797 96.12V96.232H102.416V96.056C102.416 95.6933 102.357 95.3627 102.24 95.064C102.133 94.7653 101.978 94.5093 101.776 94.296C101.584 94.072 101.344 93.9013 101.056 93.784C100.778 93.6667 100.469 93.608 100.128 93.608ZM106.377 92.744H107.657V94.088H107.721C108.255 93.064 109.103 92.552 110.265 92.552C111.279 92.552 112.068 92.9307 112.633 93.688C113.209 94.4453 113.497 95.5067 113.497 96.872C113.497 98.2373 113.209 99.2987 112.633 100.056C112.068 100.813 111.279 101.192 110.265 101.192C109.103 101.192 108.255 100.68 107.721 99.656H107.657V104.2H106.377V92.744ZM109.769 100.056C110.516 100.056 111.092 99.832 111.497 99.384C111.913 98.9253 112.121 98.3227 112.121 97.576V96.168C112.121 95.4213 111.913 94.824 111.497 94.376C111.092 93.9173 110.516 93.688 109.769 93.688C109.481 93.688 109.209 93.7253 108.953 93.8C108.697 93.8747 108.473 93.9867 108.281 94.136C108.089 94.2747 107.935 94.4507 107.817 94.664C107.711 94.8667 107.657 95.1067 107.657 95.384V98.36C107.657 98.6373 107.711 98.8827 107.817 99.096C107.935 99.2987 108.089 99.4747 108.281 99.624C108.473 99.7627 108.697 99.8693 108.953 99.944C109.209 100.019 109.481 100.056 109.769 100.056ZM125.597 92.744H132.093V101H130.813V93.832H126.877V101H125.597V92.744ZM138.439 101.192C137.863 101.192 137.34 101.091 136.871 100.888C136.412 100.685 136.017 100.397 135.687 100.024C135.367 99.64 135.121 99.1867 134.951 98.664C134.78 98.1307 134.695 97.5333 134.695 96.872C134.695 96.2213 134.78 95.6293 134.951 95.096C135.121 94.5627 135.367 94.1093 135.687 93.736C136.017 93.352 136.412 93.0587 136.871 92.856C137.34 92.6533 137.863 92.552 138.439 92.552C139.015 92.552 139.532 92.6533 139.991 92.856C140.46 93.0587 140.855 93.352 141.175 93.736C141.505 94.1093 141.756 94.5627 141.927 95.096C142.097 95.6293 142.183 96.2213 142.183 96.872C142.183 97.5333 142.097 98.1307 141.927 98.664C141.756 99.1867 141.505 99.64 141.175 100.024C140.855 100.397 140.46 100.685 139.991 100.888C139.532 101.091 139.015 101.192 138.439 101.192ZM138.439 100.088C139.153 100.088 139.729 99.8747 140.167 99.448C140.604 99.0213 140.823 98.36 140.823 97.464V96.28C140.823 95.384 140.604 94.7227 140.167 94.296C139.729 93.8693 139.153 93.656 138.439 93.656C137.724 93.656 137.148 93.8693 136.711 94.296C136.273 94.7227 136.055 95.384 136.055 96.28V97.464C136.055 98.36 136.273 99.0213 136.711 99.448C137.148 99.8747 137.724 100.088 138.439 100.088ZM154.346 92.744H155.626V94.088H155.69C156.224 93.064 157.072 92.552 158.234 92.552C159.248 92.552 160.037 92.9307 160.602 93.688C161.178 94.4453 161.466 95.5067 161.466 96.872C161.466 98.2373 161.178 99.2987 160.602 100.056C160.037 100.813 159.248 101.192 158.234 101.192C157.072 101.192 156.224 100.68 155.69 99.656H155.626V104.2H154.346V92.744ZM157.738 100.056C158.485 100.056 159.061 99.832 159.466 99.384C159.882 98.9253 160.09 98.3227 160.09 97.576V96.168C160.09 95.4213 159.882 94.824 159.466 94.376C159.061 93.9173 158.485 93.688 157.738 93.688C157.45 93.688 157.178 93.7253 156.922 93.8C156.666 93.8747 156.442 93.9867 156.25 94.136C156.058 94.2747 155.904 94.4507 155.786 94.664C155.68 94.8667 155.626 95.1067 155.626 95.384V98.36C155.626 98.6373 155.68 98.8827 155.786 99.096C155.904 99.2987 156.058 99.4747 156.25 99.624C156.442 99.7627 156.666 99.8693 156.922 99.944C157.178 100.019 157.45 100.056 157.738 100.056ZM170.34 101C169.839 101 169.481 100.872 169.268 100.616C169.055 100.36 168.921 100.04 168.868 99.656H168.788C168.607 100.136 168.313 100.515 167.908 100.792C167.513 101.059 166.98 101.192 166.308 101.192C165.444 101.192 164.756 100.968 164.244 100.52C163.732 100.072 163.476 99.4587 163.476 98.68C163.476 97.912 163.753 97.32 164.308 96.904C164.873 96.488 165.78 96.28 167.028 96.28H168.788V95.464C168.788 94.856 168.617 94.4027 168.276 94.104C167.935 93.7947 167.449 93.64 166.82 93.64C166.265 93.64 165.812 93.752 165.46 93.976C165.108 94.1893 164.825 94.4827 164.612 94.856L163.748 94.216C163.855 94.0027 163.999 93.7947 164.18 93.592C164.361 93.3893 164.585 93.2133 164.852 93.064C165.119 92.904 165.423 92.7813 165.764 92.696C166.105 92.6 166.484 92.552 166.9 92.552C167.871 92.552 168.639 92.7973 169.204 93.288C169.78 93.7787 170.068 94.4613 170.068 95.336V99.88H171.22V101H170.34ZM166.532 100.12C166.863 100.12 167.161 100.083 167.428 100.008C167.705 99.9227 167.945 99.816 168.148 99.688C168.351 99.5493 168.505 99.3893 168.612 99.208C168.729 99.016 168.788 98.8133 168.788 98.6V97.24H167.028C166.26 97.24 165.7 97.3467 165.348 97.56C164.996 97.7733 164.82 98.0827 164.82 98.488V98.824C164.82 99.2507 164.969 99.576 165.268 99.8C165.577 100.013 165.999 100.12 166.532 100.12ZM176.83 101.192C176.275 101.192 175.768 101.091 175.31 100.888C174.862 100.685 174.472 100.376 174.142 99.96C173.822 99.544 173.571 99.0213 173.39 98.392C173.208 97.752 173.118 96.9947 173.118 96.12C173.118 94.904 173.198 93.8693 173.358 93.016C173.528 92.1627 173.784 91.4587 174.126 90.904C174.478 90.3493 174.92 89.9387 175.454 89.672C175.998 89.4053 176.643 89.2453 177.39 89.192L179.918 89.032V90.296L177.262 90.472C176.803 90.504 176.408 90.5893 176.078 90.728C175.758 90.8667 175.486 91.0907 175.262 91.4C175.048 91.6987 174.878 92.0933 174.75 92.584C174.622 93.0747 174.526 93.688 174.462 94.424H174.542C174.766 93.8907 175.08 93.48 175.486 93.192C175.891 92.8933 176.398 92.744 177.006 92.744C177.528 92.744 178.008 92.84 178.446 93.032C178.883 93.224 179.256 93.5013 179.566 93.864C179.875 94.216 180.115 94.6587 180.286 95.192C180.467 95.7147 180.558 96.312 180.558 96.984C180.558 97.6133 180.467 98.184 180.286 98.696C180.104 99.208 179.848 99.6507 179.518 100.024C179.187 100.397 178.792 100.685 178.334 100.888C177.886 101.091 177.384 101.192 176.83 101.192ZM176.83 100.088C177.523 100.088 178.088 99.8747 178.526 99.448C178.974 99.0107 179.198 98.376 179.198 97.544V96.536C179.198 95.64 178.979 94.968 178.542 94.52C178.115 94.072 177.555 93.848 176.862 93.848C176.051 93.848 175.448 94.0453 175.054 94.44C174.67 94.824 174.478 95.32 174.478 95.928V97.544C174.478 98.376 174.691 99.0107 175.118 99.448C175.555 99.8747 176.126 100.088 176.83 100.088ZM186.407 101.192C185.831 101.192 185.309 101.091 184.839 100.888C184.381 100.685 183.986 100.397 183.655 100.024C183.335 99.64 183.09 99.1867 182.919 98.664C182.749 98.1307 182.663 97.5333 182.663 96.872C182.663 96.2213 182.749 95.6293 182.919 95.096C183.09 94.5627 183.335 94.1093 183.655 93.736C183.986 93.352 184.381 93.0587 184.839 92.856C185.309 92.6533 185.831 92.552 186.407 92.552C186.983 92.552 187.501 92.6533 187.959 92.856C188.429 93.0587 188.823 93.352 189.143 93.736C189.474 94.1093 189.725 94.5627 189.895 95.096C190.066 95.6293 190.151 96.2213 190.151 96.872C190.151 97.5333 190.066 98.1307 189.895 98.664C189.725 99.1867 189.474 99.64 189.143 100.024C188.823 100.397 188.429 100.685 187.959 100.888C187.501 101.091 186.983 101.192 186.407 101.192ZM186.407 100.088C187.122 100.088 187.698 99.8747 188.135 99.448C188.573 99.0213 188.791 98.36 188.791 97.464V96.28C188.791 95.384 188.573 94.7227 188.135 94.296C187.698 93.8693 187.122 93.656 186.407 93.656C185.693 93.656 185.117 93.8693 184.679 94.296C184.242 94.7227 184.023 95.384 184.023 96.28V97.464C184.023 98.36 184.242 99.0213 184.679 99.448C185.117 99.8747 185.693 100.088 186.407 100.088ZM195.361 93.832H192.321V92.744H199.681V93.832H196.641V101H195.361V93.832ZM205.739 101.192C205.142 101.192 204.603 101.091 204.123 100.888C203.654 100.685 203.248 100.397 202.907 100.024C202.576 99.64 202.32 99.1867 202.139 98.664C201.958 98.1307 201.867 97.5387 201.867 96.888C201.867 96.2267 201.958 95.6293 202.139 95.096C202.331 94.5627 202.592 94.1093 202.923 93.736C203.254 93.352 203.648 93.0587 204.107 92.856C204.576 92.6533 205.094 92.552 205.659 92.552C206.214 92.552 206.715 92.6533 207.163 92.856C207.622 93.0587 208.011 93.3413 208.331 93.704C208.651 94.056 208.896 94.4773 209.067 94.968C209.238 95.4587 209.323 95.9973 209.323 96.584V97.192H203.211V97.576C203.211 97.9387 203.27 98.2747 203.387 98.584C203.504 98.8933 203.67 99.16 203.883 99.384C204.107 99.608 204.374 99.784 204.683 99.912C205.003 100.029 205.355 100.088 205.739 100.088C206.294 100.088 206.774 99.96 207.179 99.704C207.584 99.448 207.894 99.096 208.107 98.648L209.051 99.288C208.806 99.8427 208.395 100.301 207.819 100.664C207.254 101.016 206.56 101.192 205.739 101.192ZM205.659 93.608C205.307 93.608 204.982 93.672 204.683 93.8C204.384 93.928 204.123 94.104 203.899 94.328C203.686 94.552 203.515 94.8187 203.387 95.128C203.27 95.4267 203.211 95.7573 203.211 96.12V96.232H207.947V96.056C207.947 95.6933 207.888 95.3627 207.771 95.064C207.664 94.7653 207.51 94.5093 207.307 94.296C207.115 94.072 206.875 93.9013 206.587 93.784C206.31 93.6667 206 93.608 205.659 93.608ZM42.7892 127.192C42.1918 127.192 41.6585 127.091 41.1892 126.888C40.7305 126.675 40.3412 126.381 40.0212 126.008C39.7012 125.635 39.4558 125.181 39.2852 124.648C39.1252 124.115 39.0452 123.523 39.0452 122.872C39.0452 122.221 39.1305 121.629 39.3012 121.096C39.4718 120.563 39.7172 120.109 40.0372 119.736C40.3572 119.352 40.7465 119.059 41.2052 118.856C41.6638 118.653 42.1865 118.552 42.7732 118.552C43.5732 118.552 44.2238 118.728 44.7252 119.08C45.2265 119.432 45.5945 119.891 45.8292 120.456L44.8052 121C44.6558 120.573 44.4052 120.243 44.0532 120.008C43.7118 119.773 43.2852 119.656 42.7732 119.656C42.3998 119.656 42.0638 119.72 41.7652 119.848C41.4772 119.965 41.2318 120.136 41.0292 120.36C40.8265 120.584 40.6718 120.851 40.5652 121.16C40.4692 121.469 40.4212 121.805 40.4212 122.168V123.576C40.4212 123.939 40.4692 124.275 40.5652 124.584C40.6718 124.893 40.8265 125.16 41.0292 125.384C41.2318 125.608 41.4825 125.784 41.7812 125.912C42.0798 126.029 42.4212 126.088 42.8052 126.088C43.3598 126.088 43.8185 125.96 44.1812 125.704C44.5438 125.448 44.8318 125.096 45.0452 124.648L45.9572 125.272C45.7118 125.827 45.3278 126.285 44.8052 126.648C44.2932 127.011 43.6212 127.192 42.7892 127.192ZM58.6007 118.744H59.8807V122.2H61.6407L63.8647 118.744H65.1927L63.1767 121.88C62.9953 122.157 62.8353 122.355 62.6967 122.472C62.558 122.579 62.3927 122.659 62.2007 122.712V122.776C62.414 122.808 62.5953 122.883 62.7447 123C62.894 123.107 63.0487 123.299 63.2087 123.576L64.5527 125.912H65.4807V127H64.5527C64.2753 127 64.0353 126.925 63.8327 126.776C63.63 126.627 63.4273 126.381 63.2247 126.04L61.6407 123.288H59.8807V127H58.6007V118.744ZM66.8984 125.912H67.9224C68.0824 125.709 68.2211 125.469 68.3384 125.192C68.4664 124.915 68.5678 124.584 68.6424 124.2C68.7278 123.816 68.7918 123.373 68.8344 122.872C68.8771 122.36 68.8984 121.768 68.8984 121.096V118.744H74.3864V127H73.1064V119.832H70.1464V121.128C70.1464 122.621 70.0344 123.795 69.8104 124.648C69.5971 125.491 69.3091 126.093 68.9464 126.456C68.7438 126.659 68.5198 126.803 68.2744 126.888C68.0291 126.963 67.7358 127 67.3944 127H66.8984V125.912ZM77.5962 118.744H78.8762V122.952L78.7482 125.064H78.8122L82.9562 118.744H84.1562V127H82.8762V122.792L83.0042 120.68H82.9402L78.7962 127H77.5962V118.744ZM90.6139 127.192C90.0166 127.192 89.4779 127.091 88.9979 126.888C88.5286 126.685 88.1233 126.397 87.7819 126.024C87.4513 125.64 87.1953 125.187 87.0139 124.664C86.8326 124.131 86.7419 123.539 86.7419 122.888C86.7419 122.227 86.8326 121.629 87.0139 121.096C87.2059 120.563 87.4673 120.109 87.7979 119.736C88.1286 119.352 88.5233 119.059 88.9819 118.856C89.4513 118.653 89.9686 118.552 90.5339 118.552C91.0886 118.552 91.5899 118.653 92.0379 118.856C92.4966 119.059 92.8859 119.341 93.2059 119.704C93.5259 120.056 93.7713 120.477 93.9419 120.968C94.1126 121.459 94.1979 121.997 94.1979 122.584V123.192H88.0859V123.576C88.0859 123.939 88.1446 124.275 88.2619 124.584C88.3793 124.893 88.5446 125.16 88.7579 125.384C88.9819 125.608 89.2486 125.784 89.5579 125.912C89.8779 126.029 90.2299 126.088 90.6139 126.088C91.1686 126.088 91.6486 125.96 92.0539 125.704C92.4593 125.448 92.7686 125.096 92.9819 124.648L93.9259 125.288C93.6806 125.843 93.2699 126.301 92.6939 126.664C92.1286 127.016 91.4353 127.192 90.6139 127.192ZM90.5339 119.608C90.1819 119.608 89.8566 119.672 89.5579 119.8C89.2593 119.928 88.9979 120.104 88.7739 120.328C88.5606 120.552 88.3899 120.819 88.2619 121.128C88.1446 121.427 88.0859 121.757 88.0859 122.12V122.232H92.8219V122.056C92.8219 121.693 92.7633 121.363 92.6459 121.064C92.5393 120.765 92.3846 120.509 92.1819 120.296C91.9899 120.072 91.7499 119.901 91.4619 119.784C91.1846 119.667 90.8753 119.608 90.5339 119.608ZM96.7837 118.744H98.0637V122.2H102.064V118.744H103.344V127H102.064V123.288H98.0637V127H96.7837V118.744ZM109.017 119.832H105.977V118.744H113.337V119.832H110.297V127H109.017V119.832ZM122.371 127C121.87 127 121.513 126.872 121.299 126.616C121.086 126.36 120.953 126.04 120.899 125.656H120.819C120.638 126.136 120.345 126.515 119.939 126.792C119.545 127.059 119.011 127.192 118.339 127.192C117.475 127.192 116.787 126.968 116.275 126.52C115.763 126.072 115.507 125.459 115.507 124.68C115.507 123.912 115.785 123.32 116.339 122.904C116.905 122.488 117.811 122.28 119.059 122.28H120.819V121.464C120.819 120.856 120.649 120.403 120.307 120.104C119.966 119.795 119.481 119.64 118.851 119.64C118.297 119.64 117.843 119.752 117.491 119.976C117.139 120.189 116.857 120.483 116.643 120.856L115.779 120.216C115.886 120.003 116.03 119.795 116.211 119.592C116.393 119.389 116.617 119.213 116.883 119.064C117.15 118.904 117.454 118.781 117.795 118.696C118.137 118.6 118.515 118.552 118.931 118.552C119.902 118.552 120.67 118.797 121.235 119.288C121.811 119.779 122.099 120.461 122.099 121.336V125.88H123.251V127H122.371ZM118.563 126.12C118.894 126.12 119.193 126.083 119.459 126.008C119.737 125.923 119.977 125.816 120.179 125.688C120.382 125.549 120.537 125.389 120.643 125.208C120.761 125.016 120.819 124.813 120.819 124.6V123.24H119.059C118.291 123.24 117.731 123.347 117.379 123.56C117.027 123.773 116.851 124.083 116.851 124.488V124.824C116.851 125.251 117.001 125.576 117.299 125.8C117.609 126.013 118.03 126.12 118.563 126.12ZM125.197 118.744H126.957L128.861 122.952H128.957L130.861 118.744H132.493V127H131.261V121.832L131.309 120.36H131.213L128.845 125.592L126.477 120.36H126.381L126.429 121.832V127H125.197V118.744ZM135.159 118.744H136.439V122.952L136.311 125.064H136.375L140.519 118.744H141.719V127H140.439V122.792L140.567 120.68H140.503L136.359 127H135.159V118.744Z" fill="white"/>
<path d="M111.452 60.7896C90.2188 62.7207 68.9727 66.9307 48.7609 75.4607C33.7336 81.794 13.7895 90.7853 4.4228 107.102C-17.3741 145.249 69.7647 147.978 83.4563 147.867C125.95 147.523 169.319 143.634 209.606 125.704C219.068 121.495 232.492 115.185 236.649 103.205C241.064 90.5276 230.729 81.5204 221.973 77.481C206.071 70.1659 187.389 70.2406 170.482 70.1807C142.226 70.0783 114.113 73.9699 86.0698 77.805C84.4764 78.0245 85.0612 80.8746 86.6373 80.6742C122.671 76.0373 159.318 71.0485 195.498 74.6504C207.142 75.8037 226.027 77.544 233.055 90.4444C241.322 105.609 221.199 116.854 211.825 121.439C180.73 136.643 145.723 142.475 112.539 144.382C93.626 145.795 74.668 145.698 55.7954 144.091C46.4822 143.115 37.2542 141.301 28.1921 138.666C20.0747 136.417 5.4749 131.467 3.46754 120.117C1.11009 107.321 15.5367 97.1542 23.0984 91.8964C32.215 85.6408 41.8355 80.4794 51.813 76.4908C71.1224 68.9597 91.1404 64.3431 111.384 62.7523C112.439 62.6516 112.523 60.7091 111.452 60.7896Z" fill="#F2706D"/>
<defs>
<clipPath id="clip0">
<rect width="66.2097" height="38.54" fill="white" transform="translate(173.002 17.1362) rotate(-15)"/>
</clipPath>
</defs>
</svg>
