<svg width="127" height="83" viewBox="0 0 127 83" fill="none" xmlns="http://www.w3.org/2000/svg">
<path opacity="0.4" d="M99.6268 32.7871H111.045L108.471 21L99.1211 21.4611L99.6268 32.7871Z" fill="#8BA4B7"/>
<path d="M109.135 32.7871H97.8516V21H108.471L109.135 32.7871Z" fill="#F68B3C"/>
<path d="M101.616 25.2517C101.135 25.2413 100.654 25.2 100.178 25.1279L100.245 24.6218C101.123 24.8136 102.036 24.7787 102.897 24.5206L103.324 24.3069C103.635 24.1285 103.973 24.003 104.325 23.9357C104.846 23.8909 105.365 24.0479 105.774 24.3744L105.471 24.7905C105.157 24.53 104.753 24.4046 104.347 24.4419C104.058 24.5061 103.781 24.6162 103.527 24.768L103.055 24.993C102.596 25.1689 102.108 25.2567 101.616 25.2517Z" fill="white"/>
<path d="M102.459 27.3771C101.717 27.3771 100.975 27.3771 100.211 27.2871V26.781C101.441 26.8991 102.679 26.8991 103.908 26.781C104.458 26.7117 105.002 26.6065 105.538 26.4661L105.661 26.9722C105.105 27.107 104.543 27.2121 103.976 27.2871C103.472 27.3472 102.966 27.3772 102.459 27.3771Z" fill="white"/>
<path d="M104.708 30.2004L103.899 30.1329C102.779 30.0089 101.654 29.9525 100.527 29.9642V29.4581C101.672 29.4422 102.817 29.4947 103.955 29.6156L104.764 29.6943L104.708 30.2004Z" fill="white"/>
<path opacity="0.4" d="M90.1883 40.8174L88.2891 52.9081H100.583L99.9429 41.4247L90.1883 40.8174Z" fill="#8BA4B7"/>
<path d="M102.426 53.7517L90.8168 53.3018L90.1875 40.8174L101.437 41.5147L102.426 53.7517Z" fill="#57C5C7"/>
<path d="M99.3244 45.4401C98.4564 45.2295 97.5651 45.1312 96.6722 45.1477C95.5253 45.1993 94.3795 45.0235 93.3008 44.6303L93.5031 44.1692C94.5167 44.5239 95.588 44.6842 96.661 44.6416C97.5953 44.6251 98.528 44.7272 99.4367 44.9453L99.3244 45.4401Z" fill="white"/>
<path d="M98.2566 47.6447C97.7069 47.3281 97.0993 47.1254 96.4697 47.0486C96.1326 47.0486 95.7618 46.9923 95.4359 46.9811L92.0645 46.9136V46.4075L95.4359 46.475C95.8115 46.4747 96.1868 46.4972 96.5597 46.5424C97.255 46.6295 97.9267 46.8511 98.5375 47.1948L98.2566 47.6447Z" fill="white"/>
<path d="M93.8076 49.6015C93.3244 49.6015 92.8411 49.6015 92.3691 49.534V49.0279C93.3234 49.1447 94.2898 49.1143 95.2348 48.9379L95.6394 48.8255L95.9653 48.7355C96.6767 48.553 97.4138 48.4922 98.1455 48.5555V49.0617C97.4739 49.0044 96.7976 49.0615 96.1451 49.2304L95.8304 49.3203L95.4034 49.4328C94.8806 49.5555 94.3445 49.6122 93.8076 49.6015Z" fill="white"/>
<path opacity="0.4" d="M74.5891 41.0652L75.8365 52.6273H64.0254L64.621 41.0652H74.5891Z" fill="#8BA4B7"/>
<path d="M73.3079 53.5384H62.6992L63.9691 41.0652H74.589L73.3079 53.5384Z" fill="#E7D893"/>
<path d="M70.4763 45.1932C69.1038 45.195 67.7367 45.0212 66.4082 44.6758L66.5318 44.1809C68.3097 44.6408 70.1538 44.7892 71.9822 44.6196V45.1257C71.5102 45.1707 70.9933 45.1932 70.4763 45.1932Z" fill="white"/>
<path d="M65.6329 47.3751H65.4531V46.869C66.1162 46.869 66.8242 46.869 67.4984 46.779C68.7074 46.627 69.9306 46.627 71.1395 46.779L71.0384 47.2851C69.8766 47.1202 68.6987 47.1014 67.5322 47.2289C66.9141 47.3301 66.2735 47.3751 65.6329 47.3751Z" fill="white"/>
<path d="M68.0269 49.7707C67.0473 49.7725 66.0683 49.7237 65.0938 49.6245V49.1184C66.6063 49.2647 68.1276 49.2985 69.6451 49.2196V49.7258C69.1619 49.7595 68.6 49.7707 68.0269 49.7707Z" fill="white"/>
<path d="M69.2168 52.0988C68.6325 52.0988 68.093 51.9526 67.4749 51.8626C66.5935 51.6685 65.6908 51.5891 64.7891 51.6264V51.1203C65.7356 51.0744 66.684 51.1538 67.6098 51.3565C68.1674 51.4635 68.73 51.5424 69.2955 51.5927L69.2168 52.0988Z" fill="white"/>
<path opacity="0.4" d="M125.161 41.0652L126.42 52.6273H114.598L115.193 41.0652H125.161Z" fill="#8BA4B7"/>
<path d="M123.891 53.5384H113.271L114.541 41.0652H125.161L123.891 53.5384Z" fill="#058CBD"/>
<path d="M121.047 45.1932C119.678 45.1958 118.315 45.0219 116.99 44.6758L117.114 44.1809C118.892 44.6408 120.736 44.7892 122.564 44.6196V45.1257C122.092 45.1707 121.564 45.1932 121.047 45.1932Z" fill="white"/>
<path d="M116.205 47.3751H116.025V46.869C116.677 46.869 117.385 46.869 118.059 46.779C119.268 46.627 120.492 46.627 121.701 46.779L121.611 47.2851C120.445 47.1201 119.263 47.1012 118.093 47.2289C117.486 47.3301 116.846 47.3751 116.205 47.3751Z" fill="white"/>
<path d="M118.609 49.7707C117.629 49.7728 116.65 49.724 115.676 49.6245V49.1184C117.192 49.2648 118.717 49.2986 120.238 49.2196V49.7258C119.744 49.7595 119.171 49.7707 118.609 49.7707Z" fill="white"/>
<path d="M119.789 52.0986C119.205 52.0986 118.665 51.9523 118.058 51.8624C117.173 51.6687 116.267 51.5893 115.361 51.6262V51.1201C116.304 51.0741 117.249 51.1536 118.171 51.3562C118.733 51.4575 119.295 51.5474 119.868 51.5924L119.789 52.0986Z" fill="white"/>
<path d="M106.595 76.9998L95.2227 75.5714L98.2682 62.3784L109.641 63.8181L106.595 76.9998Z" fill="#F68B3C"/>
<path d="M104.672 67.6873C103.204 67.4923 101.765 67.1145 100.391 66.5625L100.593 66.0452C102.434 66.779 104.389 67.1863 106.369 67.2486V67.7997C105.785 67.7922 105.219 67.7547 104.672 67.6873Z" fill="white"/>
<path d="M99.2003 69.3631H98.998L99.0767 68.812C99.7735 68.9132 100.549 68.9582 101.324 69.0032C102.639 69.0184 103.946 69.2037 105.213 69.5543L105.044 70.083C103.824 69.7492 102.567 69.5716 101.302 69.5543C100.571 69.4868 99.8746 69.4531 99.2003 69.3631Z" fill="white"/>
<path d="M101.435 72.2533C100.39 72.1184 99.3449 71.9384 98.3223 71.7022L98.4347 71.1624C100.035 71.5309 101.662 71.7716 103.301 71.8822V72.4333C102.66 72.3883 102.053 72.3321 101.435 72.2533Z" fill="white"/>
<path d="M102.403 74.8631C101.784 74.7301 101.173 74.5649 100.571 74.3682C99.6498 74.0439 98.6904 73.8398 97.7168 73.7608V73.2097C98.7364 73.2881 99.7414 73.4999 100.706 73.8396C101.289 74.0335 101.881 74.1949 102.482 74.3232L102.403 74.8631Z" fill="white"/>
<path d="M12.6375 0H2.23536C1.38698 0 0.699219 0.687758 0.699219 1.53614V10.2933C0.699219 11.1417 1.38698 11.8295 2.23536 11.8295H12.6375C13.4859 11.8295 14.1737 11.1417 14.1737 10.2933V1.53614C14.1737 0.687758 13.4859 0 12.6375 0Z" fill="#0083C7"/>
<path d="M11.1866 8.5883C11.2089 8.55603 11.2245 8.51957 11.2323 8.48111C11.2401 8.44266 11.2401 8.40301 11.2322 8.36457C11.2243 8.32613 11.2086 8.28969 11.1863 8.25746C11.1639 8.22523 11.1352 8.19788 11.1019 8.17705L9.31175 7.07635C9.25179 7.03831 9.17957 7.02464 9.10985 7.03814C9.04014 7.05163 8.97822 7.09127 8.93679 7.14893L8.52554 7.69323C7.92181 7.24801 7.35176 6.75883 6.82006 6.22966C6.35432 5.75521 5.92568 5.24569 5.53794 4.70562L6.07014 4.29437C6.09995 4.27488 6.12553 4.2496 6.14539 4.22003C6.16525 4.19046 6.17897 4.15721 6.18574 4.12224C6.1925 4.08727 6.19218 4.0513 6.18479 4.01646C6.1774 3.98162 6.16309 3.94861 6.14271 3.9194L5.05412 2.12926C5.03214 2.0956 5.00368 2.06666 4.97038 2.04413C4.93709 2.02161 4.89964 2.00594 4.86022 1.99806C4.8208 1.99017 4.7802 1.99023 4.7408 1.99822C4.70141 2.00621 4.664 2.02198 4.63077 2.0446L4.09856 2.44375C3.92737 2.56379 3.81011 2.74619 3.77197 2.95176L3.65103 3.49606C3.61292 3.70809 3.6515 3.92676 3.75988 4.11294C4.38951 5.17228 5.14047 6.15462 5.99757 7.04006C6.94809 7.98152 8.0175 8.79477 9.1787 9.45918C9.35987 9.5693 9.57699 9.60404 9.78348 9.55595L10.1463 9.48338C10.3533 9.43327 10.5369 9.31373 10.6665 9.14469L11.1866 8.5883Z" fill="white"/>
<path d="M29.2738 59H7.85828C6.11358 59 4.69922 60.3943 4.69922 62.1143V79.8859C4.69922 81.6059 6.11358 83.0002 7.85828 83.0002H29.2738C31.0185 83.0002 32.4328 81.6059 32.4328 79.8859V62.1143C32.4328 60.3943 31.0185 59 29.2738 59Z" fill="white"/>
<path d="M7.85833 59H29.2738C30.1116 59 30.9151 59.315 31.5076 59.8758C32.1 60.4366 32.4328 61.1971 32.4328 61.9902V66.4667H4.69927V62.0076C4.69685 61.6134 4.77679 61.2227 4.93446 60.8579C5.09213 60.4931 5.32444 60.1614 5.61802 59.8819C5.91161 59.6024 6.26068 59.3806 6.64516 59.2293C7.02964 59.0779 7.44193 59 7.85833 59Z" fill="#F47954"/>
<path d="M20.1668 69.6667H16.9668V72.3334H20.1668V69.6667Z" fill="#D0D1D7"/>
<path d="M24.4325 69.6667H21.2324V72.3334H24.4325V69.6667Z" fill="#D0D1D7"/>
<path d="M28.1667 69.6667H25.5V72.3334H28.1667V69.6667Z" fill="#D0D1D7"/>
<path d="M20.1668 73.4001H16.9668V76.0668H20.1668V73.4001Z" fill="#F47954"/>
<path d="M24.4325 73.4001H21.2324V76.0668H24.4325V73.4001Z" fill="#D0D1D7"/>
<path d="M11.6335 73.4001H8.9668V76.0668H11.6335V73.4001Z" fill="#D0D1D7"/>
<path d="M15.8991 73.4001H13.2324V76.0668H15.8991V73.4001Z" fill="#D0D1D7"/>
<path d="M28.1667 73.4001H25.5V76.0668H28.1667V73.4001Z" fill="#D0D1D7"/>
<path d="M20.1668 77.1335H16.9668V80.3336H20.1668V77.1335Z" fill="#D0D1D7"/>
<path d="M24.4325 77.1335H21.2324V80.3336H24.4325V77.1335Z" fill="#D0D1D7"/>
<path d="M11.6335 77.1335H8.9668V80.3336H11.6335V77.1335Z" fill="#D0D1D7"/>
<path d="M15.8991 77.1335H13.2324V80.3336H15.8991V77.1335Z" fill="#D0D1D7"/>
<path d="M14.2988 61.2167C14.5926 61.1646 14.8897 61.1393 15.1871 61.1409C15.6611 61.095 16.1324 61.2577 16.5027 61.5952C16.6584 61.7644 16.7802 61.9694 16.8597 62.1964C16.9392 62.4234 16.9746 62.667 16.9635 62.9108C16.9733 63.1723 16.9369 63.4333 16.8563 63.6787C16.7758 63.9241 16.6527 64.1489 16.4943 64.3399C16.0947 64.7173 15.5808 64.904 15.0614 64.8605C14.7597 64.8605 14.5083 64.8605 14.2988 64.8605V61.2167ZM14.7178 64.4535C14.8573 64.4647 14.9973 64.4647 15.1368 64.4535C15.3228 64.4774 15.5111 64.4538 15.6879 64.3844C15.8647 64.315 16.0254 64.2016 16.1582 64.0525C16.291 63.9035 16.3924 63.7227 16.4549 63.5234C16.5174 63.3241 16.5395 63.1115 16.5194 62.9013C16.5364 62.7043 16.5136 62.5055 16.4526 62.3199C16.3916 62.1343 16.2941 61.9668 16.1673 61.8301C16.0406 61.6933 15.888 61.5909 15.7211 61.5305C15.5542 61.4702 15.3773 61.4535 15.2038 61.4817C15.0405 61.4802 14.8774 61.4992 14.7178 61.5384V64.4535Z" fill="#F0F1F2"/>
<path d="M18.2572 63.6897L17.9198 64.8667H17.5L18.5782 61.1333H19.072L20.1667 64.8667H19.7222L19.4013 63.6897H18.2572ZM19.3025 63.3135L18.9897 62.2427C18.9157 61.9919 18.8663 61.77 18.8169 61.5578C18.7757 61.7796 18.7181 62.0015 18.6605 62.2331L18.3395 63.3521L19.3025 63.3135Z" fill="#F0F1F2"/>
<path d="M21.2521 64.8667V63.2846L20.166 61.1333H20.6693L21.155 62.1559C21.2874 62.4453 21.3846 62.6672 21.4905 62.9276C21.5877 62.6865 21.7113 62.4453 21.8349 62.1559L22.3294 61.1333H22.8327L21.6848 63.2749V64.8667H21.2521Z" fill="#F0F1F2"/>
</svg>
