<svg width="152" height="126" viewBox="0 0 152 126" fill="none" xmlns="http://www.w3.org/2000/svg">
<path d="M151.143 19.48H59.002V80.9851H151.143V19.48Z" fill="#F7FCFD"/>
<path d="M96.7345 27.541H71.6562V28.1533H96.7345V27.541Z" fill="#58595B"/>
<path d="M86.5207 29.3481H72.1406V29.9605H86.5207V29.3481Z" fill="#0083C7"/>
<path d="M75.4766 33.4119H71.9336V34.0242H75.4766V33.4119Z" fill="#F2706D"/>
<path d="M86.1392 33.4119H76.8301V34.0242H86.1392V33.4119Z" fill="#0083C7"/>
<path d="M79.3324 35.3394H75.6504V35.9517H79.3324V35.3394Z" fill="#58595B"/>
<path d="M83.6732 35.3394H80.0957V35.9517H83.6732V35.3394Z" fill="#58595B"/>
<path d="M91.9731 35.3394H85.582V35.9517H91.9731V35.3394Z" fill="#38B9C6"/>
<path d="M82.1417 37.2671H79.0156V37.8794H82.1417V37.2671Z" fill="#F2706D"/>
<path d="M85.8251 37.2671H82.9082V37.8794H85.8251V37.2671Z" fill="#58595B"/>
<path d="M96.1753 37.2671H86.9707V37.8794H96.1753V37.2671Z" fill="#58595B"/>
<path d="M118.128 37.2671H104.061V37.8794H118.128V37.2671Z" fill="#58595B"/>
<path d="M126.048 37.2671H119.9V37.8794H126.048V37.2671Z" fill="#38B9C6"/>
<path d="M81.3949 39.1951H79.0156V39.8074H81.3949V39.1951Z" fill="#F2706D"/>
<path d="M86.4506 39.1951H82.873V39.8074H86.4506V39.1951Z" fill="#58595B"/>
<path d="M100.137 39.1951H87.1113V39.8074H100.137V39.1951Z" fill="#38B9C6"/>
<path d="M101.456 41.1228H84.1934V41.7351H101.456V41.1228Z" fill="#0083C7"/>
<path d="M84.1912 43.0505H79.0156V43.6629H84.1912V43.0505Z" fill="#58595B"/>
<path d="M81.1697 44.9785H79.0156V45.5908H81.1697V44.9785Z" fill="#F2706D"/>
<path d="M86.4164 44.9785H83.0469V45.5908H86.4164V44.9785Z" fill="#38B9C6"/>
<path d="M103.747 44.9785H88.6719V45.5908H103.747V44.9785Z" fill="#58595B"/>
<path d="M102.569 46.906H83.2207V47.5183H102.569V46.906Z" fill="#58595B"/>
<path d="M83.6007 48.8337H79.0156V49.4461H83.6007V48.8337Z" fill="#58595B"/>
<path d="M82.5931 50.7617H79.0156V51.3741H82.5931V50.7617Z" fill="#F2706D"/>
<path d="M85.5983 50.7617H83.6016V51.3741H85.5983V50.7617Z" fill="#0083C7"/>
<path d="M96.9393 50.7617H87.5957V51.3741H96.9393V50.7617Z" fill="#58595B"/>
<path d="M89.2631 52.689H83.9141V53.3013H89.2631V52.689Z" fill="#38B9C6"/>
<path d="M112.815 52.689H91.4531V53.3013H112.815V52.689Z" fill="#58595B"/>
<path d="M121.914 52.689H114.828V53.3013H121.914V52.689Z" fill="#38B9C6"/>
<path d="M80.4425 54.6172H72.3145V55.2295H80.4425V54.6172Z" fill="#58595B"/>
<path d="M91.2426 54.6172H83.9141V55.2295H91.2426V54.6172Z" fill="#58595B"/>
<path d="M84.599 56.5449H79.0156V57.1572H84.599V56.5449Z" fill="#58595B"/>
<path d="M80.9636 58.4724H76.2051V59.0848H80.9636V58.4724Z" fill="#0083C7"/>
<path d="M77.3855 60.4004H72.3145V61.0127H77.3855V60.4004Z" fill="#58595B"/>
<path d="M75.128 63.9658H72.3145V64.5781H75.128V63.9658Z" fill="#F2706D"/>
<path d="M80.4408 63.9658H76.5508V64.5781H80.4408V63.9658Z" fill="#58595B"/>
<path d="M92.113 63.9658H81.5195V64.5781H92.113V63.9658Z" fill="#58595B"/>
<path d="M83.7079 65.8433H75.7188V66.4556H83.7079V65.8433Z" fill="#58595B"/>
<path d="M91.7663 65.8433H86.0703V66.4556H91.7663V65.8433Z" fill="#0083C7"/>
<path d="M95.1691 67.7217H79.5391V68.334H95.1691V67.7217Z" fill="#58595B"/>
<path d="M82.6996 69.5989H79.5391V70.2112H82.6996V69.5989Z" fill="#F2706D"/>
<path d="M86.3805 69.5989H84.123V70.2112H86.3805V69.5989Z" fill="#38B9C6"/>
<path d="M108.889 69.5989H87.8398V70.2112H108.889V69.5989Z" fill="#58595B"/>
<path d="M115.245 69.5989H111.043V70.2112H115.245V69.5989Z" fill="#58595B"/>
<path d="M80.4429 71.4773H75.7188V72.0896H80.4429V71.4773Z" fill="#58595B"/>
<path d="M78.81 73.3555H72.3145V73.9678H78.81V73.3555Z" fill="#58595B"/>
<path d="M59.9376 18H150.207C150.456 18 150.694 18.0986 150.869 18.2742C151.045 18.4498 151.144 18.688 151.144 18.9363V20.9594H59.0059V18.9306C59.0074 18.684 59.106 18.448 59.2805 18.2738C59.4549 18.0996 59.691 18.0012 59.9376 18Z" fill="#485E88"/>
<path d="M110.002 117C110.002 118.78 109.474 120.52 108.485 122C107.496 123.48 106.09 124.634 104.446 125.315C102.801 125.996 100.992 126.174 99.2458 125.827C97.5 125.48 95.8963 124.622 94.6377 123.364C93.379 122.105 92.5219 120.501 92.1748 118.755C91.8276 117.009 92.006 115.2 92.6873 113.555C93.3686 111.911 94.5223 110.505 96.0025 109.516C97.4826 108.528 99.2228 108 101.003 108C102.185 108 103.355 108.233 104.447 108.685C105.539 109.137 106.531 109.8 107.366 110.636C108.202 111.472 108.865 112.464 109.317 113.556C109.769 114.648 110.002 115.818 110.002 117Z" fill="#0083C7"/>
<path d="M100.071 121.355L97.8741 119.172L97.5879 120.342L98.9089 121.655L100.071 121.355Z" fill="white"/>
<path d="M98.8289 121.928L97.2996 120.414L96.9796 121.716C96.9611 121.792 96.9627 121.872 96.9843 121.947C97.006 122.022 97.047 122.091 97.1033 122.146C97.1596 122.2 97.2293 122.24 97.3056 122.26C97.3819 122.281 97.4622 122.281 97.5388 122.262L98.8289 121.928Z" fill="white"/>
<path d="M99.1329 117.987L97.7598 119.36L98.3016 119.902L99.6747 118.529L99.1329 117.987Z" fill="white"/>
<path d="M103.114 114.207L101.934 115.387L103.856 117.31L105.037 116.129L103.114 114.207ZM102.41 115.864L103.531 114.743L103.717 114.928L102.595 116.05L102.41 115.864ZM103.379 116.834L103.193 116.647L104.314 115.526L104.501 115.712L103.379 116.834Z" fill="white"/>
<path d="M100.645 114.358C100.645 114 100.554 113.648 100.38 113.341C100.206 113.034 99.957 112.784 99.6589 112.616L98.0644 111.724L97.7872 112.019L99.2564 113.842L97.7254 115.468L96.0038 113.907L95.7266 114.203L96.5659 115.895C96.7222 116.212 96.9569 116.478 97.2448 116.664C97.5327 116.85 97.8629 116.949 98.2 116.951H98.8908L102.495 120.778C102.528 121.093 102.645 121.392 102.831 121.64C103.017 121.889 103.265 122.076 103.547 122.181C103.828 122.286 104.132 122.304 104.424 122.234C104.715 122.163 104.982 122.007 105.193 121.783C105.404 121.559 105.551 121.276 105.618 120.967C105.684 120.657 105.667 120.335 105.568 120.035C105.47 119.736 105.293 119.472 105.06 119.275C104.826 119.077 104.545 118.954 104.248 118.918L100.643 115.091L100.645 114.358ZM105.087 120.881L104.346 121.668L103.333 121.38L103.062 120.304L103.803 119.518L104.816 119.806L105.087 120.881Z" fill="white"/>
<path d="M105.453 116.069L103.174 113.782L103.526 113.439C103.828 113.136 104.238 112.966 104.665 112.966C105.092 112.966 105.502 113.136 105.805 113.439C105.954 113.589 106.073 113.767 106.154 113.963C106.236 114.16 106.277 114.37 106.277 114.582C106.277 114.795 106.236 115.005 106.154 115.201C106.073 115.397 105.954 115.575 105.805 115.725L105.453 116.069Z" fill="white"/>
<path d="M2.432 8.5858H2.93648C3.09758 8.05082 3.31279 7.53348 3.5788 7.0417L3.22456 6.6879C2.9983 6.46325 2.81873 6.19645 2.6961 5.90275C2.57348 5.60906 2.5102 5.29421 2.50988 4.97618C2.50956 4.65815 2.57221 4.34318 2.69424 4.04924C2.81627 3.7553 2.99531 3.48815 3.22111 3.26304C3.44692 3.03794 3.71508 2.85929 4.01029 2.73729C4.30549 2.61529 4.62197 2.55233 4.94163 2.55201C5.26129 2.5517 5.57788 2.61402 5.87333 2.73543C6.16878 2.85684 6.43731 3.03496 6.66357 3.25962L7.01918 3.61341C7.51349 3.34876 8.03349 3.13466 8.57122 2.97438V2.47659C8.5635 2.15417 8.62066 1.83347 8.73935 1.53335C8.85804 1.23323 9.03585 0.959747 9.26233 0.728996C9.48881 0.498245 9.75938 0.314878 10.0581 0.189686C10.3569 0.0644933 10.6778 0 11.002 0C11.3261 0 11.647 0.0644933 11.9458 0.189686C12.2445 0.314878 12.5151 0.498245 12.7416 0.728996C12.9681 0.959747 13.1459 1.23323 13.2646 1.53335C13.3832 1.83347 13.4404 2.15417 13.4327 2.47659V2.97713C13.9708 3.13765 14.4912 3.35174 14.9861 3.61616L15.3417 3.26235C15.7987 2.80883 16.418 2.55447 17.0635 2.55525C17.7089 2.55602 18.3276 2.81185 18.7835 3.26647C19.2393 3.72109 19.495 4.33725 19.4942 4.97941C19.4935 5.62157 19.2363 6.23711 18.7793 6.69064L18.4237 7.04444C18.6897 7.53622 18.9049 8.05357 19.066 8.58854H19.5705C20.2154 8.58854 20.8338 8.8434 21.2898 9.29705C21.7458 9.7507 22.002 10.366 22.002 11.0075C22.002 11.6491 21.7458 12.2644 21.2898 12.718C20.8338 13.1717 20.2154 13.4265 19.5705 13.4265H19.066C18.9047 13.961 18.6895 14.4778 18.4237 14.9693L18.7793 15.3244C19.0137 15.5471 19.201 15.814 19.3303 16.1097C19.4595 16.4054 19.528 16.7237 19.5317 17.0461C19.5355 17.3685 19.4744 17.6883 19.3522 17.9869C19.2299 18.2855 19.0489 18.5567 18.8197 18.7847C18.5906 19.0127 18.318 19.1928 18.0179 19.3144C17.7178 19.436 17.3963 19.4968 17.0722 19.493C16.7482 19.4893 16.4282 19.4211 16.131 19.2926C15.8338 19.164 15.5655 18.9777 15.3417 18.7445L14.9847 18.3838C14.4898 18.6483 13.9694 18.8623 13.4313 19.0229V19.5234C13.439 19.8458 13.3819 20.1665 13.2632 20.4667C13.1445 20.7668 12.9667 21.0403 12.7402 21.271C12.5137 21.5018 12.2431 21.6851 11.9444 21.8103C11.6456 21.9355 11.3247 22 11.0006 22C10.6764 22 10.3555 21.9355 10.0568 21.8103C9.758 21.6851 9.48743 21.5018 9.26095 21.271C9.03447 21.0403 8.85666 20.7668 8.73797 20.4667C8.61928 20.1665 8.56212 19.8458 8.56984 19.5234V19.0229C8.03211 18.8626 7.51211 18.6485 7.0178 18.3838L6.66219 18.7376C6.20076 19.1604 5.59296 19.3894 4.96579 19.3768C4.33863 19.3641 3.74065 19.1108 3.29682 18.6698C2.85299 18.2288 2.59766 17.6341 2.5842 17.0102C2.57073 16.3863 2.80017 15.7813 3.22456 15.3217L3.58017 14.9665C3.31441 14.4751 3.09922 13.9582 2.93786 13.4238H2.43338C1.78853 13.4238 1.17009 13.1689 0.714104 12.7153C0.258123 12.2616 0.00195312 11.6464 0.00195312 11.0048C0.00195312 10.3632 0.258123 9.74796 0.714104 9.29431C1.17009 8.84066 1.78853 8.5858 2.43338 8.5858H2.432ZM10.9999 15.8538C11.9636 15.8538 12.9057 15.5694 13.707 15.0367C14.5084 14.504 15.1329 13.7468 15.5016 12.8609C15.8704 11.9751 15.9668 11.0003 15.7787 10.0599C15.5905 9.11957 15.1263 8.25581 14.4448 7.57792C13.7632 6.90003 12.8949 6.43844 11.9496 6.25155C11.0044 6.06466 10.0246 6.16085 9.13431 6.52797C8.244 6.89508 7.48311 7.51662 6.94788 8.31399C6.41265 9.11135 6.12711 10.0487 6.12738 11.0075C6.12848 12.2925 6.64232 13.5244 7.55597 14.4327C8.46962 15.3409 9.70833 15.851 10.9999 15.851V15.8538Z" fill="#485E88"/>
</svg>
