<svg width="98" height="161" viewBox="0 0 98 161" fill="none" xmlns="http://www.w3.org/2000/svg">
<path d="M68.7023 154.42H24.2975L19.5303 108.187H73.4695L68.7023 154.42Z" fill="#005386"/>
<path d="M64.1658 0.500866C56.4767 -2.11904 46.9422 5.81773 42.7131 18.2238C42.1797 19.824 41.7558 21.4588 41.4444 23.1168C36.7729 26.6965 33.4848 31.789 32.1406 37.5263C31.325 41.0019 31.2334 44.6088 31.8715 48.1215C29.8022 51.9002 28.4958 56.0503 28.0269 60.3349C26.4891 75.7461 35.2931 89.1539 47.7495 90.4638C60.2059 91.7738 71.5858 80.3309 73.1621 64.9968C73.6987 60.1019 73.1203 55.1487 71.4705 50.5102C71.9108 49.3515 72.2831 48.168 72.5854 46.9657C74.0979 40.6461 73.1347 33.9859 69.8942 28.3566L70.1249 27.6631C74.5077 15.4112 71.778 3.12077 64.1658 0.500866Z" fill="#20BCB5"/>
<path d="M45.4034 110.807C43.7297 75.7802 48.8745 40.7622 60.551 7.70557H61.0123C49.3597 40.7014 44.2151 75.6517 45.8647 110.614L45.4034 110.807Z" fill="#273C75"/>
<path d="M48.749 55.7501H48.4414C48.4414 55.4804 49.6717 49.1233 66.9722 41.9956V42.2653C49.9792 49.2774 48.749 55.7116 48.749 55.7501Z" fill="#273C75"/>
<path d="M2.61357 46.2336C5.30477 42.5734 12.2634 43.1513 18.1841 47.5435C18.9177 48.0695 19.6116 48.649 20.2601 49.2773C22.9105 49.4356 25.4685 50.311 27.6619 51.8103C29.8554 53.3097 31.6022 55.3769 32.7165 57.792C34.8938 58.8336 36.8414 60.3007 38.4449 62.1071C44.0964 68.6954 44.3271 77.7495 38.9831 82.3344C33.6392 86.9192 24.7198 85.301 19.1068 78.7127C17.2965 76.6345 15.9818 74.1707 15.2622 71.508C14.6696 71.1268 14.1158 70.688 13.609 70.198C10.8752 67.7818 9.18062 64.3991 8.88021 60.7587L8.57265 60.5275C2.57513 56.1738 -0.000731349 49.6626 2.61357 46.2336Z" fill="#4DC9C4"/>
<path d="M45.0196 101.29C42.6744 65.4975 6.15106 47.6205 5.7666 47.4278L5.99728 47.004C12.8615 50.6005 19.2002 55.1249 24.8356 60.4503C36.6532 70.918 44.0377 85.5119 45.4809 101.251L45.0196 101.29Z" fill="#273C75"/>
<path d="M33.0243 70.0439C31.1933 68.4766 29.0292 67.3495 26.6971 66.7485C24.3649 66.1475 21.9266 66.0887 19.5684 66.5764V66.3067C21.9599 65.8224 24.4297 65.8862 26.7931 66.4934C29.1565 67.1005 31.3524 68.2352 33.2166 69.8127L33.0243 70.0439Z" fill="#273C75"/>
<path opacity="0.4" d="M50.5192 161C76.2111 161 97.0384 159.965 97.0384 158.689C97.0384 157.412 76.2111 156.377 50.5192 156.377C24.8274 156.377 4 157.412 4 158.689C4 159.965 24.8274 161 50.5192 161Z" fill="#75B3D0"/>
</svg>
