<svg width="139" height="201" viewBox="0 0 139 201" fill="none" xmlns="http://www.w3.org/2000/svg">
<path d="M66.0191 155.744L64.9309 155.903C63.1172 143.219 64.1601 103.716 64.1828 103.398L64.6589 103.625C64.6589 104.011 64.2281 143.151 66.0191 155.744Z" fill="#419495"/>
<path d="M64.3414 103.966C62.247 102.708 60.6466 100.77 59.8071 98.4746C59.0816 95.2753 56.5651 87.6968 57.0639 83.5899C57.5626 79.4831 56.8825 71.2466 58.3335 65.438C59.7844 59.6293 58.3335 55.0686 60.3286 47.4221C62.3236 39.7756 67.266 14.93 70.6667 10.029C74.0674 5.12793 77.6041 2.33707 78.443 0C78.443 0 76.7653 2.83625 78.647 9.41635C80.6253 17.6901 81.502 26.1893 81.2542 34.693C81.0049 42.3849 80.5514 62.3975 80.1207 69.4087C79.6899 76.4199 76.8333 91.2592 73.7727 95.1391C70.7121 99.0191 69.1024 99.1553 67.7874 100.857C66.4725 102.559 65.9737 103.534 64.3414 103.966Z" fill="#37A3CA"/>
<path d="M64.1828 103.421C64.1828 103.421 67.6515 74.5822 68.8984 66.5046C70.1453 58.4269 73.8861 32.4696 74.4302 24.5054C74.9744 16.5412 74.5663 12.2755 75.6998 8.00977C75.2099 11.7172 75.0128 15.4575 75.1104 19.1959C75.1104 26.434 71.3016 53.7755 71.3016 53.7755L67.5155 84.4977L64.6589 103.693L64.1828 103.421Z" fill="#5FB5D5"/>
<path d="M138.296 26.5248C135.47 26.1159 132.588 26.3802 129.884 27.2962C126.665 28.8164 107.712 44.6995 98.9834 54.8646C90.2549 65.0297 72.5485 92.0762 71.1882 96.0696C69.8279 100.063 67.6288 102.877 67.6742 108.481C67.7195 114.085 67.0847 116.899 70.4854 119.463C70.4854 119.463 72.1631 119.463 73.3874 116.581C74.6116 113.7 74.793 115.311 77.0601 110.069C79.3273 104.828 83.7255 100.63 87.0809 94.3452C90.4362 88.06 90.2322 92.5527 95.1066 83.4313C99.9809 74.3099 96.6255 84.0893 106.238 71.0879C115.851 58.0866 131.177 41.5909 133.285 38.074C134.913 35.4342 136.178 32.5876 137.049 29.6106C137.153 28.482 137.587 27.4089 138.296 26.5248Z" fill="#058CBD"/>
<path d="M131.947 31.5845C131.947 31.5845 104.742 66.754 95.2198 79.5511C87.974 89.5106 81.2395 99.8328 75.0423 110.478L70.2813 119.168L70.7801 119.281C70.7801 119.281 79.6899 103.92 84.995 95.9106C90.3002 87.901 99.7995 74.2417 104.946 67.6843C110.092 61.1268 131.947 31.5845 131.947 31.5845Z" fill="#37A3CA"/>
<path d="M68.8983 166.681L68.0141 166.953C65.4749 151.569 70.2812 119.599 70.2812 119.304H70.78C70.712 119.576 66.3817 151.456 68.8983 166.681Z" fill="#419495"/>
<path d="M58.2428 150.344H59.059C61.1901 137.456 57.1319 110.591 57.0866 110.319H56.6785C56.6785 110.795 60.3512 137.456 58.2428 150.344Z" fill="#419495"/>
<path d="M0 32.6284C2.36739 32.2788 4.78387 32.4966 7.0508 33.2637C9.7487 34.557 25.664 47.8987 33.0095 56.4302C40.3551 64.9616 55.1595 87.697 56.3157 91.0324C57.472 94.3679 59.3084 96.8638 59.263 101.47C59.2177 106.076 59.7618 108.526 56.9959 110.682C56.9959 110.682 56.2251 112.202 53.9126 111.158C50.6479 109.684 49.3783 110.591 47.5419 106.189C45.7055 101.787 44.912 102.287 42.1008 97.1133C39.2895 91.94 39.4482 92.0535 35.2994 84.407C31.1505 76.7604 35.0046 81.0488 26.9109 70.1349C18.8173 59.2211 5.9399 45.4028 4.23955 42.4078C2.87098 40.1921 1.80359 37.8037 1.06556 35.3058C0.99503 34.3246 0.622814 33.3894 0 32.6284H0Z" fill="#058CBD"/>
<path d="M5.30521 36.8711C5.30521 36.8711 27.9766 66.3681 36.1383 77.1686C42.2313 85.5247 47.8915 94.1886 53.0965 103.126L57.0867 110.432H56.7013C56.7013 110.432 49.197 97.5215 44.7534 90.7826C40.3098 84.0436 32.3068 72.6306 27.9993 67.0942C23.6917 61.5578 5.30521 36.8711 5.30521 36.8711Z" fill="#37A3CA"/>
<path d="M67.0846 198.152H59.7617C55.6355 198.152 52.2121 195.656 51.8721 192.366L46.3629 138.432H80.4834L74.9742 192.366C74.6568 195.656 71.2108 198.152 67.0846 198.152Z" fill="#57C5C7"/>
<g opacity="0.6">
<path opacity="0.6" d="M59.7617 198.152H67.0845C71.2107 198.152 74.6568 195.656 74.9742 192.366L80.4833 138.432H73.6819C73.4098 146.577 72.2083 174.01 68.6262 181.248C65.7242 187.102 58.5147 190.619 51.94 192.343C52.1441 195.656 55.6355 198.152 59.7617 198.152Z" fill="#DFECF8"/>
</g>
<path opacity="0.2" d="M63 201C75.7026 201 86 199.657 86 198C86 196.343 75.7026 195 63 195C50.2975 195 40 196.343 40 198C40 199.657 50.2975 201 63 201Z" fill="#005386"/>
</svg>
