<svg width="103" height="156" viewBox="0 0 103 156" fill="none" xmlns="http://www.w3.org/2000/svg">
<path opacity="0.2" d="M56.2012 155.435C43.4986 155.435 33.2012 154.54 33.2012 153.435C33.2012 152.33 43.4986 151.435 56.2012 151.435C68.9037 151.435 79.2012 152.33 79.2012 153.435C79.2012 154.54 68.9037 155.435 56.2012 155.435Z" fill="#058CBD"/>
<path d="M53.3988 115.003H54.1933C55.5415 105.64 54.7711 76.4918 54.7711 76.2271L54.41 76.3955C54.41 76.8047 54.7229 105.688 53.3988 115.003Z" fill="#419495"/>
<path d="M54.6263 76.7567C56.195 75.8394 57.4016 74.4121 58.0451 72.7131C58.5748 70.3061 60.4527 64.7461 60.0675 61.7134C59.6823 58.6807 60.1879 52.6153 59.1285 48.331C58.0692 44.0466 59.1285 40.6769 57.6599 35.0207C56.1912 29.3644 52.4595 10.9515 49.9556 7.38924C47.4517 3.827 44.8515 1.73298 44.2255 0C44.2255 0 45.4534 2.09402 44.057 6.956C42.6117 13.0646 41.9643 19.3347 42.1309 25.6096C42.3235 31.29 42.6606 46.0684 42.9735 51.2433C43.2865 56.4182 45.3811 67.3938 47.7887 70.258C50.1963 73.1222 51.2316 73.2185 52.1946 74.4701C53.1577 75.7217 53.4225 76.4438 54.6263 76.7567Z" fill="#37A3CA"/>
<path d="M54.7734 76.347C54.7734 76.347 52.1973 55.0458 51.2584 49.0766C50.3194 43.1075 47.5747 24.0206 47.1895 18.0755C47.2089 13.997 46.8949 9.9238 46.2506 5.89648C46.61 8.6329 46.7549 11.3932 46.6839 14.1522C46.6839 19.4956 49.5008 39.6896 49.5008 39.6896L52.2936 62.3628L54.4123 76.5396L54.7734 76.347Z" fill="#5FB5D5"/>
<path d="M0.000385284 19.5679C2.08772 19.2768 4.21417 19.4746 6.21199 20.1456C14.5136 26.1228 22.1708 32.947 29.0601 40.5081C35.5124 48.0177 48.5616 67.9952 49.5728 70.9316C50.584 73.868 52.197 76.0583 52.173 80.2223C52.1489 84.3863 52.6063 86.4322 50.1024 88.3336C50.1024 88.3336 48.8505 88.3336 47.9597 86.1915C47.0689 84.0493 46.9003 85.2528 45.2391 81.3776C43.5779 77.5025 40.3035 74.3976 37.8237 69.7522C35.3439 65.1069 35.4161 68.4284 31.901 61.7131C28.3859 54.9978 30.7695 62.1704 23.667 52.5909C16.5646 43.0113 5.2008 30.9286 3.68401 28.2088C2.48135 26.2634 1.54221 24.1672 0.891193 21.9748C0.856785 21.0985 0.544857 20.2556 0.000385284 19.5679Z" fill="#058CBD"/>
<path d="M4.67105 23.3228C4.67105 23.3228 24.7022 49.2934 31.8046 58.7526C37.2067 66.0916 42.2213 73.7079 46.828 81.5702L50.3672 87.9967H50.006C50.006 87.9967 43.4092 76.636 39.4849 70.715C35.5605 64.794 28.5544 54.709 24.7504 49.8711C20.9464 45.0332 4.67105 23.3228 4.67105 23.3228Z" fill="#37A3CA"/>
<path d="M51.2808 123.066H51.979C53.8569 111.705 50.2937 88.0931 50.2696 87.8765H49.9084C49.9325 88.2856 53.1346 111.825 51.2808 123.066Z" fill="#419495"/>
<path d="M59.1536 111.007H58.5517C56.9627 101.379 59.9722 81.6423 59.9962 81.4497H60.2852C60.2611 81.8107 57.5887 101.572 59.1536 111.007Z" fill="#419495"/>
<path d="M102.201 24.0688C100.452 23.8303 98.6712 24.0034 97.0008 24.5743C90.0005 29.5818 83.545 35.3095 77.74 41.6634C71.3258 49.7003 65.5691 58.2404 60.5257 67.2008C59.2657 69.5958 58.5195 72.2273 58.3348 74.927C58.3348 78.3208 57.9737 80.126 60.0923 81.7386C60.0923 81.7386 60.6702 82.8458 62.3796 82.0756C64.7872 80.9925 65.6539 81.6664 67.0744 78.4171C68.2969 76.0869 69.6389 73.8214 71.0951 71.6296L76.0788 62.2426C79.1123 56.5863 76.3195 59.8357 82.2904 51.7243C88.2612 43.613 97.7953 33.4558 99.1435 31.2415C100.18 29.6095 100.99 27.8443 101.551 25.9944C101.594 25.3064 101.818 24.642 102.201 24.0688Z" fill="#058CBD"/>
<path d="M98.2754 27.2705C98.2754 27.2705 81.4222 49.1013 75.4995 57.02C70.9925 63.2203 66.8058 69.6472 62.956 76.2754L59.9946 81.6669H60.2836C60.2836 81.6669 65.8451 72.0392 69.1194 67.2254C72.3938 62.4115 78.3164 53.7466 81.5185 49.6067C84.7206 45.4668 98.2754 27.2705 98.2754 27.2705Z" fill="#37A3CA"/>
<path d="M52.6037 146.316H58.0208C59.344 146.436 60.6653 146.069 61.7376 145.285C62.81 144.501 63.5599 143.353 63.8472 142.056L67.916 102.222H42.7085L46.8255 142.056C47.1118 143.344 47.8546 144.485 48.9167 145.268C49.9788 146.051 51.2884 146.423 52.6037 146.316Z" fill="white"/>
<g opacity="0.6">
<path opacity="0.6" d="M58.0232 146.316H52.6061C51.2908 146.423 49.9812 146.051 48.9191 145.268C47.857 144.485 47.1142 143.344 46.8279 142.056L42.7591 102.222H47.791C47.9836 108.215 48.8744 128.481 51.5227 133.825C53.6655 138.157 58.9863 140.732 63.8496 142.032C63.5674 143.333 62.8196 144.487 61.7467 145.276C60.6739 146.065 59.3498 146.435 58.0232 146.316Z" fill="#DFECF8"/>
</g>
</svg>
