<svg width="108" height="144" viewBox="0 0 108 144" fill="none" xmlns="http://www.w3.org/2000/svg">
<path opacity="0.2" d="M56.5 144C72.7924 144 86 142.881 86 141.5C86 140.119 72.7924 139 56.5 139C40.2076 139 27 140.119 27 141.5C27 142.881 40.2076 144 56.5 144Z" fill="#058CBD"/>
<path d="M21.5 27.5508C21.5 27.5508 62.6399 57.6611 41.5117 119.379L47.2624 119.724C47.2624 119.724 64.4865 57.9634 21.5 27.5508Z" fill="#364766"/>
<path d="M97.5512 32.7051C97.5512 32.7051 55.1895 53.4419 64.4722 113.142L59.1778 112.509C59.1778 112.509 53.4622 53.4419 97.5512 32.7051Z" fill="#364766"/>
<path d="M24.1827 38.1271C28.3396 31.039 30.6707 21.6726 31.5976 17.2214C30.1933 15.9276 29.8071 13.9727 29.4911 11.9546C29.119 9.71847 26.9352 4.28989 26.9352 4.28989C26.2331 0.0707967 21.5918 -1.41995 18.418 1.58967L8.58766 10.9209C1.06747 18.009 -1.88864 29.1685 1.22897 38.6052L8.84746 56.1848C9.32493 57.6474 10.2518 62.3728 11.5157 65.1082C11.7966 64.1167 12.0564 62.0212 12.2881 61.0789C15.4478 48.2529 18.5514 47.7466 24.1827 38.1271Z" fill="#85D2DA"/>
<path d="M14.7456 63.5256L33.704 52.7387C43.5344 47.2258 50.2471 36.4741 51.2582 24.7802L51.9603 16.342C52.3606 11.7291 49.243 9.88679 44.3418 10.7869C42.446 11.1385 40.5291 11.919 36.934 13.6418C35.3822 14.3872 33.2617 16.8764 31.5975 17.221C30.6566 21.6721 28.3255 31.0385 24.1686 38.1266C18.5513 47.7461 15.4478 48.2524 12.288 61.0644C12.0563 62.0067 11.7965 64.1022 11.5156 65.0937C12.6742 64.1162 13.6643 64.1303 14.7456 63.5256Z" fill="#9DDBE1"/>
<path d="M87.5671 23.3456C86.8886 23.5956 86.1521 23.6423 85.4476 23.4799C84.7431 23.3176 84.101 22.9533 83.5999 22.4315L77.477 16.806C74.6683 14.2324 72.0071 15.3504 72.3933 19.3586C72.5337 20.8071 72.1827 25.8349 72.1827 25.8349C72.1124 36.024 75.6935 42.5777 82.343 49.3141C85.4114 52.4081 90.4811 59.3345 94.027 62.2668C94.8626 62.97 98.7105 66.4859 99.5671 66.3593C98.1206 58.343 95.7754 49.1102 92.8474 42.0643C90.3828 36.0459 88.6113 29.7658 87.5671 23.3456Z" fill="#85D2DA"/>
<path d="M102.003 59.7072C104.109 56.1913 107.353 47.9148 107.873 42.9363C108.491 35.3114 106.286 27.7253 101.68 21.6228C99.9105 19.2882 99.6788 14.1409 98.6536 11.7782C97.165 8.31155 92.4254 9.93591 91.5898 13.9933C91.2036 15.8848 89.8695 20.4907 89.8695 20.4907C89.7442 21.1174 89.4693 21.7044 89.0683 22.2016C88.6672 22.6987 88.1519 23.0913 87.5664 23.3456C88.6132 29.7539 90.3847 36.022 92.8467 42.0292C95.7747 49.061 98.12 58.3079 99.5664 66.3241C100.542 63.5747 99.0047 64.749 102.003 59.7072Z" fill="#9DDBE1"/>
<path d="M64.9997 25.4553C64.9997 25.4553 61.7065 39.2236 58.5819 65.0937C57.1775 76.4572 57.5708 89.0793 57.0371 101.315H58.9189C58.1664 89.3009 58.3566 77.2465 59.4877 65.2625C61.6925 44.3569 65.0207 28.9361 65.6105 25.0264C66.7902 17.2351 64.9997 25.4553 64.9997 25.4553Z" fill="#0083C7"/>
<path d="M62.9986 37.7893C61.187 37.4166 61.0255 34.5125 61.5943 32.1146C63.0759 26.2149 65.2526 16.1453 67.0431 11.0191C67.8436 8.73379 68.2438 6.80004 68.9179 6.86333H69.297C69.9992 7.25008 70.259 8.97288 70.0835 10.4425C69.3813 16.3071 67.5978 27.8955 66.3339 33.8866C65.8635 36.3267 64.8102 38.162 62.9986 37.7893Z" fill="#F47954"/>
<path d="M31.5977 60.4741C31.5977 60.4741 38.7597 64.7917 44.033 82.5541C49.3063 100.316 52.8241 102.243 52.8241 102.243L51.2091 102.883C47.27 95.5489 43.2676 87.0685 41.6597 80.3812C38.0646 65.3964 31.5977 60.4741 31.5977 60.4741Z" fill="#85D2DA"/>
<path d="M46.638 96.0833C46.638 96.0833 40.803 86.8013 39.0266 76.9005C37.2501 66.9997 33.5567 62.5063 31.5977 60.4741C31.5977 60.4741 38.0997 65.3964 41.6948 80.3531C43.3027 87.0474 47.3121 95.5278 51.2442 102.855L50.2893 103.235L46.638 96.0833Z" fill="#A6A8AB"/>
<path d="M46.638 96.0833C46.638 96.0833 40.803 86.8013 39.0266 76.9005C37.2501 66.9997 33.5567 62.5063 31.5977 60.4741C31.5977 60.4741 38.0997 65.3964 41.6948 80.3531C43.3027 87.0474 47.3121 95.5278 51.2442 102.855L50.2893 103.235L46.638 96.0833Z" fill="#9DDBE1"/>
<path d="M82.6093 54.6514C82.6093 54.6514 74.731 59.4822 69.1347 79.1292C63.5385 98.7761 59.6836 100.928 59.6836 100.928L61.4741 101.631C65.6871 93.4952 70.0335 84.1007 71.7257 76.7032C75.5034 60.1362 82.6093 54.6514 82.6093 54.6514Z" fill="#85D2DA"/>
<path d="M66.4319 94.0718C66.4319 94.0718 72.7514 83.7702 74.584 72.8357C76.4167 61.9012 80.4331 56.9016 82.6098 54.6514C82.6098 54.6514 75.5039 60.1362 71.7262 76.6891C70.034 84.0866 65.7227 93.4811 61.4746 101.617L62.5349 102.025L66.4319 94.0718Z" fill="#A6A8AB"/>
<path d="M66.4319 94.0718C66.4319 94.0718 72.7514 83.7702 74.584 72.8357C76.4167 61.9012 80.4331 56.9016 82.6098 54.6514C82.6098 54.6514 75.5039 60.1362 71.7262 76.6891C70.034 84.0866 65.7227 93.4811 61.4746 101.617L62.5349 102.025L66.4319 94.0718Z" fill="#9DDBE1"/>
<path d="M71.1501 40.855C71.1501 40.855 63.7422 47.5704 61.734 69.5589C59.7258 91.5474 56.0605 94.6063 56.0605 94.6063L58.1038 94.979C60.9827 85.486 63.679 74.6429 63.995 66.4508C64.6972 48.1118 71.1501 40.855 71.1501 40.855Z" fill="#85D2DA"/>
<path d="M61.8543 85.9712C61.8543 85.9712 66.5026 73.7639 66.2639 61.7817C66.0251 49.7995 69.2902 43.6888 71.179 40.855C71.179 40.855 64.7261 48.1118 64.024 66.4508C63.708 74.6429 61.0117 85.486 58.1328 94.979L59.3335 95.204L61.8543 85.9712Z" fill="#A6A8AB"/>
<path d="M61.8543 85.9712C61.8543 85.9712 66.5026 73.7639 66.2639 61.7817C66.0251 49.7995 69.2902 43.6888 71.179 40.855C71.179 40.855 64.7261 48.1118 64.024 66.4508C63.708 74.6429 61.0117 85.486 58.1328 94.979L59.3335 95.204L61.8543 85.9712Z" fill="#9DDBE1"/>
<path d="M53.4902 25.6665C53.4902 25.6665 61.2141 36.3689 57.8507 65.3401C54.4873 94.3112 58.3633 99.2757 58.3633 99.2757L55.6178 99.2054C54.4733 86.1402 53.9466 71.3875 55.7723 60.7061C59.8519 36.8049 53.4902 25.6665 53.4902 25.6665Z" fill="#85D2DA"/>
<path d="M53.2252 86.527C53.2252 86.527 50.557 69.4748 54.11 54.054C57.6629 38.6332 55.1281 29.8293 53.4921 25.6665C53.4921 25.6665 59.8537 36.8049 55.7741 60.7061C53.9485 71.3875 54.4751 86.1402 55.6196 99.2054L54.0047 99.1561L53.2252 86.527Z" fill="#A6A8AB"/>
<path d="M53.2252 86.527C53.2252 86.527 50.557 69.4748 54.11 54.054C57.6629 38.6332 55.1281 29.8293 53.4921 25.6665C53.4921 25.6665 59.8537 36.8049 55.7741 60.7061C53.9485 71.3875 54.4751 86.1402 55.6196 99.2054L54.0047 99.1561L53.2252 86.527Z" fill="#9DDBE1"/>
<path d="M73.714 132.993H35.8041L34.9826 123.809L32.3214 122.459L29.913 95.3446L27.8767 95L27.1113 89.9512H82.3787L81.6134 94.9789L79.542 95.443L76.9019 122.241L74.6198 123.823L73.714 132.993Z" fill="#4195C9"/>
</svg>
