<svg width="107" height="131" viewBox="0 0 107 131" fill="none" xmlns="http://www.w3.org/2000/svg">
	
<path d="M85.3009 27.1394C85.3009 27.1394 44.7173 56.7834 65.5561 117.545L59.8886 117.885C59.8886 117.885 42.8942 57.0844 85.3009 27.1394Z" fill="#FECE71"/>
<path d="M10.2767 32.2175C10.2767 32.2175 52.0653 52.6641 42.9102 111.437L48.1338 110.835C48.1338 110.835 53.8091 52.6403 10.2767 32.2175Z" fill="#FECE71"/>
<path d="M82.6535 37.5568C78.5555 30.5855 76.2569 21.3564 75.3215 16.9597C76.6849 15.6764 77.097 13.791 77.43 11.7709C77.8025 9.56857 79.9585 4.22125 79.9585 4.22125C80.664 0.0463784 85.2296 -1.39542 88.3606 1.55947L98.0784 10.7489C105.458 17.7282 108.383 28.7159 105.299 38.0084L97.7852 55.302C97.3096 56.7359 96.4218 61.3861 95.1457 64.0796C94.8762 63.1131 94.6146 61.0454 94.353 60.1186C91.3013 47.5306 88.21 47.0236 82.6535 37.5568Z" fill="#85D2DA"/>
<path d="M91.9751 62.5666L73.2369 51.975C63.5824 46.5167 56.94 35.933 55.9413 24.4224L55.22 16.0964C54.8237 11.5571 57.8991 9.75884 62.7343 10.6303C64.6049 10.9788 66.4914 11.7393 70.0425 13.4425C71.6278 14.1872 73.6966 16.6113 75.3215 16.9837C76.2569 21.3566 78.5555 30.5857 82.6535 37.5808C88.2021 47.0871 91.3013 47.5545 94.3847 60.1583C94.6146 61.0931 94.8762 63.1608 95.1774 64.1193C94.0122 63.1449 93.0293 63.1608 91.9751 62.5666Z" fill="#9DDBE1"/>
<path d="M20.1294 23.0122C20.7995 23.2565 21.5262 23.3012 22.2213 23.1409C22.9163 22.9806 23.5499 22.6222 24.0451 22.1091L30.0772 16.5637C32.8277 14.0208 35.4751 15.1299 35.0947 19.0671C34.9599 20.501 35.3007 25.4522 35.3007 25.4522C35.3721 35.4814 31.8765 41.9299 25.2816 48.5605C22.2537 51.6105 17.26 58.4313 13.7565 61.3149C12.9242 62.0041 9.13537 65.4818 8.29517 65.3392C9.72194 57.4569 12.0285 48.3625 14.9217 41.4308C17.3489 35.5078 19.096 29.3288 20.1294 23.0122Z" fill="#9DDBE1"/>
<path d="M5.89346 58.8275C3.8088 55.3419 0.606502 47.2139 0.099207 42.3102C-0.507357 34.7918 1.68281 27.314 6.25017 21.3092C7.99399 19.0197 8.22387 13.9417 9.23053 11.6206C10.7049 8.20622 15.3735 9.80646 16.1979 13.7991C16.5863 15.6608 17.8942 20.2001 17.8942 20.2001C18.0228 20.8156 18.2962 21.3918 18.6918 21.8808C19.0873 22.3699 19.5937 22.7577 20.1691 23.0124C19.1205 29.3197 17.3602 35.4881 14.9217 41.3992C12.0286 48.3309 9.72198 57.4253 8.29521 65.3077C7.32818 62.6142 8.8659 63.7708 5.89346 58.8275Z" fill="#85D2DA"/>
<path d="M42.3948 25.0797C42.3948 25.0797 45.6368 38.6421 48.7361 64.1033C50.0994 75.297 49.7349 87.7187 50.2659 99.7521H48.4111C49.1486 87.9254 48.9604 76.0591 47.8483 64.2617C45.6685 43.6646 42.3869 28.4941 41.8003 24.6519C40.6272 16.9914 42.3948 25.0797 42.3948 25.0797Z" fill="#FECE71"/>
<path d="M44.3687 37.2243C46.1521 36.8599 46.3106 34.0001 45.7161 31.6393C44.2497 25.8326 42.1096 15.9222 40.3341 10.8601C39.5414 8.61025 39.153 6.73273 38.4872 6.77234H38.1147C37.4013 7.1526 37.1714 8.82413 37.322 10.2897C38.0037 16.0727 39.7713 27.4724 41.0157 33.3743C41.5389 35.7904 42.5773 37.5967 44.3687 37.2243Z" fill="#F47954"/>
<path d="M75.377 59.572C75.377 59.572 68.2432 63.8103 63.0751 81.294C57.907 98.7778 54.356 100.671 54.356 100.671L55.9413 101.305C59.8252 94.0801 63.7726 85.7303 65.3579 79.1234C68.9565 64.3727 75.377 59.572 75.377 59.572Z" fill="#85D2DA"/>
<path d="M60.5069 114.611C60.5069 114.611 66.2615 105.477 68.0054 95.7328C69.7492 85.9888 73.4033 81.5604 75.377 79.572C75.377 79.572 68.9566 84.4044 65.4134 99.1472C63.8281 105.73 59.8649 114.08 55.9968 121.329L56.94 121.701L60.5069 114.611Z" fill="#A5A7AA"/>
<path d="M60.5069 94.6109C60.5069 94.6109 66.2615 85.4768 68.0054 75.7328C69.7492 65.9888 73.4033 61.5604 75.377 59.572C75.377 59.572 68.9566 64.4044 65.4134 79.1472C63.8281 85.7303 59.8649 94.0801 55.9968 101.329L56.94 101.701L60.5069 94.6109Z" fill="#9DDBE1"/>
<path d="M25.0121 53.8286C25.0121 53.8286 32.7959 58.5818 38.3128 77.9272C43.8296 97.2726 47.6343 99.3878 47.6343 99.3878L45.8667 100.069C41.6736 92.052 37.425 82.8071 35.7604 75.511C32.027 59.2314 25.0121 53.8286 25.0121 53.8286Z" fill="#9DDBE1"/>
<path d="M40.9761 112.63C40.9761 112.63 34.7458 102.49 32.9386 91.7322C31.1313 80.9742 27.1681 76.0468 25.0121 73.8286C25.0121 73.8286 32.027 79.2314 35.7604 95.5268C37.425 102.807 41.6736 112.052 45.8667 120.085L44.8283 120.481L40.9761 112.63Z" fill="#A5A7AA"/>
<path d="M40.9761 92.6304C40.9761 92.6304 34.7458 82.4903 32.9386 71.7322C31.1313 60.9742 27.1681 56.0468 25.0121 53.8286C25.0121 53.8286 32.027 59.2314 35.7604 75.5268C37.425 82.8071 41.6736 92.0521 45.8667 100.085L44.8283 100.481L40.9761 92.6304Z" fill="#85D2DA"/>
<path d="M36.3232 40.2504C36.3232 40.2504 43.6314 46.8573 45.613 68.508C47.5946 90.1587 51.209 93.1611 51.209 93.1611L49.1957 93.5334C46.3501 84.1855 43.6948 73.5068 43.3856 65.4422C42.7119 47.3881 36.3232 40.2504 36.3232 40.2504Z" fill="#9DDBE1"/>
<path d="M45.4941 104.661C45.4941 104.661 40.9126 92.6432 41.1425 80.8475C41.3724 69.0517 38.1621 63.031 36.3232 60.2504C36.3232 60.2504 42.6644 67.3801 43.3857 85.4422C43.6948 93.5068 46.3502 104.186 49.1958 113.533L48.0068 113.747L45.4941 104.661Z" fill="#A5A7AA"/>
<path d="M45.4941 84.6609C45.4941 84.6609 40.9126 72.6432 41.1425 60.8475C41.3724 49.0517 38.1621 43.031 36.3232 40.2504C36.3232 40.2504 42.6644 47.3801 43.3857 65.4422C43.6948 73.5068 46.3502 84.1856 49.1958 93.5335L48.0068 93.7473L45.4941 84.6609Z" fill="#85D2DA"/>
<path d="M53.7457 25.2937C53.7457 25.2937 46.1044 35.8537 49.4415 64.3727C52.7786 92.8917 48.9342 97.7796 48.9342 97.7796L51.6451 97.7004C52.7707 84.843 53.2939 70.3142 51.4945 59.8017C47.4678 36.2577 53.7457 25.2937 53.7457 25.2937Z" fill="#85D2DA"/>
<path d="M54.0072 105.207C54.0072 105.207 56.6546 88.4208 53.1353 73.2424C49.616 58.0639 52.1365 49.3894 53.7456 45.2937C53.7456 45.2937 47.4679 56.2577 51.4945 79.7859C53.2938 90.2983 52.7707 104.827 51.6451 117.685L53.2304 117.645L54.0072 105.207Z" fill="#A5A7AA"/>
<path d="M54.0072 85.2074C54.0072 85.2074 56.6546 68.4208 53.1353 53.2424C49.616 38.0639 52.1365 29.3894 53.7456 25.2937C53.7456 25.2937 47.4679 36.2577 51.4945 59.7859C53.2938 70.2983 52.7707 84.8272 51.6451 97.6845L53.2304 97.6449L54.0072 85.2074Z" fill="#9DDBE1"/>
<path d="M33.7947 130.957H71.1919L72.0004 121.91L74.6241 120.587L77.002 93.8901L79.0153 93.5495L79.7684 88.5745H25.2499L26.003 93.5336L28.048 93.9852L30.6558 120.365L32.899 121.926L33.7947 130.957Z" fill="#435D88"/>
</svg>
