<svg width="120" height="175" viewBox="0 0 120 175" fill="none" xmlns="http://www.w3.org/2000/svg">
	
<g clip-path="url(#clip0)">
<path d="M57.3003 134.711H56.3674C54.7844 123.744 55.6889 89.6008 55.6889 89.3188L56.113 89.488C56.113 89.9673 55.7455 123.828 57.3003 134.711Z" fill="#419495"/>
<path d="M55.8585 89.9388C54.0177 88.8501 52.6023 87.1701 51.8444 85.174C51.2225 82.3546 49.0175 75.87 49.4698 72.3175C49.9221 68.7651 49.3285 61.632 50.5723 56.6417C51.8161 51.6514 50.5723 47.6478 52.2967 41.0504C54.0211 34.453 58.4027 12.8565 61.3426 8.68374C64.2826 4.51104 67.3356 2.02997 68.0705 0C68.0705 0 66.6288 2.48107 68.2684 8.14806C69.9638 15.3038 70.7239 22.6482 70.5299 29.9984C70.3038 36.6804 69.908 53.9633 69.5405 60.025C69.173 66.0867 66.7137 78.9431 63.8868 82.2982C61.0599 85.6533 59.8444 85.7661 58.7137 87.2322C57.5829 88.6982 57.272 89.5723 55.8585 89.9388Z" fill="#37A3CA"/>
<path d="M55.689 89.4597C55.689 89.4597 58.7137 64.508 59.8162 57.5159C60.9186 50.5238 64.1413 28.1942 64.5936 21.1739C64.5721 16.3965 64.9408 11.6254 65.696 6.90771C65.2756 10.1132 65.1055 13.3465 65.1872 16.5782C65.1872 22.8373 61.8798 46.4921 61.8798 46.4921L58.6006 73.079L56.113 89.6852L55.689 89.4597Z" fill="#5FB5D5"/>
<path d="M120 22.9494C117.55 22.5925 115.049 22.8245 112.707 23.6261C102.959 30.6157 93.9678 38.6002 85.8802 47.45C78.3042 56.3875 62.9826 79.6757 61.7954 83.0872C60.6081 86.4986 58.7141 89.0925 58.7424 93.8573C58.7706 98.6221 58.2335 101.131 61.1734 103.33C61.1734 103.33 62.6434 103.33 63.6893 100.849C64.7353 98.3683 64.9332 99.7498 66.8837 95.2106C68.8342 90.6714 72.6787 87.0343 75.5904 81.6211C78.5021 76.2079 78.4173 80.0704 82.5445 72.1761C86.6717 64.2818 83.8731 72.74 92.2123 61.4906C100.552 50.2412 113.894 36.116 115.675 32.9301C117.087 30.6514 118.19 28.1959 118.954 25.6279C119.016 24.6485 119.382 23.7126 120 22.9494Z" fill="#058CBD"/>
<path d="M114.516 27.3198C114.516 27.3198 90.9966 57.7411 82.6574 68.8214C76.321 77.4225 70.4334 86.3436 65.0178 95.5492L60.8623 103.077H61.2863C61.2863 103.077 69.0319 89.7695 73.6397 82.862C78.2475 75.9544 86.4736 64.113 90.94 58.446C95.4065 52.779 114.516 27.3198 114.516 27.3198Z" fill="#37A3CA"/>
<path d="M59.788 144.155H58.9682C56.7633 130.876 60.947 103.217 60.9753 102.936H61.3993C61.3711 103.443 57.6113 131.017 59.788 144.155Z" fill="#419495"/>
<path d="M50.544 130.03H51.2507C53.1164 118.753 49.5828 95.6338 49.5546 95.4082H49.2153C49.2436 95.8593 52.3814 118.978 50.544 130.03Z" fill="#419495"/>
<path d="M0 28.194C2.05144 27.8993 4.14371 28.0925 6.10601 28.7579C14.3253 34.6236 21.905 41.3328 28.7208 48.7756C36.2534 58.1988 43.0126 68.2118 48.9329 78.7176C50.4148 81.512 51.2912 84.5858 51.5053 87.7397C51.5053 91.7433 51.9293 93.8578 49.4417 95.7186C49.4417 95.7186 48.7632 97.0437 46.7562 96.1133C43.9293 94.8446 42.9117 95.634 41.2438 91.8278C39.576 88.0217 38.9823 88.4728 36.523 83.9053L30.6714 72.9097C27.1095 66.2841 30.3887 70.0903 23.3781 60.5607C16.3675 51.0312 5.17314 39.1615 3.59011 36.5958C2.37316 34.6842 1.42219 32.6165 0.763251 30.4496C0.720111 29.6423 0.456148 28.8623 0 28.194H0Z" fill="#058CBD"/>
<path d="M4.60742 31.8877C4.60742 31.8877 24.3954 57.4596 31.3495 66.7636C36.641 74.0268 41.5567 81.555 46.0774 89.3188L49.5544 95.6343H49.2152C49.2152 95.6343 42.6852 84.3567 38.8406 78.7179C34.9961 73.0791 28.042 62.9856 24.2823 58.2209C20.5226 53.4561 4.60742 31.8877 4.60742 31.8877Z" fill="#37A3CA"/>
<path d="M58.2332 171.42H51.8728C50.3084 171.55 48.7503 171.106 47.4907 170.172C46.2312 169.237 45.3568 167.877 45.0318 166.345L40.2544 119.74H69.8516L65.0176 166.345C64.6937 167.866 63.8277 169.219 62.5802 170.152C61.3327 171.085 59.7882 171.536 58.2332 171.42Z" fill="white"/>
<g opacity="0.6">
<path opacity="0.6" d="M51.8727 171.42H58.2332C59.7882 171.535 61.3326 171.085 62.5801 170.152C63.8276 169.219 64.6936 167.866 65.0176 166.345L69.795 119.684H63.8869C63.6607 126.732 62.6148 150.443 59.5052 156.702C56.9893 161.777 50.742 164.822 45.0317 166.316C45.3508 167.853 46.2226 169.221 47.4828 170.161C48.743 171.101 50.3044 171.549 51.8727 171.42Z" fill="#DFECF8"/>
</g>
</g>
<defs>
<clipPath id="clip0">
<rect width="120" height="175" fill="white"/>
</clipPath>
</defs>
</svg>
