<svg width="116" height="148" viewBox="0 0 116 148" fill="none" xmlns="http://www.w3.org/2000/svg">
<path opacity="0.2" d="M57 148C74.1208 148 88 146.657 88 145C88 143.343 74.1208 142 57 142C39.8792 142 26 143.343 26 145C26 146.657 39.8792 148 57 148Z" fill="#1D283D"/>
<path d="M22.9155 29.3918C22.9155 29.3918 66.7805 61.5013 44.2569 127.323L50.3957 127.694C50.3957 127.694 68.7509 61.8227 22.9155 29.3918Z" fill="#2A8B95"/>
<path d="M104.001 34.8831C104.001 34.8831 58.8513 57.0359 68.7368 120.672L63.0891 120.015C63.0891 120.015 56.9958 57.0101 104.001 34.8831Z" fill="#2A8B95"/>
<path d="M25.783 40.6618C30.2089 33.1016 32.6961 23.1113 33.704 18.3681C32.2367 16.9795 31.7931 14.9005 31.4307 12.7481C31.0346 10.3675 28.6999 4.57291 28.6999 4.57291C27.9355 0.0498956 23.0027 -1.5133 19.6184 1.69248L9.11307 11.6471C1.13457 19.2053 -2.01211 31.1099 1.30682 41.1696L9.42592 59.9084C9.93881 61.4617 10.8973 66.5025 12.2756 69.4186C12.5726 68.3652 12.8518 66.1256 13.0973 65.1218C16.4381 51.4694 19.7748 50.9258 25.783 40.6618Z" fill="#F58D8A"/>
<path d="M15.7094 67.7582L35.9556 56.284C46.3876 50.3724 53.5799 38.9081 54.6492 26.4381L55.4314 17.4198C55.8572 12.5 52.5383 10.5381 47.3124 11.5002C45.2945 11.8712 43.2528 12.6905 39.4131 14.5394C37.722 15.3507 35.4644 17.9951 33.706 18.376C32.7 23.1192 30.2128 33.1095 25.7849 40.6697C19.7768 50.9259 16.4401 51.4694 13.1013 65.1297C12.8558 66.1335 12.5766 68.3732 12.2795 69.4266C13.5073 68.3871 14.5668 68.4049 15.7094 67.7582Z" fill="#F2706D"/>
<path d="M93.3572 24.9084C92.0502 25.4341 90.474 25.1763 89.1234 23.9285L82.6024 17.8938C79.632 15.1463 76.7705 16.3445 77.1785 20.6136C77.327 22.1629 76.9567 27.5231 76.9567 27.5231C76.8814 38.3902 80.6638 45.377 87.7848 52.5603C91.0581 55.8653 96.4603 63.2529 100.245 66.3813C101.138 67.1192 105.241 70.8924 106.15 70.7456C104.605 62.2015 102.108 52.354 98.9831 44.8395C95.8583 37.3249 94.2048 30.0682 93.3572 24.9084Z" fill="#F2706D"/>
<path d="M108.746 63.6875C110.998 59.9183 114.455 51.1083 115.004 45.7997C115.645 39.5786 114.138 30.606 108.401 23.0656C106.514 20.5819 106.269 15.0868 105.18 12.5655C103.595 8.87364 98.5378 10.6055 97.6546 14.9301C97.2387 16.9496 95.8169 21.8734 95.8169 21.8734C95.4209 23.4346 94.4961 24.4662 93.3634 24.9185C94.2169 30.0763 95.8526 37.3052 98.9893 44.8435C102.126 52.3819 104.611 62.2056 106.156 70.7497C107.188 67.8098 105.532 69.0655 108.746 63.6875Z" fill="#F58D8A"/>
<path d="M69.2934 27.1522C69.2934 27.1522 65.7863 41.8321 62.4515 69.4265C60.986 81.5493 61.3762 95.0172 60.8079 108.059H62.8119C62.8119 108.059 61.3901 88.8516 63.4179 69.6129C65.7685 47.3173 69.3172 30.8658 69.9529 26.6999C71.2025 18.3879 69.2934 27.1522 69.2934 27.1522Z" fill="#0083C7"/>
<path d="M67.1625 40.3105C65.2317 39.9138 65.0614 36.8131 65.703 34.256C67.2873 27.9635 69.6041 17.2254 71.5151 11.7442C72.3666 9.30613 72.7924 7.27872 73.5152 7.31443L73.9112 7.35211C74.6915 7.76077 74.939 9.56999 74.7509 11.1649C74.0122 17.4237 72.1013 29.7787 70.7567 36.1605C70.2161 38.7513 69.0932 40.7073 67.1625 40.3105Z" fill="#FECE71"/>
<path d="M33.6482 64.5146C33.6482 64.5146 41.3238 69.1051 46.9458 88.0502C52.5678 106.995 56.3184 109.039 56.3184 109.039L54.5916 109.725C50.3954 101.901 46.1299 92.8629 44.415 85.7213C40.5812 69.7498 33.6482 64.5146 33.6482 64.5146Z" fill="#38B9C6"/>
<path d="M49.7181 102.476C49.7181 102.476 43.502 92.5792 41.6089 82.0235C39.7157 71.4678 35.777 66.673 33.6482 64.5146C33.6482 64.5146 40.5792 69.7498 44.415 85.7193C46.1299 92.8609 50.3954 101.901 54.5916 109.723L53.5757 110.12L49.7181 102.476Z" fill="#A6A8AB"/>
<path d="M49.7181 102.476C49.7181 102.476 43.502 92.5792 41.6089 82.0235C39.7157 71.4678 35.777 66.673 33.6482 64.5146C33.6482 64.5146 40.5792 69.7498 44.415 85.7193C46.1299 92.8609 50.3954 101.901 54.5916 109.723L53.5757 110.12L49.7181 102.476Z" fill="#85D2DA"/>
<path d="M88.0661 58.2916C88.0661 58.2916 79.6599 63.4494 73.6954 84.3962C67.7308 105.343 63.6218 107.646 63.6218 107.646L65.5328 108.382C70.0636 99.705 74.6558 89.683 76.4578 81.7994C80.4975 64.1458 88.0661 58.2916 88.0661 58.2916Z" fill="#38B9C6"/>
<path d="M70.8261 100.332C70.8261 100.332 77.559 89.3457 79.5135 77.687C81.4681 66.0284 85.7533 60.694 88.0742 58.2916C88.0742 58.2916 80.4977 64.1458 76.4659 81.7954C74.6638 89.683 70.0716 99.705 65.5408 108.378L66.6675 108.811L70.8261 100.332Z" fill="#A6A8AB"/>
<path d="M70.8261 100.332C70.8261 100.332 77.559 89.3457 79.5135 77.687C81.4681 66.0284 85.7533 60.694 88.0742 58.2916C88.0742 58.2916 80.4977 64.1458 76.4659 81.7954C74.6638 89.683 70.0716 99.705 65.5408 108.378L66.6675 108.811L70.8261 100.332Z" fill="#85D2DA"/>
<path d="M75.8521 43.5818C75.8521 43.5818 67.9567 50.7413 65.814 74.1915C63.6714 97.6418 59.7664 100.907 59.7664 100.907L61.9446 101.304C65.018 91.1865 67.8854 79.6132 68.226 70.8766C68.9766 51.3205 75.8521 43.5818 75.8521 43.5818Z" fill="#38B9C6"/>
<path d="M65.9449 91.6924C65.9449 91.6924 70.8956 78.6748 70.6421 65.9033C70.3886 53.1317 73.868 46.6051 75.8522 43.5858C75.8522 43.5858 68.9767 51.3225 68.2262 70.8806C67.8915 79.6092 65.0182 91.1825 61.9448 101.308L63.226 101.542L65.9449 91.6924Z" fill="#A6A8AB"/>
<path d="M65.9449 91.6924C65.9449 91.6924 70.8956 78.6748 70.6421 65.9033C70.3886 53.1317 73.868 46.6051 75.8522 43.5858C75.8522 43.5858 68.9767 51.3225 68.2262 70.8806C67.8915 79.6092 65.0182 91.1825 61.9448 101.308L63.226 101.542L65.9449 91.6924Z" fill="#85D2DA"/>
<path d="M57.0255 27.3704C57.0255 27.3704 65.285 38.7831 61.6731 69.6884C58.0612 100.594 62.2216 105.878 62.2216 105.878L59.2988 105.797C58.079 91.867 57.5166 76.1317 59.4572 64.7329C63.8078 39.2612 57.0255 27.3704 57.0255 27.3704Z" fill="#38B9C6"/>
<path d="M56.7402 92.2876C56.7402 92.2876 53.8827 74.1043 57.6888 57.6568C61.4948 41.2093 58.768 31.822 57.0254 27.3784C57.0254 27.3784 63.8078 39.2612 59.4571 64.7488C57.5125 76.1396 58.071 91.8749 59.2987 105.813L57.5779 105.767L56.7402 92.2876Z" fill="#A6A8AB"/>
<path d="M56.7402 92.2876C56.7402 92.2876 53.8827 74.1043 57.6888 57.6568C61.4948 41.2093 58.768 31.822 57.0254 27.3784C57.0254 27.3784 63.8078 39.2612 59.4571 64.7488C57.5125 76.1396 58.071 91.8749 59.2987 105.813L57.5779 105.767L56.7402 92.2876Z" fill="#85D2DA"/>
<path d="M78.5889 141.849H38.1678L37.2945 132.047L34.4607 130.61L31.8864 101.689L29.718 101.322L28.9001 95.9358H87.8229L87.007 101.304L84.799 101.796L81.9831 130.374L79.5513 132.066L78.5889 141.849Z" fill="#E3F1FB"/>
</svg>
