<svg width="97" height="67" viewBox="0 0 97 67" fill="none" xmlns="http://www.w3.org/2000/svg">
<path d="M96.8559 1.81226H0V66.4209H96.8559V1.81226Z" fill="white"/>
<path d="M1.14703 8.95599e-07H96.8559V3.62546H8.96217e-07V1.14624C-0.000187575 0.995659 0.029352 0.846523 0.0869288 0.70737C0.144506 0.568216 0.228988 0.441782 0.335537 0.335306C0.442086 0.228831 0.568608 0.144406 0.707857 0.0868689C0.847106 0.0293318 0.996346 -0.000187446 1.14703 8.95599e-07Z" fill="#6D7EA0"/>
<path opacity="0.7" d="M65.9564 20.97H47.9082V34.4937H65.9564V20.97Z" fill="#D2EEFD"/>
<path d="M66.0991 51.7394H47.7695V37.9409H66.0991V51.7394ZM48.0481 51.464H65.817V38.2157H48.0481V51.464Z" fill="#E6E7E8"/>
<path opacity="0.7" d="M28.4212 8.34644H10.373V16.8931H28.4212V8.34644Z" fill="#D2EEFD"/>
<path d="M86.7705 17.0316H30.6699V8.20654H86.7705V17.0316ZM30.9484 16.7532H86.4913V8.48488H30.9484V16.7532Z" fill="#E6E7E8"/>
<path opacity="0.7" d="M87.3412 20.97H69.293V34.4937H87.3412V20.97Z" fill="#D2EEFD"/>
<path d="M51.1687 31.9114H50.1992V32.1868H51.1687V31.9114Z" fill="#6D7EA0"/>
<path d="M53.5302 31.9114H52.0137V32.1868H53.5302V31.9114Z" fill="#6D7EA0"/>
<path d="M61.3324 31.9114H54.5469V32.1868H61.3324V31.9114Z" fill="#6D7EA0"/>
<path d="M60.7998 32.7786H52.0918V33.054H60.7998V32.7786Z" fill="#6D7EA0"/>
<path d="M73.0495 31.9114H72.0801V32.1868H73.0495V31.9114Z" fill="#6D7EA0"/>
<path d="M75.4091 31.9114H73.8926V32.1868H75.4091V31.9114Z" fill="#6D7EA0"/>
<path d="M83.2106 31.9114H76.4258V32.1868H83.2106V31.9114Z" fill="#6D7EA0"/>
<path d="M82.6787 32.7786H73.9707V33.054H82.6787V32.7786Z" fill="#6D7EA0"/>
<path d="M87.4827 62.9922H10.2344V55.4973H87.4827V62.9922ZM10.5129 62.7139H87.2035V55.7735H10.5136L10.5129 62.7139Z" fill="#E6E7E8"/>
<path opacity="0.4" d="M44.7993 20.9021H10.3047V51.6008H44.7993V20.9021Z" fill="#E6E7E8"/>
<path d="M45.4062 20.4326H44.3301V21.508H45.4062V20.4326Z" fill="#B6BFCF"/>
<path d="M45.4062 35.748H44.3301V36.8235H45.4062V35.748Z" fill="#B6BFCF"/>
<path d="M45.4062 51.0632H44.3301V52.1386H45.4062V51.0632Z" fill="#B6BFCF"/>
</svg>
