<svg width="323" height="190" viewBox="0 0 323 190" fill="none" xmlns="http://www.w3.org/2000/svg">
<g clip-path="url(#clip0)">
<path d="M320.453 24.8565C320.453 26.3195 318.652 27.015 317.669 25.9316L316.002 24.0954C315.518 23.5613 314.83 23.2567 314.109 23.2567H307.26C304.498 23.2567 302.26 21.0181 302.26 18.2567V13.4679C302.26 10.7065 304.498 8.4679 307.26 8.4679H318C320.761 8.4679 323 10.7065 323 13.4679V21.9833C323 22.6866 322.43 23.2567 321.727 23.2567C321.023 23.2567 320.453 23.8268 320.453 24.5301V24.8565ZM303.334 17.1669C303.334 19.9283 305.573 22.1669 308.334 22.1669H314.917C315.425 22.1669 315.908 22.3813 316.249 22.7573L317.419 24.0482C318.111 24.811 319.379 24.3219 319.379 23.2924C319.379 22.6708 319.882 22.1669 320.504 22.1669H320.652C321.355 22.1669 321.925 21.5967 321.925 20.8934V14.5577C321.925 11.7963 319.687 9.55771 316.925 9.55771H308.334C305.573 9.55771 303.334 11.7963 303.334 14.5577V17.1669Z" fill="#005386"/>
<path d="M290.213 19.0152C290.213 20.5885 292.151 21.3359 293.207 20.1699L294.994 18.1977C295.515 17.6231 296.254 17.2954 297.03 17.2954H306.824C309.585 17.2954 311.824 15.0568 311.824 12.2954V5C311.824 2.23858 309.585 0 306.824 0H292C289.239 0 287 2.23858 287 5V15.6888C287 16.5761 287.719 17.2954 288.607 17.2954C289.494 17.2954 290.213 18.0147 290.213 18.9019V19.0152Z" fill="#3F97C6"/>
<path d="M307.504 4.53363H291.331V4.90417H307.504V4.53363Z" fill="white"/>
<path d="M307.504 8.09735H291.331V8.46789H307.504V8.09735Z" fill="white"/>
<path d="M307.504 11.3668H291.331V11.7374H307.504V11.3668Z" fill="white"/>
</g>
<path d="M160 155H243V182.513H236.854V190H236.493L225.014 182.513H160V155Z" fill="#20BCB5"/>
<path d="M223.568 174.274C223.809 171.267 223.147 170.756 228.148 170.245V169.944L228.298 169.102H227.967C226.22 168.531 226.792 167.629 226.4 166.366C226.22 166.366 225.979 166.126 225.918 165.795C225.858 165.464 225.918 165.163 226.189 165.133C226.239 165.137 226.287 165.152 226.329 165.178C226.371 165.205 226.406 165.241 226.43 165.284C226.43 165.284 226.43 163.6 226.43 163.149C226.443 163.017 226.492 162.891 226.572 162.785C226.651 162.679 226.759 162.596 226.882 162.547C226.702 161.705 227.846 161.886 228.75 161.886C229.945 162.127 231.184 162.001 232.305 161.525C232.238 161.967 232.074 162.388 231.823 162.758C231.938 163.596 231.938 164.446 231.823 165.284C231.87 165.26 231.921 165.247 231.974 165.247C232.026 165.247 232.078 165.26 232.124 165.284C232.305 165.284 232.396 165.584 232.305 165.915C232.215 166.246 232.004 166.516 231.793 166.486C231.281 167.749 231.793 168.591 230.046 169.193H229.744L229.895 170.034V170.335C234.655 170.756 234.294 171.357 234.535 174.364V174.845H229.534V175.146L229.051 175.567L228.6 175.146V174.845H223.568V174.274Z" fill="white"/>
<path d="M203.684 163.66H166.929V164.652H203.684V163.66Z" fill="white"/>
<path d="M213.476 167.839H168.074V168.832H213.476V167.839Z" fill="white"/>
<path d="M213.476 172.019H168.074V173.011H213.476V172.019Z" fill="white"/>
<g clip-path="url(#clip1)">
<path d="M88 30H0V79.0219H88V30Z" fill="white"/>
<path d="M88 78.3412H0V91.0001H88V78.3412Z" fill="#F2706D"/>
<path d="M83.4931 83.2836H15.7871V85.5027H83.4931V83.2836Z" fill="#EEEFEF"/>
<path d="M44.0001 83.2836H15.7871V85.5027H44.0001V83.2836Z" fill="#005386"/>
<path d="M12.7824 78.3412H0V91.0001H12.7824V78.3412Z" fill="#F49485"/>
<path d="M5.85619 82.1489H4.22656V86.6123H5.85619V82.1489Z" fill="white"/>
<path d="M8.19897 82.1489H6.56934V86.6123H8.19897V82.1489Z" fill="white"/>
<path d="M36.9472 70.0699C36.5242 70.0676 36.1069 69.9728 35.725 69.7925C35.2777 69.567 34.9012 69.2246 34.6364 68.8023C34.3716 68.38 34.2285 67.894 34.2227 67.3969V46.5676C34.2203 46.0691 34.3588 45.5798 34.6224 45.1551C34.8861 44.7304 35.2644 44.3871 35.7147 44.1642C36.1649 43.9412 36.6692 43.8474 37.1705 43.8933C37.6718 43.9393 38.1501 44.1232 38.5514 44.4242L52.6833 54.8388C53.0205 55.0876 53.2943 55.411 53.4829 55.7831C53.6716 56.1552 53.7698 56.5659 53.7698 56.9823C53.7698 57.3987 53.6716 57.8093 53.4829 58.1814C53.2943 58.5536 53.0205 58.8769 52.6833 59.1257L38.5514 69.5403C38.0877 69.8825 37.5254 70.0681 36.9472 70.0699ZM36.9472 45.3824C36.7581 45.3814 36.5726 45.4339 36.4125 45.5337C36.2139 45.6253 36.046 45.7714 35.9286 45.9547C35.8113 46.1379 35.7495 46.3507 35.7505 46.5676V67.3969C35.7495 67.6139 35.8113 67.8266 35.9286 68.0098C36.046 68.1931 36.2139 68.3392 36.4125 68.4308C36.5944 68.548 36.8066 68.6104 37.0236 68.6104C37.2406 68.6104 37.4529 68.548 37.6347 68.4308L51.7667 58.0162C51.9172 57.9107 52.0397 57.7708 52.124 57.6083C52.2082 57.4459 52.2516 57.2657 52.2505 57.0831C52.2538 56.9002 52.2113 56.7192 52.1269 56.5564C52.0425 56.3936 51.9188 56.2541 51.7667 56.1501L37.6347 45.6346C37.4396 45.4782 37.1981 45.3897 36.9472 45.3824Z" fill="#005386"/>
</g>
<defs>
<clipPath id="clip0">
<rect width="36" height="29" fill="white" transform="translate(287)"/>
</clipPath>
<clipPath id="clip1">
<rect y="30" width="88" height="61" rx="5" fill="white"/>
</clipPath>
</defs>
</svg>
