<svg width="655" height="560" xmlns="http://www.w3.org/2000/svg">
  <path fill="none" d="M-1-1h582v402H-1z"/>
  <g>


    <g class='b-ball_bounce'>
    <path fill="#FBB157" d="M206.044 87h-30.087c-3.842 0-6.957 3.1145-6.957 6.9565v30.0865c0 3.842 3.115 6.957 6.957 6.957h30.087c3.842 0 6.957-3.115 6.957-6.957V93.9565c0-3.842-3.115-6.9565-6.957-6.9565z"/>
    <path fill="#fff" d="M177.762 109.012l8.751-4.508v1.302l-7.379 3.689v.038l7.379 3.689v1.302l-8.751-4.494v-1.018zm9.984 6.28l5.261-13.673h1.283l-5.281 13.673h-1.263zm16.487-5.242l-8.752 4.488v-1.301l7.431-3.69v-.038l-7.431-3.689v-1.302l8.752 4.49v1.042z"/>
  </g>


  <g class='b-ball_bounce1'>
    <path fill="#0083C7" d="M258.866 221.175c0 5.216-1.546 10.314-4.444 14.651-2.898 4.337-7.017 7.717-11.836 9.713-4.818 1.996-10.121 2.518-15.236 1.5-5.116-1.018-9.815-3.53-13.503-7.218-3.688-3.688-6.199-8.387-7.217-13.503-1.017-5.116-.494-10.418 1.502-15.237 1.997-4.818 5.377-8.936 9.714-11.834 4.337-2.897 9.436-4.443 14.652-4.443 3.463 0 6.892.682 10.091 2.008 3.2 1.325 6.107 3.267 8.555 5.716 2.449 2.449 4.391 5.356 5.716 8.556 1.325 3.199 2.007 6.628 2.006 10.091z"/>
    <path fill="#fff" d="M229.4 234.505l-6.404-6.407-.835 3.434 3.852 3.854 3.387-.881zm-3.387.882l-3.852-3.854-.806 3.314c-.046.193-.042.396.012.587.055.192.158.366.3.505.141.14.317.241.509.292.192.052.395.053.588.003l3.249-.847z"/>
    <path fill="#fff" d="M227.812 232.914l-.618-.618 4.024-4.023-1.99-1.99-4.026 4.024 4.198 4.198 4.024-4.024-1.588-1.59-4.024 4.023zm-.794-8.847l-4.023 4.023 1.587 1.587 4.024-4.023-1.588-1.587zm11.736-11.726l-3.933 3.933 6.405 6.406 3.932-3.934-6.404-6.405zm-2.347 5.521l3.734-3.734.62.618-3.736 3.736-.618-.62zm3.228 3.23l-.621-.62 3.737-3.737.621.621-3.737 3.736zm-10.407 5.191l-.621-.62.621.62zm5.762-1.787l.619.62-.619-.62zm1.491.991l-.618-.618.618.618z"/>
    <path fill="#fff" d="M231.778 213.613c.001-1.025-.277-2.031-.805-2.909-.528-.878-1.286-1.595-2.191-2.074l-4.845-2.553-.843.845 4.465 5.215-4.652 4.654-5.231-4.467-.843.845 2.551 4.843c.475.907 1.188 1.668 2.063 2.2.874.533 1.878.817 2.902.822h2.099l10.952 10.952c.1.902.453 1.757 1.019 2.467.565.71 1.319 1.247 2.175 1.547.857.3 1.78.353 2.665.151.885-.201 1.695-.648 2.337-1.29.642-.641 1.09-1.451 1.292-2.336.201-.885.149-1.809-.151-2.665-.3-.857-.835-1.611-1.545-2.176-.71-.566-1.565-.919-2.467-1.02l-10.952-10.952.005-2.099zm13.497 18.668l-2.253 2.25-3.077-.824-.824-3.077 2.253-2.25 3.077.824.824 3.077zm.579-14.258l-6.404-6.407.988-.96c.849-.849 2.001-1.326 3.202-1.326s2.353.477 3.202 1.326c.422.42.756.919.983 1.469.228.549.346 1.138.346 1.733 0 .595-.118 1.184-.346 1.734-.227.549-.561 1.048-.983 1.468l-.988.963z"/>
    </g>

    <g class='b-ball_bounce2'>
      <path fill="#485E88" d="M84.2924 153.935h.9544c.3047-1.017.7119-2.001 1.2151-2.936l-.6701-.673c-.4281-.427-.7678-.934-.9998-1.493-.232-.558-.3517-1.157-.3523-1.762-.0006-.604.1179-1.203.3488-1.762.2308-.559.5695-1.067.9967-1.495.4272-.428.9346-.768 1.493-1 .5585-.232 1.1572-.352 1.762-.352.6047-.001 1.2037.118 1.7626.348.559.231 1.067.57 1.4951.997l.6727.673c.9352-.503 1.9189-.91 2.9362-1.215v-.947c-.0146-.613.0936-1.223.3181-1.793.2246-.571.561-1.091.9894-1.53.4285-.439.9404-.787 1.5056-1.025.5652-.238 1.1722-.361 1.7851-.361.614 0 1.221.123 1.786.361s1.077.586 1.506 1.025c.428.439.764.959.989 1.53.224.57.333 1.18.318 1.793v.952c1.018.305 2.003.712 2.939 1.215l.673-.673c.864-.862 2.036-1.346 3.257-1.344 1.221.001 2.392.488 3.254 1.352.862.865 1.346 2.036 1.345 3.257-.002 1.222-.488 2.392-1.353 3.254l-.673.673c.504.935.911 1.919 1.215 2.936h.955c1.22 0 2.39.485 3.253 1.348.862.862 1.347 2.032 1.347 3.252 0 1.22-.485 2.39-1.347 3.253-.863.862-2.033 1.347-3.253 1.347h-.955c-.305 1.016-.712 1.999-1.215 2.934l.673.675c.444.423.798.931 1.042 1.493.245.562.374 1.168.381 1.781.008.613-.108 1.221-.339 1.789-.232.568-.574 1.083-1.007 1.517-.434.433-.95.776-1.518 1.007-.567.231-1.176.347-1.789.34-.613-.007-1.218-.137-1.78-.381-.562-.245-1.07-.599-1.493-1.043l-.676-.685c-.936.502-1.921.909-2.939 1.215v.952c.015.613-.093 1.222-.318 1.793-.224.571-.561 1.091-.989 1.53-.429.438-.94.787-1.506 1.025-.565.238-1.172.361-1.785.361-.6135 0-1.2206-.123-1.7857-.361-.5652-.238-1.0771-.587-1.5056-1.025-.4284-.439-.7648-.959-.9894-1.53-.2245-.571-.3327-1.18-.3181-1.793v-.952c-1.0173-.305-2.001-.712-2.9362-1.215l-.6728.672c-.8729.804-2.0228 1.24-3.2093 1.216-1.1865-.024-2.3178-.506-3.1574-1.345-.8397-.838-1.3227-1.969-1.3482-3.155-.0255-1.187.4086-2.337 1.2115-3.211l.6727-.676c-.5028-.934-.9099-1.917-1.2151-2.933h-.9544c-1.22 0-2.39-.485-3.2526-1.347-.8627-.863-1.3473-2.033-1.3473-3.253 0-1.22.4846-2.39 1.3473-3.253.8626-.862 2.0326-1.347 3.2526-1.347h-.0026zm16.2096 13.821c1.823 0 3.605-.541 5.121-1.554 1.516-1.013 2.698-2.453 3.395-4.137.698-1.685.88-3.538.524-5.327-.356-1.788-1.234-3.43-2.523-4.719-1.29-1.289-2.932-2.167-4.721-2.523-1.788-.355-3.6415-.172-5.3259.526-1.6843.698-3.1238 1.88-4.1364 3.396-1.0126 1.517-1.5527 3.299-1.5522 5.122.002 2.444.9741 4.786 2.7026 6.513 1.7285 1.727 4.072 2.697 6.5159 2.697v.006z"/>
    </g>
    
    <g class='b-ball_bounce3'>
    <path fill="#fff" d="M437.003 57.5474c14.412-2.9584 23.697-17.0399 20.739-31.4519-2.958-14.412-17.04-23.69708-31.452-20.73872-14.412 2.95837-23.698 17.03982-20.739 31.45192 2.958 14.412 17.04 23.697 31.452 20.7387z"/>
    <path fill="#FECE71" d="M440.066 35.6323l-3.797 3.7941 2.548 1.0066 2.284-2.2817-1.035-2.519z"/>
    <path fill="#485E88" d="M441.101 38.1514l-2.284 2.2816 2.459.9727c.626.2477 1.074-.2113.819-.8397l-.994-2.4146z"/>
    <path fill="#F2706D" d="M424.488 20.0722l-3.8 3.7993-.482-.498c-.889-.8918-.761-2.4642.287-3.5125 1.043-1.043 2.623-1.1786 3.512-.2868l.483.498z"/>
    <path fill="#38B9C6" d="M436.859 32.4272l-11.771-11.7734-3.795 3.7967 11.771 11.7708 3.208 3.2047.941-.9413-3.351-3.3482-11.473-11.4735.367-.3677 11.474 11.4735 3.346 3.3482 2.487-2.4851-3.207-3.2047h.003zm2.266 4.1435l-.368.3677-3.351-3.3482-11.474-11.4735.368-.3677 11.607 11.6065 3.218 3.2152z"/>
    <path fill="#485E88" d="M448.087 43.2495h-29.479v1.3716h29.479v-1.3716zm-30.895 0h-1.985v1.3716h1.985v-1.3716z"/>
    </g>

    <path fill="#1D283D" d="M256.177 555.007c37.802 0 68.446-.898 68.446-2.006 0-1.107-30.644-2.005-68.446-2.005-37.801 0-68.446.898-68.446 2.005 0 1.108 30.645 2.006 68.446 2.006zm172.301 4.007c28.185 0 51.034-.897 51.034-2.005 0-1.107-22.849-2.005-51.034-2.005-28.186 0-51.035.898-51.035 2.005 0 1.108 22.849 2.005 51.035 2.005zm173.222.342c14.46 0 26.183-1.047 26.183-2.339 0-1.291-11.723-2.338-26.183-2.338-14.46 0-26.182 1.047-26.182 2.338 0 1.292 11.722 2.339 26.182 2.339z" opacity=".2"/>
    <path fill="#1D283D" d="M289.383 553.004c85.249 0 154.357-.898 154.357-2.006 0-1.107-69.108-2.005-154.357-2.005s-154.357.898-154.357 2.005c0 1.108 69.108 2.006 154.357 2.006z" opacity=".2"/>
    <path fill="#E3F1FB" d="M441.91 404.245H146.479v6.295H441.91v-6.295zm-283.163 6.295h-5.974v139.663h5.974V410.54zm274.625 0h-5.974v139.663h5.974V410.54z"/>
    <path fill="#E7F6F8" d="M301.673 402.602c-1.246-.073-3.301-.222-4.279-.464-4.055-1.01-7.562-5.68-7.562-9.86v-20.352h-27.967v20.352c0 4.172-3.51 8.85-7.562 9.86-.978.242-3.031.391-4.277.464-.281.012-.546.133-.74.336-.194.203-.303.473-.303.754v1.014H302.7v-1.014c0-.279-.106-.546-.297-.749-.191-.203-.452-.325-.73-.341z"/>
    <path fill="#404041" d="M261.865 371.926v15.054l27.962 4.881v-19.935h-27.962z" opacity=".1"/>
    <path fill="#fff" d="M333.856 297.46H217.837c-1.688 0-3.056 1.369-3.056 3.057v82.335c0 1.688 1.368 3.056 3.056 3.056h116.019c1.688 0 3.056-1.368 3.056-3.056v-82.335c0-1.688-1.368-3.057-3.056-3.057z"/>
    <path fill="#99CDE9" d="M332.967 301.403H218.723v70.523h114.244v-70.523z"/>
    <path fill="#2A2A3B" d="M273.402 361.35l-.088.005v-.005h.088zm0-63.892l-.088.003v-.003h.088z"/>
    <path fill="#fff" d="M339.489 402.159h-93.158v1.867h93.158v-1.867z"/>
    <path fill="#485E88" d="M408.068 555.719h.26l.058 1.303h6.182l-.166-1.71h-.204v-.018l-.018-6.285h-6.42l-.136.827-2.962 2.175-9.388 2.68s-.74.324-.724.728l.026.74.015.449s.115.195.879.417h10.754l.649-.866.634-.396.561-.044zm54.932 0h.261l.057 1.303h6.186l-.17-1.71h-.206v-.018l-.401-6.285h-6.42l-.139.827-2.579 2.175-9.387 2.68s-.738.324-.725.728l.026.74.016.449s.114.195.881.417h10.751l.652-.866.631-.396.566-.044z"/>
    <path fill="#2A2A3B" d="M435.524 559.99l-.293.01v-.01h.293z"/>
    <path fill="#38B9C6" d="M460.901 549.734h8.78l.613-76.834 2.55-76.859h-23.445l7.531 76.859 3.971 76.834z"/>
    <path fill="#38B9C6" d="M406.435 549.358l8.77.402 16.636-70.917 20.932-82.695-22.872-.107-3.697 29.041-7.714 53.151-12.055 71.125z"/>
    <path fill="#F9C0B2" d="M384.87 351.354l-7.101 2.105-4.811-1.064-4 .274-3.552.855 2.071 1.145 1.88-.144 1.419.313-.008.477-3.946 1.792-7.424 1.126.918 1.195 2.073 1.092 2.36 1.531 6.519-.821 7.291-2.313 8.285-1.688-1.974-5.875z"/>
    <path fill="#006295" d="M414.456 353.362l-.699-.42c-1.108-.673-1.915-1.745-2.255-2.997-.339-1.251-.186-2.584.43-3.725l26.165-36.556c2.488-3.794 6.819-5.088 10.493-2.869l.749.522c3.674 2.219 3.995 6.545 1.593 10.104l-29.675 34.444c-.725 1.074-1.836 1.828-3.101 2.107-1.266.278-2.59.06-3.7-.61z"/>
    <path fill="#006295" d="M383.264 359.362l-3.473-7.489 36.285-8.556c4.754-.844 6.519 3.828 5.904 6.553-.605 2.728-2.086 4.136-5.875 4.626l-32.841 4.866z"/>
    <path fill="#F9C0B2" d="M436.825 314.772l-4.728.892c-.342.065-.694.061-1.036-.01-.341-.072-.665-.21-.953-.406-.288-.197-.534-.448-.725-.74-.19-.292-.322-.618-.386-.961l-2.775-14.718 9.943-1.874 2.777 14.717c.065.343.061.695-.01 1.036-.072.341-.21.665-.406.953-.197.288-.448.534-.74.725-.292.191-.619.322-.961.386z"/>
    <path fill="#F9C0B2" d="M436.903 300.921l-14.392 3.974-3.403-4.944-2.798-1.911 1.711-4.91-.694-10.123 15.518-3.677 4.058 21.591z"/>
    <path fill="#1A2C3D" d="M435.526 293.596s-5.877-2.318-6.331-4.187c-.454-1.87-2.052-6.519-3.912-4.579-1.27 1.304-2.701 1.004-4.993.339-2.292-.665-3.617.169-5.356-2.405-1.74-2.573-1.004-4.487-.128-5.384.438-.451 1.927-1.328 5.737-.597 3.809.73 6.959-1.81 9.296-1.174 3.69 1.002 7.489 5.294 7.896 9.182.407 3.888-2.209 8.805-2.209 8.805z"/>
    <path fill="#0083C7" d="M472.636 397.674l-43.071 1.93-2.297-3.912-11.09-56.7-1.354-9.387c-1.043-11.583 1.286-18.637 7.628-19.922l16.983-4.306c11.735-1.757 17.993 6.546 20.249 13.821l4.693 17.163 9.967 50.502-1.708 10.811z"/>
    <path fill="#F9C0B2" d="M385.83 404.026l3.799.219 5.15-2.225 1.825.337-1.204 1.888h2.696l1.898-3.424.149-2.863 3.966-6.144-5.758-1.742-4.406 6.144-3.899 3.65-8.29 3.489v.89l4.074-.219z"/>
    <path fill="#0083C7" d="M415.951 367.449l-.817-.029c-1.296-.044-2.526-.585-3.435-1.511-.909-.925-1.427-2.165-1.449-3.462l5.02-44.681c.321-4.527 3.471-7.768 7.763-7.622l.905.086c4.292.146 6.68 3.768 6.321 8.044l-9.111 44.546c-.109 1.291-.708 2.49-1.675 3.352-.967.861-2.228 1.318-3.522 1.277z"/>
    <path fill="#0083C7" d="M402.745 396.041l-7.445-2.777 15.492-33.307c2.295-4.25 7.041-2.72 8.804-.555 1.763 2.167 1.94 4.211-.026 7.478l-16.825 29.161z"/>
    <path fill="#F7FCFD" d="M305.767 310.433h-79.119v52.812h79.119v-52.812z"/>
    <path fill="#58595B" d="M259.048 317.356h-21.534v.527h21.534v-.527z"/>
    <path fill="#0083C7" d="M250.279 318.908h-12.347v.527h12.347v-.527z"/>
    <path fill="#F2706D" d="M240.795 322.397h-3.044v.524h3.044v-.524z"/>
    <path fill="#0083C7" d="M249.95 322.397h-7.992v.524h7.992v-.524z"/>
    <path fill="#58595B" d="M244.104 324.052h-3.161v.527h3.161v-.527zm3.729 0h-3.072v.527h3.072v-.527z"/>
    <path fill="#38B9C6" d="M254.96 324.052h-5.487v.527h5.487v-.527z"/>
    <path fill="#F2706D" d="M246.518 325.709h-2.683v.527h2.683v-.527z"/>
    <path fill="#58595B" d="M249.684 325.709h-2.506v.527h2.506v-.527zm8.887 0h-7.904v.527h7.904v-.527zm18.848 0h-12.078v.527h12.078v-.527z"/>
    <path fill="#38B9C6" d="M284.217 325.709h-5.278v.527h5.278v-.527z"/>
    <path fill="#F2706D" d="M245.877 327.362h-2.042v.528h2.042v-.528z"/>
    <path fill="#58595B" d="M250.219 327.362h-3.072v.528h3.072v-.528z"/>
    <path fill="#38B9C6" d="M261.969 327.362h-11.184v.528h11.184v-.528z"/>
    <path fill="#0083C7" d="M263.103 329.018h-14.822v.526h14.822v-.526z"/>
    <path fill="#58595B" d="M248.278 330.674h-4.443v.527h4.443v-.527z"/>
    <path fill="#F2706D" d="M245.684 332.33h-1.849v.526h1.849v-.526z"/>
    <path fill="#38B9C6" d="M250.187 332.33h-2.892v.526h2.892v-.526z"/>
    <path fill="#58595B" d="M265.072 332.33h-12.945v.526h12.945v-.526zm-1.014 1.655h-16.614v.524h16.614v-.524zm-16.286 1.653h-3.937v.527h3.937v-.527z"/>
    <path fill="#F2706D" d="M246.907 337.294h-3.072v.527h3.072v-.527z"/>
    <path fill="#0083C7" d="M249.489 337.294h-1.716v.527h1.716v-.527z"/>
    <path fill="#58595B" d="M259.225 337.294h-8.023v.527h8.023v-.527z"/>
    <path fill="#38B9C6" d="M252.633 338.95h-4.592v.527h4.592v-.527z"/>
    <path fill="#58595B" d="M272.856 338.95h-18.343v.527h18.343v-.527z"/>
    <path fill="#38B9C6" d="M280.668 338.95h-6.083v.527h6.083v-.527z"/>
    <path fill="#58595B" d="M296.15 338.95h-13.57v.527h13.57v-.527zm-51.092 1.656h-6.978v.527h6.978v-.527zm9.275 0h-6.292v.527h6.292v-.527zm-5.703 1.653h-4.795v.527h4.795v-.527z"/>
    <path fill="#0083C7" d="M245.507 343.915h-4.087v.526h4.087v-.526z"/>
    <path fill="#58595B" d="M242.435 345.57h-4.355v.524h4.355v-.524z"/>
    <path fill="#F2706D" d="M240.495 348.632h-2.415v.527h2.415v-.527z"/>
    <path fill="#58595B" d="M245.058 348.632h-3.34v.527h3.34v-.527zm10.021 0h-9.095v.527h9.095v-.527zm-7.215 1.614h-6.861v.527h6.861v-.527z"/>
    <path fill="#0083C7" d="M254.782 350.246h-4.892v.527h4.892v-.527z"/>
    <path fill="#58595B" d="M257.705 351.857h-13.421v.527h13.421v-.527z"/>
    <path fill="#F2706D" d="M246.998 353.469h-2.714v.528h2.714v-.528z"/>
    <path fill="#38B9C6" d="M250.159 353.469h-1.938v.528h1.938v-.528z"/>
    <path fill="#58595B" d="M269.487 353.469h-18.074v.528h18.074v-.528zm5.457 0h-3.609v.528h3.609v-.528zm-29.883 1.614h-4.058v.526h4.058v-.526zm-1.403 1.612h-5.578v.527h5.578v-.527z"/>
    <path fill="#485E88" d="M227.454 309.163h77.512c.213 0 .418.085.568.235.151.151.236.355.236.568v1.737h-79.122v-1.737c0-.105.021-.21.062-.308.04-.097.099-.186.174-.261.075-.074.164-.133.262-.174.098-.04.202-.06.308-.06z"/>
    <path fill="#006295" d="M429.398 322.488l-8.415 41.078 1.76 9.004 6.655-50.082z"/>
    <path fill="#485E88" d="M207.432 463.046h47.809v-28.237h-47.809v28.237z"/>
    <path fill="#243045" d="M282.723 549.663h-.337l-.075 1.693h-8.084l.219-2.238h.261v-.023l.746-8.084 7.236.089 4.498 3.711 12.777 3.509s.968.423.95.952l-.034.97-.021.584s-.151.261-1.15.548h-14.603l-.85-1.132-.827-.521-.706-.058z"/>
    <path fill="#485E88" d="M284.752 542.211l-10.533 1.444 6.564-76.63-12.363-.92-60.453-3.059V446.19l44.405 1.409 36.046 2.706c1.361.103 2.675.544 3.823 1.284 1.147.741 2.091 1.756 2.746 2.954l2.177 3.981c.882 1.615 1.194 3.48.887 5.294l-13.299 78.393z"/>
    <path fill="#243045" d="M254.662 546.339h-.336l-.076 1.689h-8.084l.222-2.237h.261v-.023l.745-8.084 7.237.086 4.485 3.695 12.777 3.513s.968.419.95.949l-.034.97-.021.584s-.151.261-1.15.547h-14.603l-.85-1.131-.827-.522-.696-.036z"/>
    <path fill="#485E88" d="M256.691 538.229l-10.532 1.442 8.965-77.683-16.037 1.059-31.652 1.043 1.103-16.496h17.247l40.306-.261c.613-.004 1.216.158 1.744.469.528.31.962.759 1.255 1.296l3.174 5.795c.38.695.504 1.501.352 2.279l-15.925 81.057z"/>
    <path fill="#F9C0B2" d="M232.599 348.465l16.772-1.283c.444-.031.858-.231 1.157-.559.299-.329.46-.76.45-1.204l-.154-5.846 3.275.081-2.587-6.47-.85-1.387.071-9.849-20.935-.182 2.159 21.904.642 4.795z"/>
    <path fill="#F9C0B2" d="M232.455 360.893l9.344.657c.242.017.48-.064.663-.223.183-.159.295-.385.312-.627l1.074-15.466-11.771-.826-1.043 14.863c-.013.2.013.401.077.59.064.19.165.365.297.516.132.151.293.274.472.362.18.089.375.141.575.154z"/>
    <path fill="#364766" d="M251.982 322.447c-.175-.624-.483-1.369-.548-1.583-1.168-3.844-9.08-4.605-9.08-4.605l-7.51.208c-.42.123-3.405 1.938-3.684 2.272l-3.651 4.899c-.365.441-1.267 4.459-1.215 5.028l2.258 8.107c.023.257.093.508.206.74l1.006 2.546c.092.187.371 1.233.522 1.387l1.406 1.935 4.352-.191c.666-.025 1.313-.232 1.869-.6s1-.882 1.283-1.486c.728-1.564 1.497-3.671 1.043-4.8-.886-2.264-1.363-4.452-.216-5.177 1.275-.805 1.614.947 2.271 1.09.537.115.733-2.897.712-3.256-.006-.284.019-.567.076-.845.613-.407.086-.699 1.682-.378 2.412.487 2.5 1.199 4.735-2.754.608-1.077.506-2.464.227-3.004.24.116.47.25.691.399.522 1.006.193 2.292.334 2.266.587-.117 1.421-1.554 1.231-2.198z"/>
    <path fill="#005486" d="M244.205 347.55l.464-.725 3.354-1.215c.452-.12.867-.353 1.203-.679.336-.325.584-.732.719-1.18l.938-1.862.026.913.068 2.607c.011.444-.15.875-.45 1.204-.299.328-.713.528-1.156.559l-5.166.378z" opacity=".2"/>
    <path fill="#F9C0B2" d="M276.621 396.18l4.561-1.925 5.44.665 6.164 4.595-1.523.67-.915-.636-4.824 2.441-.566-1.771-.605-.266-4.084 1.39-3.152.318-5.581 2.055v-5.964l5.085-1.572z"/>
    <path fill="#7ACFD1" d="M242.664 418.305l.84-.3c1.335-.479 2.436-1.452 3.073-2.72.638-1.267.765-2.731.353-4.088l-18.177-50.392c-.323-1.065-.858-2.054-1.574-2.906-.716-.851-1.598-1.549-2.592-2.049-.994-.501-2.079-.794-3.189-.862-1.111-.068-2.224.09-3.272.466-1.047.376-2.007.96-2.821 1.718-.814.758-1.466 1.674-1.916 2.692-.45 1.017-.688 2.116-.7 3.228-.012 1.113.202 2.216.629 3.243l22.381 48.888c.545 1.309 1.571 2.358 2.867 2.932 1.297.573 2.764.627 4.098.15z"/>
    <path fill="#364766" d="M275.716 404.276l-1.494-7.841s-27.698 7.491-36.507 12.321c-2.678 1.465-3.716 4.751-1.81 7.137l.642.782c1.906 2.386 4.487 2.443 7.783.96l31.386-13.359z"/>
    <path fill="#FBB157" d="M207.445 442.066h47.799l1.564-4.577 4.35-51.821-.055-12.021c-.746-12.694-4.383-18.305-11.45-18.676l-23.234-1.303c-13.74-.287-16.577 10.691-16.95 17.752l-.782 17.471-3.192 46.035 1.95 7.14z"/>
    <path fill="#F9C0B2" d="M308.828 395.553h3.826l10.67 5.797-.745 1.053-4.835-.237-5.959 1.883-4.758-.514-7.065 2.376-1.47-5.617 10.336-4.741z"/>
    <path fill="#FBB157" d="M264.61 422.422l.889-.091c1.41-.144 2.71-.824 3.632-1.899.922-1.076 1.396-2.464 1.323-3.879l-10.952-53.61c-.056-1.111-.338-2.199-.828-3.198-.489-.999-1.177-1.888-2.021-2.613-.844-.725-1.826-1.271-2.887-1.605-1.062-.334-2.18-.448-3.287-.337l-.983.159c-4.67.472-7.014 4.598-6.31 9.239l15.401 53.162c.213 1.403.957 2.67 2.078 3.54 1.121.869 2.533 1.275 3.945 1.132z"/>
    <path fill="#364766" d="M302.223 406.941l-1.26-8.605-40.23 14.274c-1.144.918-1.875 2.252-2.035 3.709-.159 1.458.267 2.918 1.184 4.062 1.912 2.38 4.561 2.706 7.855 1.215l34.486-14.655z"/>
    <path fill="#FBB157" d="M230.335 353.886l1.27-2.67 11.776.738 1.319 2.738-14.365-.806z"/>
    <path fill="#fff" d="M229.368 539.084h5.025v-51.445h-5.025v51.445zm28.233 5.025v-5.025h-51.446v5.025h51.446z"/>
    <path fill="#485E88" d="M216.306 548.628c0-1.269-.377-2.509-1.083-3.564-.705-1.055-1.707-1.878-2.88-2.363-1.173-.485-2.463-.612-3.708-.364-1.244.248-2.388.859-3.285 1.757-.897.897-1.508 2.041-1.755 3.286-.248 1.245-.121 2.535.365 3.707.486 1.173 1.309 2.175 2.364 2.88 1.055.705 2.296 1.081 3.565 1.081.843 0 1.678-.166 2.456-.489.779-.322 1.487-.795 2.083-1.391.596-.597 1.068-1.304 1.391-2.083.322-.779.488-1.614.487-2.457zm22.183 0c0-1.269-.377-2.509-1.083-3.564-.705-1.055-1.707-1.878-2.88-2.363-1.173-.485-2.463-.612-3.708-.364s-2.388.859-3.285 1.757c-.897.897-1.508 2.041-1.756 3.286-.247 1.245-.12 2.535.366 3.707.486 1.173 1.308 2.175 2.364 2.88 1.055.705 2.296 1.081 3.565 1.081.843 0 1.677-.166 2.456-.489.779-.322 1.487-.795 2.083-1.391.595-.597 1.068-1.304 1.39-2.083.323-.779.489-1.614.488-2.457zm22.184 0c-.001-1.269-.378-2.51-1.083-3.565-.706-1.055-1.708-1.877-2.881-2.362-1.173-.485-2.463-.612-3.708-.364s-2.388.86-3.285 1.758c-.897.898-1.508 2.041-1.755 3.286-.247 1.245-.12 2.536.366 3.708.487 1.172 1.31 2.174 2.365 2.879 1.056.705 2.297 1.081 3.566 1.08.843 0 1.677-.167 2.456-.489.778-.323 1.485-.796 2.081-1.392.596-.596 1.068-1.304 1.39-2.083.322-.779.488-1.613.488-2.456z"/>
    <path fill="#0083C7" d="M199.909 479.042h64.326c5.46 0 9.888-3.581 9.888-7.998s-4.433-7.998-9.888-7.998h-64.326c-5.46 0-9.888 3.581-9.888 7.998s4.428 7.998 9.888 7.998z"/>
    <path fill="#fff" d="M257.966 479.041s-24.199 21.596-51.788 0h51.788z"/>
    <path fill="#0083C7" d="M199.912 438.535h51.483c5.124 0 9.278-4.154 9.278-9.278v-40.121c0-5.124-4.154-9.278-9.278-9.278h-51.483c-5.124 0-9.278 4.154-9.278 9.278v40.121c0 5.124 4.154 9.278 9.278 9.278z"/>
    <path fill="#fff" d="M224.116 485.159h3.072v-69.037h-3.072v69.037z"/>
    <path fill="#D6EBF6" d="M330.047 309.163h-17.529v13.534h17.529v-13.534zm0 16.899h-17.529v6.767h17.529v-6.767zm0 10.134h-17.529v11.184h17.529v-11.184zm0 13.516h-17.529v13.533h17.529v-13.533z"/>
    <path fill="#F7FCFD" d="M147.197 239.634H0v98.255h147.197v-98.255z"/>
    <path fill="#58595B" d="M60.2733 252.513H20.2119v.978h40.0614v-.978z"/>
    <path fill="#0083C7" d="M43.9598 255.399H20.989v.978h22.9708v-.978z"/>
    <path fill="#F2706D" d="M26.3139 261.89h-5.6586v.978h5.6586v-.978z"/>
    <path fill="#0083C7" d="M43.3524 261.89H28.481v.978h14.8714v-.978z"/>
    <path fill="#58595B" d="M32.4759 264.969H26.593v.978h5.8829v-.978zm6.9365 0h-5.7161v.978h5.7161v-.978z"/>
    <path fill="#38B9C6" d="M52.6719 264.969h-10.209v.978h10.209v-.978z"/>
    <path fill="#F2706D" d="M36.9688 268.049h-4.9937v.978h4.9937v-.978z"/>
    <path fill="#58595B" d="M42.8517 268.049h-4.6598v.978h4.6598v-.978zm16.5348 0H44.6819v.978h14.7046v-.978zm35.0677 0H71.9814v.978h22.4728v-.978z"/>
    <path fill="#38B9C6" d="M107.104 268.049h-9.8203v.978h9.8203v-.978z"/>
    <path fill="#F2706D" d="M35.777 271.128h-3.8019v.978h3.8019v-.978z"/>
    <path fill="#58595B" d="M43.8502 271.128h-5.7159v.978h5.7159v-.978z"/>
    <path fill="#38B9C6" d="M65.7126 271.128h-20.809v.978h20.809v-.978z"/>
    <path fill="#0083C7" d="M67.8223 274.208H40.2437v.978h27.5786v-.978z"/>
    <path fill="#58595B" d="M40.244 277.287h-8.2689v.978h8.2689v-.978z"/>
    <path fill="#F2706D" d="M35.4146 280.367h-3.4395v.978h3.4395v-.978z"/>
    <path fill="#38B9C6" d="M43.7958 280.367h-5.3822v.978h5.3822v-.978z"/>
    <path fill="#58595B" d="M71.4835 280.367H47.4019v.978h24.0816v-.978zm-1.8877 3.08H38.6899v.978h30.9059v-.978zM39.3 286.526h-7.3249v.978H39.3v-.978z"/>
    <path fill="#F2706D" d="M37.6911 289.605h-5.716v.978h5.716v-.978z"/>
    <path fill="#0083C7" d="M42.4916 289.605h-3.1918v.978h3.1918v-.978z"/>
    <path fill="#58595B" d="M60.6073 289.605H45.6812v.978h14.9261v-.978z"/>
    <path fill="#38B9C6" d="M48.3458 292.686h-8.5453v.977h8.5453v-.977z"/>
    <path fill="#58595B" d="M85.964 292.686H51.8403v.977H85.964v-.977z"/>
    <path fill="#38B9C6" d="M100.504 292.686H89.1841v.977h11.3199v-.977z"/>
    <path fill="#58595B" d="M129.3 292.686h-25.247v.977H129.3v-.977zm-95.0509 3.079H21.2656v.978h12.9835v-.978zm17.2598 0H39.8005v.978h11.7084v-.978zm-10.613 3.08h-8.9208v.978h8.9208v-.978z"/>
    <path fill="#0083C7" d="M35.0832 301.924h-7.6013v.978h7.6013v-.978z"/>
    <path fill="#58595B" d="M29.3676 305.004h-8.102v.978h8.102v-.978z"/>
    <path fill="#F2706D" d="M25.7612 310.699h-4.4956v.978h4.4956v-.978z"/>
    <path fill="#58595B" d="M34.2516 310.699h-6.214v.978h6.214v-.978zm18.6418 0H35.9697v.978h16.9237v-.978zM39.4667 313.7H26.7048v.978h12.7619v-.978z"/>
    <path fill="#0083C7" d="M52.3409 313.7h-9.1007v.978h9.1007v-.978z"/>
    <path fill="#58595B" d="M57.7775 316.699H32.8066v.978h24.9709v-.978z"/>
    <path fill="#F2706D" d="M37.8577 319.701h-5.0511v.978h5.0511v-.978z"/>
    <path fill="#38B9C6" d="M43.7383 319.701h-3.6065v.978h3.6065v-.978z"/>
    <path fill="#58595B" d="M79.6949 319.701H46.0693v.978h33.6256v-.978zm10.1545 0h-6.7146v.978h6.7146v-.978zm-55.5981 2.997h-7.5465v.978h7.5465v-.978zm-2.6098 3.003H21.2656v.978h10.3759v-.978z"/>
    <path fill="#485E88" d="M1.49418 237.271H145.697c.396 0 .777.158 1.057.438.28.28.437.66.437 1.057v3.233H0v-3.233c0-.397.15742-.777.43764-1.057.28021-.28.66026-.438 1.05654-.438z"/>
    <path fill="#58595B" d="M485.859 165.408h-35.871v1.39h35.871v-1.39z"/>
    <path fill="#F7FCFD" d="M511.286 90.0298H302.145V229.634h209.141V90.0298z"/>
    <path fill="#58595B" d="M387.785 108.327h-56.922v1.39h56.922v-1.39z"/>
    <path fill="#0083C7" d="M364.606 112.429h-32.64v1.39h32.64v-1.39z"/>
    <path fill="#F2706D" d="M339.536 121.652h-8.042v1.39h8.042v-1.39z"/>
    <path fill="#0083C7" d="M363.74 121.652h-21.13v1.39h21.13v-1.39z"/>
    <path fill="#58595B" d="M348.287 126.028h-8.358v1.39h8.358v-1.39zm9.854 0h-8.12v1.39h8.12v-1.39z"/>
    <path fill="#38B9C6" d="M376.985 126.028h-14.507v1.39h14.507v-1.39z"/>
    <path fill="#F2706D" d="M354.671 130.403h-7.096v1.39h7.096v-1.39z"/>
    <path fill="#58595B" d="M363.028 130.403h-6.621v1.39h6.621v-1.39zm23.495 0H365.63v1.39h20.893v-1.39zm49.827 0h-31.931v1.39h31.931v-1.39z"/>
    <path fill="#38B9C6" d="M454.325 130.403h-13.954v1.39h13.954v-1.39z"/>
    <path fill="#F2706D" d="M352.976 134.779h-5.401v1.39h5.401v-1.39z"/>
    <path fill="#58595B" d="M364.447 134.779h-8.12v1.39h8.12v-1.39z"/>
    <path fill="#38B9C6" d="M395.512 134.779h-29.566v1.39h29.566v-1.39z"/>
    <path fill="#0083C7" d="M398.505 139.155h-39.182v1.39h39.182v-1.39z"/>
    <path fill="#58595B" d="M359.323 143.531h-11.748v1.39h11.748v-1.39z"/>
    <path fill="#F2706D" d="M352.465 147.906h-4.89v1.39h4.89v-1.39z"/>
    <path fill="#38B9C6" d="M364.371 147.906h-7.648v1.39h7.648v-1.39z"/>
    <path fill="#58595B" d="M403.71 147.906h-34.218v1.39h34.218v-1.39zm-2.678 4.375h-43.915v1.39h43.915v-1.39zm-43.05 4.376h-10.407v1.39h10.407v-1.39z"/>
    <path fill="#F2706D" d="M355.695 161.033h-8.12v1.39h8.12v-1.39z"/>
    <path fill="#0083C7" d="M362.515 161.033h-4.533v1.39h4.533v-1.39z"/>
    <path fill="#58595B" d="M388.257 161.033h-21.208v1.39h21.208v-1.39z"/>
    <path fill="#38B9C6" d="M370.833 165.408h-12.141v1.39h12.141v-1.39z"/>
    <path fill="#58595B" d="M424.287 165.408H375.8v1.39h48.487v-1.39z"/>
    <path fill="#38B9C6" d="M444.942 165.408h-16.084v1.39h16.084v-1.39z"/>
    <path fill="#58595B" d="M350.809 169.784H332.36v1.39h18.449v-1.39zm24.517 0h-16.634v1.39h16.634v-1.39zm-15.078 4.376h-12.673v1.39h12.673v-1.39z"/>
    <path fill="#0083C7" d="M351.993 178.535h-10.801v1.39h10.801v-1.39z"/>
    <path fill="#58595B" d="M343.87 182.911h-11.51v1.39h11.51v-1.39z"/>
    <path fill="#F2706D" d="M338.746 191.004h-6.386v1.39h6.386v-1.39z"/>
    <path fill="#58595B" d="M350.809 191.004h-8.83v1.39h8.83v-1.39zm26.488 0h-24.045v1.39h24.045v-1.39zm-19.077 4.261h-18.134v1.39h18.134v-1.39z"/>
    <path fill="#0083C7" d="M376.51 195.265h-12.929v1.39h12.929v-1.39z"/>
    <path fill="#58595B" d="M384.236 199.529h-35.477v1.39h35.477v-1.39z"/>
    <path fill="#F2706D" d="M355.932 203.79h-7.173v1.389h7.173v-1.389z"/>
    <path fill="#38B9C6" d="M364.29 203.79h-5.123v1.389h5.123v-1.389z"/>
    <path fill="#58595B" d="M415.379 203.79h-47.777v1.389h47.777v-1.389zm14.426 0h-9.539v1.389h9.539v-1.389zm-78.996 4.263h-10.723v1.39h10.723v-1.39zm-3.706 4.263H332.36v1.39h14.743v-1.39z"/>
    <path fill="#485E88" d="M304.267 86.6709h204.894c.564 0 1.104.2239 1.503.6225.398.3985.622.9391.622 1.5027v4.592H302.153v-4.605c.003-.5596.227-1.0953.623-1.4907s.932-.6188 1.491-.6215z"/>
    <path fill="#F2706D" d="M515.344 266.469c3.689-3.687 6.263-8.341 7.423-13.426 1.161-5.085.862-10.395-.862-15.317-1.725-4.923-4.804-9.259-8.884-12.508-4.081-3.25-8.995-5.281-14.179-5.859-5.184-.579-10.426.318-15.122 2.587-4.697 2.269-8.657 5.819-11.424 10.24-2.768 4.421-4.231 9.534-4.221 14.749.011 5.216 1.494 10.323 4.279 14.733l-1.077 9.714 9.714-1.08c5.312 3.352 11.605 4.798 17.848 4.102 6.242-.697 12.062-3.495 16.505-7.935z"/>
    <path fill="#fff" d="M485.108 246.92c1.564 0 1.786-.864 1.786-1.635-.015-.622-.074-1.241-.175-1.854-.102-.604-.161-1.214-.177-1.826 0-2.031 1.325-2.892 3.202-2.892h.464v1.213h-.399c-1.303 0-1.744.707-1.744 1.901.01.525.061 1.048.154 1.564.098.554.15 1.115.156 1.677.021 1.413-.597 2.12-1.59 2.386v.044c.993.243 1.611.994 1.59 2.407-.005.563-.057 1.125-.156 1.68-.093.524-.144 1.055-.154 1.588 0 1.236.521 1.921 1.744 1.921h.399v1.216h-.464c-1.825 0-3.202-.783-3.202-3.028.015-.607.075-1.211.177-1.81.101-.591.16-1.189.175-1.788 0-.684-.219-1.633-1.786-1.633v-1.131zm20.676 1.126c-1.565 0-1.792.95-1.792 1.633.017.599.076 1.197.178 1.789.103.598.162 1.203.177 1.809 0 2.232-1.39 3.028-3.202 3.028h-.464v-1.215h.375c1.239-.021 1.768-.686 1.768-1.922-.02-.532-.071-1.062-.154-1.588-.106-.554-.165-1.116-.177-1.68 0-1.413.618-2.164 1.591-2.406v-.045c-.973-.261-1.591-.972-1.591-2.386.013-.563.072-1.123.177-1.676.082-.518.134-1.041.154-1.565 0-1.194-.464-1.878-1.744-1.901h-.399v-1.213h.443c1.877 0 3.223.861 3.223 2.892-.016.612-.075 1.222-.177 1.826-.102.613-.161 1.232-.178 1.854 0 .782.222 1.635 1.792 1.635v1.131z"/>
    
    <g  class="animate__animated animate__bounce">
    <path fill="#0083C7" d="M566.962 447.363s41.873 30.598 20.371 93.321l5.854.355s17.529-62.776-26.225-93.676zm77.393 5.235s-43.11 21.122-33.665 81.749l-5.39-.626s-5.797-60.038 39.055-81.123z"/>
    <path fill="#85D2DA" d="M569.698 458.11c4.224-7.202 6.6-16.723 7.562-21.242-1.401-1.319-1.826-3.306-2.172-5.356-.384-2.274-2.608-7.791-2.608-7.791-.73-4.308-5.437-5.8-8.668-2.743l-10.029 9.486c-7.617 7.2-10.621 18.545-7.453 28.131l7.756 17.857c.49 1.481 1.403 6.284 2.719 9.064.282-1.004.551-3.129.783-4.097 3.189-13.014 6.373-13.533 12.11-23.309z"/>
    <path fill="#38B9C6" d="M560.081 483.925l19.328-10.934c9.958-5.633 16.814-16.559 17.846-28.441l.746-8.606c.407-4.693-2.764-6.555-7.755-5.64-1.924.352-3.875 1.145-7.539 2.897-1.617.782-3.77 3.291-5.45 3.651-.959 4.519-3.335 14.039-7.562 21.242-5.737 9.775-8.921 10.294-12.107 23.309-.235.957-.504 3.093-.783 4.097 1.174-.978 2.186-.96 3.276-1.575zm74.125-40.832c-1.249.501-2.751.261-4.042-.933l-6.225-5.737c-2.834-2.608-5.567-1.476-5.178 2.592.14 1.473-.212 6.584-.212 6.584-.073 10.355 3.539 17.01 10.337 23.857 3.129 3.15 8.282 10.191 11.894 13.169.855.706 4.769 4.3 5.637 4.154-1.473-8.141-3.859-17.526-6.842-24.684-2.504-6.11-4.306-12.485-5.369-19.002z"/>
    <path fill="#85D2DA" d="M648.895 480.045c2.151-3.593 5.45-11.995 5.974-17.043.613-5.93-.827-14.48-6.3-21.667-1.805-2.365-2.039-7.601-3.077-10.005-1.52-3.515-6.339-1.865-7.19 2.253-.396 1.924-1.754 6.61-1.754 6.61-.368 1.486-1.263 2.467-2.347 2.9 1.064 6.512 2.865 12.883 5.369 18.988 2.983 7.158 5.369 16.543 6.842 24.684.996-2.79-.584-1.593 2.483-6.72z"/>
    <path fill="#0083C7" d="M611.237 445.231s-3.345 13.995-6.519 40.285c-1.4 11.552-1.027 24.379-1.564 36.812h1.914s-1.359-18.303.579-36.637c2.242-21.244 5.63-36.921 6.232-40.89 1.184-7.922-.642.43-.642.43z"/>
    <path fill="#FBB157" d="M609.198 457.768c-1.841-.378-2.005-3.332-1.392-5.768 1.51-5.997 3.724-16.23 5.549-21.453.813-2.323 1.218-4.255 1.909-4.221l.38.036c.743.389.981 2.115.801 3.635-.707 5.964-2.529 17.732-3.812 23.826-.519 2.462-1.591 4.326-3.435 3.945z"/>
    <path fill="#38B9C6" d="M577.208 480.835s7.327 4.373 12.694 22.426c5.366 18.052 8.944 20 8.944 20l-1.648.655c-4.006-7.455-8.084-16.073-9.714-22.874-3.661-15.216-10.276-20.207-10.276-20.207z"/>
    <path fill="#85D2DA" d="M592.546 517.008s-5.935-9.429-7.74-19.489c-1.804-10.06-5.567-14.629-7.598-16.689 0 0 6.615 4.988 10.276 20.207 1.635 6.8 5.708 15.418 9.714 22.874l-.97.385-3.682-7.288z"/>
    <path fill="#38B9C6" d="M629.163 474.903s-8.024 4.91-13.719 24.876c-5.695 19.967-9.617 22.165-9.617 22.165l1.825.702c4.324-8.269 8.707-17.818 10.431-25.333 3.846-16.83 11.08-22.41 11.08-22.41z"/>
    <path fill="#85D2DA" d="M612.695 514.964s6.428-10.467 8.295-21.578c1.867-11.111 5.956-16.194 8.173-18.483 0 0-7.234 5.58-11.083 22.399-1.721 7.515-6.104 17.064-10.431 25.333l1.075.415 3.971-8.086z"/>
    <path fill="#38B9C6" d="M617.496 460.887s-7.536 6.821-9.583 29.168c-2.047 22.348-5.771 25.456-5.771 25.456l2.086.381c2.934-9.648 5.677-20.671 5.998-28.997.704-18.634 7.27-26.008 7.27-26.008z"/>
    <path fill="#85D2DA" d="M608.038 506.731s4.725-12.404 4.482-24.577c-.242-12.172 3.08-18.391 4.973-21.267 0 0-6.563 7.374-7.278 26.008-.32 8.326-3.064 19.349-5.997 28.997l1.223.221 2.597-9.382z"/>
    <path fill="#38B9C6" d="M599.521 445.445s7.886 10.876 4.433 40.327c-3.452 29.45.522 34.485.522 34.485l-2.79-.075c-1.163-13.276-1.703-28.27.153-39.115 4.16-24.297-2.318-35.622-2.318-35.622z"/>
    <path fill="#85D2DA" d="M599.242 507.297s-2.727-17.325.905-32.999c3.633-15.674 1.043-24.616-.634-28.853 0 0 6.478 11.325 2.324 35.612-1.857 10.856-1.304 25.849-.154 39.114l-1.643-.044-.798-12.83z"/>
    <path fill="#485E88" d="M620.106 554.526h-38.585l-.835-9.34-2.704-1.369-2.459-27.56-2.07-.349-.78-5.132h56.249l-.779 5.116-2.107.469-2.691 27.232-2.318 1.611-.921 9.322z"/>
  </g>
  </g>
</svg>
