<svg width="482" height="415" viewBox="0 0 482 415" fill="none" xmlns="http://www.w3.org/2000/svg">
<path d="M462.746 374.748L462.791 382.939H461.771L459.096 373.931L462.746 374.748Z" fill="#2B455F"/>
<path d="M468.414 386.547C468.414 387.718 468.067 388.863 467.417 389.837C466.766 390.811 465.842 391.57 464.761 392.018C463.68 392.466 462.49 392.584 461.342 392.355C460.194 392.127 459.14 391.563 458.312 390.734C457.485 389.906 456.921 388.851 456.693 387.702C456.465 386.553 456.582 385.363 457.03 384.281C457.478 383.198 458.236 382.274 459.209 381.623C460.182 380.972 461.326 380.625 462.497 380.625C464.066 380.625 465.571 381.249 466.681 382.359C467.79 383.47 468.414 384.976 468.414 386.547Z" fill="#231F20"/>
<path opacity="0.2" d="M159.493 414.932C185.024 414.932 205.72 413.581 205.72 411.914C205.72 410.248 185.024 408.896 159.493 408.896C133.963 408.896 113.267 410.248 113.267 411.914C113.267 413.581 133.963 414.932 159.493 414.932Z" fill="#005386"/>
<path opacity="0.2" d="M322.115 414.932C349.687 414.932 372.038 413.581 372.038 411.914C372.038 410.248 349.687 408.896 322.115 408.896C294.544 408.896 272.193 410.248 272.193 411.914C272.193 413.581 294.544 414.932 322.115 414.932Z" fill="#005386"/>
<path opacity="0.2" d="M478.117 389.202H3.24201C1.4515 389.202 0 390.654 0 392.446V392.514C0 394.306 1.4515 395.759 3.24201 395.759H478.117C479.907 395.759 481.359 394.306 481.359 392.514V392.446C481.359 390.654 479.907 389.202 478.117 389.202Z" fill="#005386"/>
<path d="M78.9646 382.939L78.9193 374.748L50.3533 368.327H43.3025L14.4418 374.748V377.993H14.4645L14.4418 382.939H15.462L17.0264 377.652L43.3705 373.976H50.1946L76.244 377.176L77.9444 382.939H78.9646Z" fill="#2B455F"/>
<path d="M20.2912 386.547C20.2911 387.721 19.9423 388.869 19.289 389.844C18.6358 390.819 17.7076 391.578 16.6224 392.024C15.5372 392.47 14.344 392.584 13.1943 392.35C12.0447 392.115 10.9905 391.545 10.1657 390.71C9.34096 389.875 8.78283 388.813 8.56225 387.66C8.34167 386.507 8.4686 385.314 8.92691 384.233C9.38521 383.152 10.1542 382.232 11.1362 381.589C12.1182 380.947 13.2688 380.611 14.442 380.625C15.9995 380.643 17.4872 381.274 18.5822 382.383C19.6772 383.492 20.2913 384.988 20.2912 386.547Z" fill="#231F20"/>
<path d="M84.587 386.547C84.5915 387.724 84.2464 388.877 83.5954 389.858C82.9445 390.839 82.017 391.604 80.9307 392.057C79.8444 392.51 78.6482 392.63 77.4939 392.401C76.3395 392.172 75.2791 391.606 74.447 390.773C73.6149 389.94 73.0487 388.879 72.8203 387.724C72.5918 386.568 72.7114 385.371 73.1637 384.284C73.6161 383.197 74.381 382.268 75.3612 381.617C76.3415 380.965 77.4931 380.62 78.6698 380.625C80.2391 380.625 81.7442 381.248 82.8539 382.359C83.9636 383.47 84.587 384.976 84.587 386.547Z" fill="#231F20"/>
<path d="M462.746 377.516L434.021 373.976H427.197L398.269 377.993V374.748L427.129 368.327H434.203L462.746 374.748V377.516Z" fill="#2B455F"/>
<path d="M398.268 374.748L398.2 382.939H399.243L401.896 373.931L398.268 374.748Z" fill="#2B455F"/>
<path d="M404.118 386.547C404.118 387.718 403.771 388.863 403.12 389.837C402.47 390.811 401.546 391.57 400.465 392.018C399.384 392.466 398.194 392.584 397.046 392.355C395.898 392.127 394.844 391.563 394.016 390.734C393.189 389.906 392.625 388.851 392.397 387.702C392.168 386.553 392.286 385.363 392.734 384.281C393.181 383.198 393.94 382.274 394.913 381.623C395.886 380.972 397.03 380.625 398.2 380.625C399.77 380.625 401.275 381.249 402.384 382.359C403.494 383.47 404.118 384.976 404.118 386.547Z" fill="#231F20"/>
<path d="M432.661 0H44.2092V220.297H432.661V0Z" fill="white"/>
<path d="M114.831 220.297H44.2092V196.563H105.671L114.831 206.048V220.297Z" fill="#F1F2F2"/>
<path d="M48.8342 196.563H44.2092V371.322H48.8342V196.563Z" fill="#2B455F"/>
<path d="M432.661 196.563H428.036V370.777H432.661V196.563Z" fill="#2B455F"/>
<path d="M141.878 375.338L133.761 389.043L139.996 394.806L149.495 378.288L141.878 375.338Z" fill="#FAC0B3"/>
<path d="M127.164 397.824L145.074 406.9L155.435 409.169L155.866 408.352C156.084 407.926 156.162 407.442 156.088 406.97C156.015 406.497 155.794 406.059 155.458 405.72L147.183 404.767L139.611 394.261L143.034 388.248L136.867 384.368L132.333 391.017L128.343 395.555L127.164 397.824Z" fill="#FAC0B3"/>
<path d="M155.458 405.743L148.044 404.291H147.75L141.175 400.161L131.608 391.085L128.434 395.623L127.164 397.892L145.052 408.148L155.435 409.26L155.866 408.443C156.1 408.009 156.187 407.512 156.113 407.024C156.04 406.537 155.81 406.087 155.458 405.743Z" fill="#16242D"/>
<path d="M158.768 384.754L158.133 400.66L166.34 402.77L166.861 383.733L158.768 384.754Z" fill="#FAC0B3"/>
<path d="M160.4 98.9286C159.75 100.981 159.926 103.207 160.892 105.131C161.858 107.055 163.536 108.526 165.569 109.23C166.597 109.474 167.663 109.512 168.705 109.34C169.747 109.168 170.745 108.79 171.639 108.228C172.534 107.666 173.308 106.932 173.916 106.068C174.525 105.203 174.955 104.227 175.182 103.194C175.797 101.16 175.603 98.9659 174.64 97.0714C173.676 95.1769 172.019 93.7285 170.013 93.0292C168.994 92.7764 167.936 92.7289 166.899 92.8895C165.862 93.0501 164.867 93.4155 163.972 93.9645C163.078 94.5135 162.301 95.2352 161.688 96.0874C161.075 96.9396 160.637 97.9054 160.4 98.9286Z" fill="#132233"/>
<path d="M152.851 130.172L170.081 129.106C170.811 129.062 171.509 128.792 172.078 128.332C172.647 127.873 173.058 127.247 173.255 126.542L175.069 120.302L176.452 119.44L175.318 111.453L173.051 98.7241L151.037 100.108L152.851 130.172Z" fill="#FAC0B3"/>
<path d="M152.692 139.861L163.302 139.679L160.99 125.112L152.465 124.273L152.692 139.861Z" fill="#FAC0B3"/>
<path d="M156.863 411.188L186.926 411.914V411.37C186.913 410.893 186.75 410.433 186.461 410.054C186.173 409.676 185.772 409.397 185.316 409.259L173.142 406.015L165.887 402.498L166.045 395.691L158.791 395.169L157.997 403.156L156.614 408.987L156.863 411.188Z" fill="#FAC0B3"/>
<path d="M146.684 384.21L138.59 378.582L178.515 304.999L158.564 222.021L185.543 222.657L198.329 303.819C198.725 305.745 198.699 307.735 198.253 309.65C197.806 311.566 196.951 313.362 195.745 314.914L146.684 384.21Z" fill="#04698E"/>
<path d="M168.086 389.406H157.725L157.045 313.916L150.878 260.209L147.818 248.161C146.483 245.76 145.67 243.104 145.432 240.367C145.193 237.63 145.535 234.873 146.435 232.278L150.062 221.613L181.984 222.952L175.545 310.354L168.086 389.406Z" fill="#058CBD"/>
<path d="M185.316 225.811L149.495 222.181C149.305 222.164 149.121 222.1 148.962 221.994C148.803 221.888 148.673 221.743 148.585 221.573C148.497 221.404 148.453 221.214 148.457 221.023C148.462 220.831 148.515 220.644 148.611 220.479L150.878 203.325L149.79 174.917C145.256 164.117 141.901 141.245 149.79 138.023C150.652 137.66 151.468 134.733 152.397 134.643L163.121 136.276L164.663 137.955C171.464 155.744 184.024 154.269 183.48 174.1L186.745 218.187C186.903 225.176 186.178 225.902 185.316 225.811Z" fill="#57C5C7"/>
<path d="M232.745 194.975L221.749 193.455L218.847 191.867H219.482L222.678 191.39V189.643H218.756H216.081H213.61H209.665L177.29 188.963L163.098 147.281C162.407 145.304 160.959 143.683 159.073 142.775C157.187 141.866 155.018 141.745 153.043 142.437C151.068 143.129 149.448 144.578 148.541 146.465C147.633 148.352 147.511 150.523 148.203 152.5L165.66 196.065C166.409 197.571 167.579 198.828 169.028 199.681C170.477 200.535 172.142 200.95 173.822 200.875L204.088 195.406L209.552 194.658L219.391 198.288L232.994 197.358L232.745 194.975Z" fill="#FAC0B3"/>
<path d="M176.769 186.489L163.166 147.281C162.855 146.297 162.352 145.385 161.687 144.597C161.022 143.808 160.208 143.159 159.291 142.687C158.375 142.215 157.374 141.928 156.346 141.844C155.319 141.76 154.285 141.881 153.304 142.198C148.997 143.582 146.344 153.838 148.974 158.694L163.37 196.563C164.753 199.762 169.106 201.419 173.799 201.419L176.066 201.169C177.132 201.01 181.643 193.296 181.847 188.849C181.825 187.805 176.769 186.489 176.769 186.489Z" fill="#57C5C7"/>
<path d="M172.733 102.944C172.877 101.433 172.612 99.9112 171.965 98.538C171.319 97.1647 170.316 95.9907 169.061 95.1389L171.01 93.3463C151.762 84.5426 145.301 96.9767 143.986 105.009C143.465 107.925 142.761 110.804 141.878 113.631C139.921 114.586 138.248 116.037 137.027 117.841C135.805 119.644 135.078 121.737 134.918 123.91C134.817 125.178 134.901 126.455 135.167 127.699C131.948 129.605 129.544 135.572 129.159 139.861C128.547 146.668 137.593 152.363 143.827 153.044C148.838 153.588 153.304 148.029 155.163 143.219C159.199 143.582 158.428 140.814 158.836 136.412C158.94 135.214 158.792 134.007 158.402 132.87C158.011 131.733 157.387 130.69 156.569 129.809C156.949 128.926 157.238 128.006 157.43 127.064C158.29 125.828 158.814 124.389 158.949 122.889C158.983 122.496 158.983 122.101 158.949 121.709C160.388 120.56 161.401 118.963 161.828 117.171C165.547 116.944 165.456 114.63 165.841 110.364C165.841 110.228 169.083 109.275 169.083 109.161C170.123 108.47 170.992 107.551 171.624 106.474C172.257 105.397 172.636 104.19 172.733 102.944Z" fill="#132233"/>
<path d="M188.037 409.26L177.948 407.285H177.653L169.922 406.786L157.272 403.383L156.614 408.874V411.551L189.76 412.277V411.37C189.74 410.879 189.561 410.407 189.25 410.027C188.939 409.646 188.513 409.377 188.037 409.26Z" fill="#16242D"/>
<path opacity="0.4" d="M251.993 48.9876H275.027L269.835 25.2085L250.973 26.1388L251.993 48.9876Z" fill="#8BA4B7"/>
<path d="M271.173 48.9876H248.41V25.2085H269.835L271.173 48.9876Z" fill="#F68B3C"/>
<path d="M256.006 33.7856C255.034 33.7647 254.065 33.6814 253.104 33.536L253.24 32.515C255.012 32.9018 256.853 32.8315 258.59 32.3108L259.452 31.8796C260.078 31.5197 260.76 31.2667 261.469 31.1309C262.521 31.0404 263.568 31.3571 264.394 32.0158L263.782 32.8553C263.149 32.3297 262.334 32.0768 261.515 32.1519C260.931 32.2815 260.373 32.5037 259.86 32.8099L258.907 33.2637C257.981 33.6186 256.997 33.7957 256.006 33.7856Z" fill="white"/>
<path d="M257.706 38.0737C256.21 38.0737 254.713 38.0737 253.172 37.8922V36.8712C255.652 37.1094 258.15 37.1094 260.63 36.8712C261.739 36.7313 262.837 36.5191 263.918 36.2358L264.167 37.2569C263.046 37.5288 261.911 37.7409 260.766 37.8922C259.751 38.0134 258.729 38.0741 257.706 38.0737Z" fill="white"/>
<path d="M262.24 43.7688L260.608 43.6326C258.35 43.3824 256.078 43.2687 253.806 43.2923V42.2712C256.116 42.2391 258.425 42.3452 260.721 42.5889L262.354 42.7477L262.24 43.7688Z" fill="white"/>
<path opacity="0.4" d="M232.949 65.1885L229.117 89.5802H253.92L252.627 66.4137L232.949 65.1885Z" fill="#8BA4B7"/>
<path d="M257.638 91.282L234.218 90.3744L232.949 65.1885L255.643 66.5953L257.638 91.282Z" fill="#57C5C7"/>
<path d="M251.38 74.5137C249.629 74.0888 247.831 73.8905 246.03 73.9237C243.716 74.0279 241.405 73.6731 239.229 72.88L239.637 71.9497C241.681 72.6653 243.843 72.9887 246.007 72.9027C247.892 72.8695 249.774 73.0754 251.607 73.5153L251.38 74.5137Z" fill="white"/>
<path d="M249.227 78.9612C248.118 78.3226 246.892 77.9137 245.622 77.7587C244.942 77.7587 244.194 77.6452 243.536 77.6225L236.735 77.4864V76.4653L243.536 76.6015C244.294 76.601 245.051 76.6464 245.803 76.7376C247.206 76.9133 248.561 77.3603 249.794 78.0536L249.227 78.9612Z" fill="white"/>
<path d="M240.249 82.9092C239.274 82.9092 238.299 82.9092 237.347 82.773V81.752C239.272 81.9875 241.222 81.9263 243.128 81.5705L243.944 81.3436L244.602 81.162C246.037 80.7939 247.524 80.6712 249 80.799V81.82C247.645 81.7046 246.281 81.8197 244.965 82.1604L244.33 82.3419L243.468 82.5688C242.414 82.8164 241.332 82.9307 240.249 82.9092Z" fill="white"/>
<path opacity="0.4" d="M201.481 65.6875L203.997 89.0128H180.17L181.371 65.6875H201.481Z" fill="#8BA4B7"/>
<path d="M198.896 90.8507H177.494L180.056 65.6875H201.481L198.896 90.8507Z" fill="#E7D893"/>
<path d="M193.183 74.0148C190.414 74.0185 187.656 73.6678 184.976 72.971L185.225 71.9727C188.812 72.9004 192.532 73.1998 196.221 72.8576V73.8786C195.269 73.9694 194.226 74.0148 193.183 74.0148Z" fill="white"/>
<path d="M183.412 78.4169H183.049V77.3958C184.387 77.3958 185.815 77.3958 187.175 77.2143C189.614 76.9077 192.082 76.9077 194.521 77.2143L194.317 78.2354C191.973 77.9027 189.597 77.8646 187.243 78.1219C185.996 78.3261 184.704 78.4169 183.412 78.4169Z" fill="white"/>
<path d="M188.241 83.2496C186.265 83.2532 184.29 83.1548 182.324 82.9546V81.9336C185.375 82.2287 188.444 82.2969 191.505 82.1378V83.1589C190.531 83.2269 189.397 83.2496 188.241 83.2496Z" fill="white"/>
<path d="M190.644 87.9467C189.465 87.9467 188.377 87.6517 187.13 87.4702C185.352 87.0787 183.53 86.9185 181.711 86.9937V85.9727C183.621 85.8802 185.534 86.0404 187.402 86.4492C188.527 86.6652 189.662 86.8243 190.803 86.9257L190.644 87.9467Z" fill="white"/>
<path opacity="0.4" d="M303.502 65.6875L306.041 89.0128H282.191L283.393 65.6875H303.502Z" fill="#8BA4B7"/>
<path d="M300.94 90.8507H279.516L282.078 65.6875H303.502L300.94 90.8507Z" fill="#058CBD"/>
<path d="M295.204 74.0148C292.443 74.0201 289.692 73.6693 287.02 72.971L287.269 71.9727C290.856 72.9004 294.576 73.1998 298.265 72.8576V73.8786C297.313 73.9694 296.247 74.0148 295.204 74.0148Z" fill="white"/>
<path d="M285.433 78.4169H285.07V77.3958C286.385 77.3958 287.814 77.3958 289.174 77.2143C291.613 76.9077 294.08 76.9077 296.519 77.2143L296.338 78.2354C293.987 77.9025 291.603 77.8644 289.242 78.1219C288.018 78.3261 286.725 78.4169 285.433 78.4169Z" fill="white"/>
<path d="M290.285 83.2496C288.309 83.2538 286.333 83.1553 284.367 82.9546V81.9336C287.426 82.2289 290.503 82.2971 293.572 82.1378V83.1589C292.575 83.2269 291.418 83.2496 290.285 83.2496Z" fill="white"/>
<path d="M292.665 87.9463C291.486 87.9463 290.398 87.6513 289.174 87.4698C287.388 87.079 285.559 86.9189 283.733 86.9933V85.9723C285.635 85.8796 287.541 86.0398 289.4 86.4487C290.534 86.653 291.668 86.8345 292.824 86.9252L292.665 87.9463Z" fill="white"/>
<path d="M273.984 226.401L269.835 230.735L268.588 232.005L264.938 233.412L260.154 236.884C260.154 236.884 261.22 237.859 261.673 237.905C262.481 237.793 263.254 237.506 263.94 237.065L261.673 239.947L258.341 244.167C258.26 244.27 258.204 244.389 258.176 244.516C258.149 244.644 258.15 244.775 258.181 244.902C258.211 245.029 258.27 245.147 258.353 245.247C258.435 245.348 258.54 245.429 258.658 245.483L265.346 247.752C265.623 247.841 265.918 247.859 266.203 247.803C266.488 247.748 266.755 247.621 266.978 247.434L271.966 242.556L274.233 238.018L276.16 235.409L279.244 230.689L273.984 226.401Z" fill="#FAC0B3"/>
<path d="M280.876 138.409L275.163 132.714L270.629 128.176L266.094 124.432L261.923 121.051C261.822 120.97 261.704 120.913 261.578 120.883C261.452 120.854 261.321 120.853 261.194 120.882C261.068 120.91 260.95 120.967 260.848 121.047C260.746 121.127 260.664 121.23 260.608 121.346L258.341 127.994C258.251 128.27 258.23 128.563 258.282 128.849C258.333 129.134 258.455 129.402 258.635 129.628L263.442 134.711L267.976 136.98L270.56 138.954L275.866 143.945L280.876 138.409Z" fill="#FAC0B3"/>
<path d="M271.173 141.812L277.294 133.667L307.855 158.83C308.545 159.306 309.312 159.659 310.122 159.873C310.122 159.873 337.917 135.867 349.842 133.939C353.697 133.303 356.644 138.477 355.669 142.153L355.442 143.06C354.445 146.849 350.296 150.616 347.235 153.066C335.31 162.642 324.995 175.166 314.838 177.141C311.567 177.817 308.169 177.518 305.066 176.278C294.887 171.513 271.173 141.812 271.173 141.812Z" fill="#E7D893"/>
<path d="M337.623 127.041L323 128.697L320.891 121.981L318.171 119.236L319.213 112.928L317.944 101.833H337.623V127.041Z" fill="#FAC0B3"/>
<path d="M337.622 123.434H328.849V137.728H337.622V123.434Z" fill="#FAC0B3"/>
<path d="M316.13 104.374L322.41 103.943L321.662 106.439L321.208 108.095L321.231 109.275L322.183 110.046L322.161 112.315L323.43 112.769L324.088 110.591L325.947 111.589L327.783 119.735L332.703 122.163L337.623 121.891L337.759 120.756L340.003 112.247L341.069 101.833L333.95 95.3887L326.922 94.2315L317.717 91.3271L310.825 95.6609L311.618 102.604L316.13 104.374Z" fill="#132233"/>
<path d="M307.832 414.365C306.812 415.454 301.892 414.819 301.892 414.819L280.808 413.276V412.323C280.814 411.833 280.979 411.358 281.277 410.969C281.576 410.581 281.992 410.299 282.463 410.167L290.874 408.692L297.222 404.154L298.492 400.728L306.971 400.978L307.084 405.334L307.832 411.665C307.832 411.665 308.286 413.866 307.832 414.365Z" fill="#16242D"/>
<path d="M358.48 411.869C357.46 412.981 352.54 412.323 352.54 412.323L331.456 410.802V409.849C331.462 409.36 331.627 408.885 331.925 408.496C332.224 408.108 332.64 407.826 333.111 407.694L341.522 406.196L347.87 401.658L349.14 398.232L357.619 398.504V402.838L358.367 409.169C358.367 409.169 359.047 411.37 358.48 411.869Z" fill="#16242D"/>
<path d="M308.059 402.498H295.975L297.29 319.838L300.94 237.587H339.436L318.783 323.877L308.059 402.498Z" fill="#395C7F"/>
<path d="M357.347 400.478L348.822 400.093C347.825 400.093 347.122 400.274 347.031 399.298L339.436 316.094L330.209 239.334H363.377L364.533 255.716L360.407 317.773L361.087 333.815L359.455 399.344C359.432 400.501 359.432 400.501 357.347 400.478Z" fill="#395C7F"/>
<path d="M365.078 241.444L297.834 242.783C297.834 242.783 303.162 195.134 304.182 179.251C304.704 171.446 305.134 153.112 305.384 141.994C305.439 139.514 306.414 137.144 308.12 135.344C309.826 133.545 312.14 132.446 314.611 132.26L327.103 131.307H338.008L348.686 132.169C351.379 132.374 353.897 133.584 355.74 135.559C357.584 137.535 358.618 140.131 358.639 142.834C358.775 154.179 359.024 172.331 359.478 180.159C360.385 195.611 365.078 241.444 365.078 241.444Z" fill="#E7D893"/>
<path d="M277.793 234.66L269.518 229.283L295.091 190.347C295.54 189.652 295.862 188.884 296.043 188.078L305.633 139.181C305.844 138.272 306.232 137.413 306.775 136.654C307.317 135.895 308.004 135.251 308.796 134.758C309.588 134.265 310.469 133.933 311.389 133.781C312.309 133.628 313.25 133.659 314.158 133.871L315.064 134.075C320.438 134.892 323.362 142.335 322.387 147.122C322.387 147.122 315.586 181.906 312.979 193.705C311.906 196.302 310.68 198.832 309.306 201.283C301.031 212.742 277.793 234.66 277.793 234.66Z" fill="#ECE0A9"/>
<path d="M266.049 138.182L243.106 135.3L249.25 108.685L272.193 111.589L266.049 138.182Z" fill="#F68B3C"/>
<path d="M262.172 119.395C259.21 119.002 256.308 118.239 253.534 117.126L253.942 116.082C257.656 117.563 261.6 118.384 265.595 118.51V119.622C264.417 119.607 263.275 119.531 262.172 119.395Z" fill="white"/>
<path d="M251.131 122.776H250.723L250.882 121.664C252.287 121.868 253.852 121.959 255.416 122.05C258.068 122.08 260.704 122.454 263.26 123.162L262.92 124.228C260.459 123.555 257.922 123.196 255.371 123.162C253.897 123.025 252.491 122.957 251.131 122.776Z" fill="white"/>
<path d="M255.643 128.607C253.534 128.334 251.426 127.971 249.363 127.495L249.59 126.406C252.818 127.149 256.101 127.635 259.406 127.858V128.97C258.114 128.879 256.89 128.766 255.643 128.607Z" fill="white"/>
<path d="M257.593 133.871C256.344 133.603 255.111 133.27 253.897 132.873C252.038 132.218 250.103 131.807 248.139 131.647V130.536C250.196 130.694 252.223 131.121 254.169 131.806C255.344 132.198 256.54 132.523 257.751 132.782L257.593 133.871Z" fill="white"/>
<path d="M273.417 131.103L272.283 126.724L269.359 121.573C269.359 121.573 268.271 122.526 268.18 122.98C268.354 124.385 268.784 125.747 269.45 126.996L269.654 131.534L271.921 132.555L273.417 131.103Z" fill="#FAC0B3"/>
</svg>
